/* XPM */
static char *result[] = {
/* columns rows colors chars-per-pixel */
"64 54 203 2 ",
"   c #030000",
".  c #0B0000",
"X  c #140100",
"o  c #1B0201",
"O  c #1E040A",
"+  c #1A0B0A",
"@  c #12000A",
"#  c #0B001E",
"$  c #000019",
"%  c #110012",
"&  c #230403",
"*  c #2C0204",
"=  c #230E07",
"-  c #26090C",
";  c #290608",
":  c #3A040C",
">  c #2C0B13",
",  c #2A0718",
"<  c #3D0314",
"1  c #370B16",
"2  c #261B16",
"3  c #341A14",
"4  c #34161D",
"5  c #3A121B",
"6  c #371615",
"7  c #39130B",
"8  c #33200F",
"9  c #3E2314",
"0  c #392815",
"q  c #0C0021",
"w  c #180429",
"e  c #1B1529",
"r  c #24052C",
"t  c #2E0429",
"y  c #320A2E",
"u  c #3F0A29",
"i  c #3D1C24",
"p  c #311429",
"a  c #3F1231",
"s  c #271C33",
"d  c #2E2424",
"f  c #242220",
"g  c #3C2622",
"h  c #3B2B26",
"j  c #3B332B",
"k  c #382A3F",
"l  c #373131",
"z  c #292B3B",
"x  c #490314",
"c  c #4A0B1C",
"v  c #430F10",
"b  c #590C1C",
"n  c #51081A",
"m  c #45181C",
"M  c #671D1D",
"N  c #4B310F",
"B  c #4D231B",
"V  c #47351A",
"C  c #593714",
"Z  c #61371D",
"A  c #400D24",
"S  c #4D0B26",
"D  c #4E0526",
"F  c #5D0D2D",
"G  c #550C25",
"H  c #481326",
"J  c #5F1421",
"K  c #5B1A25",
"L  c #5E112F",
"P  c #5C0F31",
"I  c #5C1132",
"U  c #561030",
"Y  c #720E29",
"T  c #6B1323",
"R  c #63122E",
"E  c #6C152D",
"W  c #651B2B",
"Q  c #6E1A2F",
"!  c #74122E",
"~  c #7D1B2C",
"^  c #771A29",
"/  c #621332",
"(  c #6A1433",
")  c #6C1934",
"_  c #731633",
"`  c #731A32",
"'  c #7B1B34",
"]  c #41262E",
"[  c #5B2021",
"{  c #463523",
"}  c #543524",
"|  c #4C2032",
" . c #463937",
".. c #55333B",
"X. c #6A242D",
"o. c #662426",
"O. c #752728",
"+. c #7B2233",
"@. c #782736",
"#. c #6E332C",
"$. c #574512",
"%. c #584120",
"&. c #6B422C",
"*. c #724B2B",
"=. c #65502C",
"-. c #322D42",
";. c #492C40",
":. c #483442",
">. c #583C40",
",. c #793544",
"<. c #4D4344",
"1. c #444443",
"2. c #5C4A49",
"3. c #52454B",
"4. c #5D534D",
"5. c #504757",
"6. c #52545C",
"7. c #59575B",
"8. c #575553",
"9. c #65564E",
"0. c #645B54",
"q. c #6D5A56",
"w. c #66635F",
"e. c #736E5F",
"r. c #564E63",
"t. c #6A6868",
"y. c #73716D",
"u. c #766872",
"i. c #7D7B7A",
"p. c #7C7674",
"a. c #861D2D",
"s. c #891F34",
"d. c #811C35",
"f. c #85262B",
"g. c #8C2334",
"h. c #892834",
"j. c #922836",
"k. c #8B3535",
"l. c #9C323B",
"z. c #A42E35",
"x. c #A7353B",
"c. c #874836",
"v. c #A0513D",
"b. c #8B632D",
"n. c #8F6D32",
"m. c #986B37",
"M. c #953045",
"N. c #AC3B42",
"B. c #AF4957",
"V. c #B34C51",
"C. c #89857B",
"Z. c #7A7980",
"A. c #827B82",
"S. c #868A87",
"D. c #8A8987",
"F. c #928C8B",
"G. c #91878F",
"H. c #93918E",
"J. c #9B9788",
"K. c #929293",
"L. c #9C9C9C",
"P. c #979798",
"I. c #A19F99",
"U. c #A3988A",
"Y. c #A3A49E",
"T. c #A3A6A5",
"R. c #ABA7A3",
"E. c #A7ABAB",
"W. c #AAABAA",
"Q. c #A4A6A9",
"!. c #B0AFAE",
"~. c #B3B4B3",
"^. c #B5B9B5",
"/. c #BABCBB",
"(. c #B8B8B8",
"). c #C4C2BD",
"_. c #BCBEC2",
"`. c #C4CBC7",
"'. c #CACAC9",
"]. c #D1D4CF",
"[. c #CFD3D4",
"{. c #D2D3D2",
"}. c #D9DBDA",
"|. c #D8D8D8",
" X c #E0E3DF",
".X c #DCDDE0",
"XX c #DEE1E2",
"oX c #E3E3E3",
"OX c #EDEDED",
"+X c #E8E9E7",
"@X c #EEF0EE",
"#X c #F1F1EF",
"$X c #ECEEF0",
"%X c #F1EFF1",
"&X c #EFF0F1",
"*X c #F3F3F3",
"=X c #F9F7F6",
"-X c #F6F8F6",
";X c #F9F9F6",
":X c #F7F7F9",
">X c #F9F7F9",
",X c #F7F9FA",
"<X c #FEFEFE",
/* pixels */
"*X*X*X*X-X;X;X:X;X;X*X*X:X*X*X>X*X>X>X-X;X;X;X*X*X*X*X;X*X>X>X-X>X;X>X*X-X*X*X>X*X-X>X-X;X;X;X:X*X*X*X>X*X*X>X>X-X>X-X>X*X*X*X*X",
"<X<X<X<X>XOXOXOXOXOX*X<X<X<X<X<X<XOXOXOXOXOXOX<X<X<X<X<X<X*XOXOXOXOXOX*X<X<X<X<X<X<XOXOXOXOXOXOX<X<X<X<X<X<X*XOXOXOXOXOX<X<X<X<X",
"<X<X<X<X>X@XOXOXOXOX*X<X<X<X<X<X<X*XOXOXOXOXOX>X<X<X<X<X<X*XOXOXOX@XOX:X<X<X<X<X<X>XOXOXOXOXOX%X<X<X<X<X<X<XOXOXOXOXOXOX>X<X<X<X",
"<X<X<X<X>XOXOXOX$XOX&X<X<X<X<X<X<XOXOXOXOX&XOX<X<X<X<X<X<X*XOXOXOXOXOX*X<X<X<X<X<X>XOXOX&XOXOX&X<X<X<X<X<X<X*XOX@XOXOXOX<X<X<X<X",
"<X<X<X<X>XOXOXOXOXOX*X<X<X<X<X<X<X*XOXOXOXOX@X>X<X<X<X<X<X*XOXOXOXOXOX>X<X<X<X<X<X<XOXOXOXOXOX*X<X<X<X<X<X<X*XOXOXOXOXOX>X<X<X<X",
"<X<X<X<X>XOXOXOXOXOX*X<X<X<X<X<X<X@XOXOXOXOXOX<X<X<X<X<X<X*XOXOXOXOXOX*X<X<X<X<X<X>XOXOXOXOXOXOX<X<X<X<X<X<XOXOXOXOXOXOX<X<X<X<X",
"<X>X>X<X-X*X*X*X*X@X*X>X>X<X<X>X>X*X*X*X*X*X*X>X<X>X<X>X<X*X*X*X*X*X*X*X>X<X<X>X>X*X*X*X*X*X*X*X>X>X<X>X>X>X*X*X*X&X*X*X>X>X>X<X",
"OXOX@XOX*X<X<X<X<X<X<XOXOXOXOXOXOX<X<X<X<X<X<XOXOXOXOXOXOX>X<X<X<X<X<X-XOXOXOXOXOX*X<X<X<X<X<X<X*XOXOXOX@XOX<X<X<X<X<X<X*XOXOXOX",
"OX*XOXOX*X<X<X<X<X<X>XOX@XOXOX*X*X<X<X<X<X<X<X*XOX@XOXOX@X>X<X<X<X<X<X>XOXOXOXOXOX*X<X<X<X<X<X<XOXOXOXOXOXOX<X<X<X<X<X<X*XOXOXOX",
"OXOXOXOX*X<X<X<X<X<X<XOXOXOXOXOXOX<X<X<X<X<X<X*XOXOXOX@XOX>X<X<X<X<X<X-XOXOXOXOXOX*X<X<X<X<X<X<XOXOXOXOXOXOX<X<X<X<X<X<X*XOX@X&X",
"OXOXOXOX*X<X<X<X<X<X<XOXOXOXOXOXOX<X<X<X<X<X<X*XOXOXOXOXOX>X<X<X<X<X<X>XOXOXOXOXOX*X<X<X<X<X<X<XOXOXOXOXOX*X<X<X<X<X<X<X%XOX@X@X",
"OXOXOXOX*X<X<X<X<X<X<XOXOXOXOXOX*X<X<X<X<X<X<X*XOXOXOX@XOX>X<X<X<X<X<X>XOXOXOXOXOX*X<X<X<X<X<X<XOXOXOXOXOXOX<X<X<X<X<X<X*XOXOX@X",
"OX*XOX*X*X<X<X<X>X<X>X*X%X*XOX*X&X>X<X<X<X<X<X*X*X%X@X*XOX>X<X>X<X<X,X;X&X&X&X*XOX*X<X<X>X<X>X<X*X*XOX*X*X*X>X<X>X<X<X<X*X*X*X%X",
"<X<X<X<X-XOXOXOXOXOX*X<X<X<X<X<X<X*XOX@XOXOXOX>X<X<X<X<X<X*XOXOXOX*X;X<X<X<X<X<X<X>XOXOXOXOXOX*X<X<X<X<X<X<X@XOX@XOXOXOX>X<X<X<X",
"<X<X<X<X>X@XOXOX@XOX*X<X<X<X<X<X<XOXOXOXOXOXOX<X<X<X<X<X<X*X*X>X*X+X^.'.<X<X,X<X<X>XOX@XOX#XOXOX<X<X<X<X<X<X*XOXOXOXOXOX>X<X<X<X",
"<X<X<X<X>XOXOXOXOXOX*X<X<X<X<X<X<X#XOXOXOXOXOX<X<X<X<X<X<X<X{.P.8.d o + w.|.<X<X<X<XOXOXOXOXOX*X<X<X<X<X<X<X@XOXOXOXOXOX<X<X<X<X",
"<X<X<X<X>XOX@XOXOXOX*X<X<X<X<X<X<X*XOXOXOXOXOX<X<X<X<X$X~.6.2 . X o & & . . i.<X*X|.,XOXOXOXOXOX<X<X<X<X<X<X*XOXOXOXOXOX>X<X<X<X",
"<X<X<X<X>XOX@XOXOXOXOX<X<X<X<X<X<XOXOXOX*XOXOX>X<XOXm.-.. @ * ; & & & X d 9.= D.<Xw.H.<XOXOXOX*X<X<X<X<X<X<X&XOXOXOXOXOX>X<X<X<X",
"<X<X<X<X>XOXOX*X*XOX*X<X<X<X<X<X<X@XOXOX@XOXOX<X<X<.  o & & o X o = o . 8.<XU.N R.|.0 I.>XOX@X#X<X<X<X<X<X<X*XOX@X@X%XOX>X<X<X<X",
"*XOX*XOX*X<X<X<X<X<X>XOX*XOXOX*X&X<X<X<X<X<X;X<Xt.  + + { = 0 3 0 } 9 0 f F.[.0.C R.J.$.[.<X;X<X&X%XOX*XOXOX<X<X<X<X<X<X*XOXOX*X",
"OXOXOXOX*X<X<X<X<X<X<XOX@XOXOXOX*X<X<X<X<X>X<XQ.. 6 3 } #.O.k.O.K f.O.#.> 8 h  .} n.9.%.e.<X<X<XOXOXOXOX@XOX<X<X<X<X<X<X*XOX@XOX",
"OXOXOXOX*X<X<X<X<X<X<XOX@XOX@XOXOX<X<X<X;X<X*Xf 7 v.O.O.G G S S S W ) f.` o.K B 4 *.b.V V I.<X;X@XOXOX@XOXOX<X<X<X<X<X<X*XOX*XOX",
"OXOXOXOX*X<X<X<X<X<X<XOXOX@XOXOXOX<X<X<X<X{.8.B k.f.Q F R L / ( _ ' ( _ g.s.g.M ~ M m.c.h.o.~.<XOXOXOX@XOXOX<X<X<X<X<X<X*XOXOXOX",
"OXOX*XOX*X<X<X<X<X<X<XOXOX@XOX@XOX<X<X=XP.0 6 @.' ( E ) / R / P I F ) g.s.^ f.x.x.f.m j.k.N.X./.*XOX@XOX%XOX<X<X<X<X<X<X*XOXOXOX",
"OXOXOXOX*X<X<X<X<X<X>XOXOXOXOXOX@X<X<Xt.; W ) F R I I / F I / E ' g.j.~ T n M f.^ W J k.&.@.Q 2.<XOXOXOXOXOX<X<X<X<X<X<X*XOXOXOX",
"<X<X<X>X-X*X*X*X*X*X*X<X<X<X<X>X>X#X<X3.H / I / I I I I R _ ` d.j.s.E R a.T : : * M V.B.j.l.l.X.P.<X>X<X<X>X*X*X*X*X*XOX*X<X<X<X",
"<X<X<X<X>XOXOXOXOXOX@X<X<X<X<X<X<X=X/.h H P P R L I _ ' _ _ ' ! x < U / g.j.n > 9.q.i K k.l.x.z.o.XX<X<X<X<X%XOXOXOXOXOX>X<X<X<X",
"<X<X<X<X*XOXOXOXOXOX*X<X<X<X<X>X<X_.h m A A I ( _ ' ` / E ! G  .S.p.p R a.s.n K.<X<X(.l e g T g.T L.<X<X<X<X@XOXOXOXOXOX<X<X<X<X",
"<X<X<X<X>XOXOXOXOXOX*X<X<X<X;X<X(. .m u y y / _ ( / I ` ~ >.E.OX<X<X5.D a.^ v {.<X*X>X XS.6...< * R.<X<X<X<X*XOXOXOXOXOX>X<X<X<X",
"<X<X<X<X*XOXOXOXOXOX*X<X<X;X<X]. .m A y # r / L / P E M.b D.<XOX*X'.p / ~ x S.<X;X<XOX#X<X;X+XE.!.<X<X<X<X<X&XOXOXOXOXOX<X<X<X<X",
"<X<X<X<X<X>X<X#XOXOXOX>X<X<X/. .6 t r $ 6.;.F L / P ' j.* P.;X+X*X|.;.D ' +.2.~.<X>X$X$XOXOX@X<X<X<X<X<X<X<XOXOXOXOXOXOX>X<X<X<X",
"*X*X>XK.1.i./.OX<X<X<X<X}.0.2 5 y w $ Z.`.4 F I I R +.< :.@X<X;X:X<XOX3.< c ' J Z.<X;X;X,X;X>X*X*X*X*X*X*X*X-X>X<X>X<X>X-X*X*X*X",
"OXOXOX|.i.2 + 4.D.i.Q.m.l 7 4 a q w (.<X:.; U I I ! #.T.oX<X<X<X<X<X<X@XE.7.,.M.v C.<X<X<X<X<X<XOXOXOXOXOXOX<X<X<X<X<X<X*XOXOXOX",
"OXOXOX*X<XoX3.O > + q , , t w # -.|.<X7.O S A I / G G.<XOX-X<X<X<X<X<X>X-X<Xp.#.b.=.oX<X<X<X<X<X*XOXOXOX*XOX>X<X<X<X<X<X*XOXOXOX",
"OXOXOXOX*X<X<X~.G.u.r.-.e s z L.+X<X].% R _ > U / ...X#XOX:X<X<X<X<X<X=X+X>X).{ j 4.<X<X<X<X<X<XOXOXOXOXOXOX<X<X<X<X<X<X*XOXOXOX",
"OXOX*XOX*X<X<X<X<X<X<X$X.X.XOX>X$X<XW.B @.@.l | n H.>XOXOX>X<X<X<X<X<X;XOX;X'.y.{.}.<X<X<X<X<X<X%XOXOXOXOXOX<X<X<X<X<X<X*XOXOX*X",
"OXOXOXOX*X<X<X<X<X<X;XOX*X#XOXOX+X<XK.C C ] `...H XX*XOXOX>X<X<X<X<X<X:XOX@XOX*X*X>X<X<X<X<X<X<XOXOXOXOXOXOX<X<X<X<X<X<X*XOXOXOX",
"*X;X>X*X:X*X*X*X*X*X:X;X-X=X*X;X*X<X_.2 V I.<Xu.S.<X*X*X>X*X*X-X*X*X*X*X-X*X;X*X*X*X*X*X*X*X*X*X>X*X>X>X*X-X*X*X*X*X*X*X*X>X:X-X",
"<X<X<X<X;XOXOXOXOXOX&X<X<X<X<X<X<XOX*X/.Q.*XOX*X<X<X<X<X<X*XOXOX%XOXOX*X<X<X<X<X<X<XOXOX*XOXOXOX<X<X<X<X<X<X*XOX&XOXOXOX>X<X<X<X",
"<X<X<X<X;XOXOXOXOXOX*X<X<X<X<X<X<X#XOX=X<XOXOX<X<X<X<X<X<X*XOXOXOXOX*X*X<X<X<X<X<X>XOXOXOXOXOXOX<X<X<X<X<X<X*XOXOXOXOXOX<X<X<X<X",
"<X<X<X<X>XOXOX@XOXOX*X<X<X<X<X<X<XOXOXOXOXOXOX>X<X<X<X<X<X*XOXOX@XOXOX*X<X<X<X<X<X<XOXOX*XOXOXOX<X<X<X<X<X<XOXOX@X@XOXOX:X<X<X<X",
"<X<X<X<X>X@XOXOXOXOX*X<X<X<X<X<X<X*XOXOXOXOXOX<X<X<X<X<X<X*XOX&XOXOXOX>X<X<X<X<X<X>XOXOXOXOXOX*X<X<X<X<X<X<X*XOXOX@XOXOX<X<X<X<X",
"<X<X<X<X>XOXOXOX*XOX*X<X<X<X<X<X<X*XOXOXOX@XOX<X<X<X<X<X<X*XOXOXOXOXOX*X<X<X<X<X<X<XOXOXOXOXOX*X<X<X<X<X<X<X*XOXOX@XOXOX>X<X<X<X",
">X>X>X>X>X*X*X*X*X*X*X*X>X>X>X>X*X*X*X*X*X*X*X*X>X>X>X*X>X-X*X*X*X*X-X*X>X>X>X>X-X>X*X*X*X*X*X*X>X>X>X-X>X>X*X*X*X*X*X=X>X>X>X:X",
"OXOXOXOX*X<X<X<X<X<X<XOXOXOXOXOXOX<X<X<X<X<X<X*XOXOXOXOXOX>X<X<X<X<X<X>XOXOXOXOXOX*X<X<X<X<X<X<XOXOXOXOXOXOX<X<X<X<X<X<X*XOXOXOX",
"OXOXOXOX*X<X<X<X<X<X<XOXOXOXOXOX*X<X<X<X<X<X<X*XOXOXOXOXOX>X<X<X<X<X<X>XOXOXOX@XOX*X<X<X<X<X<X<X@XOXOXOXOX*X<X<X<X<X<X<X*XOXOX@X",
"OXOXOXOX*X<X<X<X<X<X<XOXOXOX*XOXOX<X<X<X<X<X<X*XOXOXOXOXOX>X<X<X<X<X<X-XOXOXOXOXOX*X<X<X<X<X<X<X*XOXOX@XOXOX<X<X<X<X<X<X*XOX@XOX",
"OXOX*XOX*X<X<X<X<X<X>XOXOXOXOXOXOX<X<X<X<X<X<X*XOXOXOXOXOX<X<X<X<X<X<X>XOXOXOXOXOX*X<X<X<X<X<X<XOXOXOXOXOXOX<X<X<X<X<X<X*XOX@XOX",
"OXOXOXOX*X<X<X<X<X<X<XOXOXOXOXOXOX<X<X<X<X<X<X@XOXOXOXOXOX>X<X<X<X<X<X>XOXOXOXOXOX*X<X<X<X<X<X<XOXOXOXOXOXOX<X<X<X<X<X<X*XOXOXOX",
"*X*X*X*X*X<X>X<X<X>X>X*X*X*X*X*X*X>X>X<X<X>X<X*X*X*X*X*X*X*X>X<X>X>X<X>X*X*X*X*X*X-X>X>X>X<X>X>X*X*X*X*X*X*X>X>X<X>X<X>X*X*X*X*X",
"<X<X<X<X>XOXOXOXOXOX*X<X<X<X<X<X<XOXOXOXOXOXOX<X<X<X<X<X<X*XOXOX@XOXOX*X<X<X<X<X<X>XOXOX@XOXOXOX<X<X<X<X<X<X*XOXOXOXOXOX>X<X<X<X",
"<X<X<X<X>XOXOXOXOXOX@X<X<X<X<X<X<X*XOXOXOXOXOX>X<X<X<X<X<X*XOXOXOXOXOX*X<X<X<X<X<X>XOXOXOXOXOXOX<X<X<X<X<X<XOXOXOXOXOXOX<X<X<X<X",
"<X<X<X<X>XOXOXOXOXOX*X<X<X<X<X<X<X#XOXOXOXOXOX<X<X<X<X<X<X*XOXOXOXOXOX*X<X<X<X<X<X<XOXOXOXOXOX*X<X<X<X<X<X<XOXOXOX@XOXOX>X<X<X<X",
"<X<X<X<X>XOX@X@XOXOX*X<X<X<X<X<X<X&XOXOXOXOXOX<X<X<X<X<X<X*XOX*X@XOXOX>X<X<X<X<X<X>XOXOXOX%XOX*X<X<X<X<X<X<X*XOXOXOXOXOX<X<X<X<X"
};
