/* XPM */
static char *result[] = {
/* columns rows colors chars-per-pixel */
"64 57 209 2 ",
"   c #030000",
".  c #0D0101",
"X  c #120000",
"o  c #1B0000",
"O  c #1D040A",
"+  c #1D0A06",
"@  c #0B0017",
"#  c #000018",
"$  c #14001B",
"%  c #1D1616",
"&  c #240502",
"*  c #2B0603",
"=  c #260905",
"-  c #2A0904",
";  c #2B030C",
":  c #250709",
">  c #37050C",
",  c #2B0D1A",
"<  c #2A0816",
"1  c #350716",
"2  c #261614",
"3  c #2A1B18",
"4  c #301914",
"5  c #3C1B16",
"6  c #0D0029",
"7  c #170020",
"8  c #15042F",
"9  c #150831",
"0  c #230629",
"q  c #35092A",
"w  c #3A0B2C",
"e  c #370825",
"r  c #371829",
"t  c #2B0A32",
"y  c #370B34",
"u  c #221D36",
"i  c #241C27",
"p  c #222029",
"a  c #322626",
"s  c #3D2B2C",
"d  c #3C2826",
"f  c #312736",
"g  c #3D3636",
"h  c #430B0F",
"j  c #410D19",
"k  c #4A0618",
"l  c #58091D",
"z  c #4C1B1A",
"x  c #47131B",
"c  c #57131B",
"v  c #75161F",
"b  c #42211D",
"n  c #492317",
"m  c #44331A",
"M  c #5E3F1D",
"N  c #55211A",
"B  c #6E221F",
"V  c #470C26",
"C  c #510F2A",
"Z  c #550E23",
"A  c #4D1326",
"S  c #481D23",
"D  c #5B1224",
"F  c #5A122A",
"G  c #561828",
"H  c #430E30",
"J  c #580E32",
"K  c #561234",
"L  c #621324",
"P  c #671627",
"I  c #731B2C",
"U  c #7A1D2D",
"Y  c #731827",
"T  c #6F1B30",
"R  c #741D31",
"E  c #7C1D33",
"W  c #47282D",
"Q  c #5F2226",
"!  c #502D23",
"~  c #48382C",
"^  c #472C33",
"/  c #443535",
"(  c #553A3A",
")  c #69262B",
"_  c #7C232B",
"`  c #732224",
"'  c #71312A",
"]  c #7E2A37",
"[  c #683836",
"{  c #5B491A",
"}  c #504125",
"|  c #5C502E",
" . c #6A4626",
".. c #66502F",
"X. c #755023",
"o. c #6F413E",
"O. c #7B4333",
"+. c #2F2C45",
"@. c #3C3C46",
"#. c #413642",
"$. c #623F4B",
"%. c #464647",
"&. c #54424C",
"*. c #50504F",
"=. c #504A5F",
"-. c #5B5A5B",
";. c #6D4B4D",
":. c #685D4C",
">. c #725F4A",
",. c #684E53",
"<. c #6D5D55",
"1. c #71624B",
"2. c #66615F",
"3. c #7D715D",
"4. c #686145",
"5. c #655E65",
"6. c #636161",
"7. c #6C6867",
"8. c #766A65",
"9. c #747373",
"0. c #7A7675",
"q. c #79787A",
"w. c #78726A",
"e. c #8C1F2E",
"r. c #841D33",
"t. c #891F31",
"y. c #87252E",
"u. c #92292E",
"i. c #9D2B2E",
"p. c #8F312C",
"a. c #842234",
"s. c #8A2333",
"d. c #8D2739",
"f. c #882B32",
"g. c #922634",
"h. c #942D34",
"j. c #9B2F37",
"k. c #952C38",
"l. c #9B2D39",
"z. c #93273B",
"x. c #883533",
"c. c #9A3134",
"v. c #9D3239",
"b. c #943238",
"n. c #A02C37",
"m. c #A63A36",
"M. c #AD3C33",
"N. c #A2333A",
"B. c #A73B39",
"V. c #AB3B3C",
"C. c #A73436",
"Z. c #B03D3D",
"A. c #824837",
"S. c #933545",
"D. c #A53F49",
"F. c #814E50",
"G. c #AB464E",
"H. c #867B77",
"J. c #977D7A",
"K. c #86827E",
"L. c #837F84",
"P. c #8D8C8C",
"I. c #878486",
"U. c #959085",
"Y. c #9F9984",
"T. c #959994",
"R. c #9B9895",
"E. c #9E9C9F",
"W. c #959595",
"Q. c #8B8692",
"!. c #A1A19E",
"~. c #9C9BA3",
"^. c #A4A4A4",
"/. c #ABACAB",
"(. c #A9AAA9",
"). c #B1ADAB",
"_. c #AFB0B0",
"`. c #BABBBC",
"'. c #BAB8B6",
"]. c #C0BFBD",
"[. c #BFC0BE",
"{. c #BFC3C7",
"}. c #C3C4C4",
"|. c #CBCCCC",
" X c #C7C7C6",
".X c #D3D5D5",
"XX c #DDDEDE",
"oX c #D7D7D8",
"OX c #CED7D4",
"+X c #E3E3DF",
"@X c #E0DFE0",
"#X c #DCE1E1",
"$X c #E4E4E3",
"%X c #E4E8E6",
"&X c #EDEDED",
"*X c #E6E8E9",
"=X c #F0EEEE",
"-X c #EEF0ED",
";X c #F0F1EF",
":X c #EDEDF1",
">X c #F0EFF0",
",X c #EFF1F1",
"<X c #F3F3F3",
"1X c #F8F7F7",
"2X c #F4F9F7",
"3X c #F9F9F6",
"4X c #F6F6F8",
"5X c #F6F9FA",
"6X c #FEFEFE",
/* pixels */
"&X6X6X6X6X6X6X&X&X&X&X&X<X6X6X6X6X6X<X&X&X&X&X&X6X6X6X6X6X6X&X&X&X&X&X4X6X6X6X6X6X;X&X&X&X&X=X6X6X6X6X6X1X&X&X&X&X&X6X6X6X6X6X6X",
"<X5X6X5X6X5X1X<X<X<X4X<X4X5X6X5X6X5X<X<X<X<X<X4X5X6X6X5X5X4X;X<X<X<X<X1X6X1X6X5X5X4X<X<X<X;X4X5X5X6X5X6X4X<X<X<X<X;X5X5X5X6X6X5X",
"6X;X&X&X&X&X;X6X6X6X6X6X1X&X&X&X&X&X6X6X6X6X6X6X&X&X&X&X&X<X6X6X6X6X6X4X&X&X&X&X&X6X6X6X6X6X6X&X&X&X&X&X4X6X6X6X6X6X<X&X&X&X&X&X",
"6X=X&X&X&X&X<X6X6X6X6X6X1X&X&X&X=X&X5X6X6X6X6X6X=X=X&X&X&X4X6X6X6X6X6X4X&X=X&X&X&X6X6X6X6X6X6X&X&X&X&X&X4X6X6X6X6X6X<X&X&X=X&X&X",
"6X<X&X&X&X&X<X6X6X6X6X6X1X&X&X=X&X&X5X6X6X6X6X6X&X&X&X&X&X<X6X6X6X6X6X<X&X&X&X&X&X6X6X6X6X6X6X&X&X=X&X&X4X6X6X6X6X6X<X&X&X&X&X&X",
"6X<X&X&X&X&X<X6X6X6X6X6X5X&X;X&X&X&X5X6X6X6X6X6X;X&X=X=X&X<X6X6X6X6X6X<X&X&X&X&X&X6X6X6X6X6X5X&X&X&X=X&X4X6X6X6X6X6X<X&X=X&X&X;X",
"6X;X&X&X&X&X=X6X6X6X6X6X1X&X&X&X&X&X6X6X6X6X6X6X&X&X&X&X&X<X6X6X6X6X6X4X&X&X&X&X&X6X6X6X6X6X6X&X&X&X&X&X<X6X6X6X6X6X<X&X&X&X&X&X",
"4X4X1X1X5X5X1X4X4X4X4X<X4X1X5X1X1X1X4X<X4X4X4X4X5X1X1X5X1X4X4X<X4X4X4X1X1X1X5X1X1X4X4X<X4X4X4X1X5X1X5X1X1X4X<X4X4X4X1X1X5X1X5X1X",
"&X6X6X6X6X6X6X&X&X&X&X&X4X6X6X6X6X6X<X&X&X&X&X&X6X6X6X6X6X6X&X&X&X&X&X1X6X6X6X6X6X<X&X&X&X&X&X6X6X6X6X6X4X&X&X&X&X&X6X6X6X6X6X6X",
"&X6X6X6X6X6X6X=X&X&X=X&X<X6X6X6X6X6X4X&X&X&X&X>X6X6X6X6X6X5X&X&X&X=X&X1X6X6X6X6X6X<X&X&X&X&X<X6X6X6X6X6X1X&X=X&X&X&X5X6X6X6X6X6X",
"&X6X6X6X6X6X6X&X&X&X-X&X4X6X6X6X6X6X<X&X&X&X&X-X6X6X6X6X6X5X&X&X&X&X&X1X6X6X6X6X6X<X&X&X&X&X<X6X6X6X6X6X1X&X&X;X&X&X5X6X6X6X6X6X",
"=X5X6X6X6X6X5X&X&X=X&X&X4X6X6X6X6X6X<X&X&X&X&X=X6X6X6X6X6X6X&X&X&X&X&X5X6X6X6X6X6X:X&X&X&X&X<X6X6X6X6X6X1X&X&X&X&X&X6X6X6X6X6X6X",
"&X6X6X6X6X6X6X&X&X&X&X&X<X6X6X6X6X6X<X&X&X&X&X&X6X6X6X6X6X5X=X&X&X-X&X1X6X6X6X6X6X<X&X&X&X&X<X6X6X6X6X6X1X&X&X&X=X&X5X6X6X6X6X6X",
"6X4X&X<X<X&X<X6X6X6X6X6X1X;X<X<X<X=X5X6X6X6X6X6X<X<X<X<X&X<X6X6X6X6X6X4X;X;X=X<X;X5X6X6X6X6X5X<X<X<X&X<X4X6X6X6X6X6X4X&X<X<X&X<X",
"6X;X&X&X&X&X<X6X6X6X6X6X4X&X&X&X=X&X5X6X6X6X6X6X&X&X&X&X&X<X6X6X6X6X6X4X&X&X&X&X&X6X6X6X6X6X6X&X&X&X&X&X4X6X6X6X6X6X<X&X&X&X&X&X",
"6X<X&X&X&X&X<X6X6X6X6X6X1X&X&X&X&X&X6X6X6X6X6X6X&X&X&X&X&X4X6X6X6X6X6X4X&X&X&X&X=X6X6X6X6X6X6X&X&X&X&X&X4X6X6X6X6X6X4X&X&X&X&X&X",
"6X<X&X&X&X&X=X6X6X6X6X6X5X&X&X&X&X&X6X6X6X6X6X6X&X&X&X=X&X<X6X6X6X6X6X4X&X&X&X&X&X6X6X6X6X6X6X&X&X&X&X&X4X6X6X6X6X6X<X&X&X&X&X&X",
"6X<X&X&X&X&X<X6X6X6X6X6X5X&X&X&X&X&X5X6X6X6X6X6X&X&X&X*X*X;X6X6X6X6X6X<X&X&X&X&X&X6X6X6X6X6X6X&X&X&X&X&X<X6X6X6X6X6X<X&X&X&X&X&X",
"5X<X<X<X=X<X<X5X6X5X5X6X1X;X<X<X;X<X1X6X6X5X5X1X<X4X6X6X6X6X6X6X6X6X6X6X<X<X<X&X=X5X5X6X6X6X5X<X<X<X<X<X4X6X5X6X6X6X<X<X<X<X<X&X",
"=X6X6X6X6X6X6X&X&X=X&X&X4X6X6X6X6X6X<X&X&X4X6X6X6X$X`.P.9.2.2.6.0.I.^.}.%X5X6X6X6X<X&X&X&X&X<X6X6X6X6X6X1X&X=X&X&X&X5X6X6X6X6X6X",
"&X6X6X6X6X6X6X&X&X&X&X&X4X6X6X6X6X6X<X&X&X|.P.6.g % . . . X . X X X X X 2 g 2.R.|.5X<X&X&X&X;X6X6X6X6X6X5X&X&X&X&X&X5X6X6X6X6X6X",
"&X6X6X6X6X6X6X&X&X&X=X&X4X6X6X6X6X6X<X-XXX0.P.P.2 o = = = - - - - - - = & o X     6.=X&X&X&X;X6X6X6X6X6X5X&X=X&X&X&X6X6X6X6X6X6X",
"&X6X6X6X6X6X6X&X&X&X&X&X<X6X6X6X6X6X<X&X-X#X0.%   X o = & & * & & * * * = = X %.0.%.@X<X&X&X<X6X6X6X6X6X1X=X&X&X=X&X6X6X6X6X6X6X",
"&X6X6X6X6X6X6X&X&X&X&X&X4X6X6X6X6X6X;X&X<X|.-.I.W.0.a X * * * * * - * & & X 3 *X6X6X&X=X4X&X&X6X6X6X6X6X5X&X&X&X&X&X5X6X6X6X6X6X",
"4X4X1X1X4X4X4X4X<X1X4X4X1X4X4X<X5X5X6X6X6X6X6X6X6X6X2X6.o * = & & & & & =   9.6X^.w.6XR.^.6X<X<X3X1X1X<X1X4X1X4X4X4X4X1X4X4X1X1X",
"6X=X&X&X&X&X;X6X6X6X6X6X1X&X&X&X&X$X&XXXOX|.}. X/./.[.(.2 > - - = & o + + . 9.5X5X1.3. Xm |.6X&X&X&X&X&X4X6X6X6X6X6X;X&X&X&X&X&X",
"6X-X&X&X&X&X<X6X6X6X6X6X5X&X&X<XoX/ 3 j P F D D L L D L y.b.b.f.x.' z ! 5 z n *.^.#X:.H.U.| +X<X&X&X=X&X4X6X6X6X6X6X4X&X=X-X&X&X",
"6X<X&X&X&X&X<X6X6X6X6X6X1X&X&X&X=X].E.,.P n.N.j.l.j.v.c.j.j.j.j.h.j.z.d.I a.) > 4 s 7...1.} Y.6X*X&X&X&X4X6X6X6X6X6X<X&X&X&X&X&X",
"6X<X&X&X&X&X<X6X6X6X6X6X5X&X&X&X=X4X6X6X).o.h.B.B.B.N.v.j.g.s.t.r.r.a.r.a.r.E R Q z 5 4  .m 4.%X;X&X&X&X<X6X6X6X6X6X<X&X&X&X;X&X",
"6X<X&X&X&X&X>X6X6X6X6X6X5X&X&X&X&X&X4X6X6X%X;.C.j.a.E r.a.s.s.k.j.h.s.z.j.E R v.u.p.l.E O.A.B J.6X&X&X&X4X6X6X6X6X6X<X&X&X&X&X&X",
"<X5X6X6X5X6X5X;X<X<X<X&X1X6X6X6X1X6X<X>X&X6X~.c a.a.v.B.V.Z.V.N.a.E z.v.T L P y._ c.U Y Y f.v.f.(.6X1X6X4X;X&X<X<X<X1X6X5X6X5X6X",
"&X5X6X6X6X6X6X&X&X&X&X&X<X6X6X6X6X6X<X&X5X'.( Q R I C.M.M.N.d.R a.N.l.T J U y.l h c > x ] x.[ d.[ 2X6X6X4X&X&X&X&X&X6X6X6X6X6X6X",
"&X6X6X6X6X6X6X6X;X*X&X&X<X6X6X6X6X6X5X*XT.b j q 0 V L u.C.u.P L L S , F K r.g.Y * o * ) G.D.f.h.) |.6X6X1X&X&X&X&X&X6X6X6X6X6X6X",
"&X6X6X6X6X6XXX`.+X6X<X&X<X6X6X6X6X6X#X1.b e V q 8 y e V Y M.I k > X   1 K I e.l / I.]./.^ F S.B.i.F.5X6X4X&X&X&X&X&X5X6X6X6X6X6X",
"&X6X6X6X6X6X*X0.a K..X3X6X6X6X6X4X'.~ 1 w w 0 $ 9 8 t t e Y C.j i d / f H R P W <X6X:X6XXX%.p l e.U |.6X<X&X&X&X&X&X5X6X6X6X6X6X",
";X5X6X6X6X6X6X6XI.+ d 8.R.&X%XU./ 4 r y 6 # u }.P.< F C C Z Y ( #X*X6XQ.e r.E ;.).$X6X&X4X&X_.7.x k  X6X4X&X<X<X;X;X6X6X6X6X6X6X",
"6X<X&X&X&X&X<X6X6X.X$.O , g W 4 , e $ # +.~.-X/.S Z F C A k & H.6X6X6X&X5.1 Z L Y ;.}.6X6X6X6X4X|.].&X&X<X6X6X6X6X6X<X&X<X&X&X&X",
"6X<X&X&X&X&X,X6X6X6X6XE.f $ $ $ $ t =.P.6X<X@.O k 1 $ @ @ #.q.<X6X6X6X1X>X(.9.;.S.v M }.6X6X1X&X1X1X&X&X4X6X6X6X6X6X<X&X&X&X&X&X",
"6X<X&X&X&X&X<X6X6X5X6X6X&X`.~.L.(..X6X6X,Xi ; Z 1 6.E.(.`.<X6X6X6X6X6X<X*X6X4X4X8.X.{ /.6X6X6X&X&X&X&X&X<X6X6X6X6X6X<X*X&X=X&X&X",
"6X<X&X&X&X&X<X6X6X6X6X6X6X1X3X6X6X<X4X6X7.n ] R ^ &X6X6X1X<X6X6X6X6X6X<X=X&X*X6X(.:.(.+X6X6X6X-X&X&X&X&X4X6X6X6X6X6X<X&X<X&X&X,X",
"6X<X&X&X&X&X&X6X6X6X6X6X1X&X&X*X&X%X6X&X~  .N n ^.4X%X&X*X<X6X6X6X6X6X4X&X&X&X=XoXXX6X6X6X6X6X&X&X&X&X&X1X6X6X6X6X6X<X&X&X&X&X&X",
"1X<X<X4X<X<X4X5X1X1X5X5X4X<X4X4X<X<X<X6XI.3 :. X6X4X<X<X<X<X1X1X5X5X1X1X<X4X<X<X1X6X4X5X4X4X1X<X<X<X<X4X4X5X5X5X5X5X4X<X<X<X<X<X",
"&X6X6X6X6X6X6X&X&X&X&X&X4X6X6X6X6X6X<X>X:X`.*X6X6X6X6X6X6X5X&X&X&X&X&X1X6X6X6X6X6X=X&X&X&X&X<X6X6X6X6X6X1X&X&X&X=X&X5X6X6X6X6X6X",
"&X6X6X6X6X6X6X&X&X&X&X&X<X6X6X6X6X6X<X:X-X1X<X*X6X6X6X6X6X6X&X&X&X&X&X5X6X6X6X6X6X;X&X&X&X&X<X6X6X6X6X6X1X&X=X&X=X&X6X6X6X6X6X6X",
"&X6X6X6X6X6X6X&X&X&X&X&X4X6X6X6X6X6X;X&X&X&X&X&X6X6X6X6X6X6X&X&X&X&X&X1X6X6X6X6X6X<X&X&X&X&X<X6X6X6X6X6X1X&X&X&X&X&X5X6X6X6X6X6X",
"&X6X6X6X6X6X6X&X=X&X;X&X4X6X6X6X6X6X<X&X=X&X&X>X6X6X6X6X6X5X&X&X=X&X&X1X6X6X6X6X6X<X&X&X=X&X<X6X6X6X6X6X1X&X&X&X=X&X6X6X6X6X6X6X",
"&X6X6X6X6X6X6X&X=X&X&X&X<X6X6X6X6X6X<X&X&X&X&X&X6X6X6X6X6X5X&X&X&X&X&X1X6X6X6X6X6X;X&X&X&X&X=X6X6X6X6X6X1X&X&X&X&X&X5X6X6X6X6X6X",
"5X<X<X<X<X<X4X5X5X1X6X5X1X<X<X<X<X4X1X6X5X1X6X5X4X<X<X<X<X1X6X5X5X6X5X1X4X<X<X<X<X5X5X6X1X5X5X<X<X<X<X4X<X6X5X1X6X5X4X<X<X<X<X4X",
"6X<X&X&X&X&X;X6X6X6X6X6X5X&X&X&X&X&X5X6X6X6X6X6X&X&X&X&X&X;X6X6X6X6X6X<X&X&X&X&X&X6X6X6X6X6X6X&X&X&X&X&X<X6X6X6X6X6X<X&X&X&X&X&X",
"6X<X&X&X&X&X<X6X6X6X6X6X5X=X=X&X&X&X6X6X6X6X6X6X<X&X&X&X&X<X6X6X6X6X6X<X&X;X:X-X&X6X6X6X6X6X5X&X&X&X&X&X4X6X6X6X6X6X<X&X&X&X&X&X",
"6X<X&X&X&X&X<X6X6X6X6X6X5X&X&X&X=X&X5X6X6X6X6X6X<X&X&X&X&X<X6X6X6X6X6X4X&X&X&X&X&X6X6X6X6X6X6X&X&X&X&X&X4X6X6X6X6X6X4X&X&X&X&X&X",
"6X=X&X&X&X&X:X6X6X6X6X6X1X&X&X&X&X&X6X6X6X6X6X6X&X&X&X&X&X4X6X6X6X6X6X4X&X&X&X&X&X6X6X6X6X6X6X&X&X&X&X&X4X6X6X6X6X6X<X&X&X&X&X&X",
"6X<X&X<X&X&X<X6X6X6X6X6X5X&X=X=X<X&X5X6X6X6X6X6X<X&X<X&X&X<X6X6X6X6X6X4X&X<X&X>X&X5X6X6X6X6X6X&X<X&X<X&X4X6X6X6X6X6X4X&X;X=X,X&X",
";X5X6X6X6X6X6X&X;X&X;X&X1X6X6X6X6X6X<X&X<X=X&X&X6X6X6X6X6X5X&X=X<X&X&X4X6X6X6X6X6X<X&X<X&X&X<X6X6X6X6X6X1X&X=X;X;X=X5X6X6X6X6X6X",
"&X6X6X6X6X6X6X&X&X&X&X&X4X6X6X6X6X6X<X&X&X&X&X<X6X6X6X6X6X6X&X&X&X&X&X1X6X6X6X6X6X<X&X&X&X&X<X6X6X6X6X6X1X&X&X&X&X&X6X6X6X6X6X6X",
"&X6X6X6X6X6X6X&X=X&X&X&X4X6X6X6X6X6X<X&X&X&X&X&X6X6X6X6X6X5X&X&X-X&X&X1X6X6X6X6X6X<X&X&X&X&X<X6X6X6X6X6X5X&X&X&X&X&X5X6X6X6X6X6X",
"&X6X6X6X6X6X6X&X&X&X,X&X4X6X6X6X6X6X4X&X&X&X&X;X6X6X6X6X6X5X&X&X&X=X&X5X6X6X6X6X6X<X&X&X&X&X<X6X6X6X6X6X4X&X<X&X&X&X5X6X6X6X6X6X"
};
