/* XPM */
static char *result[] = {
/* columns rows colors chars-per-pixel */
"64 54 212 2 ",
"   c #010000",
".  c #0D0000",
"X  c #0F0109",
"o  c #140101",
"O  c #1A0201",
"+  c #18030C",
"@  c #000019",
"#  c #0B001B",
"$  c #030013",
"%  c #14001B",
"&  c #120015",
"*  c #191212",
"=  c #250402",
"-  c #2B0703",
";  c #2A0904",
":  c #2E0F0A",
">  c #240509",
",  c #37080B",
"<  c #25120F",
"1  c #38110C",
"2  c #2C0C16",
"3  c #2A0F1E",
"4  c #270A11",
"5  c #370A16",
"6  c #2D1413",
"7  c #231A13",
"8  c #2C1818",
"9  c #3E1C12",
"0  c #3A151A",
"q  c #2D201E",
"w  c #0F0626",
"e  c #13022E",
"r  c #1A0427",
"t  c #1D1533",
"y  c #250125",
"u  c #3C0D2E",
"i  c #370925",
"p  c #2C102D",
"a  c #381E2A",
"s  c #2D0933",
"d  c #260733",
"f  c #3D0E31",
"g  c #3A1D39",
"h  c #2A252A",
"j  c #342223",
"k  c #3E2B27",
"l  c #37302F",
"z  c #262C32",
"x  c #3B3332",
"c  c #450514",
"v  c #4D0B18",
"b  c #460817",
"n  c #530B1B",
"m  c #4D1517",
"M  c #56141B",
"N  c #69111F",
"B  c #5E2A17",
"V  c #423117",
"C  c #46281D",
"Z  c #460B27",
"A  c #540D22",
"S  c #5D0F25",
"D  c #530D29",
"F  c #4E1C22",
"G  c #541125",
"H  c #52112A",
"J  c #5F132C",
"K  c #5C1625",
"L  c #5F1030",
"P  c #60092E",
"I  c #631322",
"U  c #6C1422",
"Y  c #6E172B",
"T  c #661A28",
"R  c #751A2A",
"E  c #7C1C2E",
"W  c #781F26",
"Q  c #631433",
"!  c #691F32",
"~  c #7C1E32",
"^  c #422D26",
"/  c #532124",
"(  c #572A28",
")  c #5D352B",
"_  c #413335",
"`  c #493D3A",
"'  c #493639",
"]  c #4C3D28",
"[  c #692A2D",
"{  c #7C212E",
"}  c #732328",
"|  c #7C3B2E",
" . c #7B2733",
".. c #6C3D37",
"X. c #793638",
"o. c #692D2C",
"O. c #59461D",
"+. c #68421F",
"@. c #574126",
"#. c #5A4936",
"$. c #605136",
"%. c #6E5028",
"&. c #352740",
"*. c #413F55",
"=. c #474140",
"-. c #4A4546",
";. c #534441",
":. c #5B4D46",
">. c #574A47",
",. c #57514F",
"<. c #4C4C50",
"1. c #564750",
"2. c #5C5756",
"3. c #78424F",
"4. c #604B53",
"5. c #676258",
"6. c #756C56",
"7. c #74664A",
"8. c #635D60",
"9. c #686462",
"0. c #776364",
"q. c #726C6C",
"w. c #746E63",
"e. c #786A70",
"r. c #767376",
"t. c #7C7A7A",
"y. c #76777D",
"u. c #676872",
"i. c #82192C",
"p. c #841E33",
"a. c #862A2C",
"s. c #8B282C",
"d. c #8F2328",
"f. c #94242E",
"g. c #83322E",
"h. c #9C312D",
"j. c #832134",
"k. c #8C2333",
"l. c #8D2C3D",
"z. c #85243A",
"x. c #942B34",
"c. c #9A2E36",
"v. c #9C2D3A",
"b. c #942A38",
"n. c #8C3633",
"m. c #953536",
"M. c #9B3134",
"N. c #9C313B",
"B. c #9B383B",
"V. c #A5342F",
"C. c #B23C2F",
"Z. c #A3333A",
"A. c #AB3B3C",
"S. c #AC383A",
"D. c #9D563C",
"F. c #B0403D",
"G. c #AF4958",
"H. c #867B79",
"J. c #937577",
"K. c #87846F",
"L. c #7D7983",
"P. c #8A8586",
"I. c #898788",
"U. c #968F87",
"Y. c #939393",
"T. c #999494",
"R. c #9B9891",
"E. c #9C9B9C",
"W. c #A2988F",
"Q. c #A29E9C",
"!. c #9FA098",
"~. c #A2A09F",
"^. c #9798A1",
"/. c #A29DA3",
"(. c #9EA3A4",
"). c #A3A2A2",
"_. c #ADABAB",
"`. c #AAA7A7",
"'. c #B0AAAC",
"]. c #B4B3B5",
"[. c #BBBEBD",
"{. c #B7B7BA",
"}. c #C3BBBB",
"|. c #C3C3BE",
" X c #C4C4C3",
".X c #C9C6C6",
"XX c #C4CAC8",
"oX c #CCCCCC",
"OX c #CED2CF",
"+X c #D1CFD2",
"@X c #CDD1D1",
"#X c #D1D3D4",
"$X c #DBDBDB",
"%X c #D6D9D8",
"&X c #DFE4DE",
"*X c #E2E0DB",
"=X c #DEE3E2",
"-X c #E3E4E4",
";X c #E7EAE9",
":X c #EDEDED",
">X c #E8E9E7",
",X c #F0ECED",
"<X c #EDEDF0",
"1X c #F0EFF0",
"2X c #ECF1F1",
"3X c #F3F3F3",
"4X c #F6F9F7",
"5X c #F9F8F7",
"6X c #F7F7F9",
"7X c #F6F9FA",
"8X c #FEFEFE",
"9X c #F8F6F7",
/* pixels */
":X:X:X:X:X3X8X8X8X8X8X5X:X:X:X2X:X3X8X8X8X8X8X3X:X:X:X:X1X8X8X8X8X8X8X:X:X:X2X:X3X8X8X8X8X8X9X:X:X:X1X:X5X8X8X8X8X8X3X:X:X:X:X:X",
":X:X:X:X:X2X8X8X8X8X8X7X:X:X:X:X:X9X8X8X8X8X8X3X:X:X:X:X:X8X8X8X8X8X8X:X:X:X:X:X3X8X8X8X8X8X3X:X:X:X:X:X5X8X8X8X8X8X2X:X:X:X:X:X",
"3X9X9X9X9X3X5X4X5X5X5X6X9X9X9X3X3X9X4X7X5X5X5X3X3X9X3X9X9X9X5X5X5X5X7X9X9X9X3X3X9X7X5X7X5X7X9X9X3X9X3X3X9X4X7X5X5X5X9X3X9X9X9X3X",
"8X8X8X8X8X8X:X:X:X:X:X3X8X8X8X8X8X9X:X:X:X:X:X8X8X8X8X8X8X<X:X:X:X:X:X8X8X8X8X8X5X:X:X:X:X:X9X8X8X8X8X8X3X:X:X:X:X:X8X8X8X8X8X8X",
"8X8X8X8X8X8X:X1X:X:X:X3X8X8X8X8X8X9X:X1X:X:X:X8X8X8X8X8X8X3X:X:X:X:X3X8X8X8X8X8X7X:X1X:X1X:X9X8X8X8X8X8X9X:X1X:X1X1X8X8X8X8X8X8X",
"8X8X8X8X8X8X:X1X:X:X:X3X8X8X8X8X8X3X:X:X:X:X:X5X8X8X8X8X8X:X:X:X:X:X:X8X8X8X8X8X8X:X:X:X:X:X9X8X8X8X8X8X3X:X:X:X:X<X5X8X8X8X8X8X",
"8X8X8X8X8X5X<X:X:X3X:X3X8X8X8X8X8X9X:X<X:X:X:X5X8X8X8X8X8X:X:X:X:X3X:X8X8X8X8X8X5X:X:X:X1X:X9X8X8X8X8X8X3X:X:X:X:X1X8X8X8X8X8X8X",
"8X8X8X8X8X8X:X:X:X:X:X9X8X8X8X8X8X9X:X:X:X:X:X5X8X8X8X8X8X3X:X:X:X:X3X8X8X8X8X8X5X:X:X:X:X;X9X8X8X8X8X8X3X:X:X:X:X:X8X8X8X8X8X8X",
"3X9X3X9X3X9X5X5X4X5X5X6X3X9X3X3X3X9X7X5X5X5X7X9X3X3X3X9X9X5X5X5X9X5X5X9X3X9X3X3X3X7X5X5X5X5X5X3X3X9X3X3X5X5X5X5X4X5X9X3X9X3X3X3X",
":X:X:X:X:X3X8X8X8X8X8X8X:X:X:X:X:X9X8X8X8X8X8X3X:X:X:X:X:X8X8X8X8X8X8X:X:X:X:X:X3X8X8X8X8X8X7X:X:X:X:X:X8X8X8X8X8X8X:X:X:X:X:X:X",
":X:X:X:X:X2X8X8X8X8X8X5X:X:X:X2X:X6X8X8X8X8X8X3X:X:X:X:X:X8X8X8X8X8X8X:X:X:X:X:X9X8X8X8X8X8X3X:X1X:X1X:X6X8X8X8X8X8X3X:X1X:X:X:X",
":X:X:X:X:X3X8X8X8X8X8X5X:X:X:X:X:X5X8X8X8X8X8X9X:X:X:X:X:X8X8X8X8X8X8X:X:X:X:X:X3X8X8X8X8X8X4X:X1X:X<X:X5X8X8X8X8X8X3X:X:X:X1X:X",
":X:X:X1X:X2X8X8X8X8X8X5X:X:X:X<X:X3X8X8X8X8X8X2X:X;X:X:X<X8X8X8X8X8X5X:X:X:X:X:X3X8X8X8X8X8X9X:X:X:X:X:X5X8X8X8X8X8X1X:X1X1X:X:X",
":X:X1X:X:X3X8X8X8X8X8X5X:X:X:X1X:X9X8X8X8X8X8X9X9X8X8X2X:X5X8X8X8X8X8X8X9X3X:X:X2X8X8X8X8X8X9X:X:X1X:X:X5X8X8X8X8X8X1X:X:X:X:X1X",
"8X8X8X8X8X5X3X:X3X3X1X3X8X8X8X8X8X9X1X3X8X8X2X-X XY.9.` l x x ` ,.9.I.).oX;X8X8X8X:X3X3X3X:X9X8X8X8X8X8X3X1X2X1X3X1X4X8X8X8X8X8X",
"8X8X8X8X8X5X:X:X:X:X:X3X8X8X8X8X8X3X:X1X[.r.2.h . . . . O o o o o o . . o j ,.t. X9X:X:X:X:X9X8X8X8X8X8X3X:X:X:X:X:X8X8X8X8X8X8X",
"8X8X8X8X8X8X:X:X:X1X:X3X8X8X8X8X8X9X:X:XT.E._.x o : ; > > ; ; ; > - ; ; = = .     Y.9X:X:X:X9X8X8X8X8X8X3X:X:X:X:X:X8X8X8X8X8X8X",
"8X8X8X8X8X8X:X:X:X:X:X9X8X8X8X8X8X9X:X2X3Xr.*   . o = = = = = ; ; - - ; = O * ).P.Y.9X:X:X:X9X8X8X8X8X8X3X:X:X:X:X:X8X8X8X8X8X8X",
"8X8X8X8X8X8X:X:X:X:X:X9X8X8X8X8X8X9X>X:X=XI.(.[._.q.o = ; - - ; ; ; - = O   I.8X5X8X:X:X3X>X4X8X8X8X8X8X3X:X:X:X:X:X8X8X8X8X8X8X",
"8X8X8X8X8X5X:X3X1X2X:X6X8X8X8X8X8X8X5X8X8X8X8X8X8X8X X8 = ; = = = = = = O * >X8X5.U.7X2. X8X2X8X8X8X8X8X9X:X3X3X3X:X5X8X8X8X8X8X",
":X:X3X:X:X3X8X8X8X8X8X5X1X1X1X:X@X@XXX{.]./.'.W.T.T.`.` , 1 1 : : O O 7 o * _.8X*X] W.~.@.;X7X:X3X:X:X:X5X8X8X8X8X8X3X:X:X:X:X:X",
":X:X:X:X:X3X8X8X8X8X8X5X:X:X1X-X-.4 5 S I A I I I N N { M.N.M.m.n.[ C ) 1 o.8 5._.@X#.W.6.6.4X:X:X:X:X:X5X8X8X8X8X8X:X:X:X3X3X:X",
":X:X:X:X:X3X8X8X8X8X8X5X:X:X:X:X$X}.H.[ f.S.v.v.N.N.Z.Z.M.c.b.b.b.b.f.p.E j.G m < >.2.%.:.O.|.6X:X:X:X:X5X8X8X8X8X8X3X:X:X:X:X:X",
":X1X:X:X:X3X8X8X8X8X8X7X:X:X:X:X3X8X8X%X0.a.A.A.A.Z.v.b.k.k.p.p.p.k.p.p.k.~ { } / m 1 k %.9 K.8X:X:X:X:X8X8X8X8X8X8X3X:X:X:X:X:X",
":X:X:X:X:X1X8X8X8X8X8X5X:X:X:X:X:X3X8X8X8XH.s.N.j.E E j.k.s.c.Z.v.f.s.M.k.Y k.N.s.B.v.j.D.X.} `.8X:X:X:X5X8X8X8X8X8X2X:X:X:X:X:X",
"9X3X3X3X3X3X5X5X8X5X5X7X3X9X3X3X3X9X5X1X8X#XF j.j.N.A.A.F.A.Z.k.~ k.B.j.J U R } a.s.U U i.n.Z.X. X5X3X3X7X8X5X5X8X5X3X9X3X3X3X3X",
"8X8X8X8X8X8X:X:X:X:X:X9X8X8X8X8X8X3X1X4XXX>./ ~ I x.C.C.Z.x.E E b.B.j.Q Q f.R c v v , T n.| X.~ 0.8X5X8X9X:X:X:X:X:X8X8X8X8X8X8X",
"8X8X8X8X8X8X7X3X:X:X:X3X8X8X8X8X8X8X;X`.^ b i r Z G { V.M.R S K G 3 i Q Q p.k.n O = 0 g.G.N.x.s...<X8X8X3X:X:X:X:X:X5X8X8X8X8X8X",
"8X8X8X8X8X$X{.$X5X9X<X<X8X8X5X8X8X:Xw.C 0 Z u e s f 5 S c.h.v c o X o f Q i.i.5 9.Q.#XP.a ! N.S.d.J.8X8X3X:X:X:X:X:X8X8X8X8X8X8X",
"8X8X8X8X8X:Xr.8 H.oX3X8X8X8X8X5X X#.2 f Z y # t e d s s n V.} 3 _ x =.s Q i.v P.8X6X3X8X_.z a U f.X.2X8X3X:X:X:X:X2X5X8X8X8X8X8X",
"8X8X8X8X8X8X8XI.+ j 6.U.>X:XR.` 7 5 f e w w ^. Xy H G H A U M (.3X>X=Xg P p.! H. X3X1X>X4X$X^.4.c ( 2X8X3X:X:X:X:X:X8X8X8X8X8X8X",
"9X9X9X9X9X3X3X8X@X1.> 3 _ ' 4 2 i r @ t I.=X X-.v J H H Z , a :X5X9X7X{.F b A U T e.-X8X3X5X8X7X X.X7X9X4X9X9X4X9X6X3X9X9X9X9X9X",
":X:X:X:X:X3X8X8X8X8X/.&.# # % r r <.y.-X8Xu.X c 5 & # $ a 2.oX8X8X8X5X8XOXI.8.3.l.B 7.6X8X8X3X,X9X3X<X:X8X8X8X8X8X8X3X:X:X:X:X:X",
":X:X:X:X:X3X8X8X8X8X8X:X{.E.L.E.oX5X8X8X<.o D c ' Y.(._.%X8X8X8X8X8X8X:X3X8X8X X%.%.$.>X8X8X9X:X:X;X1X:X5X8X8X8X8X8X1X:X:X:X:X:X",
":X:X:X:X:X:X8X8X8X8X8X5X5X8X8X8X3X3X8XR.9  .l.5 [.8X7X8X2X8X8X8X8X8X8X1X:X:X>X5X5.K.`.8X8X8X9X:X:X:X:X:X5X8X8X8X8X8X3X:X:X:X:X:X",
":X:X:X:X:X3X8X8X8X8X8X9X>X:X;X:X:X3X8X:.+.( m q.3X;X:X;X:X8X8X8X8X8X8X:X:X:X:X3XXX5X8X8X8X8X3X:X:X:X:X:X5X8X8X8X8X8X3X:X:X:X:X:X",
":X:X:X:X:X<X8X8X8X8X8X5X:X:X:X:X:X9X8X_.7 #.).9X,X:X:X,X:X8X8X8X8X8X8X1X:X<X:X:X5X8X8X8X8X8X3X:X1X:X:X:X5X8X8X8X8X8X3X:X:X:X:X:X",
"8X5X5X8X8X5X3X3X3X3X3X9X8X8X7X5X7X6X3X5X].@X8X9X6X8X7X7X5X3X3X3X3X3X3X5X5X5X5X8X9X<X3X3X3X2X9X8X8X5X5X8X9X3X3X2X3X3X5X5X5X8X8X5X",
"8X8X8X8X8X8X:X:X:X:X:X3X8X8X8X8X8X6X:X:X9X3X:X8X8X8X8X8X8X3X:X:X:X:X:X8X8X8X8X8X8X:X:X:X:X:X3X8X8X8X8X8X3X:X:X:X:X:X8X8X8X8X8X8X",
"8X8X8X8X8X5X:X:X:X:X:X3X8X8X8X8X8X3X:X:X:X:X:X5X8X8X8X8X8X1X:X:X:X:X3X8X8X8X8X8X5X:X:X:X:X:X9X8X8X8X8X8X3X:X:X:X:X:X8X8X8X8X8X8X",
"8X8X8X8X8X8X:X:X:X1X:X3X8X8X8X8X8X9X:X:X1X1X:X5X8X8X8X8X8X3X:X1X:X:X3X8X8X8X8X8X5X:X:X:X:X:X9X8X8X8X8X8X9X:X:X:X:X:X8X8X8X8X8X8X",
"8X8X8X8X8X8X:X:X:X1X:X3X8X8X8X8X8X9X:X:X:X:X:X8X8X8X8X8X8X:X:X:X:X:X2X8X8X8X8X8X8X:X:X:X:X:X9X8X8X8X8X8X3X:X:X:X:X:X8X8X8X8X8X8X",
"8X8X8X8X8X5X:X:X<X1X:X3X8X8X8X8X8X9X:X:X1X:X:X7X8X8X8X8X8X3X:X<X3X:X3X8X8X8X8X8X5X:X3X:X:X:X9X8X8X8X8X8X3X:X3X:X<X:X8X8X8X8X8X8X",
"3X:X3X:X3X3X8X8X8X8X8X8X3X:X3X:X:X7X8X8X8X8X8X3X:X:X3X3X3X5X8X8X8X8X5X1X:X3X:X:X3X8X8X8X8X8X4X:X:X3X3X:X7X8X8X8X8X8X3X:X:X3X:X3X",
":X:X:X:X:X:X8X8X8X8X8X5X:X:X:X:X:X6X8X8X8X8X8X9X:X:X:X:X:X8X8X8X8X8X8X:X:X:X:X:X3X8X8X8X8X8X9X:X:X3X:X:X8X8X8X8X8X8X3X:X:X:X3X:X",
":X:X:X:X:X3X8X8X8X8X8X5X:X:X1X:X:X5X8X8X8X8X8X3X:X:X:X:X:X8X8X8X8X8X8X:X:X:X:X:X3X8X8X8X8X8X9X:X:X:X:X:X5X8X8X8X8X8X:X:X:X:X:X:X",
":X:X:X:X:X3X8X8X8X8X8X7X:X:X:X:X:X9X8X8X8X8X8X3X:X:X:X:X:X8X8X8X8X8X8X:X:X:X3X:X3X8X8X8X8X8X5X:X:X:X:X:X5X8X8X8X8X8X:X:X:X:X:X:X",
":X:X:X:X:X3X8X8X8X8X8X4X:X:X:X:X:X9X8X8X8X8X8X3X:X:X:X:X:X8X8X8X8X8X8X:X:X:X:X:X3X8X8X8X8X8X6X:X:X:X:X:X5X8X8X8X8X8X3X:X:X:X:X:X",
"3X3X3X3X3X3X5X5X8X5X8X9X2X3X3X3X2X4X8X5X5X8X8X3X<X3X3X3X3X5X8X5X8X5X5X3X3X3X3X3X3X8X5X8X5X8X9X3X3X3X3X:X4X8X5X5X8X8X3X3X3X3X3X2X",
"8X8X8X8X8X8X:X:X:X:X:X3X8X8X8X8X8X9X:X:X:X:X:X5X8X8X8X8X8X:X:X:X:X:X3X8X8X8X8X8X5X:X:X:X:X:X3X8X8X8X8X8X3X:X:X:X:X:X8X8X8X8X8X8X",
"8X8X8X8X8X8X3X:X<X:X:X3X8X8X8X8X8X9X:X1X:X:X:X8X8X8X8X8X8X3X3X:X:X:X:X8X8X8X8X8X8X:X:X:X:X:X9X8X8X8X8X8X3X:X:X1X:X:X8X8X8X8X8X8X",
"8X8X8X8X8X5X:X:X:X:X:X9X8X8X8X8X8X9X:X:X:X:X:X5X8X8X8X8X8X:X:X:X:X:X3X8X8X8X8X8X7X:X2X:X:X:X9X8X8X8X8X8X9X:X:X:X:X:X5X8X8X8X8X8X",
"8X8X8X8X8X8X:X:X:X:X:X3X8X8X8X8X8X9X:X:X:X:X<X5X8X8X8X8X8X3X:X:X:X:X3X8X8X8X8X8X5X:X:X:X:X:X9X8X8X8X8X8X9X:X:X:X:X:X8X8X8X8X8X8X",
"8X8X8X8X8X8X:X:X:X:X:X9X8X8X8X8X8X9X:X:X1X1X:X5X8X8X8X8X8X:X:X:X<X:X2X8X8X8X8X8X5X<X<X:X:X:X9X8X8X8X8X8X3X:X:X:X:X:X8X8X8X8X8X8X"
};
