/* XPM */
static char *result[] = {
/* columns rows colors chars-per-pixel */
"64 58 213 2 ",
"   c #030000",
".  c #0C0001",
"X  c #0D0A08",
"o  c #130201",
"O  c #1B0100",
"+  c #1B0C09",
"@  c #060015",
"#  c #02001A",
"$  c #080018",
"%  c #160014",
"&  c #1A0013",
"*  c #13001D",
"=  c #1F1817",
"-  c #240402",
";  c #2B0503",
":  c #240805",
">  c #2A0904",
",  c #26040D",
"<  c #2C0E0A",
"1  c #310903",
"2  c #39060E",
"3  c #2A0E1A",
"4  c #3B0012",
"5  c #310C18",
"6  c #231312",
"7  c #281714",
"8  c #34141B",
"9  c #391618",
"0  c #3B160D",
"q  c #2D201E",
"w  c #3A2516",
"e  c #0E032B",
"r  c #180125",
"t  c #1F1826",
"y  c #240024",
"u  c #2B092D",
"i  c #3A0A28",
"p  c #3D182B",
"a  c #240633",
"s  c #330B34",
"d  c #2C2523",
"f  c #23252D",
"g  c #382626",
"h  c #29263D",
"j  c #2F2236",
"k  c #383433",
"l  c #40010B",
"z  c #450A15",
"x  c #450A1D",
"c  c #4A0718",
"v  c #590A18",
"b  c #441B14",
"n  c #481518",
"m  c #56181A",
"M  c #44331F",
"N  c #5A3717",
"B  c #410425",
"V  c #480C24",
"C  c #550E26",
"Z  c #4B1528",
"A  c #5C1322",
"S  c #5D122A",
"D  c #551725",
"F  c #531035",
"G  c #5C1137",
"H  c #6C0F29",
"J  c #740F22",
"K  c #641425",
"L  c #6B1423",
"P  c #6A142C",
"I  c #761126",
"U  c #7A1423",
"Y  c #721926",
"T  c #7A1C2D",
"R  c #7B1A26",
"E  c #671530",
"W  c #7D1C33",
"Q  c #791E36",
"!  c #483728",
"~  c #5C3F26",
"^  c #412B3F",
"/  c #483939",
"(  c #692628",
")  c #702A2B",
"_  c #772328",
"`  c #673927",
"'  c #6E2E32",
"]  c #6F3935",
"[  c #743538",
"{  c #7A2434",
"}  c #5D451E",
"|  c #584A1B",
" . c #4B4029",
".. c #54432B",
"X. c #4A433C",
"o. c #574E35",
"O. c #634A2A",
"+. c #6E512C",
"@. c #272343",
"#. c #4C3B41",
"$. c #5E3744",
"%. c #4E4344",
"&. c #5A4C4C",
"*. c #55504F",
"=. c #594E56",
"-. c #5D5959",
";. c #605644",
":. c #70584C",
">. c #645256",
",. c #645E53",
"<. c #62535A",
"1. c #635D5D",
"2. c #6C5858",
"3. c #765155",
"4. c #706143",
"5. c #545662",
"6. c #655666",
"7. c #686663",
"8. c #766B6C",
"9. c #79756C",
"0. c #7C6E72",
"q. c #777677",
"w. c #686972",
"e. c #851D2D",
"r. c #821A27",
"t. c #841D33",
"y. c #83232C",
"u. c #892529",
"i. c #942D2F",
"p. c #953029",
"a. c #8B2334",
"s. c #872935",
"d. c #932A35",
"f. c #9A2C36",
"g. c #952739",
"h. c #932B38",
"j. c #9A2E39",
"k. c #932334",
"l. c #883639",
"z. c #9E3439",
"x. c #983737",
"c. c #A32E39",
"v. c #A33534",
"b. c #A2343B",
"n. c #AD3D3B",
"m. c #A93838",
"M. c #B13D37",
"N. c #B1423E",
"B. c #A36238",
"V. c #902F42",
"C. c #8F3740",
"Z. c #953645",
"A. c #A53C49",
"S. c #837677",
"D. c #837B7A",
"F. c #907879",
"G. c #8F8A6F",
"H. c #86867E",
"J. c #7F7C87",
"K. c #877A80",
"L. c #8D8A86",
"P. c #878588",
"I. c #958D83",
"U. c #8E908E",
"Y. c #99938F",
"T. c #999898",
"R. c #A29B9B",
"E. c #A19588",
"W. c #A5A39F",
"Q. c #9C9EA1",
"!. c #A6A5A6",
"~. c #A9A4A4",
"^. c #ABACAC",
"/. c #A9A7AC",
"(. c #B5B1AF",
"). c #BAAFB0",
"_. c #B4B4B4",
"`. c #BAB5B5",
"'. c #BDBDBE",
"]. c #B7B8B8",
"[. c #B2ACAA",
"{. c #BCC0BE",
"}. c #C7C5BF",
"|. c #BCBCC2",
" X c #C1BFC0",
".X c #BEC0C1",
"XX c #C3C4C5",
"oX c #CBCCCB",
"OX c #C7CACA",
"+X c #CFCFD0",
"@X c #CED2D0",
"#X c #D3D4D3",
"$X c #DAD9D7",
"%X c #DBDBDA",
"&X c #D6DBDC",
"*X c #DEDEE2",
"=X c #DEE1E1",
"-X c #E1E3E4",
";X c #EDEDED",
":X c #E9EAE9",
">X c #F1EEEB",
",X c #EEF0EF",
"<X c #F2F0EE",
"1X c #EEEFF0",
"2X c #F1EFF1",
"3X c #EEF1F1",
"4X c #F4F4F4",
"5X c #F7F8F6",
"6X c #F8F9F6",
"7X c #F7F7F9",
"8X c #F8F7F8",
"9X c #F7F9F9",
"0X c #FEFEFE",
/* pixels */
"0X0X4X;X<X;X;X1X0X0X0X0X0X0X;X;X<X;X;X4X0X0X0X0X0X5X;X;X;X;X;X0X0X0X0X0X0X;X;X;X;X;X4X0X0X0X0X0X0X;X;X;X;X;X4X0X0X0X0X0X5X;X;X;X",
"0X0X4X;X;X;X;X4X0X0X0X0X0X9X;X;X;X;X;X4X0X0X0X0X0X5X;X;X;X;X;X9X0X0X0X0X0X4X;X;X;X;X1X0X0X0X0X0X9X<X;X1X;X;X5X0X0X0X0X0X5X;X;X;X",
"0X0X;X;X;X;X;X4X0X0X0X0X0X8X;X;X;X;X;X4X0X0X0X0X0X4X;X;X;X;X;X9X0X0X0X0X0X4X;X;X;X;X2X0X0X0X0X0X0X;X;X;X;X;X5X0X0X0X0X0X5X;X2X;X",
"0X0X;X;X;X;X:X<X0X0X0X0X0X9X;X;X;X;X;X5X0X0X0X0X0X5X:X;X;X;X;X8X0X0X0X0X0X4X;X;X;X;X;X0X0X0X0X0X9X;X;X;X;X:X4X0X0X0X0X0X4X;X;X;X",
"5X5X9X9X9X8X9X9X4X4X4X5X5X4X9X8X9X9X8X6X4X4X4X5X4X8X9X9X9X8X5X5X4X4X4X5X5X8X9X8X9X9X9X5X4X4X5X4X5X9X9X9X9X8X8X4X5X4X4X5X5X8X7X8X",
";X;X0X0X0X0X0X0X;X;X;X;X;X4X0X0X0X0X0X9X;X;X;X;X;X9X0X0X0X0X0X4X;X;X;X;X:X0X0X0X0X0X0X<X;X;X;X;X4X0X0X0X0X0X9X;X;X;X;X:X5X0X0X0X",
";X1X0X0X0X0X0X0X;X;X;X;X;X4X0X0X0X0X0X8X;X;X1X1X;X5X0X0X0X0X0X4X;X;X;X<X;X0X0X0X0X0X0X2X;X;X;X;X4X0X0X0X0X0X9X;X;X;X<X;X9X0X0X0X",
";X;X0X0X0X0X0X0X;X;X;X;X;X5X0X0X0X0X0X8X;X;X;X;X;X8X0X0X0X0X0X5X;X;X;X;X;X0X0X0X0X0X0X1X;X;X;X;X2X0X0X0X0X0X9X<X1X;X;X;X8X0X0X0X",
";X;X0X0X0X0X0X0X1X;X;X;X;X4X0X0X0X0X0X9X<X;X<X;X;X9X0X0X0X0X0X4X;X;X;X;X<X0X0X0X0X0X0X4X;X;X;X;X4X0X0X0X0X0X8X;X;X;X;X;X5X0X0X0X",
";X;X0X0X0X0X0X0X;X;X<X,X;X4X0X0X0X0X0X9X;X;X;X,X;X9X0X0X0X0X0X4X;X;X;X;X;X8X0X0X0X0X0X;X;X<X;X;X4X0X0X0X0X0X9X:X;X;X;X;X5X0X0X0X",
"9X0X4X4X4X4X4X4X9X0X9X8X9X8X4X4X2X4X4X4X9X0X9X8X8X8X4X4X4X4X<X8X9X0X0X7X9X5X4X4X4X4X4X9X0X9X9X0X9X4X4X<X4X4X5X0X0X0X8X0X4X4X4X4X",
"0X0X;X;X;X;X:X;X0X0X0X0X0X0X:X;X;X;X;X5X0X0X0X0X0X5X:X;X;X;X;X0X0X0X0X0X0X4X:X;X:X;X<X0X0X0X0X0X9X;X;X;X;X;X4X0X0X0X0X0X5X;X;X;X",
"0X0X4X;X;X;X;X4X0X0X0X0X0X0X;X;X;X1X;X4X0X0X0X0X0X5X;X;X;X;X;X9X0X0X0X0X0X4X;X;X;X;X4X0X0X0X0X0X8X;X;X;X;X;X4X0X0X0X0X0X4X;X;X;X",
"0X0X4X;X;X;X;X4X0X0X0X0X0X9X;X;X;X;X;X5X0X0X0X0X0X5X;X:X:X;X;X9X0X0X0X0X0X4X;X;X1X;X2X0X0X0X0X0X0X<X;X;X;X;X5X0X0X0X0X0X5X;X;X;X",
"0X0X;X;X;X4X;X;X0X0X0X0X0X8X;X;X;X;X;X4X0X0X0X9X0X7X4X7X5X7X8X0X0X0X0X0X9X<X;X;X;X;X;X0X0X0X0X0X0X;X;X;X;X;X5X0X0X0X0X0X5X;X;X;X",
"0X0X;X;X;X;X;X4X0X0X0X0X0X9X;X;X;X;X;X5X0X0X0X0X0X;X+X'.'..XXX%X3X0X0X0X0X9X;X;X;X<X2X0X0X0X0X0X9X;X;X2X;X;X4X0X0X0X0X0X4X;X;X1X",
"4X4X0X0X0X0X0X9X4X1X4X4X;X4X0X0X0X0X0X0X4XoX/.P.*.d + o o o o 6 q k &.q.T.#X5X0X0X8X9X4X4X;X4X1X4X0X0X0X0X0X9X<X4X;X4X;X5X0X0X0X",
":X;X0X0X0X0X0X0X;X;X:X;X;X4X0X0X0X0X0X].-.-.k   . O - - - - - - - O o o o + d -.%X0X0X;X:X;X;X;X4X0X0X0X0X0X9X;X;X;X;X;X5X0X0X0X",
";X;X0X0X0X0X0X0X;X;X<X;X;X4X0X0X0X0X0XoX].^.k o > > : : : : : : ; > ; > > o .   k 0X0X;X;X;X;X;X4X0X0X0X0X0X5X;X;X;X<X;X9X0X0X0X",
";X4X0X0X0X0X0X0X;X1X;X;X;X4X0X0X0X0X0X0Xq.X = 7 o o ; : : ; ; ; > ; ; : O X _.:XXX6X0X;X;X2X,X;X4X0X0X0X0X0X8X;X;X;X;X;X8X0X0X0X",
";X;X0X0X0X0X0X0X;X;X;X;X;X4X0X0X0X0X0X4X{.@X-X$X_./ O 1 1 1 > > : - - O   7.0X$X9X0X%X;X;X;X;X;X4X0X0X0X0X0X8X;X;X;X;X;X8X0X0X0X",
";X4X0X0X0X0X0X0X;X4X4X;X;X4X0X0X0X0X0X0X0X0X0X0X0X0X-.O > O O - - - : -   {.0X~.! <XL.,.0X4X;X;X4X0X0X0X0X0X5X4X4X;X4X;X5X0X0X0X",
"0X0X;X;X4X;X;X4X0X0X0X0X0X9X<X_.T.Y.D.K.0.S.0.8.8.S.&.b n m b b < O 7 + o 7.*X0XY...'.o.I.0X0X0X9X;X4X;X4X;X4X0X0X0X0X0X5X;X<X1X",
"0X0X;X;X;X;X;X;X0X0X0X0X0X9X,Xq.7 4 v I H J I U U U r.d.z.x.z.x.l.( [ n ( 0 d ,.^.9.4.I.| }.0X0X8X<X;X;X;X;X4X0X0X0X0X0X5X;X;X;X",
"0X0X4X;X;X;X;X<X0X0X0X0X0X8X<X7X-X(.>._ m.b.z.b.b.b.b.b.f.d.k.a.u.k.t.t.W E Z 8 7 X...O.! G.0X8X9X<X;X;X;X;X4X0X0X0X0X0X5X;X;X;X",
"0X0X4X;X;X;X;X4X0X0X0X0X0X9X,X;X3X0X4XR.] m.A.M.c.d.d.a.a.t.t.a.a.a.a.a.t.W Q _ ( D 9 ~ O.O.=X0X9X;X;X;X;X;X5X0X0X0X0X0X5X;X;X;X",
"0X0X;X;X;X;X;X3X0X0X0X0X0X9X;X;X;X:X;X0X{.( j.W T t.a.h.h.j.b.h.a.a.z.s.P T b.a.v.c.g.' B._ 3.0X0X;X;X;X;X;X4X0X0X0X0X0X5X:X;X;X",
"0X9X;X4X3X4X<X4X9X0X0X0X0X9X;X4X<X4X;X2X0X2.Y a.h.n.n.N.n.z.a.T a.b.s.S P L L _ k.L m L y.x.h.F.0X2X,X4X2X2X5X0X0X0X0X0X4X4X2X4X",
";X;X0X0X0X0X0X0X<X;X;X;X;X4X0X0X0X0X0X0X!./ S S T M.M.v.k.t.T h.x.Q E G y.a.v 2 z ; m x.l.` s.D &X0X0X0X0X0X9X;X;X;X;X;X7X0X0X0X",
";X<X0X0X0X0X0X6X;X1X;X;X;X4X0X0X0X0X9XP.9 c u u V K i.v.y.A A D 3 3 E G e.k.L - - g ' Z.A.j.x.R W.0X0X0X0X0X9X<X<X;X;X;X8X0X0X0X",
";X<X0X0X6X%X8X0X5X;X:X;X;X4X9X0X0X$X;.9 V V a a s i x y.m.m c O .   5 F T t.l 1.`.;X#X#.Z [ v.c.[ -X0X0X0X0X9X;X;X;X;X;X9X0X0X0X",
";X3X0X0X9X!.k S.OX8X0X4X:X7X0X0X^.g 9 Z i y r e a s u B u.p.8 #./ -.j F y.v >.0X0X0X0X<X5.f C r.R `.0X9X0X0X9X;X1X;X;X;X8X0X0X0X",
";X;X0X0X0X0X`.6 7 9.Y.#X7X&XL.X.8 i u e # @.T.g V S C C K v P.0X;X0X6.B W W 3.T.<X0X6X<X4X}.q.Z z `.0X0X0X0X9X;X;X;X;X:X5X0X0X0X",
"4X5X9X9X9X5X0X-X<.< < / 2.! < 5 p r # @.P./.<.z S Z V V 4 , XX0X;X5X=X<.4 V H R $. X0X4X2X0X0X=XOX5X8X9X9X8X9X4X4X4X4X5X5X8X8X9X",
"0X0X;X;X;X<X:X4X0X/.@.% % % r r * h w.;XU.% 4 x & $ @ t =.~.5X8X0X0X0X0X].q.>.V.) } '.0X0X0X0X0X0X;X<X;X;X;X5X0X0X0X0X0X5X;X<X;X",
"0X0X2X1X;X;X<X2X0X0X7X!.J.5.=.P.'.>X0Xq.. Z c p T.^._.#X0X5X;X8X0X0X0X0X0X0X3X:.+.} [.0X0X0X0X0X9X;X;X;X;X;X4X0X0X0X0X0X5X;X;X1X",
"0X0X4X;X;X;X;X2X0X0X0X0X0X0X9X0X7X8X(.w ) V.z T.0X0X9X4X;X;X;X8X0X0X0X0X0X:X0XY.,.Q.%X0X0X0X0X0X0X;X;X;X2X;X4X0X0X0X0X0X4X;X;X;X",
"0X0X4X;X;X;X;X2X0X0X0X9X8X8X;X;X:X8X8.N ` n >.4X0X4X;X;X;X;X;X8X0X0X0X0X0X4X:X'.#X0X;X0X0X0X0X0X8X;X;X;X;X;X5X0X0X0X0X0X5X;X1X;X",
"0X0X;X:X;X;X;X1X0X0X0X0X0X9X;X;X;X4XXXd ! L.7X0X0X4X:X;X;X;X;X9X0X0X0X0X0X2X;X;X4X:X<X0X0X0X0X0X0X;X;X:X;X:X4X0X0X0X0X0X8X:X;X;X",
"8X5X5X5X5X4X5X5X6X8X9X6X5X5X5X5X4X4X0XOXXX0X8X7X8X4X5X5X8X4X5X5X8X9X5X5X7X5X4X5X4X5X5X8X8X9X5X5X6X8X5X5X5X5X4X8X8X9X8X8X4X5X8X4X",
";X;X0X0X0X0X0X0X;X;X;X;X:X4X0X0X0X0X0X0X8X:X;X;X:X8X0X0X0X0X0X4X;X;X;X;X;X0X0X0X0X0X0X;X;X;X;X;X4X0X0X0X0X0X8X;X;X;X;X;X5X0X0X0X",
";X;X0X0X0X0X0X0X;X;X;X4X;X4X0X0X0X0X0X8X;X;X;X;X<X9X0X0X0X0X0X4X;X;X;X;X;X0X0X0X0X0X0X4X;X;X;X;X4X0X0X0X0X0X6X;X<X;X;X;X5X0X0X0X",
";X;X0X0X0X0X0X0X;X;X;X;X;X4X0X0X0X0X0X9X;X;X;X<X;X9X0X0X0X0X0X4X;X;X;X;X;X0X0X0X0X0X0X;X;X;X;X;X4X0X0X0X0X0X9X;X;X;X1X;X9X0X0X0X",
"1X2X0X0X0X0X0X0X2X;X;X;X;X4X0X0X0X0X0X9X;X3X;X;X;X9X0X0X0X0X0X5X;X<X;X;X;X0X0X0X0X0X0X;X;X;X;X;X4X0X0X0X0X0X8X;X;X;X4X:X8X0X0X0X",
";X;X0X0X0X0X0X0X<X;X;X;X;X2X0X0X0X0X0X8X:X<X;X;X;X8X0X0X0X0X0X4X;X;X<X;X;X0X0X0X0X0X0X;X;X;X<X;X4X0X0X0X0X0X9X;X;X;X;X;X8X0X0X0X",
"8X7X5X5X5X5X4X5X9X9X5X8X8X7X5X4X5X5X4X5X9X9X8X8X8X4X5X4X4X5X5X9X7X5X9X9X8X4X4X5X5X5X5X9X8X5X9X9X5X4X4X5X4X5X8X8X8X8X8X9X5X5X4X5X",
"0X0X;X;X;X;X;X1X0X0X0X0X0X8X;X;X;X;X:X5X0X0X0X0X0X5X:X;X;X;X;X8X0X0X0X0X0X;X;X;X;X;X;X0X0X0X0X0X0X;X;X;X;X;X5X0X0X0X0X0X5X;X;X;X",
"0X0X2X;X;X;X;X2X0X0X0X0X0X0X;X;X;X;X;X5X0X0X0X0X0X5X;X2X;X;X;X0X0X0X0X0X0X4X;X;X;X;X2X0X0X0X0X0X9X;X;X;X;X;X4X0X0X0X0X0X4X;X;X;X",
"0X0X4X;X;X;X;X;X0X0X0X0X0X0X;X;X;X;X;X5X0X0X0X0X0X5X;X;X;X;X;X8X0X0X0X0X0X;X;X;X;X;X4X0X0X0X0X0X8X<X;X;X;X;X4X0X0X0X0X0X5X;X;X;X",
"0X0X4X;X<X;X;X4X0X0X0X0X0X9X;X;X<X;X;X4X0X0X0X0X0X5X;X;X;X;X;X9X0X0X0X0X0X4X;X;X;X;X;X0X0X0X0X0X0X;X1X;X;X;X4X0X0X0X0X0X5X;X;X;X",
"0X0X;X;X;X;X;X4X0X0X0X0X0X9X;X;X;X;X;X5X0X0X0X0X0X5X;X;X;X;X;X8X0X0X0X0X0X4X;X;X;X;X;X0X0X0X0X0X0X;X;X;X;X;X4X0X0X0X0X0X5X;X;X;X",
"4X4X9X9X0X8X9X9X5X4X4X4X4X8X8X9X0X8X9X8X4X4X4X4X4X8X9X8X0X8X9X5X4X5X4X4X4X9X0X9X9X0X8X4X4X5X4X2X4X8X0X9X0X8X8X4X5X4X4X4X5X0X8X9X",
";X;X0X0X0X0X0X0X;X;X;X;X;X4X0X0X0X0X0X9X;X;X;X;X;X5X0X0X0X0X0X4X:X;X;X;X;X0X0X0X0X0X0X;X;X;X;X;X4X0X0X0X0X0X9X;X;X;X;X;X7X0X0X0X",
";X<X0X0X0X0X0X0X;X;X;X;X;X4X0X0X0X0X0X9X;X;X;X1X;X7X0X0X0X0X0X4X;X;X;X;X;X0X0X0X0X0X0X4X1X;X;X;X4X0X0X0X0X0X9X;X;X;X;X;X5X0X0X0X",
";X2X0X0X0X0X0X0X;X;X;X;X;X4X0X0X0X0X0X8X;X;X;X;X;X8X0X0X0X0X0X4X;X;X;X;X;X0X0X0X0X0X0X;X;X;X;X;X4X0X0X0X0X0X9X;X;X;X;X;X9X0X0X0X",
";X1X0X0X0X0X0X0X;X;X;X;X;X5X0X0X0X0X0X7X;X;X;X;X;X5X0X0X0X0X0X5X;X1X;X;X;X0X0X0X0X0X0X;X<X;X;X;X2X0X0X0X0X0X9X<X;X;X;X;X8X0X0X0X",
";X4X0X0X0X0X0X0X2X;X;X;X;X4X0X0X0X0X0X5X;X;X<X;X;X7X0X0X0X0X0X4X;X<X;X;X;X0X0X0X0X0X0X<X;X1X;X;X4X0X0X0X0X0X9X;X<X;X;X;X5X0X0X0X",
"9X9X4X;X4X4X;X4X0X0X0X9X0X9X<X4X4X2X,X5X0X0X0X9X0X5X;X4X4X<X4X9X0X0X0X9X0X4X2X2X4X<X4X9X0X0X9X0X9X;X4X4X4X;X5X0X0X0X9X0X5X2X2X4X"
};
