/* XPM */
static char *result[] = {
/* columns rows colors chars-per-pixel */
"64 61 211 2 ",
"   c #040001",
".  c #0B0004",
"X  c #130202",
"o  c #1C0302",
"O  c #16020A",
"+  c #1F100B",
"@  c #06001D",
"#  c #1D0D12",
"$  c #15131F",
"%  c #230303",
"&  c #270D0C",
"*  c #2A080A",
"=  c #37060A",
"-  c #261409",
";  c #2B190E",
":  c #34120F",
">  c #260118",
",  c #3C0D19",
"<  c #3C0715",
"1  c #291819",
"2  c #34141B",
"3  c #39131B",
"4  c #3A1A18",
"5  c #3C2213",
"6  c #3B301F",
"7  c #090226",
"8  c #0C002D",
"9  c #120023",
"0  c #1C022E",
"q  c #1A0531",
"w  c #191830",
"e  c #2E0927",
"r  c #320A2C",
"t  c #3B0C2E",
"y  c #390725",
"u  c #330830",
"i  c #352826",
"p  c #392A26",
"a  c #39332F",
"s  c #312E35",
"d  c #3F3A31",
"f  c #2C2A2C",
"g  c #420608",
"h  c #470713",
"j  c #4A0A14",
"k  c #590B1E",
"l  c #510D18",
"z  c #43191A",
"x  c #4B181A",
"c  c #56191C",
"v  c #66191D",
"b  c #472A18",
"n  c #58261B",
"m  c #543B19",
"M  c #6D381E",
"N  c #440C23",
"B  c #4A0C2C",
"V  c #460720",
"C  c #510E2D",
"Z  c #5C0F2C",
"A  c #560C21",
"S  c #421A21",
"D  c #431129",
"F  c #471926",
"G  c #5B1628",
"H  c #5D0F32",
"J  c #5D1132",
"K  c #460C34",
"L  c #670E27",
"P  c #700C23",
"I  c #631425",
"U  c #6B1426",
"Y  c #62132E",
"T  c #6C142E",
"R  c #671A28",
"E  c #73152D",
"W  c #73182D",
"Q  c #7B1B2A",
"!  c #711B27",
"~  c #620F30",
"^  c #631232",
"/  c #6C1533",
"(  c #681435",
")  c #741631",
"_  c #741B34",
"`  c #7B1B33",
"'  c #46242B",
"]  c #41282A",
"[  c #5A232D",
"{  c #5B2127",
"}  c #4C2932",
"|  c #443435",
" . c #433A31",
".. c #543234",
"X. c #43372A",
"o. c #632025",
"O. c #61202A",
"+. c #722B2B",
"@. c #7C272E",
"#. c #733E2E",
"$. c #6C2837",
"%. c #792235",
"&. c #773235",
"*. c #70461E",
"=. c #674A1F",
"-. c #5A4C26",
";. c #45403E",
":. c #4B4233",
">. c #584C36",
",. c #684C20",
"<. c #73412D",
"1. c #71532A",
"2. c #7B4331",
"3. c #342E45",
"4. c #3C3D46",
"5. c #633F43",
"6. c #494447",
"7. c #574D44",
"8. c #57464A",
"9. c #53504A",
"0. c #5B4C59",
"q. c #5D5B53",
"w. c #5B5556",
"e. c #665846",
"r. c #7F6B49",
"t. c #72625D",
"y. c #625E68",
"u. c #656463",
"i. c #6B676A",
"p. c #6E6661",
"a. c #726E6E",
"s. c #7A6E6F",
"d. c #76726C",
"f. c #736E71",
"g. c #7B7675",
"h. c #79787B",
"j. c #841D2E",
"k. c #821A32",
"l. c #871E37",
"z. c #8B2D2E",
"x. c #84242D",
"c. c #96332E",
"v. c #842334",
"b. c #8C2434",
"n. c #8B2A37",
"m. c #922334",
"M. c #962D3B",
"N. c #972B38",
"B. c #8E3132",
"V. c #873836",
"C. c #993436",
"Z. c #A63438",
"A. c #964B38",
"S. c #845C2C",
"D. c #A25D3C",
"F. c #8F2F42",
"G. c #AE3B4E",
"H. c #AE4750",
"J. c #B64D59",
"K. c #837A6B",
"L. c #837E77",
"P. c #827677",
"I. c #86827A",
"U. c #93897C",
"Y. c #868583",
"T. c #8D8988",
"R. c #918E8C",
"E. c #97908F",
"W. c #968D97",
"Q. c #949393",
"!. c #9A9395",
"~. c #99989B",
"^. c #A09B9D",
"/. c #A39FA3",
"(. c #9DA1A1",
"). c #A2A3A2",
"_. c #ACACAD",
"`. c #B1B5AF",
"'. c #B4AFB4",
"]. c #AFB2B3",
"[. c #B3B3B3",
"{. c #B6BDBA",
"}. c #BCBDBD",
"|. c #BCC1C0",
" X c #C7C9C7",
".X c #C2D1CB",
"XX c #CCD0D0",
"oX c #D4D5D5",
"OX c #DEDEDE",
"+X c #D7DAD7",
"@X c #CACAD2",
"#X c #DCE1DC",
"$X c #E1DFE3",
"%X c #DFE3E2",
"&X c #E3E4E4",
"*X c #E6ECEA",
"=X c #EEEEEE",
"-X c #E5E7EA",
";X c #F0EEEF",
":X c #EDF0EE",
">X c #F1F0EE",
",X c #EEEEF1",
"<X c #F1EEF3",
"1X c #EEF1F1",
"2X c #F3F4F3",
"3X c #F8F7F7",
"4X c #F6F8F6",
"5X c #F6F6F9",
"6X c #F8F6F9",
"7X c #FEFEFE",
"8X c #F7F8F8",
/* pixels */
"=X=X=X=X=X8X7X7X7X7X7X2X=X=X=X=X=X2X7X7X7X7X7X7X=X=X=X=X=X2X7X7X7X7X7X7X2X=X=X=X=X=X8X7X7X7X7X7X8X=X=X=X=X=X2X7X7X7X7X7X7X2X=X=X",
"=X=X2X=X=X7X7X7X7X7X7X3X=X2X=X=X=X2X7X7X7X7X7X8X=X=X=X;X=X=X7X7X7X7X7X7X2X=X=X=X=X=X8X7X7X7X7X7X8X=X=X=X=X=X2X7X7X7X7X7X7X=X=X=X",
"=X=X=X=X=X8X7X7X7X7X7X8X=X=X=X=X=X2X7X7X7X7X7X7X=X=X=X:X=X=X7X7X7X7X7X7X2X=X=X=X=X=X8X7X7X7X7X7X2X=X;X=X=X=X2X7X7X7X7X7X7X=X=X=X",
"=X=X=X=X2X8X7X7X7X7X7X2X=X=X=X2X=X2X7X7X7X7X7X7X=X;X=X,X=X2X7X7X7X7X7X7X2X=X=X=X2X;X8X7X7X7X7X7X8X=X>X=X=X=X2X7X7X7X7X7X7X=X2X=X",
"=X=X2X=X=X8X7X7X7X7X7X8X=X=X=X=X=X2X7X7X7X7X7X7X=X=X2X=X=X=X7X7X7X7X7X7X2X=X=X=X=X=X8X7X7X7X7X7X8X=X2X=X=X=X2X7X7X7X7X7X7X=X=X=X",
"2X2X2X2X2X2X8X2X8X8X8X2X2X2X2X2X2X3X8X8X8X8X8X2X2X2X2X2X2X2X8X2X8X8X8X2X2X2X2X2X2X2X3X3X8X8X3X2X2X2X2X2X2X2X2X3X8X8X8X2X2X2X2X2X",
"7X7X7X7X7X2X=X=X=X=X=X2X7X7X7X7X7X8X=X=X=X=X=X=X7X7X7X7X7X7X=X=X=X=X=X=X7X7X7X7X7X7X2X=X=X=X=X=X2X7X7X7X7X7X7X=X=X=X=X=X2X7X7X7X",
"7X7X7X7X7X2X=X=X;X=X=X8X7X7X7X7X7X2X=X2X=X=X=X2X7X7X7X7X7X7X2X=X;X=X=X2X8X7X7X7X7X7X2X=X2X=X=X=X3X7X7X7X7X7X8X=X;X=X=X=X=X7X7X7X",
"7X7X7X7X7X2X=X=X=X=X=X8X7X7X7X7X7X8X=X=X;X=X=X=X7X7X7X7X7X7X=X=X=X=X=X>X7X7X7X7X7X7X2X=X=X=X=X=X2X7X7X7X7X7X3X=X=X=X=X=X=X7X7X7X",
"7X7X7X7X7X=X=X=X=X=X=X8X7X7X7X7X7X8X=X=X=X=X=X2X7X7X7X7X7X7X=X=X=X=X,X=X7X7X7X7X7X7X2X=X=X=X=X=X8X7X7X7X7X7X8X=X=X=X=X=X2X7X7X7X",
"7X7X7X7X7X2X=X=X=X=X=X3X7X7X7X7X7X8X=X=X=X=X=X2X7X7X7X7X7X7X=X=X=X=X=X=X8X7X7X7X7X7X2X=X=X=X=X=X2X7X7X7X7X7X7X=X=X=X=X=X2X7X7X7X",
"7X7X7X8X7X2X2X2X2X2X=X2X7X8X7X7X7X8X=X2X2X2X=X2X7X7X7X8X7X7X2X2X>X=X2X2X3X7X7X7X7X7X2X2X2X2X=X2X2X7X7X8X7X7X8X2X2X2X=X2X2X8X7X7X",
"=X=X=X=X=X7X7X7X7X7X7X2X=X=X=X=X=X2X7X7X7X7X7X8X=X=X=X=X=X=X7X7X7X7X7X7X2X=X=X=X=X=X8X7X7X7X7X7X8X=X;X=X=X=X2X7X7X7X7X7X7X=X=X=X",
"=X=X=X=X=X8X7X7X7X7X7X8X=X=X=X=X=X2X7X7X7X7X7X7X=X=X=X=X=X2X7X7X7X7X7X7X2X=X=X=X=X=X8X7X7X7X7X7X8X=X=X=X=X=X2X7X7X7X7X7X8X2X=X=X",
"=X=X=X=X=X7X7X7X7X7X7X2X=X=X=X=X=X2X7X7X7X7X7X7X:X=X=X=X=X>X7X7X7X7X7X7X1X=X=X=X=X=X3X7X7X7X7X7X4X=X=X=X=X=X2X7X7X7X7X7X7X:X=X=X",
"=X:X=X<X;X8X7X7X7X7X7X2X=X:X=X<X=X2X7X7X7X7X7X7X=X<X=X=X=X=X7X7X7X7X7X7X2X=X=X=X=X=X8X7X7X7X7X7X3X=X=X;X=X=X2X7X7X7X7X7X7X<X=X=X",
"=X;X=X2X=X8X7X7X7X7X7X4X=X=X=X>X=X2X7X7X7X7X7X7X=X=X=X=X,X>X7X7X7X7X7X7X<X=X=X=X=X=X8X7X7X7X7X7X8X=X=X<X=X=X2X7X7X7X7X7X7X=X=X=X",
"=X=X=X=X=X8X7X7X7X7X7X2X=X<X=X=X=X2X7X7X7X7X7X8X=X=X=X:X=X,X7X7X7X7X7X7X:X=X;X:X>X;X8X7X7X7X7X7X2X=X:X=X2X=X2X7X7X7X7X7X7X=X:X;X",
"7X7X7X7X7X2X2X=X;X2X;X8X7X7X7X7X7X8X2X=X<X:X2X2X7X7X7X7X7X8X;X2X8X7X2X#X7X7X8X7X7X7X2X,X2X=X=X,X2X7X7X7X7X7X8X;X2X=X2X=X2X7X7X7X",
"7X7X7X7X7X2X=X=X=X=X=X8X7X7X7X7X7X8X=X=X=X=X=X;X7X7X7X8X7X7X7X-X[.h.;.1 w.XX7X7X7X7X>X=X=X=X=X=X3X7X7X7X7X7X8X=X=X=X=X=X=X7X7X7X",
"7X7X7X7X7X2X=X=X=X=X=X2X7X7X7X7X7X8X=X=X=X=X=X2X7X7X7X7X7X Xa.i X X X o X   f.7X7X7X7X>X=X,X=X=X2X7X7X7X7X7X8X;X=X=X=X=X2X7X7X7X",
"7X7X7X7X7X2X=X=X=X=X=X3X7X7X7X7X7X3X=X=X=X=X=X2X7X7X2X~.;.o . % * % % % o + T.h.Q.7X(.$X8X,X,X=X2X7X7X7X7X7X8X=X=X=X=X=X=X7X7X7X",
"7X7X7X7X7X=X=X=X=X=X=X8X7X7X7X7X7X8X=X=X=X=X=X=X7X=Xa   o % * o o o % %   _.7XI.- OXf.d OX2X=X=X3X7X7X7X7X7X8X=X=X2X=X=X2X7X7X7X",
"7X7X7X7X7X2X=X=X=X=X=X8X7X7X7X7X7X8X=X=X=X=X=X:X7Xw.  % - ; X ; o 6 - : 5 u.=X7XI.>.@X>.>.-X:X=X8X7X7X7X7X7X7X=X=X=X=X=X=X7X7X7X",
"2X2X2X2X2X2X8X8X7X8X7X2X2X2X2X2X2X2X7X8X8X8X2X7XY.  O 1 b 2.c A.b V.n R V.& p I.d. .e.].>.U.7X4X8X>X2X2X2X2X2X8X8X8X8X7X8X2X2X2X",
"=X=X=X=X=X7X7X7X7X7X7X3X=X=X=X=X=X2X7X7X7X7X7X+X. n #.#.+.U Z U z k R _ x.R { : b 1 ,.S.9.-.&X7X2X=X=X=X=X=X2X7X7X7X7X7X7X=X=X=X",
"=X=X=X=X=X8X7X7X7X7X7X2X=X=X:X=X=X2X7X7X7X7X5X9.z B.c.I Z B C Z ~ / _ _ ` j.b.@.c R G S.1.m d.7X2X=X;X=X=X=X2X7X7X7X7X7X7X<X=X;X",
"=X=X=X=X=X7X7X7X7X7X7X8X=X=X=X=X=X2X7X7X7X[.f 5 C.) ) / / ( / ( ( ~ ^ T b.b.k.z.Z.N.N.A.D.B.o.!.7X=X=X=X=X=X2X7X7X7X7X7X7X:X=X=X",
"=X=X=X=X=X8X7X7X7X7X7X2X=X2X=X,X=X2X7X2Xu.2 G / ^ J ^ J Y J H H ~ ( l.m.k.U v z.N.m.! k x.z.G.+./.2X=X=X=X=X2X7X7X7X7X7X7X=X=X=X",
"=X=X=X2X=X7X7X7X7X7X7X3X=X=X=X=X=X2X7X1X| G ^ J J Z J J J J / ) k.M.b./ U E h j l j = x V.<.&.v.} =X=X=X=X=X2X7X7X7X7X7X7X=X=X=X",
"2X2X8X2X2X2X2X2X2X8X2X2X2X3X2X4X6X2X2X7XY.< ^ J J J J T _ ) ) k.k.L I ( W m.! = % & j H.J.B.n.C.o.Q.7X2X2X2X3X2X2X8X2X2X8X2X2X8X",
"7X7X7X7X7X2X=X=X=X=X=X8X7X7X7X7X7X3X3X`.] x C ~ Y / _ ` ) T ) k S | 2 B Q b.j.< R.=XR.2 G n.C.Z.Z.[ +X7X7X7X7X=X=X=X=X=X2X7X7X7X",
"7X7X7X7X7X2X=X=X=X>X=X3X7X7X7X7X7X8X|.] x y B ( W W ( ~ / W G s. X2X).e W x.P ' 7X7X7X|.s $ } Q N.Q E.7X8X7X8X=X=X=X=X=X2X7X7X7X",
"7X7X7X7X7X<X=X=X=X:X=X3X7X7X7X3X7X XX.S y e t / ( J Z / M.' {.7X2X6X].r W Q j ~.7X8X2X8XOXh.4.F h g T.7X7X7X7X=X=X=X=X=X=X7X7X7X",
"7X7X7X7X7X2X=X=X=X=X=X2X7X7X7X7XoX .3 D r 8 K ^ H ( H n.b.3 oX2X-X8Xf.y ` ` ' .X7X7X;X=X2X3X*XXXI.a.&X7X7X7X3X=X=X=X=X=X2X7X7X7X",
"7X7X7X7X8X=X1X7X4X=X=X2X7X7X8X_. .3 r q 7 w D ~ J H Y m.= 6.=X=X=X,X&X0.< / %.x P.7X3X=X=X*X;X2X7X7X7X7X7X7X8X=X=X=X=X=X=X7X7X7X",
"8X8X8X7X[.f  .Y.}.8X2X7X7XOXq.+ 4 u 0 @ 6.d y J H J _ [ w.oX8X2X2X2X3X=Xf.] , G.k 6.#X3X2X2X2X2X2X3X8X7X8X7X3X2X2X2X2X2X2X8X7X8X",
";X=X=X=X=X X9.O i p.e.g.u.i 3 2 t 9 7 ~.i.> V H J J I ~.7X;X7X7X7X7X7X7X7X-XW.5.V.*.K.7X7X7X7X7X8X=X=X=X=X=X2X7X7X7X7X7X7X=X=X=X",
";X=X=X;X=X7X7XW.1 > & O > > e 9 @ 3.&X{.. A < t ^ T 5.*X=X=X7X7X7X7X7X7X=X;X6Xt.,.m K.7X8X7X7X7X2X=X=X=X=X=X2X7X7X7X7X7X7X:X=X=X",
"=X:X=X=X=X8X7X7X%X'.W.h.0.3.3.4.~.2X7Xu.h n.$.# ^ A ).7X=X2X7X7X7X7X7X7X<X=X7XL.6.u.}.7X7X7X7X7X3X=X,X=X=X=X2X7X7X7X7X7X7X<X=X=X",
"=X=X=X=X=X7X7X7X7X7X7X7X4X2X=X2X8X2X7Xe.M R ..u.V 5.1X,X=X:X7X7X7X7X7X7X2X=X2X}.oX3X2X7X7X7X7X7X2X=X=X=X=X=X2X7X7X7X7X7X7X=X=X=X",
"=X,X=X=X=X8X7X7X7X8X7X2X=X=X=X=X=X2X7X7.b b ).#XX !.8X=X=X,X7X7X7X7X7X7X;X=X=X2X2X=X8X7X7X7X7X7X8X=X=X=X=X=X2X7X7X7X7X7X7X=X2X=X",
"2X=X=X2X>X8X7X7X7X7X7X2X=X=X=X:X=X2X7X[.a L.7X2XR.&X2X2X:X1X7X7X8X7X7X7X2X2X2X=X=X2X8X7X7X7X7X7X3X=X2X=X2X=X2X7X7X7X7X7X8X=X=X2X",
"7X7X7X7X7X2X=X=X=X2X=X2X7X7X7X7X7X8X=X3X&X,X,X2X7X7X7X7X7X7X=X=X2X2X=X=X8X7X7X7X7X7X2X=X;X:X=X=X2X7X7X7X7X7X8X=X2X=X=X=X2X7X7X7X",
"7X7X7X7X7X2X=X=X=X=X=X3X7X7X7X7X7X3X=X=X;X=X=X2X7X7X7X7X7X7X2X=X=X=X=X=X7X7X7X7X7X7X2X=X=X=X=X=X8X7X7X7X7X7X8X=X=X2X=X=X;X7X7X7X",
"7X7X7X7X7X2X=X=X=X=X=X8X7X7X7X7X7X8X=X=X=X=X=X>X7X7X7X7X7X7X=X=X=X=X=X=X7X7X7X7X7X7X2X=X=X<X=X=X2X7X7X7X7X7X7X=X=X=X=X=X2X7X7X7X",
"7X7X7X7X7X2X=X=X;X=X=X8X7X7X7X7X7X8X=X=X=X=X=X2X7X7X7X7X7X7X=X=X=X=X=X=X7X7X7X7X7X7X2X=X:X=X=X=X2X7X7X7X7X7X8X=X=X=X=X=X2X7X7X7X",
"7X7X7X7X7X2X=X=X=X=X=X8X7X7X7X7X7X8X=X=X=X=X=X=X7X7X7X7X7X7X=X=X=X=X=X;X8X7X7X7X7X7X2X=X=X=X;X=X8X7X7X7X7X7X8X=X=X=X=X=X=X7X7X7X",
"7X7X7X7X7X2X=X;X=X=X=X2X7X7X7X7X7X8X=X;X=X=X=X=X7X7X7X7X7X7X=X=X=X=X=X=X8X7X7X7X7X7X2X=X=X=X=X=X3X7X7X7X7X7X8X=X=X=X=X=X=X7X7X7X",
"2X2X2X2X2X8X7X8X7X7X7X3X2X2X2X2X2X2X7X8X7X7X7X8X2X2X;X2X2X2X8X7X7X7X8X7X2X2X2X2X2X2X8X7X7X8X7X7X8X2X2X2X2X2X2X7X8X7X7X7X8X2X2X2X",
"=X=X=X=X=X8X7X7X7X7X7X8X=X=X=X=X=X2X7X7X7X7X7X7X=X=X=X=X=X=X7X7X7X7X7X7X2X=X=X=X=X=X8X7X7X7X7X7X2X=X=X=X=X=X2X7X7X7X7X7X7X=X=X=X",
"=X=X=X=X;X8X7X7X7X7X7X2X=X=X=X=X=X2X7X7X7X7X7X7X=X=X=X=X=X2X7X7X7X7X7X7X2X=X=X=X=X=X8X7X7X7X7X7X2X=X=X=X=X=X2X7X7X7X7X7X7X=X=X=X",
"=X=X=X=X=X8X7X7X7X7X7X3X=X=X=X=X=X2X7X7X7X7X7X7X=X=X=X=X=X2X7X7X7X7X7X7X=X=X=X=X=X=X3X7X7X7X7X7X8X=X=X=X=X=X2X7X7X7X7X7X7X=X=X=X",
"=X=X;X=X=X7X7X7X7X7X7X8X=X=X=X=X=X2X7X7X7X7X7X8X=X=X=X;X=X=X7X7X7X7X7X7X2X=X=X=X=X=X8X7X7X7X7X7X3X=X;X=X=X=X2X7X7X7X7X7X7X=X:X<X",
"=X=X=X=X=X7X7X7X7X7X7X2X=X=X=X=X=X2X7X7X7X7X7X7X=X=X=X=X=X=X7X7X7X7X7X7X2X=X=X=X=X=X8X7X7X7X7X7X2X=X=X=X=X=X2X7X7X7X7X7X7X=X=X=X",
"2X8X8X8X3X2X2X2X2X2X2X2X3X8X8X2X8X8X2X8X2X2X2X2X2X8X8X8X3X3X2X2X2X2X2X2X3X8X3X3X3X8X8X2X2X2X2X2X8X8X3X8X8X8X2X2X2X2X2X2X2X8X3X3X",
"7X7X7X7X7X2X=X=X2X=X=X2X7X7X7X7X7X8X=X=X=X=X=X=X7X7X7X7X7X7X=X=X=X=X=X=X7X7X7X7X7X7X2X=X=X=X=X=X2X7X7X7X7X7X8X=X=X=X=X=X=X7X7X7X",
"7X7X7X7X7X2X=X=X=X=X=X3X7X7X7X7X7X8X=X;X=X=X=X2X7X7X7X7X7X7X=X=X=X2X=X=X8X7X7X7X7X7X2X=X=X=X=X=X8X7X7X7X7X7X8X=X=X2X=X=X2X7X7X7X",
"7X7X7X7X7X2X=X=X=X=X=X8X7X7X7X7X7X8X=X=X=X=X=X2X7X7X7X7X7X7X=X=X=X=X=X=X7X7X7X7X7X7X2X=X=X:X;X=X2X7X7X7X7X7X7X=X=X=X=X=X2X7X7X7X",
"7X7X7X7X7X2X=X=X=X=X=X8X7X7X7X7X7X8X=X=X=X=X=X2X7X7X7X7X7X7X2X=X=X=X=X=X7X7X7X7X7X7X2X=X=X,X=X=X2X7X7X7X7X7X8X=X=X=X=X=X=X7X7X7X",
"7X7X7X7X7X2X=X=X;X=X=X8X7X7X7X7X7X8X=X=X=X=X=X2X7X7X7X7X7X7X=X=X=X2X=X=X8X7X7X7X7X7X2X=X=X=X=X=X8X7X7X7X7X7X8X;X=X=X=X=X2X7X7X7X"
};
