/* XPM */
static char *result[] = {
/* columns rows colors chars-per-pixel */
"64 47 205 2 ",
"   c #040000",
".  c #0A0000",
"X  c #140101",
"o  c #1D0100",
"O  c #1F0907",
"+  c #14060B",
"@  c #05001B",
"#  c #09001F",
"$  c #1C001D",
"%  c #110014",
"&  c #191212",
"*  c #240402",
"=  c #2A0602",
"-  c #2B0903",
";  c #24010C",
":  c #260D0C",
">  c #320609",
",  c #2D130D",
"<  c #2B0916",
"1  c #360315",
"2  c #380219",
"3  c #211313",
"4  c #2C1C17",
"5  c #35141C",
"6  c #3C131A",
"7  c #381A19",
"8  c #2C211F",
"9  c #34231A",
"0  c #0F0128",
"q  c #180725",
"w  c #151126",
"e  c #1A0431",
"r  c #28072E",
"t  c #3B0B2A",
"y  c #370926",
"u  c #3D1322",
"i  c #2E0933",
"p  c #320A34",
"a  c #2D1733",
"s  c #2D2424",
"d  c #262428",
"f  c #34282A",
"g  c #3F3826",
"h  c #262332",
"j  c #3D2630",
"k  c #3D3737",
"l  c #41070F",
"z  c #440A13",
"x  c #49051A",
"c  c #480715",
"v  c #5B0919",
"b  c #44141A",
"n  c #49181B",
"m  c #55161C",
"M  c #610E1C",
"N  c #621B1B",
"B  c #462B16",
"V  c #46301F",
"C  c #5D321C",
"Z  c #643B11",
"A  c #420B24",
"S  c #4C0B25",
"D  c #550224",
"F  c #42112C",
"G  c #5E142D",
"H  c #581425",
"J  c #5F1330",
"K  c #640F24",
"L  c #6C1525",
"P  c #641925",
"I  c #621D29",
"U  c #671629",
"Y  c #7C1C2C",
"T  c #771A29",
"R  c #611332",
"E  c #681434",
"W  c #761A32",
"Q  c #781A36",
"!  c #47282A",
"~  c #542125",
"^  c #493838",
"/  c #5E313A",
"(  c #6E222B",
")  c #662827",
"_  c #71252C",
"`  c #7B242D",
"'  c #77292A",
"]  c #6D3321",
"[  c #7D2C34",
"{  c #7C2031",
"}  c #62323C",
"|  c #6F3D31",
" . c #713C3A",
".. c #6D2839",
"X. c #584626",
"o. c #4D473D",
"O. c #5E5638",
"+. c #624A27",
"@. c #63533C",
"#. c #3C3845",
"$. c #563C45",
"%. c #4A334A",
"&. c #643844",
"*. c #4E4746",
"=. c #4A4747",
"-. c #5B454A",
";. c #544E4C",
":. c #5C4C4C",
">. c #504044",
",. c #5C5B59",
"<. c #494A5A",
"1. c #695B4E",
"2. c #645254",
"3. c #705352",
"4. c #6A6242",
"5. c #64605B",
"6. c #6B6353",
"7. c #716555",
"8. c #545467",
"9. c #676467",
"0. c #736F66",
"q. c #746467",
"w. c #7D796A",
"e. c #6B6872",
"r. c #7B7475",
"t. c #797877",
"y. c #831C2A",
"u. c #841E33",
"i. c #8A1E33",
"p. c #8C232F",
"a. c #82282C",
"s. c #9A2C2E",
"d. c #9B322E",
"f. c #832133",
"g. c #8C2333",
"h. c #842B34",
"j. c #8E2A34",
"k. c #8C2A39",
"l. c #812138",
"z. c #912433",
"x. c #942B35",
"c. c #9C2F31",
"v. c #992F39",
"b. c #893236",
"n. c #9A3236",
"m. c #9F323A",
"M. c #A8362E",
"N. c #A33439",
"B. c #A9373C",
"V. c #A4393B",
"C. c #AA3B3A",
"Z. c #A83533",
"A. c #B23E35",
"S. c #906836",
"D. c #9D3F42",
"F. c #824C5B",
"G. c #835354",
"H. c #AA4351",
"J. c #82725B",
"K. c #83757C",
"L. c #8C867B",
"P. c #8A8579",
"I. c #7E7C87",
"U. c #837C81",
"Y. c #8A8989",
"T. c #9E8B8D",
"R. c #98928F",
"E. c #9B9487",
"W. c #8A8C94",
"Q. c #999797",
"!. c #A3A1A2",
"~. c #A6A7AB",
"^. c #A8AAA9",
"/. c #AFB0AF",
"(. c #B2B0AC",
"). c #B0ADB3",
"_. c #B4B4B4",
"`. c #BABBBB",
"'. c #B9B7B6",
"]. c #BDC0C2",
"[. c #C4C4C3",
"{. c #C6C5C9",
"}. c #C6C7C5",
"|. c #D3D4D3",
" X c #D6D9D6",
".X c #D7D9DA",
"XX c #DCDCDC",
"oX c #D8D7D8",
"OX c #E0DFDD",
"+X c #DDE2E2",
"@X c #E4E4E4",
"#X c #E5EEEC",
"$X c #EDEDED",
"%X c #E5E6EA",
"&X c #F1EEEF",
"*X c #EDF1EF",
"=X c #F0F1EE",
"-X c #EEEEF0",
";X c #F0EFF2",
":X c #EEF1F2",
">X c #F4F4F4",
",X c #F5F8F7",
"<X c #F6F9FA",
"1X c #FEFEFE",
"2X c #F7F7F8",
/* pixels */
"1X1X1X1X1X$X$X$X$X$X2X1X1X1X1X1X$X$X$X$X$X2X1X1X1X1X1X$X$X$X$X$X1X1X1X1X1X1X$X$X$X$X$X1X1X1X1X1X1X$X$X$X$X$X1X1X1X1X1X1X$X$X$X$X",
"1X1X1X1X1X$X$X$X$X$X2X1X1X1X1X1X$X$X$X$X$X1X1X1X1X1X1X$X$X$X$X$X1X1X1X1X1X1X$X$X$X$X$X1X1X1X1X1X2X$X$X$X$X$X1X1X1X1X1X2X$X$X$X$X",
"1X2X1X1X2X>X>X>X>X>X2X1X1X2X1X1X2X>X>X>X$X2X1X2X1X2X2X>X>X>X>X>X2X1X,X1X1X2X$X>X>X>X>X2X1X2X1X2X1X>X>X=X>X>X2X1X1X1X1X>X>X>X=X>X",
"$X$X$X$X>X1X1X1X1X1X>X$X$X$X$X$X1X1X1X1X1X>X$X$X$X$X>X1X1X1X1X1X&X$X$X$X$X>X1X1X1X1X1X>X$X$X$X$X>X1X1X1X1X1X$X$X$X$X%X>X1X1X1X1X",
"$X$X$X$X$X1X1X1X1X1X>X$X$X$X$X$X1X1X1X1X1X>X$X$X$X$X=X1X1X1X1X1X2X$X$X$X$X>X1X1X1X1X1X>X$X$X$X$X>X1X1X1X1X1X>X$X$X$X$X>X1X1X1X1X",
"$X$X$X$X>X1X1X1X1X1X2X$X$X$X$X>X1X1X1X1X1X>X$X$X$X$X>X1X1X1X1X1X>X$X$X$X$X$X1X1X1X1X1X>X$X$X$X$X>X1X1X1X1X1X$X$X$X$X$X>X1X1X1X1X",
"$X$X$X$X$X1X1X1X1X1X>X$X$X$X$X$X1X1X1X1X1X2X$X$X$X$X$X1X1X1X1X1X>X$X$X$X$X>X1X1X1X1X1X>X$X$X$X$X>X1X1X1X1X1X>X$X$X$X$X>X1X1X1X1X",
"$X$X$X$X&X1X1X1X1X1X>X$X$X$X$X>X1X1X1X1X1X>X$X$X$X$X>X1X1X1X1X1X$X$X$X$X$X>X1X1X1X1X1X&X$X$X$X$X>X1X1X1X1X1X>X$X$X$X$X2X1X1X1X1X",
"1X1X1X1X2X>X>X>X>X>X2X1X1X1X1X2X>X:X>X&X:X2X1X1X1X1X2X$X>X=X>X$X1X1X2X1X1X2X=X>X-X>X$X1X1X1X1X1X2X$X>X>X>X$X1X1X1X1X1X2X$X=X>X>X",
"1X1X1X1X1X$X$X$X$X$X1X1X1X1X1X1X$X$X$X$X$X1X1X1X1X1X1X$X$X$X$X$X1X1X1X1X1X1X$X$X$X$X$X1X1X1X1X1X1X$X$X$X$X$X1X1X1X1X1X1X$X$X$X$X",
"1X1X1X1X1X$X$X$X$X$X2X1X1X1X1X1X&X=X$X$X$X2X1X1X1X1X1X$X$X$X$X$X1X1X1X1X1X1X$X$X$X$X$X2X1X1X1X1X2X$X$X$X$X$X1X1X1X1X1X2X$X$X$X$X",
"1X1X1X1X1X$X$X$X$X$X2X1X1X1X1X1X$X$X$X$X$X2X1X1X1X1X1X$X$X$X$X$X1X1X1X1X1X<X$X$X$X$X$X1X1X1X1X1X2X$X$X$X$X$X1X1X1X1X1X1X$X$X$X$X",
"1X1X1X1X1X$X$X$X$X$X1X1X1X1X1X1X$X$X$X$X$X1X1X1X1X1X1X$X>X>X>X>X1X1X1X1X1X2X$X$X$X$X$X1X1X1X1X1X1X$X$X$X$X$X1X1X1X1X1X2X$X$X$X$X",
"1X1X1X2X2X2X>X>X>X=X2X2X1X2X1X2X>X2X>X>X=X>X1X1X1X1X1X$X.X|. X X$X2X1X1X1X1X<X>X$X>X>X2X2X1X2X2X2X=X>X>X>X2X2X,X1X2X1X2X>X>X>X>X",
"$X$X$X$X$X1X1X1X1X1X>X$X$X$X$X$X1X1X1X1X1X1X@X].!.r.*.s 3 3 3 3 4 j =.9.Y.'.-X1X1X1X1X>X$X$X$X$X2X1X1X1X1X1X$X$X$X$X$X>X1X1X1X1X",
"$X$X$X$X>X1X1X1X1X1X2X$X$X$X$X=X1X1X1X1X1XQ.9.,.&   X o o * * o o o X X X o 4 k !.1X1X>X$X$X$X$X>X1X1X1X1X1X=X$X$X$X$X2X1X1X1X1X",
"$X$X$X$X$X1X1X1X1X1X2X$X$X$X$X>X1X1X1X1X1X}./.r.+ o - = * * * * = = - - = *   &   ].1X=X$X$X$X$X>X1X1X1X1X1X>X$X$X$X$X>X1X1X1X1X",
"$X$X$X$X$X1X1X1X1X1X2X$X$X$X$X$X1X1X1X1X1X$Xo.d k 8 X o = = - - - - - - * . ,.1X@X$X1X,X$X$X$X$X>X1X1X1X1X1X>X$X$X$X$X>X1X1X1X1X",
"$X$X$X$X>X1X1X1X1X1X2X$X$X$X$X$X1X1X1X1X1X:X.X,X2X$X!.7 * > - - * * * * o +  X,X(.1XXX{.2X$X=X$X>X1X1X1X1X1X=X$X$X$X$X>X1X1X1X1X",
"1X1X1X1X1X$X>X>X>X$X2X1X1X1X1X1X>X1X<X>X-X:X,X:X#X#X1X^.X * * o O o o O X d :X1X6.J.}.V |.1X,X1X1X$X>X>X=X$X1X1X1X1X1X2X$X>X>X>X",
"1X1X1X1X1X$X$X$X$X$X2X1X1X1X1X1X=XY.$.-.$.&.} &./ } } } ) ( ' ) ] n , 9 O 9 1.].%X7.w.R.@.*X1X1X2X$X$X$X$X$X1X1X1X1X1X2X$X$X$X$X",
"1X1X1X1X1X$X$X$X$X$X2X1X1X1X1X1X=X_.q./ M z.z.i.g.z.g.x.v.N.N.m.n.v.h.h.U _ 1 4 ^ U.@.7.X.E.1X1X2X$X$X$X$X$X1X1X1X1X1X2X$X$X$X$X",
"1X1X1X1X1X$X$X$X$X$X1X1X1X1X1X1X$X,X1X#XQ. .c.B.V.C.N.N.v.z.g.u.i.u.g.u.i.u.E ) b 7 9 X.V 4.<X1X2X$X$X$X$X$X1X1X1X1X1X2X$X$X$X$X",
"1X1X1X1X1X$X$X$X$X$X2X1X1X1X1X1X$X$X%X$X1X+X3.M.m.g.u.u.f.u.g.x.x.x.g.x.k.W x.x.a.j.` ) S.] T.1X2X$X$X$X$X$X1X1X1X1X1X1X$X$X$X$X",
"1X2X2X2X2X>X2X2X>X2X2X2X2X,X2X2X>X2X>X>X$X1X}.P u.f.n.V.C.C.C.n.f.u.v.k.U K y.` s.x.Y T b.d.` '.1X>X2X2X2X2X2X2X1X2X2X2X>X2X2X>X",
"$X$X$X$X>X1X1X1X1X1X>X$X$X$X$X=X1X1X1X1X1X1X^.! W T Z.A.A.m.g.Q k.N.k.J G i.L z m c l ( b.| k.} #X1X1X1X1X1X$X$X$X$X$X>X1X1X1X1X",
"$X$X$X$X$X1X1X1X1X1X>X$X$X$X$X=X1X1X1X1X1XP.6 A r S U s.M.p.K K I u u R E i.g.l * * ~ D.H.k.x.( }.1X1X1X1X1X>X$X$X$X$X>X1X1X1X1X",
"$X$X$X$X>X1X1X=X$X1X1X$X$X$X&X=X1X1X1X X1.6 A t e p y u Y Z.N c o . X F R y.T b r.`.|.:.b b.B.c.G.1X1X1X1X1X$X$X$X$X$X>X1X1X1X1X",
"$X=X$X$X$X1X1X%Xr.;._.$X1X2X$X>X1X1X/.g 6 F p $ 0 e i p y y.d.5 ^ ^ =.a R Y x _.1X1X1X<X9.d H y._ |.1X1X1X1X>X$X$X$X$X>X1X1X1X1X",
"$X$X>X$X>X1X1X1X1X9.X :.E.'.=XOXR.o.7 y r # @ e.e.1 G S H H v K.1X#X:X%.D u...K.}.1X1X>X:X[.U.~ b |.1X1X1X1X>X$X$X$X$X>X1X1X1X1X",
"1X1X1X1X1X$X>X$X&X1X^.j * f 2.^ < < y 0 @ 8.~.Y.! v S A y 1 ; `.1X1X1X.X$.z x Y P t.%X1X1X1X1X:X X&X$X;X$X=X1X1X1X1X1X1X$X>X>X$X",
"1X1X1X1X1X$X$X$X$X$X1X;XK.e % % $ $ a <.~.+X#.* x < q w a e.(.>X<X1X1X1X,X`.Y.F.h.Z P.1X1X1X1X1X1X$X&X$X$X$X1X1X1X1X1X<X$X&X$X$X",
"1X1X1X1X1X-X$X$X$X$X>X1X1XXX'.W.I.).XX1X$Xd 1 U 1 R.oX|.OX2X2X$X1X1X1X1X1X1X1X`.+.+.L.1X1X1X1X1X1X$X$X$X$X$X1X1X1X1X1X1X$X$X$X$X",
"1X1X1X1X1X=X$X$X$X$X2X1X1X1X1X1X1X1X=X,X0.C [ T ;.1X1X=X=X$X$X$X1X1X1X1X1X2X$X$X0.`.oX1X1X1X1X1X2X$X$X$X$X$X1X1X1X1X1X2X$X$X$X$X",
"1X1X1X1X1X$X$X$X$X$X1X1X1X1X1X,X@X$X#X>X5.B B $.oX1X,X$X$X$X$X$X1X1X1X1X1X1X$X$X%X>X$X1X1X1X1X1X,X$X$X$X$X$X1X1X1X1X1X,X$X$X$X$X",
"2X1X2X2X2X2X2X2X>X2X2X2X2X<X2X2X>X2X>X1XXX;.P.-X1X2X2X2X2X,X2X2X>X2X2X2X2X2X2X>X,X>X>X2X1X2X2X2X2X2X2X2X>X2X2X2X1X2X2X2X>X>X2X2X",
"$X$X$X$X$X1X1X1X1X1X2X$X$X$X$X$X1X1X1X1X1X2X2X-X$X$X$X1X1X1X1X1X>X$X$X$X$X>X1X1X1X1X1X>X$X$X$X$X>X1X1X1X1X1X=X$X$X$X$X>X1X1X1X1X",
"$X$X$X$X>X1X1X1X1X1X>X$X$X$X$X>X1X1X1X1X1X>X$X$X$X$X>X1X1X1X1X1X>X$X$X$X$X$X1X1X1X1X1X>X$X$X$X$X>X1X1X1X1X1X;X$X$X$X$X>X1X1X1X1X",
"$X$X$X$X$X1X1X1X1X1X>X$X$X$X$X>X1X1X1X1X1X>X$X$X$X$X>X1X1X1X1X1X>X$X$X$X$X>X1X1X1X1X1X>X$X$X$X$X>X1X1X1X1X1X>X$X$X$X$X>X1X1X1X1X",
"$X$X$X$X>X1X1X1X1X1X>X$X$X$X$X$X1X1X1X1X1X>X$X$X$X$X>X1X1X1X1X1X>X$X$X$X$X>X1X1X1X1X1X>X$X$X$X$X>X1X1X1X1X1X>X$X$X$X$X2X1X1X1X1X",
"$X$X>X$X>X1X1X1X1X1X>X$X=X>X$X>X1X1X1X1X1X>X$X$X$X$X>X1X1X1X1X1X>X$X$X$X$X>X1X1X1X1X1X>X$X>X$X$X2X1X1X1X1X1X>X$X$X>X$X2X1X1X1X1X",
"1X1X1X1X1X$X$X$X$X$X2X1X1X1X1X1X$X>X:X-X$X1X1X1X1X1X1X$X&X$X>X$X2X1X1X1X1X1X$X$X$X$X$X1X1X1X1X1X1X$X-X=X$X$X1X1X1X1X1X2X$X$X-X=X",
"1X1X1X1X1X=X$X$X$X$X1X1X1X1X1X1X$X$X$X=X$X1X1X1X1X1X1X$X$X$X$X$X1X1X1X1X1X1X$X$X$X$X$X1X1X1X1X1X2X$X$X$X$X$X1X1X1X1X1X2X$X$X$X&X",
"1X1X1X1X1X&X$X$X$X$X2X1X1X1X1X1X$X$X$X&X$X1X1X1X1X1X1X$X$X=X$X$X1X1X1X1X1X2X$X$X$X$X$X2X1X1X1X1X2X$X=X$X$X$X1X1X1X1X1X1X$X$X=X$X",
"1X1X1X1X1X$X$X$X$X$X2X1X1X1X1X1X$X$X$X$X$X2X1X1X1X1X1X$X$X$X$X$X2X1X1X1X1X1X$X$X$X$X$X2X1X1X1X1X2X$X$X$X$X$X1X1X1X1X1X2X$X$X$X$X",
"1X1X1X1X1X$X$X$X$X$X2X1X1X1X1X1X$X$X$X$X%X2X1X1X1X1X1X$X$X$X$X$X1X1X1X1X1X1X$X$X$X$X$X1X1X1X1X1X1X$X$X$X$X$X1X1X1X1X1X,X$X$X$X$X",
"2X2X2X>X2X2X2X2X2X>X2X2X2X2X>X,X2X2X2X2X2X2X2X2X2X,X>X2X>X2X2X2X2X2X>X2X2X>X2X2X2X2X2X2X2X2X2X>X>X2X>X2X2X2X2X2X2X2X2X2X2X2X2X2X"
};
