/* XPM */
static char *result[] = {
/* columns rows colors chars-per-pixel */
"64 53 207 2 ",
"   c #020000",
".  c #0C0000",
"X  c #130001",
"o  c #1C0201",
"O  c #1A0B0B",
"+  c #1B0A08",
"@  c #1C110F",
"#  c #01001C",
"$  c #050018",
"%  c #11001E",
"&  c #1B0E1B",
"*  c #230503",
"=  c #2A0104",
"-  c #270B0A",
";  c #360207",
":  c #281408",
">  c #2F0415",
",  c #340C1F",
"<  c #370716",
"1  c #241414",
"2  c #291413",
"3  c #2F1C15",
"4  c #281819",
"5  c #371A1B",
"6  c #331517",
"7  c #38260C",
"8  c #2E211A",
"9  c #3A2517",
"0  c #0A0026",
"q  c #28052A",
"w  c #390B24",
"e  c #360B26",
"r  c #271F27",
"t  c #321B21",
"y  c #3F1620",
"u  c #360E32",
"i  c #261A33",
"p  c #361532",
"a  c #372421",
"s  c #3B3229",
"d  c #372C32",
"f  c #383536",
"g  c #26223B",
"h  c #44080F",
"j  c #480616",
"k  c #540A1B",
"l  c #50041C",
"z  c #44131E",
"x  c #491A1E",
"c  c #55121C",
"v  c #5B1B1D",
"b  c #551D1C",
"n  c #43291B",
"m  c #4C361A",
"M  c #480B27",
"N  c #530C25",
"B  c #5F0F2D",
"V  c #501A22",
"C  c #5B102E",
"Z  c #5A1A2B",
"A  c #501421",
"S  c #460C31",
"D  c #5C0F31",
"F  c #5C1032",
"G  c #441824",
"H  c #641325",
"J  c #621824",
"K  c #63132D",
"L  c #6A132C",
"P  c #691824",
"I  c #74132C",
"U  c #751B2C",
"Y  c #7B1C2B",
"T  c #721A26",
"R  c #630F33",
"E  c #631232",
"W  c #6B1532",
"Q  c #6D1931",
"!  c #731631",
"~  c #741A33",
"^  c #7B1A33",
"/  c #731A38",
"(  c #791732",
")  c #640D29",
"_  c #4F242A",
"`  c #5E2124",
"'  c #5E292C",
"]  c #4C3A22",
"[  c #503124",
"{  c #5C2531",
"}  c #4B3D37",
"|  c #473A3A",
" . c #473633",
".. c #5C3636",
"X. c #5C3438",
"o. c #6A202C",
"O. c #782C26",
"+. c #752628",
"@. c #653424",
"#. c #703F24",
"$. c #682433",
"%. c #752635",
"&. c #7A3C34",
"*. c #7D3331",
"=. c #6A333A",
"-. c #584319",
";. c #5B4B39",
":. c #5B4C28",
">. c #644524",
",. c #70412F",
"<. c #755226",
"1. c #3D3C4A",
"2. c #4F3341",
"3. c #5F3A43",
"4. c #49444A",
"5. c #514F4A",
"6. c #574443",
"7. c #56534F",
"8. c #5F4E57",
"9. c #565354",
"0. c #565B5E",
"q. c #664047",
"w. c #6B5D47",
"e. c #665757",
"r. c #5E5F61",
"t. c #685C60",
"y. c #797977",
"u. c #6C6566",
"i. c #831E35",
"p. c #83222C",
"a. c #832A2D",
"s. c #8D212E",
"d. c #832132",
"f. c #8C2334",
"g. c #8E2A32",
"h. c #8F2C3D",
"j. c #872836",
"k. c #9B2D34",
"l. c #962A38",
"z. c #853536",
"x. c #943234",
"c. c #99313D",
"v. c #A93439",
"b. c #A4363C",
"n. c #865E2D",
"m. c #8E4531",
"M. c #9C4738",
"N. c #8E6F3A",
"B. c #A87A3D",
"V. c #9F3B51",
"C. c #AB444E",
"Z. c #B64F51",
"A. c #826F59",
"S. c #867F69",
"D. c #888179",
"F. c #838383",
"G. c #868987",
"H. c #8B8A89",
"J. c #8C938C",
"K. c #8D8B92",
"L. c #9B9C9B",
"P. c #989696",
"I. c #A1A09B",
"U. c #9DA0A3",
"Y. c #A4A2A4",
"T. c #ADA9A7",
"R. c #ADABAC",
"E. c #A7ABAC",
"W. c #ACB1AF",
"Q. c #ADADB1",
"!. c #B0AFB3",
"~. c #AEB2B1",
"^. c #B4B3B3",
"/. c #B7BDBC",
"(. c #BCBDBD",
"). c #BAB8B5",
"_. c #C1C3BE",
"`. c #BCC7C2",
"'. c #C2C4C3",
"]. c #C9C6C5",
"[. c #CACBCC",
"{. c #C6CBCB",
"}. c #D0D1CE",
"|. c #CCCFD1",
" X c #D0CFD2",
".X c #D2D5D5",
"XX c #DCDCDC",
"oX c #D2DBD9",
"OX c #E1DFDF",
"+X c #DFDEE1",
"@X c #DEE0E1",
"#X c #E3E4E4",
"$X c #E5E9E4",
"%X c #EDEDED",
"&X c #ECEAE7",
"*X c #F1EEEE",
"=X c #EFF1EE",
"-X c #F1F0EE",
";X c #EDECF0",
":X c #EEF1F2",
">X c #F3F3F3",
",X c #F7F8F7",
"<X c #FAF9F6",
"1X c #F7F6F8",
"2X c #F9F7F8",
"3X c #F7F9FA",
"4X c #FEFEFE",
/* pixels */
"4X4X4X4X4X4X>X%X%X%X%X%X2X4X4X4X4X4X2X%X%X%X%X%X>X4X4X4X4X4X4X%X%X%X-X%X%X2X4X4X4X4X4X2X%X=X*X%X%X:X4X4X4X4X4X4X>X%X%X%X%X%X2X4X",
"4X4X4X4X4X4X%X%X%X%X%X%X4X4X4X4X4X4X,X%X%X%X%X%X>X4X4X4X4X4X4X>X>X%X;X%X%X2X4X4X4X4X4X2X%X%X%X%X%X>X4X4X4X4X4X4X>X%X%X%X%X%X2X4X",
"4X4X4X4X4X4X>X%X%X%X%X%X4X4X4X4X4X4X>X%X%X%X*X%X>X4X4X4X4X4X4X>X%X%X%X%X=X2X4X4X4X4X4X2X%X%X%X%X%X>X4X4X4X4X4X4X%X%X%X%X%X%X2X4X",
"4X4X4X4X4X4X%X%X>X%X%X%X2X4X4X4X4X4X2X%X:X%X%X%X>X4X4X4X4X4X4X%X%X%X%X%X%X2X4X4X4X4X4X2X%X%X%X:X%X>X4X4X4X4X4X4X>X%X%X%X=X%X2X4X",
"4X4X4X4X4X4X%X%X=X%X%X%X4X4X4X4X4X4X2X%X%X%X%X%X>X4X4X4X4X4X4X>X%X%X%X=X%X2X4X4X4X4X4X2X%X%X%X=X%X%X4X4X4X4X4X4X>X%X%X=X%X%X2X4X",
"4X4X4X4X4X4X%X%X%X%X%X%X2X4X4X4X4X4X,X%X=X%X%X%X>X4X4X4X4X4X4X%X%X%X%X%X%X2X4X4X4X4X4X2X%X%X%X%X%X>X4X4X4X4X4X4X>X%X%X%X%X%X2X4X",
">X>X>X>X>X>X2X4X2X4X2X2X>X>X>X>X>X>X>X4X4X2X4X2X2X>X>X>X>X>X>X2X4X2X4X2X2X>X>X>X>X>X>X>X4X2X4X2X2X2X>X>X>X>X>X>X>X4X4X2X3X2X,X>X",
"%X%X%X%X%X%X4X4X4X4X4X4X>X%X%X%X%X%X>X4X4X4X4X4X3X%X%X%X%X%X%X4X4X4X4X4X4X>X%X%X%X%X%X>X4X4X4X4X4X4X%X%X%X%X%X%X4X4X4X4X4X4X>X%X",
";X-X%X%X%X%X4X4X4X4X4X4X>X%X%X%X%X%X>X4X4X4X4X4X4X%X%X%X:X%X%X4X4X4X4X4X4X>X%X%X%X%X%X>X4X4X4X4X4X4X%X;X%X%X%X%X2X4X4X4X4X4X>X%X",
"%X%X%X%X%X>X4X4X4X4X4X4X>X%X%X%X%X%X2X4X4X4X4X4X2X%X*X%X%X%X%X4X4X4X4X4X4X>X%X%X:X%X*X>X4X4X4X4X4X4X=X%X*X=X;X=X4X4X4X4X4X4X>X%X",
"=X%X%X%X%X>X4X4X4X4X4X4X>X%X%X%X%X%X2X4X4X4X4X4X4X%X%X%X%X%X%X4X4X4X4X4X4X>X%X>X%X:X%X>X4X4X4X4X4X4X%X%X%X=X%X%X4X4X4X4X4X4X>X>X",
"%X%X%X%X%X%X4X4X4X4X4X4X>X%X%X%X%X%X,X4X4X4X4X4X3X%X%X%X%X%X:X4X4X4X4X4X4X=X%X%X%X%X%X>X4X4X4X4X4X4X%X%X%X%X%X%X4X4X4X4X4X4X>X%X",
",X2X,X>X2X,X>X>X,X>X2X>X>X2X,X,X2X,X>X>X2X>X>X>X,X>X2X,X3X>X,X>X>X>X>X4X4X4X>X>X1X,X1X,X>X1X>X,X>X>X>X2X2X,X>X2X,X>X2X>X>X>X2X2X",
"4X4X4X4X4X4X%X%X%X%X%X%X2X4X4X4X4X4X2X%X%X%X%X%X>X4X4X4X4X4X4X%X>X4X>XoXQ.XX4X4X4X4X4X>X%X%X%X%X%X>X4X4X4X4X4X4X>X%X%X%X%X%X2X4X",
"4X4X4X4X4X4X>X%X%X%X%X%X4X4X4X4X4X4X,X%X:X%X%X%X>X4X4X4X4X4X4X;X'.G.5.4 X 1 y.&X4X4X4X4X&X%X%X%X%X>X4X4X4X4X4X4X>X%X=X%X=X%X2X4X",
"4X4X4X4X4X4X%X%X=X;X=X%X2X4X4X4X4X4X1X%X%X%X%X%X>X4X4X4X4X@XP.;.O X X o * o   @ U.4X%X#X2X%X*X=X%X-X4X4X4X4X4X4X%X%X;X%X%X%X2X4X",
"4X4X4X4X4X4X>X%X%X%X%X%X2X4X4X4X4X4X1X%X*X%X%X%X>X4X4X|.0.1 X o * - * * * X s } : ~.4X7.R.4X%X=X%X>X4X4X4X4X4X4X>X%X%X%X%X%X>X4X",
"4X4X4X4X4X4X%X%X%X%X%X%X4X4X4X4X4X4X1X%X%X%X%X%X%X4X}.O . * * * o o + o *   G.4XA.m {.).7 ).>X%X%X*X4X4X4X4X4X4X%X%X%X%X%X%X2X4X",
"2X2X4X2X2X2X>X>X>X>X>X>X2X2X2X3X2X2X,X>X>X>X>X=X,X%Xd   + 2 n + n - m 9 n 3 f _.oX;.>.(.S.:.XX,X>X>X2X4X2X2X4X2X>X>X>X>X>X>X2X3X",
"=X%X%X%X=X%X4X4X4X4X4X4X>X%X%X%X=X%X>X4X4X4X4X3X4X9.. 2 9 [ z.P M.b O.O.*.v 2 3 }  .>.N.e.-.D.4X,X4X%X%X%X%X%X%X4X4X4X4X4X4X>X%X",
"%X%X%X>X%X:X4X4X4X4X4X4X>X%X%X=X%X%X,X4X4X4X2X4X~.  @.m.+.+.N N N M N K U %.Q o.x n 5 n.<.m ] /.4X>X%X%X%X%X%X%X4X4X4X4X4X4X>X%X",
"%X%X%X%X%X>X4X4X4X4X4X4X>X%X%X%X%X%X,X4X4X4X4X(.s ' x.g.B B C B K W ~ ^ / ( s.f.p.v Y Z B.&.a.' .X4X%X%X%X%X-X;X4X4X4X4X4X4X>X%X",
"%X%X%X%X%X%X4X4X4X4X4X4X>X&X%X%X%X%X,X4X4X%Xy.2 V g.( W Q L E E E E C C ( f.s.Y g.v.v.T v c.x.b.=..X>X%X%X%X%X%X2X4X4X4X4X4X>X>X",
">X%X%X%X%X>X4X4X4X4X4X4X>X%X%X%X%X%X>X4XXXs < %.W F F F E F D D K W ~ f.f.( P c +.s.+.J N z.,.z.P t.4X%X%X%X%X=X4X4X4X4X4X4X>X%X",
"%X>X%X>X>X-X4X4X4X4X4X4X>X%X>X%X:X%X>X4X/.- Q F F E F F D F W ~ ! i.l.i.L L Y k < h ; +.Z.C.a.f.h.' Q.,X%X:X%X>X2X4X4X4X4X4X>X>X",
"4X4X4X4X4X4X%X%X%X;X=X%X4X4X4X4X4X4X>X2XH.5 Z F F E D E ! %.! ! ( I l k R ! l.p.h =  ...V %.c.c.v.k...&X4X4X4X4X>X=X-X%X%X%X2X4X",
"4X4X4X4X4X4X%X%X%X%X%X%X2X4X4X4X4X4X4XH.5 z S N E R W ~ / L L I l  .u.| j I s.i.j L.4X%XF.& r { +.k.Y T.4X3X4X4X>X%X%X%X%X%X,X4X",
"4X4X4X4X4X4X%X%X%X%X%X%X4X4X4X<X4X4XH.a z e e S ! ~ Q E F ^ U 3.L.#X4XoXp ) p.I z $X4X2X4X/.r.f G l = I.4X4X4X4X;X%X%X%X%X%X2X4X",
"4X4X4X4X4X2X%X%X%X-X%X%X2X4X4X4X4XY.9 _ w q 0 S E K R R Q c.x `.4X*X,X~.u ! Y h P.4X4X,X%X,X2XXX].y.y.-X4X4X4X4X>X%X;X%X%X%X2X4X",
"4X4X4X4X4X4X4X>X%X%X%X%X2X3X4X4XY.9 w q q 0 1.M E F E C h.i.> [.>X#X4XL.q Q i.Z G.3X4X>X&X%X%X>X,X4X4X4X4X4X4X4X>X%X=X%X%X%X2X4X",
"4X4X4X4X.XF.L. X%X2X4X,X4X4X].5.3 w u 0 # K.J.< E F F E i.= 9.>X%X%X%X,XP.> N W J X.[.4X%X%X%X%X%X%X4X4X4X4X4X4X%X%X-X=X%X%X2X4X",
">X>X%X>X.X0.1 3 7.).R._.].F.s - G u # i [.+X, , E R F ( X.F.OX4X2X4X2X4X4X^.e.t V.i.6 T.4X>X4X3X2X2X>X>X>X%X>X>X2X4X3X4X2X4X>X>X",
"%X%X%X%X>X4X.X4.o 3 3 a 6 6 , u q # 2.>X3Xd > M D D E H ^.4X>X3X4X4X4X4X4X4X4X.Xq.*.n.w.3X4X4X4X4X4X%X%X%X%X%X%X4X4X4X4X4X4X>X%X",
"%X%X%X-X%X%X4X2XH.8.2.i q % % $ g K.:X4Xy.X H z w E B e.:X&X%X4X4X4X4X4X4X>X$X4XP.-.9 w.4X4X4X4X4X4X%X%X*X%X%X%X4X4X4X4X4X4X>X%X",
"%X=X%X;X%X-X4X4X4X4X2X=X{.Q.U.Q.+X4X>X4X9.A z.$.1 E A ^.,X%X-X4X4X4X4X4X4X>X%X,XT.5.L.E.4X4X4X4X4X4X%X%X%X%X%X%X4X4X4X4X4X4X>X>X",
"%X%X%X%X;X-X4X4X4X4X4X4X3X3X4X2X:X$X2X:X;.#.c 3.G.< e.>X%X%X:X4X4X4X4X4X4X>X%X>XXX+X4X4X4X4X4X4X4X4X%X%X:X%X%X=X2X4X4X4X4X4X>X%X",
"%X%X%X%X%X=X4X4X4X4X4X4X>X%X$X%X;X%X,X4X6.7 ] [.#XO R.2X&X%X;X4X4X4X4X4X4X>X%X%X>X%X%X>X4X4X4X4X4X4X%X%X%X%X%X%X4X4X4X4X4X4X>X%X",
"2X2X2X,X2X2X>X>X>X>X>X>X2X>X,X2X,X,X1X2X`.7.I.4X*X'.>X2X2X2X2X>X>X>X>X>X>X,X,X,X,X2X>X>X>X>X>X>X>X>X2X2X2X,X2X2X,X>X>X>X>X>X2X2X",
"4X4X4X4X4X4X%X%X%X%X>X%X4X4X4X4X4X4X,X&X>X>X>X%X:X4X4X4X4X4X4X%X%X%X%X%X%X4X4X4X4X4X4X2X%X%X%X%X%X>X4X4X4X4X4X4X>X%X%X%X%X%X2X4X",
"4X4X4X4X4X4X%X%X%X%X%X%X4X4X4X4X4X4X1X%X%X%X%X;X>X4X4X4X4X4X4X%X%X%X%X%X%X2X4X4X4X4X4X>X%X>X%X%X%X>X4X4X4X4X4X4X-X%X%X%X%X%X2X4X",
"4X4X4X4X4X4X>X%X%X>X%X%X2X4X4X4X4X4X,X%X%X%X%X%X>X4X4X4X4X4X4X>X>X%X%X%X%X2X4X4X4X4X4X2X%X%X%X%X%X>X4X4X4X4X4X4X>X%X;X=X%X%X>X4X",
"4X4X4X4X4X4X%X%X%X%X%X%X4X4X4X4X4X4X>X%X:X%X*X%X>X4X4X4X4X4X4X=X%X%X%X%X=X3X4X4X4X4X4X2X%X>X%X%X%X>X4X4X4X4X4X4X;X%X%X%X>X%X2X4X",
"4X4X4X4X4X4X%X%X%X%X%X%X2X4X4X4X4X4X2X%X%X%X%X%X>X4X4X4X4X4X4X>X%X%X%X%X%X2X4X4X4X4X4X2X%X%X%X%X%X%X4X4X4X4X4X4X-X%X%X%X%X%X2X4X",
"2X2X2X3X2X2X>X>X>X>X>X>X2X2X2X3X2X2X,X>X>X>X>X>X,X2X2X2X2X2X2X>X>X>X>X>X>X2X2X>X2X3X2X2X>X>X>X>X>X>X4X3X2X2X2X2X>X>X>X>X>X>X2X2X",
"%X%X%X%X%X%X4X4X4X4X4X4X>X%X%X%X%X%X>X4X4X4X4X4X3X%X%X%X%X%X%X4X4X4X4X4X4X>X%X%X=X%X%X>X4X4X4X4X4X4X%X%X%X%X%X%X4X4X4X4X4X4X>X%X",
"%X%X%X%X%X>X4X4X4X4X4X4X>X%X%X=X=X%X2X4X4X4X4X4X4X%X%X%X%X%X=X4X4X4X4X4X4X>X%X%X%X%X%X1X4X4X4X4X4X4X%X%X%X%X%X%X4X4X4X4X4X4X>X%X",
"%X%X%X%X%X%X4X4X4X4X4X4X-X%X%X;X%X%X,X4X4X4X4X4X2X%X:X%X%X%X;X4X4X4X4X4X4X>X%X>X%X%X%X>X4X4X4X4X4X4X%X%X%X-X%X%X2X4X4X4X4X4X>X%X",
"%X%X>X%X%X>X4X4X4X4X4X4X>X%X%X%X%X%X2X4X4X4X4X4X4X%X%X%X*X%X=X4X4X4X4X4X4X>X%X%X:X%X%X>X4X4X4X4X4X4X%X%X;X=X%X%X4X4X4X4X4X4X>X%X",
"%X%X%X%X%X%X4X4X4X4X4X4X>X%X%X%X%X%X>X4X4X4X4X4X4X%X%X%X%X%X%X4X4X4X4X4X4X>X%X%X%X%X%X>X4X4X4X4X4X4X%X%X%X%X%X%X4X4X4X4X4X4X>X%X",
">X%X%X>X>X>X4X4X4X4X4X4X>X-X>X;X>X>X>X4X4X4X4X4X2X>X>X%X%X>X>X2X4X4X4X4X4X>X%X>X%X>X>X>X4X4X4X4X4X2X%X>X%X>X>X%X2X4X4X3X4X4X>X%X",
"4X4X4X4X4X4X%X%X%X%X%X%X4X4X4X4X4X4X>X%X%X%X%X%X>X4X4X4X4X4X4X>X%X%X:X%X%X2X4X4X4X4X4X2X%X%X%X;X%X>X4X4X4X4X4X4X>X%X%X%X=X%X2X4X",
"4X4X4X4X4X4X%X%X%X%X%X%X2X4X4X4X4X4X2X%X%X%X%X%X>X4X4X4X4X4X4X%X%X%X%X%X=X2X4X4X4X4X4X2X%X%X%X%X%X>X4X4X4X4X4X4X>X%X%X%X%X%X2X4X",
"4X4X4X4X4X4X>X%X%X%X%X%X4X4X4X4X4X4X2X%X=X%X%X%X>X4X4X4X4X4X4X>X%X*X=X;X%X2X4X4X4X4X4X2X%X%X%X%X%X%X4X4X4X4X4X4X>X%X=X%X%X%X2X4X"
};
