/* XPM */
static char *result[] = {
/* columns rows colors chars-per-pixel */
"64 50 211 2 ",
"   c #080006",
".  c #1A0704",
"X  c #04001B",
"o  c #190015",
"O  c #2B0102",
"+  c #3E060F",
"@  c #3A0A1A",
"#  c #3B141B",
"$  c #391A17",
"%  c #1E221D",
"&  c #38200F",
"*  c #3D281C",
"=  c #0C0020",
"-  c #170426",
";  c #1A192C",
":  c #270227",
">  c #390B22",
",  c #320A2B",
"<  c #3B0B2B",
"1  c #2E1E22",
"2  c #3E1A29",
"3  c #371B24",
"4  c #2E0933",
"5  c #230731",
"6  c #340931",
"7  c #382826",
"8  c #362635",
"9  c #333636",
"0  c #41000B",
"q  c #460C15",
"w  c #43031C",
"e  c #490A1A",
"r  c #4E111C",
"t  c #471A19",
"y  c #56111F",
"u  c #59171A",
"i  c #580618",
"p  c #63131E",
"a  c #6A0A1E",
"s  c #462417",
"d  c #463617",
"f  c #5B3B1D",
"g  c #682A1C",
"h  c #4B0423",
"j  c #440B23",
"k  c #4A0B23",
"l  c #4A0A27",
"z  c #5A0E24",
"x  c #540B28",
"c  c #5D0E2E",
"v  c #570A21",
"b  c #431226",
"n  c #441C2A",
"m  c #47192B",
"M  c #531222",
"N  c #5E122E",
"B  c #571727",
"V  c #5B0F31",
"C  c #5D1232",
"Z  c #610F2F",
"A  c #651324",
"S  c #6B1324",
"D  c #6C1B26",
"F  c #61132E",
"G  c #6B142A",
"H  c #6D192D",
"J  c #601C25",
"K  c #751C25",
"L  c #72152C",
"P  c #741A2D",
"I  c #7B1A2D",
"U  c #771627",
"Y  c #620F30",
"T  c #631233",
"R  c #6A1433",
"E  c #6E1835",
"W  c #731532",
"Q  c #731A33",
"!  c #7B1C34",
"~  c #7D1A38",
"^  c #432F24",
"/  c #4A282B",
"(  c #592324",
")  c #4E3226",
"_  c #553429",
"`  c #5D2A31",
"'  c #4D333C",
"]  c #423F36",
"[  c #56373C",
"{  c #632A21",
"}  c #6A2228",
"|  c #7B232A",
" . c #77282D",
".. c #68362B",
"X. c #7C3B2D",
"o. c #6C2832",
"O. c #792435",
"+. c #673339",
"@. c #4D402E",
"#. c #544328",
"$. c #4B4537",
"%. c #504438",
"&. c #585223",
"*. c #6B462A",
"=. c #67522F",
"-. c #685639",
";. c #7D5133",
":. c #543D44",
">. c #743744",
",. c #42414A",
"<. c #5D4043",
"1. c #554B4F",
"2. c #5B5248",
"3. c #464656",
"4. c #5B5655",
"5. c #665B4B",
"6. c #625758",
"7. c #76544E",
"8. c #6E6453",
"9. c #716A5E",
"0. c #5E5862",
"q. c #615760",
"w. c #775F60",
"e. c #676669",
"r. c #716D6B",
"t. c #76676B",
"y. c #70706E",
"u. c #777678",
"i. c #81192F",
"p. c #831C33",
"a. c #8B1E33",
"s. c #86232D",
"d. c #8C292B",
"f. c #982C2A",
"g. c #93302D",
"h. c #832233",
"j. c #8B2B32",
"k. c #852435",
"l. c #962936",
"z. c #83383E",
"x. c #993537",
"c. c #B33B2F",
"v. c #A43438",
"b. c #B13B33",
"n. c #A32F30",
"m. c #814230",
"M. c #8B5C32",
"N. c #A64335",
"B. c #8A6230",
"V. c #8F6932",
"C. c #8E2C42",
"Z. c #9F2F44",
"A. c #993641",
"S. c #A83A46",
"D. c #A6424C",
"F. c #867A7D",
"G. c #897E6B",
"H. c #83817F",
"J. c #897F82",
"K. c #868384",
"L. c #8B8984",
"P. c #8C8080",
"I. c #908C8D",
"U. c #93908E",
"Y. c #8B9091",
"T. c #949493",
"R. c #9D9B9B",
"E. c #9B9897",
"W. c #A19D9C",
"Q. c #9FA39C",
"!. c #A6A3A3",
"~. c #ADABAB",
"^. c #A7A9A7",
"/. c #B0B2AC",
"(. c #A9AFB1",
"). c #B1AFB1",
"_. c #ADB5B4",
"`. c #BBBCBC",
"'. c #B5B5B7",
"]. c #C1BDBD",
"[. c #BFC0BF",
"{. c #C3BFC2",
"}. c #BEC0C4",
"|. c #C9CDCC",
" X c #C5C6C5",
".X c #CFD4D3",
"XX c #C6D4D2",
"oX c #D4D3D5",
"OX c #D4DCDB",
"+X c #D9DCDB",
"@X c #D9D8D2",
"#X c #D9E2DD",
"$X c #DCE2E0",
"%X c #E1E2E1",
"&X c #E9E9E7",
"*X c #E9E6EA",
"=X c #EEEEEE",
"-X c #E6EAE7",
";X c #F0EEEF",
":X c #EEF1ED",
">X c #F1F0EF",
",X c #EDEEF3",
"<X c #F1EDF0",
"1X c #EEF1F1",
"2X c #F3F3F3",
"3X c #F9F7F6",
"4X c #F4F8F7",
"5X c #F6F7F8",
"6X c #F6F9F9",
"7X c #FEFEFE",
"8X c #F9F7FA",
/* pixels */
"6X6X2X2X5X2X5X2X3X6X5X3X3X5X5X2X5X2X5X2X5X3X3X3X5X3X3X5X5X2X5X2X2X3X5X3X6X3X6X5X5X2X5X2X2X5X3X3X6X3X6X3X5X2X5X2X2X5X5X3X3X6X3X6X",
"=X;X7X7X7X7X7X7X2X=X=X=X=X=X3X7X7X7X7X7X6X=X=X=X=X=X:X7X7X7X7X7X7X2X=X=X=X=X=X5X7X7X7X7X7X7X=X=X=X=X=X:X7X7X7X7X7X7X2X=X=X=X=X=X",
"=X2X7X7X7X7X7X7X>X=X=X=X=X=X3X7X7X7X7X7X7X=X=X=X=X=X>X7X7X7X7X7X7X2X=X=X=X;X=X2X7X7X7X7X7X6X;X;X>X,X=X=X7X7X7X7X7X7X5X=X=X;X=X=X",
"=X2X7X7X7X7X7X7X2X=X=X=X=X=X6X7X7X7X7X7X6X;X=X;X=X=X=X7X7X7X7X7X7X2X=X=X=X=X;X2X7X7X7X7X7X7X=X=X=X=X=X=X7X7X7X7X7X7X2X=X=X=X=X=X",
"=X=X7X7X7X7X7X7X2X=X=X=X;X=X3X7X7X7X7X7X6X=X=X=X,X=X=X7X7X7X7X7X7X2X=X=X=X=X=X5X7X7X7X7X7X7X=X=X=X=X=X=X7X7X7X7X7X7X2X=X=X=X:X;X",
"=X=X7X7X7X7X7X7X2X=X=X=X=X=X6X7X7X7X7X7X7X=X=X=X=X=X=X7X7X7X7X7X7X2X=X=X=X=X=X2X7X7X7X7X7X6X=X=X=X=X=X=X7X7X7X7X7X7X2X=X=X=X=X=X",
"=X2X7X7X7X7X7X7X2X=X=X=X2X>X3X7X7X7X7X7X6X;X2X=X>X=X2X7X7X7X7X7X7X2X2X=X>X>X>X5X7X7X7X7X7X6X2X=X:X;X=X2X7X7X7X7X7X7X5X;X2X:X=X<X",
"7X7X=X=X2X=X=X=X6X7X7X7X7X7X5X=X>X=X;X=X2X7X7X7X7X7X7X=X2X=X=X=X;X6X7X7X7X7X7X2X=X=X=X>X;X2X7X7X7X7X7X7X=X=X;X1X2X=X6X7X7X7X7X7X",
"7X7X=X;X=X;X=X=X7X7X7X7X7X7X5X=X=X=X=X=X2X7X7X7X7X7X7X=X=X=X;X=X=X7X7X7X7X7X7X3X=X=X=X=X=X2X7X7X7X7X7X7X>X=X=X=X=X=X7X7X7X7X7X7X",
"7X7X=X=X=X=X=X=X7X7X7X7X7X7X5X=X=X=X;X=X2X7X7X7X7X7X7X:X=X=X=X=X=X6X7X7X7X7X7X6X=X=X=X=X=X=X7X7X7X7X7X7X>X;X=X=X=X=X6X7X7X7X7X7X",
"7X7X=X=X=X=X=X=X7X7X7X7X7X7X2X=X=X=X=X=X2X7X7X7X7X7X7X>X;X=X=X=X=X7X7X7X7X7X7X5X=X;X;X=X=X2X7X7X7X7X7X7X:X=X;X=X=X=X3X7X7X7X7X7X",
"7X7X=X=X;X=X=X=X6X7X7X7X7X7X2X=X=X=X=X=X2X7X7X7X7X7X7X;X=X:X=X=X=X6X7X7X7X7X7X3X=X,X:X=X=X2X7X7X7X7X7X7X2X=X=X=X=X=X6X7X7X7X7X7X",
"7X7X=X=X=X=X=X=X7X7X7X7X7X7X2X=X=X=X=X=X2X7X7X7X7X7X7X=X;X=X=X=X=X6X7X7X7X7X7X5X=X=X;X=X=X2X7X7X7X7X7X7X;X=X=X;X=X=X3X7X7X7X7X7X",
"5X2X6X6X7X6X6X7X2X2X2X2X5X2X3X6X7X6X6X7X3X2X2X>X5X2X5X6X6X6X6X7X7X5X2X>X2X2X2X2X6X3X6X6X6X5X2X2X5X2X2X5X7X6X6X6X6X6X5X2X5X2X2X5X",
"=X>X7X7X7X7X7X7X2X=X=X=X=X=X6X7X7X7X7X7X7X=X=X=X=X=X;X7X7X7X7X7X7X;X=X=X=X=X=X7X7X7X7X7X7X7X=X=X=X=X=X=X7X7X7X7X7X7X2X=X=X=X=X=X",
"=X2X7X7X7X7X7X7X=X=X=X=X=X=X6X7X7X7X7X7X5X=X=X=X=X=X=X7X7X7X6X7X7X3X=X=X<X=X-X[.7X7XoX7X7X3X,X;X=X=X=X=X7X7X7X7X7X7X2X=X=X=X=X=X",
"=X=X7X7X7X7X7X7X>X=X=X=X=X=X6X7X7X7X7X7X6X=X;X=X=X*X<X7X7X7X7X7X7X.X7X:X*X7X2XH.2.2X!.8.7X7X=X=X=X=X=X=X7X7X7X7X7X7X2X=X=X=X=X=X",
"=X,X7X7X7X7X7X7X>X=X=X=X=X=X3X7X7X7X7X7X7X;X;X=X=X7X5X2XK.`.`.}.E.% T.5.$.T.-X6XH.@.1X8.9.7X=X,X,X=X=X=X7X7X7X7X7X7X2X=X=X;X=X=X",
"=X>X7X7X7X7X7X7X;X=X=X=X=X=X5X7X7X7X7X7X6X=X*X=X3XY.K.9 * ) ) ..$ ;.. u g   1.`.Q.#.5./.d W.5X*X=X=X=X=X7X7X7X7X7X7X5X=X=X=X=X=X",
"2X2X6X6X3X7X6X6X5X2X2X5X2X5X2X6X6X6X6X7X5X5X7X6Xr.s s ..} K D  .q I B k.g.B s 1 d * V.5.-.-.=X4X>X2X5X2X3X6X6X6X6X6X5X2X2X2X2X2X",
"7X7X=X=X=X=X=X=X7X7X7X7X7X7X2X=X=X=X=X=X3X7XOXt.t N.s.G z l k w k j j y g.| H } t j _ B.$ &.|.7X7X7X7X7X>X=X=X=X=X=X6X7X7X7X7X7X",
"7X7X=X=X=X=X=X=X7X7X7X7X7X7X2X:X=X=X=X5X).%.t } g.U P G A U S S S G M F ! G k.l.g.l.z V.M._ 7.4X7X7X7X7X2X=X=X=X=X=X7X7X7X7X7X7X",
"7X7X;X=X=X=X=X=X7X7X7X7X7X7X2X=X=X=X3X^.# f.c.g.I H J z y S A S A z C Q Q p.S d.v.I G { x.l.s.F.7X7X7X7X=X=X,X=X=X=X7X7X7X7X7X7X",
"7X7X,X:X=X;X=X=X7X7X7X7X7X7X2X=X=X-X7XU.i b.c.c.d.L L r q p A A E ~ ! P W I e u y q q r j.X.D.| ).7X7X7X:X=X;X=X=X=X6X7X7X7X7X7X",
"7X7X;X=X=X=X=X=X6X7X7X7X7X7X5X=X=X6X~.[ j H s.n.c.d.U P y M Q h.! P N W p.P L + O O  .D.A.*.O.p t.7X7X7X=X=X=X=X=X=X6X7X7X7X7X7X",
"7X6X2X>X=X2X2X=X7X7X7X7X7X7X2X=X5X X# z j > > M s.b.| G ! O.! R N V W p.a.L s.q 7 4.( C.S.v.v.v.+.OX7X6X2X=X2X2X=X=X3X7X7X7X7X7X",
"=X>X7X7X7X7X7X7X2X=X=X2X:X=X4X7X7X6.@ k 4 4 , , k K h.P ! R c T V R p.a.I K a ' 6X7X_.1 > >.j.v.d.w.4X=X6X7X7X7X7X7X5X=X;X=X=X2X",
"=X2X7X7X7X7X7X7X2X=X=X=X,X=X2X7X}.$ b < : - < < M E Q R Y V C c W p.i.a.D A @ T.7X6X7X+X9 ; m K l.+.+X2X7X7X7X7X7X7X2X=X=X=X=X=X",
"=X=X7X7X7X7X7X7X=X=X=X=X=X=X7X-X2.# > - ,.u.w ~ E T Z V C C V Q x.W ! ~ E N T.7X7X7X6X7X,XR.1.# 0 / %X<X7X7X7X7X7X7X2X=X=X1X=X=X",
"=X1X7X7X7X7X7X7X2X=X=X=X=X=X7XK.$ b 4 X u.:.h T Y T T C T c Q l.W F a.C M O.B T.7X7X7X7X7X7X1X|.L.'.5X<X7X7X7X7X7X7X2X=X=X=X;X=X",
"=X2X7X7X7X7X7X7X=X=X=X<X*X6X].$ > 5 X u.~.  , l C C T C c ! k.R C Q l.r 8 m Z.t $X7X7X7X7X6X=X2X7X2X=X<X7X7X7X7X7X7X5X=X=X=X=X=X",
"=X;X7X7X7X7X7X7X>X=X=X-X2X+X$.@ , = ,.7XJ.  > k x T C F Q ! G Y Z W b.B XXF.C.A 6.7X7X7X7X7X=X=X=X=X=X=X7X7X7X7X7X7X2X=X=X=X=X=X",
"6X3X>X2X2X2X2X2X6X6X3X7X7X4.t b - ; @X7Xe.  H o.2 c R ! P Y T T T R l.+.2X!.g M.f `.5X1X>X2X6X7X6X7X6X7X2X2X2X2X2X2X6X7X6X7X3X6X",
"7X7X=X=X=X=X=X=X7X7X7X;Xu.s / : = (.5X3Xe.s X.r 2 R ~ R V C C Z T Y a.X.6XL.d #.=.}.2X=X=X2X7X7X7X7X7X7X=X=X=X=X=X=X6X7X7X7X7X7X",
"7X7X=X=X=X=X=X=X7X7X|.$.^ ) o 8 `.5X*X7XK.f *.*.v ~ E C T Y F T C c ! K _.W.~.r.~.6X=X=X=X2X7X7X7X7X7X7X;X=X=X=X=X=X5X7X7X7X7X7X",
"7X7X=X=X=X=X=X3X%XR.%.^ : - 3.oX7X=X=X6XQ.. & -.:.@ h Y T T F T C C R K P.7X7X2X:X=X=X=X=X:X7X7X7X7X7X7X2X=X=X=X=X=X3X7X7X7X7X7X",
"7X7X=X=X=X=X2XR.7 O 7 8 0.+X7X;X=X=X=X=X*XK.e.~.7X Xt.2 l Y R T R T V ! 7.4X7X4X=X=X=X=X=X2X7X7X7X7X7X7X2X=X=X=X;X;X6X7X7X7X7X7X",
"7X7X=X=X=X=X=X@XU.R..X:X7X7X2X=X=X=X=X=X2X7X7X7X7X7X7X+Xu.2 h Y R T Y W D `.7X2X=X=X=X=X=X2X7X7X7X7X7X7X=X=X=X=X=X=X6X7X7X7X7X7X",
"3X6X5X2X5X2X2X7X7X7X7X7X2X3X2X5X5X2X2X2X5X5X2X3X5X2X5X6X7X+XF.2 w c R T S t.7X5X5X2X2X5X2X2X3X6X6X6X3X6X5X2X2X5X2X2X5X3X3X3X6X6X",
"=X>X7X7X7X7X7X7X;X&X*X=X=X=X3X7X7X7X7X7X8X=X=X=X=X=X;X7X7X7X7X$XE.' @ x ! ` .X7X7X7X7X7X7X7X=X=X=X=X=X=X7X7X7X7X7X7X2X=X=X=X=X;X",
"=X;X7X7X7X7X7X7X:X=X=X,X=X=X3X7X7X7X7X7X6X=X=X=X=X=X2X7X7X7X7X7X7X=X!.1.w e I.7X7X7X7X7X7X7X=X=X=X=X<X=X7X7X7X7X7X7X2X=X=X=X=X=X",
"=X2X7X7X7X7X7X7X2X=X=X=X=X=X3X7X7X7X7X7X7X=X=X=X=X=X=X7X7X7X7X7X7X<X6X,XE.' 6.6X7X7X7X7X7X6X=X=X,X=X:X=X7X7X7X7X7X7X2X=X=X=X=X;X",
"=X=X7X7X7X7X7X7X=X=X=X=X=X=X5X7X7X7X7X7X6X=X=X=X=X=X=X7X7X7X7X7X7X2X=X=X7X=X%X5X7X7X7X7X7X7X=X=X=X>X=X=X7X7X7X7X7X7X5X=X=X=X=X=X",
"=X=X7X7X7X7X7X7X2X=X=X=X=X=X5X7X7X7X7X7X7X=X=X=X=X=X=X7X7X7X7X7X7X2X=X=X=X=X;X5X7X7X7X7X7X6X=X=X=X=X=X=X7X7X7X7X7X7X2X=X=X=X=X=X",
";X2X7X7X7X7X7X7X2X=X=X2X2X:X3X7X7X7X7X7X3X>X>X>X2X2X=X7X7X7X7X7X7X2X>X1X1X;X=X5X7X7X7X7X7X6X2X2X>X2X=X:X6X7X7X7X7X7X5X;X2X2X=X>X",
"7X6X=X2X2X=X=X=X7X7X7X7X7X7X5X=X=X=X=X=X2X7X7X7X7X7X7X=X=X<X=X=X;X6X7X7X7X7X7X3X=X2X;X=X=X2X7X7X7X7X7X7X2X=X;X=X=X=X3X7X7X7X7X7X",
"7X7X=X=X=X=X=X=X7X7X7X7X7X7X2X=X=X=X=X=X5X7X7X7X7X7X7X>X=X=X=X=X=X7X7X7X7X7X7X3X=X=X=X=X=X;X7X7X7X7X7X7X:X=X=X=X=X=X7X7X7X7X7X7X",
"7X7X=X=X=X=X=X=X7X7X7X7X7X7X5X=X=X;X=X=X2X7X7X7X7X7X7X,X:X=X=X=X=X6X7X7X7X7X7X6X=X=X=X=X=X2X7X7X7X7X7X7X2X=X=X=X=X=X6X7X7X7X7X7X",
"7X7X=X=X=X=X1X=X7X7X7X7X7X7X5X=X=X=X;X=X2X7X7X7X7X7X7X2X=X=X=X2X=X7X7X7X7X7X7X5X=X=X=X=X=X2X7X7X7X7X7X7X2X=X=X=X=X=X6X7X7X7X7X7X",
"7X7X=X=X;X=X=X=X7X7X7X7X7X7X5X=X=X=X=X=X5X7X7X7X7X7X7X=X=X=X=X=X=X6X7X7X7X7X7X5X=X=X=X=X=X2X7X7X7X7X7X7X2X=X=X=X=X=X6X7X7X7X7X7X"
};
