/* XPM */
static char *result[] = {
/* columns rows colors chars-per-pixel */
"64 60 206 2 ",
"   c #020000",
".  c #0C0001",
"X  c #0B000B",
"o  c #130101",
"O  c #1B0100",
"+  c #1A0C0A",
"@  c #1D1209",
"#  c #02001E",
"$  c #1A0019",
"%  c #230403",
"&  c #290907",
"*  c #250D09",
"=  c #2A020C",
"-  c #340004",
";  c #34030D",
":  c #3A000B",
">  c #360D0D",
",  c #280819",
"<  c #3D0C1E",
"1  c #380819",
"2  c #291716",
"3  c #3C161B",
"4  c #361B1A",
"5  c #30180E",
"6  c #2A211F",
"7  c #39271C",
"8  c #3B301F",
"9  c #070024",
"0  c #0A0124",
"q  c #0B012B",
"w  c #121C24",
"e  c #180725",
"r  c #260627",
"t  c #330B26",
"y  c #370B27",
"u  c #2D1D25",
"i  c #3B1121",
"p  c #2A0831",
"a  c #292628",
"s  c #322526",
"d  c #372C2A",
"f  c #3B2D31",
"g  c #3D3435",
"h  c #272735",
"j  c #410B12",
"k  c #440A1E",
"l  c #4E0E19",
"z  c #480414",
"x  c #54061A",
"c  c #560B19",
"v  c #481517",
"b  c #50181E",
"n  c #631A19",
"m  c #442C1A",
"M  c #493419",
"N  c #5F301A",
"B  c #4D0A25",
"V  c #4E0D2C",
"C  c #5E0F2E",
"Z  c #560C23",
"A  c #461725",
"S  c #521921",
"D  c #5D122D",
"F  c #591524",
"G  c #460C33",
"H  c #480B30",
"J  c #5D0F32",
"K  c #5D1132",
"L  c #630E2D",
"P  c #641226",
"I  c #6F1321",
"U  c #661C25",
"Y  c #6D1B25",
"T  c #64132E",
"R  c #6A1A2A",
"E  c #67162C",
"W  c #75152D",
"Q  c #79162E",
"!  c #7A1C29",
"~  c #631233",
"^  c #6C1433",
"/  c #6B1834",
"(  c #631338",
")  c #721633",
"_  c #731B34",
"`  c #7C1B33",
"'  c #781632",
"]  c #493927",
"[  c #573724",
"{  c #5E2A30",
"}  c #5C2F38",
"|  c #493935",
" . c #4A2E33",
".. c #672229",
"X. c #672223",
"o. c #782429",
"O. c #6A342A",
"+. c #6B3B2B",
"@. c #703B24",
"#. c #762935",
"$. c #6D2735",
"%. c #5A4918",
"&. c #694C1C",
"*. c #544120",
"=. c #44413C",
"-. c #50483F",
";. c #5B5739",
":. c #604326",
">. c #75402C",
",. c #7F5626",
"<. c #624D39",
"1. c #7A5235",
"2. c #2C2C42",
"3. c #402443",
"4. c #5A3841",
"5. c #433F54",
"6. c #493D4A",
"7. c #7C3345",
"8. c #4A4849",
"9. c #554947",
"0. c #524952",
"q. c #5D5C5D",
"w. c #4B4659",
"e. c #635644",
"r. c #645A5B",
"t. c #67615E",
"y. c #5D5B68",
"u. c #6C5F67",
"i. c #755C63",
"p. c #696665",
"a. c #746A6C",
"s. c #716F70",
"d. c #797974",
"f. c #797A7A",
"g. c #851F2E",
"h. c #831B34",
"j. c #81352D",
"k. c #832236",
"l. c #8C2333",
"z. c #852439",
"x. c #892835",
"c. c #912334",
"v. c #922A36",
"b. c #9C2C34",
"n. c #922639",
"m. c #952D3D",
"M. c #873636",
"N. c #9A3539",
"B. c #89292E",
"V. c #A53438",
"C. c #974633",
"Z. c #8D5733",
"A. c #A07936",
"S. c #943641",
"D. c #A1344A",
"F. c #A8414D",
"G. c #AB4951",
"H. c #816F4D",
"J. c #857C78",
"K. c #82827F",
"L. c #8B817C",
"P. c #868589",
"I. c #928B8C",
"U. c #95968F",
"Y. c #908F91",
"T. c #9C9C9B",
"R. c #9A9794",
"E. c #A19D9C",
"W. c #A29DA7",
"Q. c #AAACAB",
"!. c #A5A6A6",
"~. c #B1AFAF",
"^. c #B6B5B5",
"/. c #BCBCBC",
"(. c #B7B9B5",
"). c #C2BEBF",
"_. c #BFC1BF",
"`. c #BEBCC3",
"'. c #BEC1C2",
"]. c #C4C5C4",
"[. c #CCCAC9",
"{. c #D1D3CF",
"}. c #D4D4D4",
"|. c #D6DADA",
" X c #D7D7DB",
".X c #DBE0DD",
"XX c #DCDDE2",
"oX c #E2DFE2",
"OX c #DEE3E2",
"+X c #E2E3E3",
"@X c #E6EAE7",
"#X c #EEEEEE",
"$X c #E5E7E8",
"%X c #F0EDEE",
"&X c #ECF0EF",
"*X c #F0F1EE",
"=X c #EDEDF1",
"-X c #F0EFF0",
";X c #EEF0F2",
":X c #F3F3F3",
">X c #F6F8F6",
",X c #F9F9F6",
"<X c #F9F7F9",
"1X c #F7FAF9",
"2X c #FEFEFE",
"3X c #F7F5F7",
/* pixels */
"#X#X#X#X#X:X2X2X2X2X2X2X:X#X#X#X#X#X>X2X2X2X2X2X2X#X#X#X#X#X#X<X2X2X2X2X2X<X#X#X#X#X#X%X2X2X2X2X2X2X>X#X#X#X#X#X:X2X2X2X2X2X2X:X",
"#X#X:X#X#X:X2X2X2X2X2X2X#X#X#X#X#X#X>X2X2X2X2X2X2X#X#X#X#X#X#X2X2X2X2X2X2X<X#X&X#X#X&X:X2X2X2X2X2X2X:X#X#X#X#X#X:X2X2X2X2X2X2X#X",
"#X#X#X#X#X:X2X2X2X2X2X2X:X#X#X#X#X#X<X2X2X2X2X2X2X#X#X#X#X&X#X<X2X2X2X2X2X<X#X#X#X#X#X#X2X2X2X2X2X2X:X@X#X#X#X#X:X2X2X2X2X2X2X:X",
"<X2X2X<X<X>X:X:X:X:X:X:X<X<X2X2X<X2X>X-X:X:X:X-X:X2X<X2X<X2X2X:X:X:X:X:X*X>X2X<X2X<X2X2X:X:X:X:X:X-X<X2X2X2X<X2X<X:X:X&X:X&X:X<X",
"2X2X2X2X2X<X#X#X#X#X#X#X2X2X2X2X2X2X>X#X#X#X#X#X&X2X2X2X2X2X2X:X#X#X#X#X#X:X2X2X2X2X2X2X#X#X#X#X#X#X2X2X2X2X2X2X<X#X#X#X#X#X#X2X",
"2X2X2X2X2X2X#X#X#X#X#X#X2X2X2X2X2X2X>X#X#X#X#X#X:X2X2X2X2X2X2X:X#X#X#X#X#X>X2X2X2X2X2X2X%X#X#X#X#X#X<X2X2X2X2X2X<X#X#X#X#X#X#X2X",
"2X2X2X2X2X2X#X#X#X#X#X#X2X2X2X2X2X2X3X#X#X#X#X#X:X2X2X2X2X2X2X:X#X#X#X#X#X>X2X2X2X2X2X2X=X#X#X#X#X#X<X2X2X2X2X2X2X#X#X#X%X#X#X2X",
"2X2X2X2X2X<X#X#X#X-X#X#X2X2X2X2X2X2X3X#X#X#X#X#X%X2X2X2X2X2X2X:X#X#X#X#X#X>X2X2X2X2X2X2X#X%X#X#X#X#X<X2X2X2X2X2X>X#X#X;X#X#X#X2X",
"2X2X2X2X2X<X#X#X#X#X#X#X2X2X2X2X2X2X>X#X#X#X#X#X:X2X2X2X2X2X2X%X#X#X@X#X#X>X2X2X2X2X2X2X#X#X#X#X#X#X<X2X2X2X2X2X<X#X#X#X#X#X#X2X",
"<X>X<X>X<X3X>X>X>X>X>X>X>X3X>X<X>X>X3X>X3X3X>X>X>X>X<X>X<X<X>X>X3X3X3X>X>X>X>X<X<X>X>X<X>X>X>X3X>X>X>X>X<X<X3X>X>X>X>X>X>X3X>X3X",
"#X#X#X#X#X:X2X2X2X2X2X2X#X#X#X#X#X#X<X2X2X2X2X2X<X#X#X#X#X#X#X2X2X2X2X2X2X<X@X#X#X#X#X#X2X2X2X2X2X2X:X#X#X#X#X#X:X2X2X2X2X2X2X%X",
"#X#X#X#X#X:X2X2X2X2X2X2X:X#X#X#X#X#X>X2X2X2X2X2X2X#X#X#X#X#X*X<X2X2X2X2X2X<X#X#X#X#X#X-X2X2X2X2X2X2X:X#X#X#X#X#X:X2X2X2X2X2X2X-X",
"#X#X&X%X#X:X2X2X2X2X2X2X-X#X#X#X#X#X>X2X2X2X2X2X<X#X#X#X#X#X#X2X2X2X2X2X2X<X#X#X#X#X#X:X2X2X2X2X2X2X3X#X#X#X#X#X>X2X2X2X2X2X2X:X",
"#X#X#X#X@X:X2X2X2X2X2X2X-X#X#X#X#X#X3X2X2X2X2X2X2X#X%X&X#X#X#X<X2X2X2X2X2X<X#X#X#X%X#X%X2X2X2X2X2X2X:X#X#X#X#X#X:X2X2X2X2X2X2X#X",
"#X#X#X#X#X:X2X2X2X2X2X2X#X#X#X#X#X#X>X2X2X2X2X2X2X#X#X#X#X%X#X2X2X2X2X2X2X<X#X#X#X#X#X#X2X2X2X2X2X2X:X@X#X#X#X#X:X2X2X2X2X2X2X:X",
"#X#X:X:X-X>X2X<X2X2X<X2X:X#X:X-X:X%X>X2X2X2X<X2X<X*X&X:X*X*X&X<X2X2X2X<X<X>X#X:X;X:X#X:X2X2X2X<X2X2X>X-X:X-X-X-X:X2X2X<X2X2X<X:X",
"2X2X2X2X2X2X#X#X#X#X#X#X2X2X2X2X2X2X3X#X#X#X%X#X:X2X2X2X2X2X2X:X@X#X*X,X<X2X2X2X2X2X2X2X%X#X#X#X#X#X<X2X2X2X2X2X<X&X&X#X%X&X*X2X",
"2X2X2X2X2X<X#X#X#X:X#X#X2X2X2X2X2X2X>X#X#X#X#X#X:X2X2X2X2X2X<X:X2X1X$X/.P.R.>X2X2X<X2X2X#X#X#X#X#X#X<X2X2X2X2X2X<X#X#X#X#X#X#X2X",
"2X2X2X2X2X2X#X#X#X#X#X#X2X2X2X2X2X2X>X#X#X#X#X#X*X2X2X2X2X2X2XoXE.r.s o . . d T.>X2X2X2X#X#X#X#X%X#X<X2X2X2X2X2X<X#X#X#X#X#X%X2X",
"2X2X2X2X2X<X#X#X#X%X&X#X2X2X2X2X2X2X>X#X#X#X#X#X;X2X2X2X2X].s.a o o O % % % .   ^.}.2X<X:X>X#X#X&X&X<X2X2X2X2X2X2X#X#X#X#X#X#X2X",
"2X2X2X2X2X2X#X#X#X#X&X%X2X2X2X2X2X2X>X#X#X#X#X#X:X2X2X^.| o . % & & O O % o s ].(.. ).}.8.|.>X#X*X#X2X2X2X2X2X2X<X#X#X&X#X#X-X2X",
"2X2X2X2X2X<X#X#X#X#X#X#X2X2X2X2X2X2X>X#X=X#X#X#X#X2X].o . % % % O o @ * O + =.2X2XJ.] |.t.8 }.>X@X#X<X2X2X2X2X2X<X#X%X#X#X#X#X2X",
":X:X&X:X:X:X<X2X2X<X2X<X:X:X:X:X:X-X>X2X<X2X<X<X2X.Xa . + @ [ * M 5 m [ % >.5 p./.OXe.e.'.e.;.>X2X<X:X*X:X:X:X:X>X2X2X<X<X2X<X:X",
"#X#X#X#X#X:X2X2X2X2X2X2X#X#X#X#X#X#X<X2X2X2X2X2X2X0.. i m [ j.Y N.X.U j.S v.U > 7 | =.M H.U.%.T.2X2X:X#X#X#X@X#X:X2X2X2X2X2X2X&X",
"#X#X#X#X#X:X2X2X2X2X2X2X-X#X#X#X#X#X3X2X2X2X<X2XQ.  O.C.X.o.B B B B V T _ #.` _ X.b v 4 ,.;.*.;.=X2X:X#X=X#X#X#X:X2X2X2X2X2X2X:X",
"#X#X#X#X#X:X2X2X2X2X2X2X-X#X#X%X#X#X<X2X2X2X2XQ.d +.B.l.L D T ~ ^ ^ _ _ ) W l.c.l.o.o.` ..A.1.N a.2X&X@X%X#X#X#X:X2X2X2X2X2X2X#X",
"#X#X#X:X%X3X2X2X2X2X2X2X-X#X#X#X#X#X>X2X2XXXp.* S z.Q E ^ / ^ ~ K C C D ) z.l.Q o.V.V.b.n.C.N.N.! I.2X#X%X&X%X#X:X2X2X2X2X2X2X:X",
"#X#X#X#X@X:X2X2X2X2X2X2X#X#X#X#X#X#X>X2X+Xs j $.~ C ~ K ~ J J J T / ' l.n.g.I c n c.! _ z c B.#.F.U T.3X#X#X%X@X:X2X2X2X2X2X2X#X",
":X>X>X>X3X>X>X>X<X<X<X>X>X3X>X>X3X3X>X<X#X9.F K J ~ K ~ K D ~ ) ' ` v.l.^ E Q P : j - - l M.S.+.o.! 9.1X>X3X3X>X>X<X>X<X<X>X>X>X",
"2X2X2X2X2X<X#X#X#X#X#X#X2X2X2X2X2X2X:X@X2Xp.k K D ~ D D _ ` ' ^ ` Q x z T ( c.c.c % |  .X.G.F.b.V.N...R.2X2X2X2X<X#X#X#X#X#X#X2X",
"2X2X2X2X2X2X#X#X&X#X&X#X<X2X2X2X2X2X<X:Xd.4 B B ~ ~ ^ ` _ ^ E Q x  .p.0.1 ~ g.n.x t.2X2XJ.2 A 7.m.b.b.} OX2X2X2X<X#X#X#X#X#X%X2X",
"2X2X2X2X2X<X#X#X#X#X%X#X2X2X2X2X,X2X*XP.4 b t H ^ Q ^ ~ J _ ` } I. X2X:X6.Z g.g.- Q.2X1X2X'.a w A I n.Y Q.2X2X2X<X#X%X#X=X#X#X2X",
"2X2X2X2X2X3X@X#X=X%X#X#X2X2X2X2X<X2XP.m A y p H T ~ J J E N.l !.2X%X:X{.3.K g.x r.2X<X<X#X1XoXI.q. .: ; /.2X2X2X<X#X#X#X#X#X%X2X",
"2X2X2X2X2X2X>X;X@X@X#X#X2X2X2X2X2XU.5 i y p q G ~ K ~ C z.m.= Q.>X@X3X'.r E k.U p.OX2X2X#X#X*X2X>XXXT.~.2X2X2X2X<X#X#X#X#X#X#X2X",
"2X2X2X2X<X|.}.=X2X<X:X>X<X2X2X}.p.7 A t q 9 h < ~ J K ~ n.: f @X:X-X#X1X^.i z ^ R S T.2X%X#X#X#X#X:X2X2X2X2X2X2X<X&X:X*X#X:X:X<X",
"#X#X#X:X+Xq.+ 9.f.}.>X#X:XOXT.7 * A p 0 9 y.f 1 ~ K J ^ { s.[.2X<X2X2X2X2X].u.u #.D.; s.2X2X2X2X2X2X;X@X%X=X#X#X:X2X2X2X2X2X2X;X",
"#X#X:X#X%X<X^.g O  .9.9.r.| 2 3 t t 9 2./.0.= k J K ( P R.2X*X2X2X2X2X2X2X2X1XOXi.#.Z.&.].2X2X2X2X2X:X@X%X#X#X#X>X2X2X2X2X2X2X:X",
"#X#X#X#X#X*X2X:Xp.2 , * X , $ r 9 e y.2XY.. D k i J L 4.+X*X#X<X2X2X2X2X2X>X@X2X'.*.*.M [.2X2X2X2X2X:X#X#X=X#X#X:X2X2X2X2X2X2X#X",
"#X#X#X#X#X:X<X2X2XXX`.W.P.y.5.w.y.].2X2X0.l m.$.2 ( Z T.<X@X#X<X2X2X2X2X2X1X#X:X|.| K.f.2X2X2X2X2X2X>X#X%X#X#X#X:X2X2X2X2X2X2X:X",
"#X#X#X#X#X:X2X2X2X2X2X2X2X1X>X:X2X>X1X&X9.@.S | f.k } @X:X%X&X2X2X2X2X2X2X3X#X-XoX].>X:X2X2X2X2X2X2X:X#X#X#X#X#X:X2X2X2X2X2X2X#X",
"#X#X#X#X#X:X2X2X2X2X<X<X#X@X#X#X@X$X3X<X| M M Q.@XO Y.<X#X#X#X<X2X2X2X2X2X<X#X#X#X:X@X-X2X2X2X2X2X2X>X@X#X#X#X#X:X2X2X2X2X2X2X;X",
"2X<X2X<X<X1X:X:X:X:X>X:X<X<X2X<X<X2X3X>XQ.g L.3X;X!.$X2X<X<X<X>X:X:X:X>X-X>X<X2X1X1X<X<X:X:X>X:X:X:X<X2X<X<X<X2X<X:X:X:X:X:X:X<X",
"2X2X2X2X2X2X#X#X#X#X#X#X2X2X2X2X2X2X>X#X>X+X:X#X%X2X2X2X2X2X2X:X@X#X#X#X#X3X2X2X2X2X2X2X#X#X#X#X#X#X2X2X2X2X2X2X<X#X#X#X#X#X#X2X",
"2X2X2X2X2X<X#X#X#X#X#X%X2X2X2X2X2X2X>X#X#X%X#X#X:X2X2X2X2X2X2X:X%X#X#X#X#X>X2X2X2X2X2X2X-X#X#X#X#X#X<X2X2X2X2X2X<X#X#X#X#X#X*X2X",
"2X2X2X2X2X2X#X#X#X#X#X#X2X2X2X2X2X2X3X#X#X#X%X#X&X2X2X2X2X2X2X*X#X#X#X#X#X3X2X2X2X2X2X2X&X%X#X#X#X#X<X2X2X2X2X2X<X#X#X#X#X#X:X<X",
"2X2X2X2X2X<X#X#X#X#X#X#X2X2X2X2X2X2X3X#X#X#X#X#X:X2X2X2X2X2X2X:X#X#X#X#X#X>X2X2X2X2X2X2X:X#X#X#X#X#X<X2X2X2X2X2X<X#X#X#X#X#X&X2X",
"2X2X2X2X2X2X#X#X#X#X#X#X2X2X2X2X2X2X>X#X#X#X#X@X:X2X2X2X2X2X2X:X#X#X#X#X@X3X2X2X2X2X2X2X#X#X#X#X#X#X<X2X2X2X2X2X<X#X#X#X#X#X%X2X",
"<X<X<X<X>X:X:X:X:X:X:X>X>X<X2X<X<X<X>X:X:X:X3X3X>X<X<X<X<X<X<X:X3X:X:X:X3X3X<X<X<X<X<X<X:X:X:X:X:X>X<X<X<X<X<X<X>X:X:X>X:X:X>X<X",
"&X#X#X#X@X:X2X2X2X2X2X2X:X@X#X#X#X#X>X2X2X2X2X2X2X#X#X#X#X#X#X2X2X2X2X2X2X<X@X#X#X#X#X#X2X2X2X2X2X2X:X#X#X#X#X#X:X2X2X2X2X2X2X:X",
"*X#X#X#X#X:X2X2X2X2X2X2X:X#X#X#X#X#X>X2X2X2X2X2X2X#X#X#X#X#X#X<X2X2X2X2X2X<X#X:X#X#X#X#X2X2X2X2X2X2X:X#X%X&X#X#X>X2X2X2X2X2X2X#X",
"#X*X#X#X#X:X2X2X2X2X2X2X:X#X#X#X#X#X<X2X2X2X2X2X2X#X#X#X#X#X#X2X2X2X2X2X2X<X#X#X#X#X#X:X2X2X2X2X2X2X:X#X%X#X%X#X:X2X2X2X2X2X2X:X",
"#X=X#X#X#X:X2X2X2X2X2X2X#X#X%X#X#X#X>X2X2X2X2X2X2X#X#X#X#X#X#X2X2X2X2X2X2X<X#X#X#X#X#X:X2X2X2X2X2X2X:X#X#X=X#X#X:X2X2X2X2X2X2X#X",
"#X#X#X#X#X:X2X2X2X2X2X2X-X#X#X#X#X@X<X2X2X2X2X2X<X#X#X#X#X#X#X<X2X2X2X2X2X<X#X#X#X#X#X#X2X2X2X2X2X2X:X#X#X#X#X@X:X2X2X2X2X2X2X:X",
"#X:X#X:X#X:X2X2X2X2X2X2X:X#X=X#X:X#X<X2X2X2X2X2X<X&X#X:X=X*X&X<X2X2X2X2X2X3X#X#X:X#X#X:X2X2X2X2X2X2X>X#X%X#X:X#X>X2X2X2X2X2X<X:X",
"2X2X2X2X2X2X#X#X#X#X#X:X2X2X2X2X2X2X3X-X#X:X#X#X:X2X2X2X2X2X2X:X#X#X#X:X#X>X2X2X2X2X2X2X:X#X*X=X#X#X<X2X2X2X2X2X<X#X:X#X%X#X&X2X",
"2X2X2X2X2X<X#X#X#X#X#X#X2X2X2X2X2X2X>X@X#X#X#X#X:X2X2X2X2X2X2X:X#X#X#X#X#X>X2X2X2X2X2X2X#X#X#X*X#X#X2X2X2X2X2X2X<X#X#X#X#X#X#X2X",
"2X2X2X2X2X2X#X#X#X%X&X#X2X2X2X2X2X2X>X#X#X#X#X#X:X2X2X2X2X2X2X:X#X#X%X;X#X:X2X2X2X2X2X2X#X#X#X#X#X#X<X2X2X2X2X2X<X#X#X#X#X&X&X2X",
"2X2X2X2X2X<X#X#X#X;X%X=X2X2X2X2X2X2X>X#X#X%X#X#X:X2X2X2X2X2X2X:X#X#X#X#X#X>X2X2X2X2X2X2X:X#X#X#X#X#X2X2X2X2X2X2X<X#X&X#X#X#X%X2X",
"2X2X2X2X2X<X#X#X#X#X*X#X2X2X2X2X2X2X>X#X#X%X#X#X:X2X2X2X2X2X2X:X#X#X#X#X#X>X2X2X2X2X2X2X#X#X#X#X#X#X2X2X2X2X2X2X<X#X#X#X#X#X#X2X",
"2X2X2X2X2X2X#X#X#X#X#X#X2X2X2X2X2X2X3X@X=X#X#X#X:X2X2X2X2X2X2X-X#X#X#X#X#X>X2X2X2X2X2X2X#X#X%X;X#X#X<X2X2X2X2X2X2X#X#X#X#X#X#X2X"
};
