/* XPM */
static char *result[] = {
/* columns rows colors chars-per-pixel */
"64 55 206 2 ",
"   c #120201",
".  c #180800",
"X  c #1A0405",
"o  c #1E100D",
"O  c #00001A",
"+  c #070013",
"@  c #1A001A",
"#  c #270607",
"$  c #370309",
"%  c #2A1607",
"&  c #260A19",
"*  c #3D0F16",
"=  c #3B031C",
"-  c #390D1C",
";  c #3B0010",
":  c #281816",
">  c #3B1D1A",
",  c #3C1617",
"<  c #2E231F",
"1  c #0C022A",
"2  c #190525",
"3  c #191A23",
"4  c #1F1735",
"5  c #2D0A26",
"6  c #28052C",
"7  c #3C0924",
"8  c #3B0A29",
"9  c #360825",
"0  c #3F1528",
"q  c #280B34",
"w  c #272023",
"e  c #3B2522",
"r  c #382727",
"t  c #3F3429",
"y  c #2A213C",
"u  c #372A36",
"i  c #383934",
"p  c #49040E",
"a  c #47091B",
"s  c #560F1D",
"d  c #481816",
"f  c #5A101F",
"g  c #51141A",
"h  c #600A1B",
"j  c #6C131F",
"k  c #62151C",
"l  c #492218",
"z  c #5C2818",
"x  c #45321D",
"c  c #5B3B1C",
"v  c #4D0A24",
"b  c #430823",
"n  c #530E27",
"m  c #5B0D23",
"M  c #5C0E2F",
"N  c #580728",
"B  c #42192B",
"V  c #4C1D2E",
"C  c #551223",
"Z  c #5A1324",
"A  c #5C1B23",
"S  c #5C112D",
"D  c #440B31",
"F  c #5C0F31",
"G  c #5D1131",
"H  c #511031",
"J  c #660F2D",
"K  c #641324",
"L  c #6A1227",
"P  c #6A1B26",
"I  c #63142C",
"U  c #69152A",
"Y  c #6D1D2B",
"T  c #671822",
"R  c #731728",
"E  c #721C2C",
"W  c #781727",
"Q  c #631232",
"!  c #6A1533",
"~  c #6C1A34",
"^  c #6C173B",
"/  c #721532",
"(  c #731A33",
")  c #7C1C33",
"_  c #4B2622",
"`  c #592A25",
"'  c #493525",
"]  c #543B28",
"[  c #4D2F35",
"{  c #5F2F34",
"}  c #4A3537",
"|  c #57393D",
" . c #652B22",
".. c #692326",
"X. c #74242C",
"o. c #7A2228",
"O. c #6A3725",
"+. c #7B2733",
"@. c #623335",
"#. c #75343E",
"$. c #524110",
"%. c #4F462E",
"&. c #544221",
"*. c #5F4F28",
"=. c #40443F",
"-. c #634C23",
";. c #754429",
":. c #6A5133",
">. c #46454F",
",. c #594F45",
"<. c #5B4952",
"1. c #5B5252",
"2. c #585556",
"3. c #604348",
"4. c #65584B",
"5. c #6A545B",
"6. c #6B625E",
"7. c #796C5A",
"8. c #7F7057",
"9. c #75694B",
"0. c #514F60",
"q. c #6A6A67",
"w. c #6C696A",
"e. c #726867",
"r. c #7B7267",
"t. c #726D70",
"y. c #7B7575",
"u. c #78757C",
"i. c #6A6873",
"p. c #871F34",
"a. c #82222B",
"s. c #8B242C",
"d. c #85282C",
"f. c #972C2F",
"g. c #832136",
"h. c #8C2134",
"j. c #872A36",
"k. c #922332",
"l. c #962D34",
"z. c #992B38",
"x. c #8E3837",
"c. c #943537",
"v. c #A1342E",
"b. c #A5363A",
"n. c #AA3734",
"m. c #B43D33",
"M. c #815E2B",
"N. c #934B3A",
"B. c #8B5135",
"V. c #8F6835",
"C. c #9E3A48",
"Z. c #A23742",
"A. c #A64352",
"S. c #806367",
"D. c #837C74",
"F. c #857B7B",
"G. c #827F80",
"H. c #7D8181",
"J. c #8D8B84",
"K. c #8A868A",
"L. c #898786",
"P. c #908C8F",
"I. c #90918F",
"U. c #938F94",
"Y. c #969596",
"T. c #96979B",
"R. c #9A9A96",
"E. c #A19C9D",
"W. c #A1979C",
"Q. c #A19FA4",
"!. c #A5A4A4",
"~. c #A9A7A6",
"^. c #A7A6A9",
"/. c #AAABA9",
"(. c #AAAAA5",
"). c #ADB0AD",
"_. c #ADABB1",
"`. c #ACB0B1",
"'. c #BBBDBC",
"]. c #B6B9B6",
"[. c #BEC3C3",
"{. c #C4C5C3",
"}. c #C7C7C8",
"|. c #CCCECD",
" X c #C7C8C8",
".X c #CDCED0",
"XX c #CFD4D3",
"oX c #D6D7D7",
"OX c #DADDE0",
"+X c #DFE3E0",
"@X c #E4E4E3",
"#X c #E8E8E7",
"$X c #E6EAE9",
"%X c #EEEEEE",
"&X c #F1EEEE",
"*X c #EEF0ED",
"=X c #F1F0EF",
"-X c #EEF2F0",
";X c #F4F4F4",
":X c #F8F7F7",
">X c #F4F8F6",
",X c #F9FAF7",
"<X c #F8F7F8",
"1X c #F6F9F8",
"2X c #FEFEFE",
"3X c #F6F7F9",
/* pixels */
":X%X%X%X%X%X<X2X2X2X2X2X;X%X%X%X%X-X2X2X2X2X2X2X%X%X%X%X%X;X2X2X2X2X2X:X%X%X%X%X%X<X2X2X2X2X2X;X%X%X%X%X%X2X2X2X2X2X<X%X%X&X%X&X",
":X%X%X%X%X%X<X2X2X2X2X2X;X%X%X%X%X&X2X2X2X2X2X<X%X%X%X;X%X;X2X2X2X2X2X:X%X%X%X%X%X2X2X2X2X2X2X%X%X%X%X%X;X2X2X2X2X2X2X%X%X%X&X%X",
"1X%X%X%X%X%X1X2X2X2X2X2X;X%X%X%X%X-X2X2X2X2X2X2X%X%X%X%X%X;X2X2X2X2X2X:X%X%X%X%X%X1X2X2X2X2X2X;X%X%X%X%X%X2X2X2X2X2X2X%X%X-X%X&X",
":X%X%X%X%X%X1X2X2X2X2X2X;X%X%X%X%X&X2X2X2X2X2X2X%X%X%X%X%X:X2X2X2X2X2X:X%X%X%X-X*X<X2X2X2X2X2X;X%X%X%X%X;X2X2X2X2X2X<X*X%X%X%X%X",
":X%X%X%X%X#X:X2X2X2X2X2X;X#X%X%X%X%X2X2X2X2X2X<X%X%X%X%X%X;X2X2X2X2X2X;X#X%X%X%X$X1X2X2X2X2X2X&X%X%X%X%X%X2X2X2X2X2X2X#X%X%X%X$X",
";X:X1X<X<X:X:X:X1X:X<X:X;X:X:X:X:X:X:X;X:X:X1X:X:X:X<X<X;X:X;X:X:X:X:X:X<X1X:X:X;X:X<X<X:X:X:X;X:X:X1X:X:X:X:X:X:X:X:X:X:X>X<X<X",
":X2X2X2X2X2X:X%X%X%X%X#X2X2X2X2X2X2X%X%X%X%X#X;X2X2X2X2X2X2X%X%X%X%X%X:X2X2X2X2X2X;X%X%X%X%X%X2X2X2X2X2X2X%X%X%X%X$X;X2X2X2X2X2X",
";X2X2X2X2X2X:X#X&X%X%X;X<X2X2X2X2X2X-X%X%X%X%X;X2X2X2X2X2X<X%X%X%X%X%X<X2X2X2X2X2X;X%X%X%X%X%X2X2X2X2X2X2X%X%X%X%X%X;X2X2X2X2X2X",
":X2X2X2X2X2X;X%X%X%X%X%X2X2X2X2X2X2X;X%X%X%X#X;X2X2X2X2X2X<X%X%X%X*X%X<X2X2X2X2X2X;X%X%X%X-X%X2X2X2X2X2X2X%X%X%X%X%X-X2X2X2X2X2X",
":X2X2X2X2X2X:X%X%X%X*X%X<X2X2X2X2X2X%X%X*X%X%X;X2X2X2X2X2X<X%X%X%X%X%X<X2X2X2X2X2X:X%X%X%X%X%X2X2X2X2X2X2X;X%X%X%X%X;X2X2X2X2X2X",
";X2X2X2X2X2X;X%X%X%X%X%X<X2X2X2X2X2X;X%X%X%X%X;X2X2X2X2X2X<X%X%X%X%X$X:X2X2X2X2X2X;X#X%X*X%X%X<X2X2X2X2X<X*X%X%X%X%X;X2X2X2X2X2X",
":X;X;X;X;X;X:X2X<X2X<X<X:X;X;X:X;X;X<X<X<X2X<X<X;X:X;X;X;X:X2X<X1X2X<X:X;X;X;X;X;X<X2X<X<X<X2X;X;X:X;X;X:X<X2X<X<X2X:X;X;X;X;X:X",
":X%X%X%X%X#X<X2X2X2X2X2X-X#X%X%X%X%X2X2X2X2X2X2X%X%X%X#X#X:X2X2X2X2X2X:X%X%X%X%X%X<X2X2X2X2X2X;X#X%X%X%X%X2X2X2X2X2X2X%X%X%X%X%X",
":X%X%X%X%X%X<X2X2X2X2X2X;X%X%X%X%X%X2X2X2X2X2X1X%X%X%X&X%X;X2X2X2X2X2X:X%X%X%X%X%X<X2X2X2X2X2X%X%X&X%X%X;X2X2X2X2X2X<X%X%X%X%X%X",
":X%X%X%X*X%X<X2X2X2X2X2X;X%X%X%X%X%X2X2X2X2X2X2X-X%X&X%X%X;X2X2X2X2X2X:X%X%X%X%X%X1X2X2X2X2X2X;X%X%X%X%X%X2X2X2X2X2X<X%X%X%X%X%X",
";X%X%X%X%X%X<X2X2X2X2X2X;X%X&X%X%X;X2X2X2X2X2X2X%X%X%X&X%X:X2X2X2X2X2X:X%X%X%X%X%X2X2X2X2X2X2X;X%X%X%X%X;X2X2X2X2X2X2X%X%X%X%X%X",
"1X%X%X;X%X%X:X2X2X2X2X2X;X%X%X;X%X%X<X2X2X2X2X2X%X%X*X%X%X:X2X2X2X2X2X:X#X%X;X%X%X<X2X2X2X2X2X;X%X%X%X%X;X2X2X2X2X2X<X%X-X%X&X&X",
":X2X2X2X2X2X:X%X%X;X;X%X<X2X2X2X2X2X;X%X;X%X%X;X2X2X2X2X2X<X%X%X%X%X%X<X2X2X<X2X2X;X;X=X=X=X=X1X2X2X2X2X1X=X=X=X;X=X;X2X2X2X2X2X",
";X2X2X2X2X2X;X%X%X%X%X%X2X2X2X2X2X2X%X%X%X%X%X*X2X2X2X2X2X1X#X%X>X2X>X$XXX%X2X#X2X:XXX;X&X%X%X2X2X2X2X2X2X%X%X%X%X%X;X2X2X2X2X2X",
";X2X2X2X2X2X;X%X%X%X%X%X<X2X2X2X2X2X;X%X%X%X%X;X2X2X2X2X2X2X2X;X{.L.1.<   & /.R.r.2XP.q.1X%X%X2X2X2X2X2X2X%X%X%X%X%X&X2X2X2X2X2X",
":X2X2X2X2X2X:X%X%X%X%X%X2X2X2X2X2X2X*X%X%X%X%X-X2X2X2X2X<X/.L.i X   . . % : w ^.8.4.oX%.D.1X%X2X2X2X2X2X2X%X%X%X%X&X;X2X2X2X2X2X",
":X2X2X2X2X2X;X%X%X%X%X%X<X2X2X2X2X2X%X%X%X%X%X%X2X2X2X'.i x d z z ` O., O.1.(.).`.' S.J.$./.<X1X2X2X2X2X2X%X%X%X%X$X;X2X2X2X2X2X",
":X<X2X<X2X2X:X%X;X%X;X;X<X2X2X<X2X<X=X&X;X&X;X%X2X2X!.:  .X.E X.A A X.P f.A e } ' r M.:.x 9.-X1X2X2X2X2X2X;X%X;X;X&X;X<X<X2X2X2X",
"1X%X%X%X%X%X<X2X2X2X2X2X;X%X&X%X%X;X2X2X2X2X2X2X2XG.l x.U b = 7 7 7 9 a A I K P g g x V.] &./.2X#X-X%X%X&X2X2X2X2X2X2X%X*X%X%X%X",
":X%X%X%X%X%X1X2X2X2X2X2X;X%X%X%X%X&X2X2X<X2X2X'.q. .x.o.L L I m Z C n F J ) h.l.b.p.J ;.N.d. .'.2X#X%X&X;X2X2X2X2X2X<X%X%X%X%X&X",
":X%X%X%X%X%X:X2X2X2X2X2X;X$X%X%X%X*X2X2X2X@X2.l f f.W K k f m K Y ) / / ( k.P P s.( L p d.x.Z.@.XX;X%X&X%X2X2X2X2X2X2X%X%X*X&X%X",
":X%X%X%X%X%X<X2X2X2X2X2X;X%X%X%X%X*X2X1X2Xq.d s.m.m.s.U m I ! ~ Q F ! +.p.g.s p p $ g d.x.O.C.f F.2X$X=X;X2X2X2X2X2X2X%X%X%X%X&X",
":X%X%X%X%X%X<X2X2X2X2X2X;X$X%X%X%X%X1X2X].> Y Y f.v.k.U ! Q F F J ) g./ p.Y k.R # e ` C.A.z.k.j.| XX;X#X%X2X2X2X2X2X<X%X%X%X%X%X",
";X;X:X;X;X;X1X<X<X<X<X<X:X;X:X;X;X-X2X+X[ a 8 b m S J F G G G ~ g.) F ) ~ U k.W 3.-X'.u - #.z.b.s.5.2X;X-X1X1X1X<X<X:X:X;X;X;X;X",
";X2X2X2X2X2X;X#X%X*X%X%X2X2X2X2X2X2X+Xq.* b 9 D Q G Q Q F G ( ) ! M ( p.H R p.p e.2X:X$X2.3 B j s.{ %X2X2X%X&X&X%X#X;X2X2X2X2X2X",
":X2X2X2X2X2X:X%X-X%X%X%X<X2X2X2X<X2X7.> 7 5 1 5 S Q G F ! ) ! J G ! l.^ G ) L [ }.<X#X;X%X!.i.} # | ;X2X2X%X&X%X*X%X;X2X2X2X2X2X",
";X2X2X2X2X2X:X%X%X&X%X%X2X2X2X2X2XD., 9 q 1 w - n G Q ~ ~ Q Q Q I ! b.V n p.T L.2X:X$X%X*X1X1X;X[.@X2X2X2X&X&X%X%X%X;X2X2X2X2X2X",
":X2X2X2X2X2X;X%X%X%X%X%X1X2X2X-XJ.e 5 q O 0.y.; n Q / ! G Q F Q F ~ s.R.5.$ Z R S.*X=X%X%X%X%X2X2X2X2X2X2X%X%X%X%X%X;X2X2X2X2X2X",
";X2X2X2X2X2X;X%X%X%X$X-X2X2X.X,.. 0 6 O >. Xu = m ! ! Q Q Q Q G F ( o.|.2X~.1.C.h t.;X%X#X%X%X<X2X2X2X2X2X#X%X%X%X%X;X2X2X2X2X2X",
":X;X:X:X:X:X1X;X<X2X2X*X XR._ - 5 @ 4 T.2X.X+ I ) V b N Q Q Q J G ^ o.).2X2X.X` B.c `.2X:X<X<X:X:X<X:X:X:X:X<X<X:X1X<X:X;X:X:X:X",
":X%X%X%X&X#X<X2X2X{.R.4.r & 5 @ 2 u.*X2X2X X% +.K !.W.} 7 N ^ Q G / R R.1X&X.X&.-.*. X2X2X2X2X;X#X%X%X#X;X2X2X2X2X2X<X%X%X%X%X%X",
":X%X%X%X%X%X<XK.r o   & & 1 y i..X2X2X:X2XOX] ;.l ].2X$X].<.= F Q ! j P.1X:X'.y.Y.T.2X2X2X2X2X;X&X&X%X%X-X2X2X2X2X2X<X%X%X%X%X%X",
":X%X%X%X%X%X<X/.q.t.K./.Q.{.#X2X1X%X2X2X2X2Xe.% t |.*X%X1X;XW.B a ^ K J.2X$X&X<X:X2X2X2X2X2X2X-X%X%X%X%X-X2X2X2X2X2X2X%X%X%X%X%X",
"<X%X%X%X%X%X<X2X2X2X2X2X2X:X=X%X%X*X2X2X2X2X#XY.!.;X%X%X#X:X2XoX<.7 N F.1X%X&X%X%X<X2X2X2X2X2X;X%X%X%X%X=X2X2X2X2X2X2X%X&X%X-X%X",
";X%X%X%X%X%X<X2X2X1X2X2X&X#X%X*X%X%X2X2X2X2X2X2X>X%X%X*X%X;X2X2X2XU.# 5.1X#X%X%X%X<X2X2X2X2X2X&X%X%X%X%X&X2X2X2X2X2X1X%X%X%X%X%X",
"1X1X2X<X2X2X:X-X;X;X;X;X<X<X2X<X<X2X;X;X;X;X=X=X<X2X<X2X<X<X;X*X;X2XY.y.2X<X2X2X<X:X-X;X;X;X-X<X<X2X<X2X<X;X;X-X;X;X;X<X<X2X<X2X",
":X2X2X2X2X2X;X%X%X%X#X%X2X2X2X2X2X2X*X%X$X&X%X&X2X2X2X2X2X2X%X%X%X#X<X2X2X2X2X2X2X:X%X#X%X%X%X2X2X2X2X2X2X%X%X%X%X%X;X2X2X2X2X2X",
":X2X2X2X2X2X;X%X%X%X%X%X<X2X2X2X2X2X;X%X%X%X%X;X2X2X2X2X2X<X*X%X%X&X#X;X2X2X2X2X2X;X%X%X&X%X*X<X2X2X2X2X2X&X%X&X%X%X;X2X2X2X2X2X",
";X2X2X2X2X2X;X%X%X%X%X%X2X2X2X2X2X2X%X%X%X%X%X-X2X2X2X2X2X<X%X%X&X%X%X<X2X2X2X2X2X;X%X%X%X&X%X2X2X2X2X2X2X&X&X%X%X%X;X2X2X2X2X2X",
":X2X2X2X2X2X:X%X%X%X%X%X2X2X2X2X2X2X%X%X%X&X%X-X2X2X2X2X2X<X%X%X%X&X%X;X2X2X2X2X2X;X%X%X%X%X%X2X2X2X2X2X2X%X%X%X%X%X;X2X2X2X2X2X",
":X2X2X2X2X2X:X%X;X%X%X%X<X2X2X2X2X2X;X%X&X&X&X-X2X2X2X2X2X<X%X;X&X&X%X<X2X2X2X2X2X;X%X;X%X%X%X<X2X2X2X2X2X*X%X&X%X%X;X2X2X2X2X2X",
":X%X;X%X=X%X:X2X2X2X2X2X:X%X%X%X%X;X2X2X2X2X2X1X&X&X%X;X%X:X2X2X2X2X2X;X%X-X=X&X%X<X2X2X2X2X2X;X%X;X;X%X;X<X2X2X2X2X<X;X;X%X;X%X",
":X%X%X%X%X%X1X2X2X2X2X2X;X%X%X%X%X%X2X2X2X2X2X2X%X%X%X-X#X;X2X2X2X2X2X:X%X%X%X%X%X<X2X2X2X2X2X;X%X%X%X%X;X2X2X2X2X2X<X%X%X%X%X%X",
":X%X%X%X%X%X<X2X2X2X2X2X;X%X%X%X%X%X2X2X2X2X2X2X%X%X%X*X%X;X2X2X2X2X2X:X%X%X%X%X%X2X2X2X2X2X2X&X#X%X&X%X%X2X2X2X2X2X<X%X*X%X%X-X",
":X%X%X%X%X%X<X2X2X2X2X2X;X%X%X%X%X%X2X2X2X2X2X<X%X%X&X&X%X;X2X2X2X2X2X:X%X%X%X%X%X<X2X2X2X2X2X;X%X%X%X%X;X2X2X2X2X2X2X%X%X%X&X%X",
":X%X%X%X#X%X<X2X2X2X2X2X;X%X%X%X%X%X2X2X2X2X2X2X%X$X%X%X%X;X2X2X2X2X2X:X%X%X%X%X%X<X2X2X2X2X2X;X%X%X%X%X%X2X2X2X2X2X<X%X%X#X%X%X",
";X&X;X-X;X;X1X2X2X2X2X<X;X%X;X;X;X;X<X2X2X2X2X<X;X;X-X;X-X;X2X2X2X2X<X:X%X;X;X;X;X<X2X<X2X2X1X-X=X-X;X;X;X<X2X2X2X2X<X;X;X;X;X;X",
";X2X2X2X2X2X;X#X%X%X%X%X<X2X2X2X2X2X;X%X%X%X%X;X2X2X2X2X2X<X%X%X%X%X%X:X2X2X2X2X2X;X%X%X%X&X%X2X2X2X2X2X2X%X%X%X%X%X;X2X2X2X2X2X",
":X2X2X2X2X2X:X%X%X%X%X%X<X2X2X2X2X2X%X%X%X%X%X%X2X2X2X2X2X<X%X&X%X%X%X:X2X2X2X2X2X;X%X%X&X%X%X2X2X2X2X2X2X;X%X%X%X%X;X2X2X2X2X2X",
";X2X2X2X2X2X:X%X%X%X%X%X2X2X2X2X2X2X-X%X%X%X%X;X2X2X2X2X2X<X*X&X%X%X%X;X2X2X2X2X2X;X%X%X&X&X*X<X2X2X2X2X<X;X%X%X%X%X;X2X2X2X2X2X"
};
