/* XPM */
static char *result[] = {
/* columns rows colors chars-per-pixel */
"64 56 213 2 ",
"   c #0D0400",
".  c black",
"X  c #130000",
"o  c #1D0104",
"O  c #190B0C",
"+  c #00001D",
"@  c #0B0016",
"#  c #170019",
"$  c #1C171B",
"%  c #270C0B",
"&  c #3B020B",
"*  c #310809",
"=  c #2B120F",
"-  c #341B0C",
";  c #2C0916",
":  c #380618",
">  c #2F1316",
",  c #39121F",
"<  c #341614",
"1  c #33231D",
"2  c #38251B",
"3  c #2C2414",
"4  c #050024",
"5  c #130024",
"6  c #190A29",
"7  c #181827",
"8  c #1E0634",
"9  c #1F1F33",
"0  c #2E0A2C",
"q  c #270725",
"w  c #3B0420",
"e  c #360C21",
"r  c #3D0A23",
"t  c #3D0B2D",
"y  c #370727",
"u  c #3C1824",
"i  c #3D1627",
"p  c #350B31",
"a  c #2A1E35",
"s  c #2C2423",
"d  c #392A29",
"f  c #38312B",
"g  c #342C31",
"h  c #373334",
"j  c #4B000C",
"k  c #46011E",
"l  c #440A17",
"z  c #53091A",
"x  c #451B1C",
"c  c #47141A",
"v  c #5B111E",
"b  c #581E18",
"n  c #472716",
"m  c #582B1D",
"M  c #5E3E18",
"N  c #72291D",
"B  c #430B23",
"V  c #4B0B24",
"C  c #4D0423",
"Z  c #530E24",
"A  c #5B0F22",
"S  c #5C0D2D",
"D  c #560526",
"F  c #431721",
"G  c #471622",
"H  c #5C112D",
"J  c #561327",
"K  c #5D0F31",
"L  c #5E1132",
"P  c #531235",
"I  c #660E24",
"U  c #661424",
"Y  c #691523",
"T  c #62112C",
"R  c #6B142D",
"E  c #6E1A2C",
"W  c #611B24",
"Q  c #7A1D27",
"!  c #751C2C",
"~  c #781C2C",
"^  c #751727",
"/  c #600F32",
"(  c #631232",
")  c #6B1533",
"_  c #6B1834",
"`  c #681837",
"'  c #741B33",
"]  c #7B1B32",
"[  c #721230",
"{  c #452429",
"}  c #5F2321",
"|  c #552629",
" . c #48382A",
".. c #573524",
"X. c #4A2B37",
"o. c #542C30",
"O. c #56313E",
"+. c #44363A",
"@. c #6A242B",
"#. c #7C232B",
"$. c #762A28",
"%. c #6D362A",
"&. c #7B2533",
"*. c #79393A",
"=. c #4F4019",
"-. c #554217",
";. c #4C402E",
":. c #534026",
">. c #44403F",
",. c #594533",
"<. c #674526",
"1. c #615126",
"2. c #735A3A",
"3. c #3E3B46",
"4. c #553842",
"5. c #464445",
"6. c #564B4A",
"7. c #544846",
"8. c #4B4858",
"9. c #574C51",
"0. c #5B5856",
"q. c #595348",
"w. c #664A48",
"e. c #674F55",
"r. c #615E54",
"t. c #67615C",
"y. c #666357",
"u. c #756E5F",
"i. c #5F5A66",
"p. c #6F5965",
"a. c #666462",
"s. c #6E696C",
"d. c #696568",
"f. c #776969",
"g. c #77726F",
"h. c #746D71",
"j. c #6E7070",
"k. c #7D7373",
"l. c #7C7A7A",
"z. c #787679",
"x. c #811C2C",
"c. c #851A35",
"v. c #89272C",
"b. c #9D322E",
"n. c #822333",
"m. c #8A2335",
"M. c #852239",
"N. c #892939",
"B. c #942C33",
"V. c #952737",
"C. c #97313A",
"Z. c #89352F",
"A. c #AC3B2F",
"S. c #A4313E",
"D. c #A83635",
"F. c #B33931",
"G. c #8F4034",
"H. c #805530",
"J. c #BA4132",
"K. c #A64838",
"L. c #8C6537",
"P. c #A17837",
"I. c #9D3E44",
"U. c #A73847",
"Y. c #B34B55",
"T. c #837D7B",
"R. c #817C74",
"E. c #7D807E",
"W. c #88837E",
"Q. c #837C81",
"!. c #828384",
"~. c #8B8686",
"^. c #939188",
"/. c #979897",
"(. c #938983",
"). c #A2A4A3",
"_. c #A9A9A8",
"`. c #B3AEB0",
"'. c #B3B4B3",
"]. c #B7BCBC",
"[. c #B8BAB9",
"{. c #C0BEBF",
"}. c #BDC1BD",
"|. c #B6C0BE",
" X c #BDBDC0",
".X c #CBCBCA",
"XX c #C3C6C7",
"oX c #D0CFCC",
"OX c #CFD3CF",
"+X c #D5D1CF",
"@X c #CFD4D3",
"#X c #D2D2D3",
"$X c #D8DAD9",
"%X c #E0DFDF",
"&X c #D9DCE0",
"*X c #E2E4E3",
"=X c #EAEAE6",
"-X c #E7E7EA",
";X c #EDEDED",
":X c #E5E8E7",
">X c #F0EEEE",
",X c #EDF0EF",
"<X c #F1F1EF",
"1X c #EEEDF1",
"2X c #F4EFF0",
"3X c #EEF1F1",
"4X c #F3F3F3",
"5X c #F8F7F7",
"6X c #F6F6F8",
"7X c #F9F7F8",
"8X c #F6F9F9",
"9X c #FEFEFE",
"0X c #F8F8F7",
/* pixels */
"9X9X9X;X;X;X;X;X;X9X9X9X9X9X9X6X;X;X;X;X;X6X9X9X9X9X9X9X;X;X;X;X;X;X9X9X9X9X9X9X6X;X;X;X;X;X4X9X9X9X9X9X9X;X;X;X;X2X;X6X9X9X9X9X",
"9X9X9X;X;X;X;X;X;X9X9X9X9X9X9X4X;X;X;X;X;X4X9X9X9X9X9X9X;X;X;X;X;X;X9X9X9X9X9X9X6X=X;X;X;X;X4X9X9X9X9X9X9X;X;X;X;X;X=X9X9X9X9X9X",
"9X9X9X;X4X4X4X4X4X9X9X9X9X9X9X6X4X4X4X4X;X4X9X9X9X9X9X9X4X4X4X4X4X4X9X9X9X9X9X9X4X4X4X4X4X4X4X9X9X9X9X9X9X4X4X4X4X4X3X9X9X9X9X9X",
";X=X4X9X9X9X9X9X9X;X=X;X=X;X;X0X9X9X9X9X9X9X=X;X=X;X;X;X9X9X9X9X9X9X;X=X;X;X1X=X9X9X9X9X9X9X9X=X=X;X;X;X;X9X9X9X9X9X9X4X=X;X;X;X",
";X;X4X9X9X9X9X9X9X4X;X;X;X;X;X9X9X9X9X9X9X6X;X;X;X;X;X3X9X9X9X9X9X9X4X;X;X;X;X;X0X9X9X9X9X9X6X;X;X;X>X;X4X9X9X9X9X9X9X4X;X;X;X;X",
";X;X4X9X9X9X9X9X9X4X;X;X;X;X;X5X9X9X9X9X9X9X;X;X;X;X;X3X9X9X9X9X9X9X4X;X;X;X;X;X6X9X9X9X9X9X9X;X;X;X;X;X;X9X9X9X9X9X9X4X;X;X;X;X",
";X;X1X9X9X9X9X9X9X4X;X;X;X;X;X9X9X9X9X9X9X9X;X;X1X;X;X2X9X9X9X9X9X9X4X;X;X;X;X;X6X9X9X9X9X9X9X;X1X;X;X,X;X9X9X9X9X9X9X4X;X;X;X1X",
";X;X4X9X9X9X9X9X9X2X;X1X;X;X=X6X9X9X9X9X9X6X;X;X;X;X;X4X9X9X9X9X9X9X4X;X;X;X;X;X9X9X9X9X9X9X9X=X;X;X1X>X,X9X9X9X9X9X9X6X;X;X;X;X",
"1X=X4X9X9X9X9X9X9X3X;X4X;X;X;X6X9X9X9X9X9X9X;X4X;X;X;X;X9X9X9X9X9X9X4X;X4X;X;X;X6X9X9X9X9X9X9X;X;X;X;X;X;X9X9X9X9X9X9X4X;X>X;X;X",
"9X9X9X;X4X;X4X4X;X9X9X9X9X9X9X6X;X4X4X3X;X4X9X9X9X9X9X9X4X;X4X4X4X4X9X9X9X9X9X9X6X;X<X4X4X;X4X9X9X9X9X9X9X4X4X4X4X4X;X0X9X9X9X9X",
"9X9X9X;X;X;X;X;X;X9X9X9X9X9X9X4X;X;X;X;X=X6X9X9X9X9X9X9X;X;X,X>X;X;X9X9X9X9X9X9X6X;X;X;X;X;X4X9X9X9X9X9X9X;X;X;X;X;X;X6X9X9X9X9X",
"9X9X9X;X;X;X;X>X;X9X9X9X9X9X9X4X;X;X>X1X;X4X9X9X9X9X9X9X;X;X;X;X;X=X9X9X9X9X9X9X6X;X;X;X;X;X4X9X9X9X9X9X9X;X>X;X;X;X;X9X9X9X9X9X",
"9X9X9X;X;X;X;X1X;X9X9X9X9X9X9X6X;X;X;X;X;X4X9X9X9X9X9X9X;X;X;X;X;X;X9X9X9X9X9X9X4X;X;X;X;X;X4X9X9X9X9X9X9X>X;X,X;X;X=X9X9X9X9X9X",
"9X9X9X;X;X;X;X;X;X9X9X9X9X9X9X4X;X;X;X;X;X6X9X9X9X9X9X9X;X;X;X;X;X;X9X9X9X9X9X9X6X;X;X;X;X;X4X9X9X9X9X9X9X;X;X;X1X;X;X5X9X9X9X9X",
"9X9X9X=X=X;X;X;X;X9X9X9X9X9X9X6X=X;X;X;X;X4X9X9X9X9X9X9X;X;X;X;X;X=X9X9X9X9X9X9X4X;X;X;X;X;X4X9X9X9X9X9X9X;X;X;X;X;X=X9X9X9X9X9X",
"6X4X4X9X9X0X0X6X9X6X4X6X4X4X4X6X9X0X0X6X9X0X4X4X6X4X4X6X6X9X8X8X5X9X4X4X4X4X4X4X0X0X9X0X0X0X0X4X6X4X4X6X4X9X0X6X6X9X9X4X6X4X4X6X",
";X=X4X9X9X9X9X9X9X4X=X;X;X;X=X9X9X9X9X9X9X9X=X;X;X;X;X;X9X9X9X9X9X9X,X:X;X,X4X;X4X9X9X9X9X9X0X;X;X;X;X;X;X9X9X9X9X9X9X4X;X;X;X;X",
";X1X4X9X9X9X9X9X9X<X1X;X;X;X;X6X9X9X9X9X9X9X;X;X,X;X;X4X9X9X9X9X9X9X9X9X8X%X.X*X9X0X9X9X9X9X7X;X>X;X;X;X;X9X9X9X9X9X9X4X;X;X;X;X",
";X;X4X9X9X9X9X9X9X4X;X;X;X;X;X8X9X9X9X9X9X9X;X;X;X;X;X1X9X9X9X9X9X4X'.l.6.s O s `.;Xt.=X6Xl.0X4X;X,X;X;X;X9X9X9X9X9X9X4X;X;X;X;X",
";X;X4X9X9X9X9X9X9X4X;X;X2X;X;X9X9X9X9X9X9X5X;X;X;X;X;X1X9X9X[.l.a.s     X o % X . h./.f +Xy.r.4X>X;X;X;X4X9X9X9X9X9X9X6X;X;X,X>X",
";X;X4X9X9X9X9X9X9X<X;X;X;X;X=X9X9X9X9X9X9X5X;X;X;X=X4X3X_.5.3 m * %.- <.n n n 5.!.l.:Xf. ._.=.W.6X;X;X;X;X9X9X9X9X9X9X4X;X;X;X;X",
"4X4X6X6X9X6X6X9X0X6X6X4X4X4X6X0X9X0X6X9X5X6X6X4X2X9X;Xa.- m $.&.Q Z.c #.$.#.v.F ,.z. .g.2.,.:.1.XX9X4X6X4X0X6X9X6X9X6X6X6X4X6X4X",
"9X9X9X=X;X;X;X;X;X9X9X9X9X9X9X4X=X;X;X;X=X4X9X9X9X=X5.b K.E z w w w r r V J #.E c l n = ..P.{ -.^.9X9X9X9X;X;X;X;X;X=X9X9X9X9X9X",
"9X9X9X;X;X;X;X;X;X9X9X9X9X9X9X6X;X;X,X;X1X4X9X9X}.7.N B.x.R T H Z Z Z B , B Z H ' v.~ ! l H.L...,.&X9X9X9X>X;X;X;X;X;X9X9X9X9X9X",
"9X9X9X;X;X;X;X2X;X9X9X9X9X9X9X4X;X;X;X1X;X5X#X9.2 $.A.^ R U Y I A T R E R ) ] m.v.B.D.m.c.b G.B.v.w.9X9X9X1X;X;X;X;X;X9X9X9X9X9X",
"9X9X9X;X;X;X;X;X;X9X9X9X9X9X9X6X;X;X;X;X=X9Xq.b B.J.A.v.Y A v A R ' ' T ( ' c.m.z U ! U U & @.Z.I.n.k.9X9X;X;X;X;X;X=X9X9X9X9X9X",
"9X9X9X=X;X;X;X;X=X9X9X9X9X9X9X4X;X;X;X;X9XE.x &.~ D.F.b.Y ( ) ` T L S _ c.] N.~ A l & & c $.C.*.%.N.n *X9X;X;X;X;X;X;X0X9X9X9X9X",
"9X9X9X4X;X4X4X4X4X9X9X9X9X9X9X6X>X4X;X9X).> Z y V v ! R L ( K K L ` M.M._ ] ] ~ V.^ * 1 x U.Y.C.B.C.A /.9X;X4X4X4X<X>X9X9X9X9X9X",
";X;X4X9X9X9X9X9X9X1X;X;X;X;X;X8X9X9X9XOX .c r p t Z S L L L K L ' m.! S ' M.H ] m.Y e.8X'.d : *.C.D.S.| }.9X9X9X9X9X9X4X;X;X;X;X",
";X;X4X9X9X9X9X9X9X4X;X;X;X;X;X0X0X9X_. .e r 0 6 i K ( ( L K ) ] ] ( ( ( m.L H Q m.j k.9X9X=X5.7 X.~ V.x.~.9X7X9X9X9X9X4X;X;X;X;X",
";X;X1X9X9X9X9X9X9X<X;X;X>X<X;X4X9X#X1 x B p 4 8.@XO.S L ( ' ' ) ( L ( m.c.P ! ~ A { .X9X4X9X;Xj.h : z j d.9X9X9X9X9X9X6X;X;X;X;X",
";X;X4X9X9X9X9X9X9X4X;X;X;X;X=X9X=X0.> 0 8 4 9 .X9Xp.D ) ' R K K ( T S S.&.e ' M.F |.9X9X9X9X9X9X%X).e.+.{.9X9X9X9X9X9X4X;X;X;X;X",
";X;X4X9X9X9X9X9X9X<X;X;X;X=X9XoXh - t 8 + 9 XX9X#X{ [ ) ( ( L L L L ( V.w.d.& T _ o.}.9X9X9X6X=X2X9X4X3X4X9X9X9X9X9X9X4X;X;X;X;X",
";X;X4X9X9X9X9X9X9X;X;X;X0X9X'.d > e q + 3.$X0X>X9.C ` ( ( ( ( ( L L ) v.f.6XQ.g @.U.F #X9X9X9X;X;X;X;X;X;X9X9X9X9X9X9X4X;X;X;X;X",
"9X9X0X;X4X4X4X1X;X9X9X9X[.T.d F y 5 a ).4X6X9XT.% V B C K ` ( ( ( L ` #.T.9X9X0Xe.N.} 7.:X4X4X9X9X9X9X9X9X4X,X4X4X4X2X9X9X9X9X9X",
"9X9X9X;X;X;X;X4X9X*X[.y.f > q 6 @ i.%X9X;X7X.X# V k d d.u k L ( ( ( ) Q k.9X6X9X(.M L.1.].4X4X9X9X9X9X9X9X;X;X;X;X;X;X8X9X9X9X9X",
"9X9X9X;X;X1X3X#Xs.f O % ; # 6 8.).0X4X=X=X9X/.* N.&.6.9X#Xh.e S ` ( ) ^ f.9X7X9Xt.;.s u.1X;X4X9X9X9X9X9X9X4X1X<X;X;X;X6X9X9X9X9X",
"9X9X9X;X;X;X4Xz.$ d 5.h./.).$X9X8X;X;X1X;X9X~.<.@., ).9X3X9X].X.k ( ( U R.9X7X9X_.#X_.$X6X;X4X9X9X9X9X9X9X;X;X;X;X;X;X9X9X9X9X9X",
"9X9X9X;X;X;X;X4X-X-X9X9X9X9X9X4X=X;X1X,X=X9Xl.- n j.9X9X;X=X0X*Xd.: K T f.9X9X9X9X4X5X2X;X;X4X9X9X9X9X9X9X4X;X1X;X;X;X9X9X9X9X9X",
"9X9X9X=X;X;X;X;X2X9X9X9X9X9X9X4X;X;X;X;X=X0X=Xt.t.9X9X9X;X;X;X>X8X/.e z f.9X9X9X4X;X=X;X;X=X4X9X9X9X9X9X9X;X=X;X;X;X=X9X9X9X9X9X",
"6X4X4X9X6X9X6X0X9X4X4X4X4X6X4X6X9X6X9X9X6X6X9X4X6X6X4X4X9X6X9X6X6X9XXX, 4.8X4X4X6X9X0X9X9X9X4X4X4X4X4X6X4X6X9X9X9X6X9X4X4X4X4X6X",
";X;X4X9X9X9X9X9X9X;X=X;X;X;X=X0X9X9X9X9X9X0X=X;X;X;X;X;X9X9X9X9X9X9X9X].~.=X;X;X6X9X9X9X9X9X9X=X;X;X;X;X;X9X9X9X9X9X9X4X;X;X;X;X",
";X;X4X9X9X9X9X9X9X4X;X;X;X;X;X6X9X9X9X9X9X9X;X;X;X;X;X4X9X9X9X9X9X9X4X4X9X;X;X;X8X9X9X9X9X9X9X;X;X;X;X>X;X9X9X9X9X9X9X4X;X<X;X;X",
";X;X4X9X9X9X9X9X9X4X;X;X;X;X;X9X9X9X9X9X9X8X;X;X;X;X;X<X9X9X9X9X9X9X4X;X;X;X,X;X0X9X9X9X9X9X5X;X,X;X;X;X;X9X9X9X9X9X9X6X;X;X;X;X",
";X;X4X9X9X9X9X9X9X4X;X;X;X1X=X9X9X9X9X9X9X6X;X;X;X;X;X<X9X9X9X9X9X9X4X;X;X;X,X;X0X9X9X9X9X9X9X=X>X;X;X;X;X9X9X9X9X9X9X4X;X;X;X;X",
";X;X<X9X9X9X9X9X9X;X;X;X;X;X=X0X9X9X9X9X9X9X;X;X;X;X;X;X9X9X9X9X9X9X4X;X;X;X;X;X5X9X9X9X9X9X9X;X;X;X;X;X;X9X9X9X9X9X9X4X;X;X;X;X",
"6X4X4X6X0X0X9X6X0X6X4X6X6X6X6X6X9X5X6X9X9X0X4X4X6X6X4X4X9X6X9X6X9X6X6X4X4X6X6X4X5X9X6X9X9X5X6X6X6X6X6X4X6X0X0X0X9X6X9X4X4X6X4X6X",
"9X9X9X;X;X;X;X;X;X9X9X9X9X9X9X6X=X;X;X;X=X4X9X9X9X9X9X9X;X;X;X;X=X;X9X9X9X9X9X9X6X=X;X;X;X=X4X9X9X9X9X9X9X;X;X;X;X;X=X9X9X9X9X9X",
"9X9X9X;X;X;X;X;X2X9X9X9X9X9X9X6X;X1X;X;X;X6X9X9X9X9X9X9X;X;X;X<X1X;X9X9X9X9X9X9X6X;X<X1X;X;X4X9X9X9X9X9X9X;X;X;X;X2X;X9X9X9X9X9X",
"9X9X9X;X;X;X;X;X;X9X9X9X9X9X9X4X;X;X;X<X;X4X9X9X9X9X9X9X;X;X;X1X;X=X9X9X9X9X9X9X6X;X;X;X;X;X4X9X9X9X9X9X9X4X;X;X;X;X=X9X9X9X9X9X",
"9X9X7X;X;X;X;X;X;X9X9X9X9X9X9X6X;X1X;X;X;X4X9X9X9X9X9X9X;X;X;X;X;X;X9X9X9X9X9X9X6X;X;X;X;X;X4X9X9X9X9X9X9X;X;X;X;X,X;X8X9X9X9X9X",
"9X9X9X;X;X;X;X;X;X9X9X9X9X9X9X4X=X;X;X;X;X4X9X9X9X9X9X9X;X;X;X;X;X;X9X9X9X9X9X9X4X;X;X;X;X;X4X9X9X9X9X9X9X;X;X;X;X;X;X9X9X9X9X9X",
"9X9X9X;X4X;X4X4X<X9X9X9X9X9X9X6X4X4X4X4X>X6X9X9X9X9X9X9X;X4X4X4X4X4X9X9X9X9X9X9X4X4X<X4X4X4X4X9X9X9X9X9X9X3X4X4X<X4X;X9X9X9X9X9X",
";X;X4X9X9X9X9X9X9X>X;X,X;X;X;X6X9X9X9X9X9X8X;X;X;X;X;X;X9X9X9X9X9X9X4X=X,X>X;X=X0X9X9X9X9X9X9X=X;X;X;X;X;X9X9X9X9X9X9X4X;X;X;X;X",
";X;X4X9X9X9X9X9X9X3X;X;X;X;X;X0X9X9X9X9X9X9X;X;X;X;X;X4X9X9X9X9X9X9X4X;X1X;X;X=X9X9X9X9X9X9X9X;X;X;X;X;X;X9X9X9X9X9X9X6X;X;X;X;X",
";X;X4X9X9X9X9X9X9X4X;X>X;X;X;X0X9X9X9X9X9X0X;X;X;X;X;X4X9X9X9X9X9X9X2X;X;X;X;X;X6X9X9X9X9X9X9X;X;X;X2X;X,X9X9X9X9X9X9X4X;X;X;X;X"
};
