/* XPM */
static char *result[] = {
/* columns rows colors chars-per-pixel */
"64 47 199 2 ",
"   c #060000",
".  c #0F0000",
"X  c #120300",
"o  c #18070C",
"O  c #00001A",
"+  c #0C001A",
"@  c #10001B",
"#  c #170012",
"$  c #191310",
"%  c #3A040A",
"&  c #3E1104",
"*  c #3E0810",
"=  c #390A19",
"-  c #2D1311",
";  c #2C1619",
":  c #33131D",
">  c #3A181A",
",  c #2F2219",
"<  c #0B0126",
"1  c #1B0A2C",
"2  c #270026",
"3  c #300024",
"4  c #3E0622",
"5  c #350B26",
"6  c #3D0C23",
"7  c #35082D",
"8  c #3F1226",
"9  c #3B1922",
"0  c #29112C",
"q  c #2D2526",
"w  c #32202A",
"e  c #393024",
"r  c #3A2B3B",
"t  c #450D13",
"y  c #4B0C15",
"u  c #43021C",
"i  c #440316",
"p  c #500A16",
"a  c #580818",
"s  c #47131D",
"d  c #451F13",
"f  c #54131F",
"g  c #521F13",
"h  c #63191A",
"j  c #680614",
"k  c #4A251A",
"l  c #4D341C",
"z  c #4F2710",
"x  c #420724",
"c  c #430B24",
"v  c #490927",
"b  c #5A0F21",
"n  c #570A2A",
"m  c #441723",
"M  c #5C1223",
"N  c #5C102D",
"B  c #561328",
"V  c #5B0F31",
"C  c #5D1131",
"Z  c #600F2F",
"A  c #650E27",
"S  c #641324",
"D  c #63132D",
"F  c #6B112E",
"G  c #681827",
"H  c #70152B",
"J  c #731C2B",
"K  c #7D1C2D",
"L  c #7A172F",
"P  c #600E30",
"I  c #631333",
"U  c #6B1532",
"Y  c #691838",
"T  c #721733",
"R  c #751A33",
"E  c #7D1D33",
"W  c #402921",
"Q  c #4B2023",
"!  c #542526",
"~  c #46362B",
"^  c #563726",
"/  c #442E32",
"(  c #5A2A36",
")  c #413234",
"_  c #4D333F",
"`  c #443D3E",
"'  c #4E3B3D",
"]  c #6D232A",
"[  c #672625",
"{  c #78252A",
"}  c #622932",
"|  c #772F30",
" . c #7A2134",
".. c #7C3335",
"X. c #5A4215",
"o. c #59472D",
"O. c #594937",
"+. c #604D27",
"@. c #6E502B",
"#. c #7D562E",
"$. c #604233",
"%. c #453B4C",
"&. c #5F3844",
"*. c #693A42",
"=. c #494243",
"-. c #51404F",
";. c #514D4D",
":. c #554A47",
">. c #5C544D",
",. c #574E59",
"<. c #55525A",
"1. c #4A4854",
"2. c #614345",
"3. c #6B4042",
"4. c #794847",
"5. c #615957",
"6. c #715C5E",
"7. c #6B6342",
"8. c #695B66",
"9. c #6A6B66",
"0. c #646369",
"q. c #7B616C",
"w. c #716C71",
"e. c #6F7473",
"r. c #757373",
"t. c #7B7472",
"y. c #7E797A",
"u. c #7C7378",
"i. c #851A2F",
"p. c #811C32",
"a. c #891E30",
"s. c #84262D",
"d. c #8C2C2E",
"f. c #9E282F",
"g. c #932E2D",
"h. c #833C2E",
"j. c #852235",
"k. c #8B2335",
"l. c #8A2D36",
"z. c #952437",
"x. c #942F37",
"c. c #803838",
"v. c #833B36",
"b. c #99363A",
"n. c #A6342F",
"m. c #B43D2F",
"M. c #AA3332",
"N. c #B63838",
"B. c #9D543C",
"V. c #856032",
"C. c #A33F4A",
"Z. c #877E70",
"A. c #84817D",
"S. c #8E877D",
"D. c #7D7B85",
"F. c #8A8985",
"G. c #898788",
"H. c #898688",
"J. c #938D8D",
"K. c #9F8A8A",
"L. c #978D91",
"P. c #999796",
"I. c #9A9998",
"U. c #A39D9C",
"Y. c #A7A39A",
"T. c #A5A7A7",
"R. c #B0AAA7",
"E. c #B0B2AF",
"W. c #B2AFB4",
"Q. c #B3B2B4",
"!. c #BBBBBB",
"~. c #B9C2BF",
"^. c #BDBFC1",
"/. c #BFC3C1",
"(. c #C9CACD",
"). c #C5C6C5",
"_. c #D0CECF",
"`. c #CFD3D2",
"'. c #D3D5D5",
"]. c #DBDCDE",
"[. c #D3D7DA",
"{. c #DEE2E3",
"}. c #DFE8E6",
"|. c #E6EBEB",
" X c #EDEDED",
".X c #E4E5E4",
"XX c #F0EFEF",
"oX c #EBF0EF",
"OX c #F0F1EE",
"+X c #EEEEF0",
"@X c #F1EEF1",
"#X c #EDF2F2",
"$X c #EFFAF8",
"%X c #F3F3F3",
"&X c #F8F7F7",
"*X c #F9F9F7",
"=X c #F5FAFB",
"-X c #FEFEFE",
";X c #F6F7F8",
/* pixels */
" X X-X-X-X-X-X;X X X%X X%X-X-X-X-X-X@X X XoX X*X-X-X-X-X&X X XXX XXX-X-X-X-X-X%X X%X X X;X-X-X-X-X*X X+X%X X X*X-X-X-X-X%X X#XXX",
"-X-X%X%X%XXX X*X-X-X-X-X*X X+X%X X%X-X-X-X-X-X%X%X X X%X;X-X-X-X-X-XXXXX%XoX%X*X-X-X-X-X;XXXXXXX%X%X-X-X-X-X-X%X+X%X%XXX*X-X-X-X",
"-X-X X X X X X&X-X-X-X-X*X X X X X X-X-X-X-X-X%X X X X X;X-X-X-X-X-X X X X X X-X-X-X-X-X;X X X X X%X-X-X-X-X-X X X X X X*X-X-X-X",
"-X-X%X X X X X&X-X-X-X-X-X X X X X%X-X-X-X-X-X;X X X X X;X-X-X-X-X-X X X X+X X*X-X-X-X-X%X X X X X;X-X-X-X-X-X X X X X X-X-X-X-X",
"-X-X+X X X X X;X-X-X-X-X*X X+X X+X#X-X-X-X-X-X%X X X@X X;X-X-X-X-X-X X X@X X X-X-X-X-X-X;X X X X X%X-X-X-X-X-X%X X X X X*X-X-X-X",
"-X-X%X X X X X&X-X-X-X-X*X X X X X@X-X-X-X-X-X%X|. X X X;X-X-X-X-X-X X X X X X-X-X-X-X-X%X X X X|.XX-X-X-X-X-X+X X X X X-X-X-X-X",
";X%X&X*X*X*X-X;X;X%X%X%X;X-X*X*X*X*X%X%X;X%X%X&X-X*X*X*X;X%X%X%X%X;X*X-X*X*X*X;X%X%X%X%X;X*X*X-X-X&X%X%X;X%X%X*X;X*X*X-X%X%X;X%X",
" X X-X-X-X-X-X;X X X X|.%X-X-X-X-X-X X X X X X*X-X-X-X-X&X X X X X+X-X-X-X-X-X X X X X X*X-X-X-X-X-X X X X X X-X-X-X-X-X%X X X X",
" X X-X-X-X-X-X%X X X X X%X-X-X-X-X-X%X X X X X-X-X-X-X-X&X X X X XXX-X-X-X-X-X%X X X X X*X-X-X-X-X*X X X X XXX-X-X-X-X-X;X X X X",
" X X-X-X-X-X-X;X X X X X%X-X-X-X-X-X X X X X X*X-X-X-X-X&X XXX X X%X-X-X-X-X-X%X X X X X*X-X-X-X-X&X X X X XXX-X-X-X-X-X%X X X X",
" X X-X-X-X-X-X;X X X X X%X-X-X-X-X-X X X X X X*X-X-X-X-X&X|. X X X%X-X-X-X-X-X@X|. X X X*X-X-X-X-X-X X X X X X-X-X-X-X-X%X X X X",
";X%X;X-X*X*X&X;X%X;X%X%X;X-X*X*X&X&X;X;X;X;X%X;X*X*X*X*X&X%X;X;X%X;X*X*X-X*X*X%X%X;X%X;X*X*X*X&X*X;X%X;X%X;X;X;X*X*X*X-X%X%X;X%X",
"-X-X%X X X X X;X-X-X-X-X*X X X X X X-X-X-X-X-X%X X X X X;X-X-X-X-X*X|.|.|.|.|.-X-X-X-X-X&X X X X X%X-X-X-X-X-X X X X X X*X-X-X-X",
"-X-X%X X X@X X;X-X-X-X-X-X X X X X X-X-X-X-X-X%X+X X X X;X-X-X*X-X-X;X-X-X*X-X;X-X-X-X-X%X|.XX X X%X-X-X-X-X-X%X X X X X*X-X-X-X",
"-X-X X X X X+X*X-X-X-X-X;X X X X X X-X-X-X-X-X%X X X X X%X-X-X-X-X-X_.T.Z.;.H.-XP.'..XF.-X X X X X%X-X-X-X-X-X+X X X X X*X-X-X-X",
"-X-X X X X X X*X-X-X-X-X*X X X X X%X-X-X-X-X-X%X X X X|.-X-X{.R.G.%.$ X . X   ` J.o.Q.>.Z.;X X X|.;X-X-X-X-X-X X X X X X-X-X-X-X",
"-X-X%X%X X%X X*X-X-X-X-X&X X%X%X X%X-X-X-X-X-X%X#X#X X-X].r.e l t g d ^ k k ;.9.~.S.o.I.o.Y.-X XXX%X-X-X-X-X-X%X%X X%X%X;X-X-X-X",
" X X-X-X-X-X-X;X X X X X%X-X-X-X-X-X X X X X X*X-X*X-X^.~ g [ J ] ] B ] { d.m >.O.:.o.V.e 7.=X-X-X-X X X X X X-X-X-X-X-X%X X X X",
" XoX-X-X-X-X-X;X X X X X%X-X-X-X-X-X%X X X X X*X-X-XE.Q g.l.n u u = 4 6 s G M a f s > #.@.l T.-X-X&X X XXX XXX-X-X-X-X-X%X X X X",
"@X X-X-X-X-X-X;X X X X X%X-X-X-X-X-X X X X X X-X'.9.! g.E S H S M M M B N D p.k.b.z.U [ B.k.| /.-X-X X X X X X-X-X-X-X-X%X X X X",
" X X-X-X-X-X-X;X X X X X;X-X-X-X-X-XoX X+X X&X'.W h m.n.J M b b D J T U T j.k.h s.K H y k.h.b...4.K.|.XXXXXXXX-X-X-X-X-X%X X X X",
" X X-X-X-X-X-X;X X X X X%X-X-X-X-X-X@X+X|.XX X>.[  .M.m.s.D D U U V P E p.j.J y t % t t J v.d.N.f.j t.-X|. XXX-X-X-X-X-X%X X X X",
"-X-X%X%XXXXX%X;X-X-X-X-X&X%X%X%X%X%X*X-X*X-Xt.% v c b J D I I V C R j.R R K L z.t ) ( b.C.{ ..M p = !.-X*X-X-X@X%X%X%X@X*X-X*X-X",
"-X-XXX X X X X&X-X-X-X-X-X|. X X X X-X-X-XP.9 c 7 3 n V I C N U E E I U E V a.a.! oX#X$. .J k e.r.T.-X-X-X-X-XXX X X X X*X-X-X-X",
"-X-X%X X X X X&X-X-X-X-X*X X#X X X X-X-XZ.> 8 7 < 8.( V C I T R U D F k.Y N  .a :.-X-X'.; ) 2.6. X-X-X-X-X-X-XoX X X X X&X-X-X-X",
"-X-X%X X X X X&X-X-X-X-X*X XXX X X X-X!.; 5 0 < <.=Xq.v U T U C C V L x.x E J _ |.-X&X-X^.q ` r._.&X-X-X-X-X-X@X X X X X&X-X-X-X",
"-X-X X X X X X&X-X-X-X-X*X X X|. X-XI., 8 1 O 1..X X*.P U D V C I V E c.,.i F } U.-X-X-X-X!.%.'.*X%X-X-X-X-X-X X X X X X*X-X-X-X",
";X;X;X;X&X;X;X;X;X;X;X;X%X%X&X-X-XF.- : 2 < 0.%X-Xu.v U Y I I I C V E 4.|.L.r x.A I.-X%X%X-X*X*X;X;X;X;X;X;X;X*X;X;X;X;X&X;X;X;X",
" X X-X-X-X-X-X;X X X X|.-X-X%XY.>.9 5 @ %.).&X-XW.# s 6 u n Y I I C K 4.=X-X}...v.^ (.#X*X-X-X-X-X-X X X X X X-X-X-X-X-X%X X X X",
" X X-X-X-X-X-X%X X XXX%X/.A.' - # @ 1 D.%X%X|.-Xr f S ,.T._ u I U C R 3.$X-X$XO.X.+./.%X;X-X-X-X-X*X X X X X X-X-X-X-X-X%X X X X",
" X X-X-X-X-X-X;X X XXXw.o o w -.<.I.[.*XXX X%X{.^ | f P.-X|.J.c n Y F *.$X-X{.r.y.G.;X X*X-X-X-X-X&X X X X X%X-X-X-X-X-X%X X X X",
" X X-X-X-X-X-X;X|.XXXX(.W.(.|.-X-X-X;X|. X X%X'.^ z 5.-X@X X-X^.&.= F *.$X-X-X=X%X%X X X*X-X-X-X-X-X|. X X X X-X-X-X-X-X%X X X X",
"%X%X*X*X*X;X-X;X%X%X%X-X-X-X-X*X*X;X%X%X%X%X%X*XG.:..X-X;X%X X-X|.w.i ( +X-X&X@XXX%X%X%X&X*X*X*X-X&X%X%X;X%X%X*X-X*X*X-X%X%X%X%X",
"-X-X%X X X X X*X-X-X-X-X*X|. X X X+X-X-X-X-X-X%X;X@XOX|.%X-X-X-X-X-XH.: '.%X X-X-X-X-X-X;X X X X X@X-X-X-X-X-X X X X X X*X-X-X-X",
"-X-X%X X X+X X;X-X-X-X-X*X+XoXXX X@X-X-X-X-X-X%X X X X X;X-X-X-X-X&X%X^..X@X X-X-X-X-X-X;X X X X X%X-X-X-X-X-X X X X+X X*X-X-X-X",
"-X-X@X X X X X&X-X-X-X-X*X X X X X+X-X-X-X-X-X%X X X X X;X-X-X-X-X-X+X&XXX X X-X-X-X-X-X;X X X X X;X-X-X-X-X-X%X X X X X-X-X-X-X",
"-X-X%X X X X X*X-X-X-X-X*X+X+X X X X-X-X-X-X-X%X X X X X;X-X-X-X-X-X X|. X X X-X-X-X-X-X;X X X X X%X-X-X-X-X-X X X X X X*X-X-X-X",
"-X-X%X X X%X X*X-X-X-X-X*X XXXXX X%X-X-X-X-X-X;X X X X X;X-X-X-X-X-XXX%X X X X-X-X-X-X-X%X X X%X X%X-X-X-X-X-X X X X%X X-X-X-X-X",
" X%X*X-X-X-X-X%X X%X%X X%X-X-X-X-X-X%X X%X X+X-X-X-X-X-X&X X%X@XXX%X-X-X-X-X-X%X X X%X X&X-X-X-X-X*X%X+X%X X%X-X-X-X-X-X;X X%X X",
" X X-X-X-X-X-X;X|. X X X;X-X-X-X-X-X X X X X X*X-X-X-X-X&X|. X X XXX-X-X-X-X-X@X X X X X*X-X-X-X-X*X X X X X X-X-X-X-X-X%X X X X",
" X X-X-X-X-X-X;X X X X X%X-X-X-X-X-X X X X X X*X-X-X-X-X*X X X X XXX-X-X-X-X-X%X X X X X*X-X-X-X-X*X X X X X%X-X-X-X-X-X;X X X X",
" X X-X-X-X-X-X;X X X X X%X-X-X-X-X-X%X X X X X-X-X-X-X-X*X X X+X X%X-X-X-X-X-X%X X X X X*X-X-X-X-X;X X X X X X-X-X-X-X-X%X X X X",
" X X-X-X-X-X-X;X X X X X%X-X-X-X-X-X X+X X X X*X-X-X-X-X*X X X X X@X-X-X-X-X-X#X X X X|.&X-X-X-X-X*X X X X X X-X-X-X-X-X%X X X X",
"*X-X%X%X%X%X%X&X-X*X-X*X;X%X%X%X;X%X*X*X&X-X*X;X%X%X%X%X;X-X;X*X*X*X%X;X%X%X%X*X*X*X*X-X;X%X%X%X%X;X-X*X-X*X*X%X;X%X%X%X;X-X*X*X",
"-X-XXX|. X X X&X-X-X-X-X*X X X X X X-X-X-X-X-X%X X X X X;X-X-X-X-X-X X X X X X-X-X-X-X-X;X X X X X%X-X-X-X-X-X X X X X X*X-X-X-X",
"-X-X%X X X X X&X-X-X-X-X-X X X X X%X-X-X-X-X-X%X X X X X;X-X-X-X-X-X X X X X X-X-X-X-X-X;X XXX X X%X-X-X-X-X-X%X X X X X*X-X-X-X",
"-X-X%X X X X X&X-X-X-X-X*X X X X X X-X-X-X-X-X;X X X X X%X-X-X-X-X-X X X X X X-X-X-X-X-X%X X X X X;X-X-X-X-X-X X X X%X X*X-X-X-X"
};
