/* XPM */
static char *result[] = {
/* columns rows colors chars-per-pixel */
"64 50 203 2 ",
"   c #0B0000",
".  c #170503",
"X  c #00001D",
"o  c #0E0217",
"O  c #13141C",
"+  c #180516",
"@  c #21040E",
"#  c #3A0B0E",
"$  c #38010B",
"%  c #251004",
"&  c #270519",
"*  c #3B0112",
"=  c #3C051C",
"-  c #390A19",
";  c #301316",
":  c #391917",
">  c #2C1715",
",  c #382618",
"<  c #0C0021",
"1  c #090026",
"2  c #11052A",
"3  c #290526",
"4  c #3A0A24",
"5  c #39092B",
"6  c #380829",
"7  c #391526",
"8  c #300C32",
"9  c #221F31",
"0  c #230B34",
"q  c #2C2223",
"w  c #2D2726",
"e  c #3B2826",
"r  c #383123",
"t  c #302830",
"y  c #3B3630",
"u  c #480209",
"i  c #430712",
"p  c #490C12",
"a  c #42011C",
"s  c #4E0F18",
"d  c #550D1C",
"f  c #5B0A1C",
"g  c #461A16",
"h  c #5D121F",
"j  c #581918",
"k  c #43180F",
"l  c #64191A",
"z  c #4C300E",
"x  c #5A3D19",
"c  c #432E17",
"v  c #632C1F",
"b  c #430B23",
"n  c #4A0926",
"m  c #540E26",
"M  c #5B0D24",
"N  c #5C0E2D",
"B  c #570A2A",
"V  c #4E1222",
"C  c #441B25",
"Z  c #5D1325",
"A  c #5C112C",
"S  c #591A2B",
"D  c #5D0F31",
"F  c #5D1132",
"G  c #600E21",
"H  c #63122C",
"J  c #6B142B",
"K  c #6D1C2C",
"L  c #691827",
"P  c #72162B",
"I  c #71192D",
"U  c #7B1A2D",
"Y  c #791C27",
"T  c #600F31",
"R  c #621232",
"E  c #6A1532",
"W  c #651638",
"Q  c #631833",
"!  c #741B32",
"~  c #7A1B32",
"^  c #711534",
"/  c #462A28",
"(  c #5D3820",
")  c #472934",
"_  c #493C3E",
"`  c #563034",
"'  c #5C3A3E",
"]  c #572421",
"[  c #6D2726",
"{  c #792729",
"}  c #6B3325",
"|  c #682A35",
" . c #7A2A35",
".. c #7D3232",
"X. c #6F3733",
"o. c #594524",
"O. c #44403A",
"+. c #6E4F32",
"@. c #7A5327",
"#. c #393249",
"$. c #423B40",
"%. c #4B424D",
"&. c #4B4849",
"*. c #55514B",
"=. c #595454",
"-. c #584B55",
";. c #664543",
":. c #6A5A46",
">. c #645951",
",. c #795B59",
"<. c #6C635B",
"1. c #65625A",
"2. c #726A5F",
"3. c #615161",
"4. c #6D6A61",
"5. c #676368",
"6. c #72686E",
"7. c #776669",
"8. c #74716C",
"9. c #757374",
"0. c #7D7A7B",
"q. c #7A7673",
"w. c #786D73",
"e. c #831D2E",
"r. c #881C2F",
"t. c #831E34",
"y. c #8A1B30",
"u. c #81232B",
"i. c #882829",
"p. c #942C2F",
"a. c #842134",
"s. c #8D2333",
"d. c #832439",
"f. c #892937",
"g. c #922634",
"h. c #942B32",
"j. c #9B2E38",
"k. c #963E3F",
"l. c #823C31",
"z. c #B43E2F",
"x. c #A33533",
"c. c #B33837",
"v. c #8E4535",
"b. c #905130",
"n. c #A14E3D",
"m. c #987236",
"M. c #A12C43",
"N. c #834F4D",
"B. c #B54F5E",
"V. c #82754F",
"C. c #896763",
"Z. c #816D72",
"A. c #8A7778",
"S. c #7D827C",
"D. c #90806A",
"F. c #7C7C82",
"G. c #807F88",
"H. c #8A8587",
"J. c #8D8B8A",
"K. c #928B87",
"L. c #979389",
"P. c #9E9B9C",
"I. c #939190",
"U. c #A19E9D",
"Y. c #A5A29B",
"T. c #9D9DA3",
"R. c #A3A2A3",
"E. c #A8AAA6",
"W. c #B0AFAF",
"Q. c #BDBCBC",
"!. c #B9B8B7",
"~. c #C1BDBD",
"^. c #BDC0BD",
"/. c #C0BFC0",
"(. c #BFC1C1",
"). c #C5C4C5",
"_. c #C6CBC7",
"`. c #C7C9CA",
"'. c #CBD0CD",
"]. c #CFD2D3",
"[. c #D4D3D3",
"{. c #DCDDDC",
"}. c #D6D8D8",
"|. c #D1C9C3",
" X c #E0DEDE",
".X c #DCE2DF",
"XX c #DCDDE0",
"oX c #DFE2E2",
"OX c #E2E4E2",
"+X c #EEEEEE",
"@X c #E5E9EA",
"#X c #F0EEEE",
"$X c #EEF0EE",
"%X c #F1F0EE",
"&X c #EFEEF0",
"*X c #F1EFF0",
"=X c #EEF1F1",
"-X c #F1F1F1",
";X c #F7F9F7",
":X c #F9F9F7",
">X c #F9F7F8",
",X c #F6F9FA",
"<X c #FEFEFE",
/* pixels */
"<X<X<X<X-X+X+X+X+X-X<X<X<X<X<X<X-X+X+X+X+X-X<X<X<X<X<X<X+X+X+X+X+X-X<X<X<X<X<X<X+X+X+X+X+X-X<X<X<X<X<X<X+X+X+X+X+X-X<X<X<X<X<X<X",
"<X<X<X<X+X+X+X+X+X-X<X<X<X<X<X<X+X+X+X+X+X-X<X<X<X<X<X<X+X+X+X+X+X-X<X<X<X<X<X<X+X+X+X+X+X+X<X<X<X<X<X<X+X+X+X+X+X+X<X<X<X<X<X<X",
"<X<X<X<X+X+X+X-X+X-X<X<X<X<X<X<X+X+X+X-X+X-X<X<X<X<X<X<X-X+X+X-X+X-X<X<X<X<X<X<X-X+X+X-X+X+X<X<X<X<X<X<X-X+X+X-X+X-X<X<X<X<X<X<X",
"+X+X+X-X<X<X<X<X<X>X$X&X+X+X+X-X<X<X<X<X<X>X=X+X$X+X*X+X<X<X<X<X<X>X-X+X$X+X*X+X<X<X<X<X<X<X*X+X+X+X+X-X<X<X<X<X<X<X+X+X+X+X-X+X",
"+X+X+X#X<X<X<X<X<X<X+X+X+X+X+X-X<X<X<X<X<X<X+X+X+X+X+X+X<X<X<X<X<X<X+X+X+X+X+X&X<X<X<X<X<X<X+X+X+X+X+X+X<X<X<X<X<X<X+X+X+X+X+X+X",
"+X+X+X=X<X<X<X<X<X<X+X+X+X+X+X-X<X<X<X<X<X<X+X+X+X+X+X*X<X<X<X<X<X<X+X+X+X+X+X-X<X<X<X<X<X<X+X+X+X+X+X=X<X<X<X<X<X<X+X+X+X+X+X+X",
"+X+X+X#X<X<X<X<X<X<X+X+X+X+X+X#X<X<X<X<X<X<X+X+X+X+X+X-X<X<X<X<X<X<X+X+X+X+X+X-X<X<X<X<X<X<X+X+X+X+X+X+X<X<X<X<X<X<X+X+X+X+X+X+X",
"+X+X+X-X<X<X<X<X<X<X+X+X+X+X+X=X<X<X<X<X<X<X+X+X+X+X+X*X<X<X<X<X<X<X+X+X+X+X+X+X<X<X<X<X<X<X+X+X+X+X+X*X<X<X<X<X<X<X-X+X+X+X+X+X",
"+X#X=X-X<X<X<X<X<X<X+X+X+X+X+X-X<X<X<X<X<X<X+X+X+X+X+X#X<X<X<X<X<X<X+X+X-X+X*X-X<X<X<X<X<X<X+X+X+X+X+X-X<X<X<X<X<X<X+X+X+X+X*X+X",
"<X<X<X>X#X=X-X-X+X#X<X<X<X<X<X<X-X+X+X-X+X-X<X<X<X<X<X>X%X+X$X$X+X+X,X>X>X<X:X<X$X+X%X$X=X-X<X<X<X<X<X<X%X+X=X-X+X-X<X<X<X<X<X<X",
"<X<X<X<X+X+X+X+X+X-X<X<X<X<X<X<X+X+X+X+X+X-X<X<X<X<X<X<X+X+X@X#X$X<X<X<X<X<X<X>X*X-X@X$X+X+X<X<X<X<X<X<X+X+X+X+X+X-X<X<X<X<X<X<X",
"<X<X<X<X+X+X+X+X+X&X<X<X<X<X<X<X%X+X+X+X+X+X<X<X<X<X<X<X#X-X<X;XOXQ.I.0.{.<X<X<X X].<X+X+X%X<X<X<X<X<X<X+X+X+X+X+X+X<X<X<X<X<X<X",
"<X<X<X<X+X+X+X+X+X-X<X<X<X<X<X<X+X+X+X+X+X-X<X<X<X<X<X<X;X.XP.=.q .     . 9.2.|.}.r Y.;X$X$X<X<X<X<X<X<X&X+X+X+X+X#X<X<X<X<X<X<X",
"<X<X<X<X+X+X+X+X+X-X<X<X<X<X<X<X$X+X+X+X+X=X<X<X<X<X.XH.*.w .   , . : , 5.&.r x K.R.o.L.;X$X<X<X<X<X<X<X+X+X+X+X+X=X<X<X<X<X<X<X",
"<X<X<X<X+X+X+X+X+X+X<X<X<X<X<X<X+X+X+X+X+X#X<X<X<XR.w , } l v.g v.k ..] 8.Y.S.y o.D.4.o.E.:X:X:X<X<X<X<X$X+X+X+X+X+X<X<X<X<X<X<X",
"-X-X+X-X<X<X<X<X<X>X-X+X-X-X+X-X<X<X:X<X<X;X=X:XK.: v { Q H H b l Z { i.p ; / / , b.+.r V.,X;X+X+X$X*X=X<X>X<X<X<X<X-X#X+X-X-X-X",
"+X+X+X+X<X<X<X<X<X<X+X+X+X+X+X+X<X<X<X<X<X<X,Xq.k n.L n a = = b 4 - b Z H [ K L m C m.o.} A.,X>X;X+X@X-X<X<X<X<X<X<X+X+X+X+X+X+X",
"+X+X+X-X<X<X<X<X<X<X+X+X+X+X+X#X<X<X<X<X<XR.=.} p.e.J J J G M Z A A E J a.s.x.x.t.G @.n.f.i.8.^.).=X;X#X<X<X<X<X<X<X+X+X+X+X+X+X",
"+X+X+X+X<X<X<X<X<X<X+X+X+X+X+X=X<X<X<X}.&.: v p.~ J G h d H K ~ I E ! t.s.d u.I I f s f.l.k.f.u.a.,.[.>X<X<X<X<X<X<X-X+X+X+X+X+X",
"+X+X+X+X<X<X<X<X<X>X+X+X+X+X+X$X<X<X<X1.j r.z.z.p.P G A J E E N R ~ t.s.K p * u $ # # I v.[ c.x.h.u J.<X>X<X<X<X<X<X+X+X+X+X+X+X",
"+X+X+X-X<X<X<X<X<X<X+X+X+X+X=X-X:X<XW.: [ J p.x.g.J Q R R D D ! d.~ ~ ~ U g.d ; : # [ f.i.h.d.h p e oX-X<X<X<X<X<X<X+X+X+X+X+X+X",
"<X<X<X>X-X-X-X-X-X-X<X<X<X<X<X>X<X[.) m 6 b m M H F F R T T  .t.J E  .R r.p.f K.,XK...B.Y v O.0.9.`.<X,X*X*X&X-X-X-X<X<X<X<X<X>X",
"<X<X<X<X+X+X+X+X+X-X<X<X<X<X<X:XOX>.: 4 5 b A F R F D N E t.! R R d.R A e.r.$ Q.<X,X0.* | | ` ~.<X<X<X<X#X+X+X+X+X+X<X<X<X<X<X<X",
"<X<X<X<X+X+X+X+X+X-X<X<X<X<X<X<X2.g 4 8 2 3 N R R D R ! ^ E F R t.s.F P I d -.+X-X@X<X9.O _ Z._ {.<X<X<X#X+X+X+X+X+X<X<X<X<X<X<X",
"<X<X<X<X+X+X+X+X+X&X<X<X:X<X<Xq.: 4 8 1 O ; m F A E ! E N F W N j. .6 I d.` }.<X@X#X+X;XP.q w }.<X<X<X<X+X+X+X+X+X+X<X<X<X<X<X<X",
"<X<X<X<X+X+X+X+X+X#X<X>X<X:XU.: 6 0 1 #.9.* m A ^ ^ H F D R R N y.N.F.$ M I ' ).>X+X+X+X<X~.H.+X<X<X<X<X+X+X+X+X+X#X<X<X<X<X<X<X",
"<X<X<X<X+X+X+X+X+X+X<X<X{.=.% 7 0 1 9 (.%.* M E E R R R R R F D r.C.<XR.-.| M.C _.;X+X+X@X>X<X<X<X<X<X<X+X+X+X+X+X+X<X<X<X<X<X<X",
"-X-X-X-X<X,X<X<X<X<X@XE.e ; 6 3 X 5.@X.Xo V K m n W W R H R R R r.C.,X<X<X7.{ } >.<X:X<X<X>X+X#X-X-X+X-X<X<X<X<X<X<X-X=X-X-X-X-X",
"+X+X+X+X<X<X<X&XQ.4.O.7 7 3 o %.).<X<X_.+  .K w.7.7 = N W R R D e.;.@X+X>XL.x @.:.;X<X<X<X<X+X+X+X+X+X+X<X<X<X<X<X<X+X+X+X+X+X+X",
"+X+X+X+X-XP.>.e > ; & < o #.T.;X<X>X<X]./ ..g R.<X`.H.) a R W D ~ ;.@X#X,X8.1.*.Y.<X<X<X<X<X+X+X+X+X+X+X<X<X<X<X<X<X+X+X+X+X+X+X",
"+X+X+X;X`.t q w $.3.3.F.!.+X>X+X<X<X<X<X:.z c R.>X*X<XoXw.= B R P ' OX%X+X[.%X{.<X<X<X<X<X<X+X+X+X+X+X+X<X<X<X<X<X<X+X+X+X+X+X+X",
"+X+X+X+X<X<X+X@X<X<X,X<X,X+X+X=X<X<X<X<X!.y =.OX*X#X+X*X<XQ.) b E ` .X-X@X;X$X%X<X<X<X<X<X<X+X+X+X+X+X-X<X<X<X<X<X<X+X+X+X+X+X+X",
"+X&X+X-X<X<X<X<X<X:X+X+X+X+X+X-X<X<X<X<X<X<X+X-X+X$X+X+X;X<X=X6.= S '.;X+X+X+X+X<X<X<X<X<X<X+X+X+X+X+X+X<X<X<X<X<X<X-X+X+X$X+X+X",
"<X:X<X>X-X$X%X$X%X-X>X<X>X<X<X>X-X-X%X-X+X-X>X<X:X<X>X<X%X+X;X<XG.+ ).<X>X:X<X:X-X&X-X-X-X-X<X<X>X<X<X:X-X$X-X-X-X-X>X<X<X>X<X<X",
"<X<X<X<X+X+X+X+X+X%X<X<X<X<X<X<X+X+X+X+X+X+X<X<X<X<X<X<X+X+X+X@X>X~.+X<X<X<X<X<X+X+X+X+X+X+X<X<X<X<X<X<X+X+X+X+X+X+X<X<X<X<X<X<X",
"<X<X<X<X+X+X+X+X+X=X<X<X<X<X<X<X+X+X+X+X+X-X<X<X<X<X<X<X+X+X+X+X#X>X<X<X<X<X<X<X+X+X+X+X+X-X<X<X<X<X<X<X+X+X+X+X+X-X<X<X<X<X<X<X",
"<X<X<X<X+X+X+X+X+X-X<X<X<X<X<X<X$X+X+X+X+X-X<X<X<X<X<X<X+X+X+X+X+X+X<X<X<X<X<X<X$X+X+X+X+X+X<X<X<X<X<X<X-X+X+X+X+X+X<X<X<X<X<X<X",
"<X<X<X<X+X+X+X+X+X*X<X<X<X<X<X<X&X+X+X+X+X-X<X<X<X<X<X<X+X+X+X+X+X-X<X<X<X<X<X<X+X+X+X+X+X-X<X<X<X<X<X<X+X+X+X+X+X-X<X<X<X<X<X<X",
"<X<X<X<X+X+X+X+X+X-X<X<X<X<X<X<X+X+X+X+X+X=X<X<X<X<X<X<X+X+X+X+X+X+X<X<X<X<X<X<X+X+X+X+X+X+X<X<X<X<X<X<X#X+X+X+X+X+X<X<X<X<X<X<X",
"-X-X-X-X<X<X>X<X<X>X-X-X-X-X-X-X:X>X<X<X>X<X-X-X-X-X-X-X<X>X<X<X<X>X-X-X-X-X-X-X<X>X<X<X<X>X-X-X-X-X-X-X<X>X<X<X>X<X-X-X-X-X-X-X",
"+X+X+X+X<X<X<X<X<X<X+X+X+X+X+X+X<X<X<X<X<X<X+X+X+X+X+X+X<X<X<X<X<X<X+X+X+X+X+X+X<X<X<X<X<X<X+X+X+X+X+X-X<X<X<X<X<X<X+X+X+X+X+X+X",
"+X+X+X-X<X<X<X<X<X<X+X+X+X+X+X-X<X<X<X<X<X<X+X+X+X+X+X+X<X<X<X<X<X<X+X+X+X+X+X+X<X<X<X<X<X<X-X+X+X+X+X+X<X<X<X<X<X<X+X+X+X+X+X+X",
"+X+X+X+X<X<X<X<X<X<X+X+X+X+X+X+X<X<X<X<X<X<X+X+X+X+X+X-X<X<X<X<X<X<X+X+X+X+X+X=X<X<X<X<X<X<X&X+X+X+X+X+X<X<X<X<X<X<X-X+X+X+X+X+X",
"+X+X+X-X<X<X<X<X<X<X+X+X+X+X+X+X<X<X<X<X<X<X+X+X+X+X+X-X<X<X<X<X<X<X+X+X+X+X+X-X<X<X<X<X<X<X$X+X+X+X+X-X<X<X<X<X<X<X+X+X+X+X+X+X",
"+X$X+X-X<X<X<X<X<X<X+X+X+X=X+X-X<X<X<X<X<X<X+X+X+X+X+X=X<X<X<X<X<X<X+X+X+X+X+X+X<X<X<X<X<X<X$X+X+X+X+X+X<X<X<X<X<X<X+X+X+X+X+X+X",
"<X>X<X>X-X-X-X-X-X-X>X<X<X:X<X>X-X-X-X-X-X-X<X>X<X<X>X>X-X-X-X-X-X-X>X<X:X<X<X>X-X-X-X-X-X-X>X<X>X<X<X>X-X-X-X-X-X-X>X<X>X<X:X>X",
"<X<X<X<X+X+X+X+X+X-X<X<X<X<X<X<X+X+X+X+X+X+X<X<X<X<X<X<X+X+X+X+X+X+X<X<X<X<X<X<X-X+X+X+X+X+X<X<X<X<X<X<X+X+X+X+X+X-X<X<X<X<X<X<X",
"<X<X<X<X+X+X+X+X+X-X<X<X<X<X<X<X-X+X+X+X+X-X<X<X<X<X<X<X-X+X+X+X+X-X<X<X<X<X<X<X+X+X+X+X+X-X<X<X<X<X<X<X+X+X+X+X+X+X<X<X<X<X<X<X",
"<X<X<X<X+X+X+X+X+X-X<X<X<X<X<X<X-X+X+X+X+X-X<X<X<X<X<X<X-X+X+X+X+X-X<X<X<X<X<X<X-X+X+X+X+X+X<X<X<X<X<X<X+X+X+X+X+X-X<X<X<X<X<X<X",
"<X<X<X<X+X+X+X+X+X#X<X<X<X<X<X<X+X+X+X+X+X+X<X<X<X<X<X<X+X+X+X+X+X-X<X<X<X<X<X<X+X+X+X+X+X-X<X<X<X<X<X<X-X+X+X+X+X+X<X<X<X<X<X<X"
};
