/* XPM */
static char *result[] = {
/* columns rows colors chars-per-pixel */
"64 64 185 2 ",
"   c #020204",
".  c #040507",
"X  c #050507",
"o  c #07080A",
"O  c #0A0B0D",
"+  c #0C0C0E",
"@  c #0C0D0F",
"#  c #0D0D0F",
"$  c #0D0E10",
"%  c #0D0F10",
"&  c #0E0F10",
"*  c #0F1011",
"=  c #0F1012",
"-  c #121315",
";  c #141516",
":  c #141517",
">  c #171819",
",  c #17181A",
"<  c #18191A",
"1  c #191B1C",
"2  c #1A1B1D",
"3  c #1B1C1D",
"4  c #1B1C1E",
"5  c #1C1D1E",
"6  c #1D1E20",
"7  c #1D1F20",
"8  c #1E1F20",
"9  c #1F2022",
"0  c #1F2122",
"q  c #1F2123",
"w  c #222426",
"e  c #232526",
"r  c #242628",
"t  c #262829",
"y  c #282A2B",
"u  c #2C2A28",
"i  c #282A2C",
"p  c #2A2C2D",
"a  c #2F2E2D",
"s  c #2C2F2F",
"d  c #2C2F30",
"f  c #2D2F30",
"g  c #2E3031",
"h  c #313130",
"j  c #303233",
"k  c #373531",
"l  c #313435",
"z  c #343738",
"x  c #36393A",
"c  c #373A3B",
"v  c #383B3C",
"b  c #383C3C",
"n  c #383C3D",
"m  c #393C3D",
"M  c #393D3E",
"N  c #3A3D3E",
"B  c #413E39",
"V  c #3B3F40",
"C  c #3C3F40",
"Z  c #3C4040",
"A  c #3C4041",
"S  c #3D4041",
"D  c #3D4142",
"F  c #3E4243",
"G  c #3F4243",
"H  c #3F4344",
"J  c #404344",
"K  c #404445",
"L  c #414445",
"P  c #414545",
"I  c #414546",
"U  c #424546",
"Y  c #424646",
"T  c #424647",
"R  c #434647",
"E  c #434747",
"W  c #454644",
"Q  c #464745",
"!  c #474845",
"~  c #494947",
"^  c #434748",
"/  c #444848",
"(  c #444849",
")  c #454849",
"_  c #454949",
"`  c #474A49",
"'  c #45494A",
"]  c #46494A",
"[  c #4C4C48",
"{  c #484B4C",
"}  c #484C4C",
"|  c #484C4D",
" . c #494D4E",
".. c #4A4E4F",
"X. c #51504C",
"o. c #4B4F50",
"O. c #4C5050",
"+. c #4C5051",
"@. c #4D5151",
"#. c #4D5152",
"$. c #4D5252",
"%. c #4E5253",
"&. c #4F5253",
"*. c #4F5354",
"=. c #4F5454",
"-. c #505455",
";. c #515556",
":. c #525657",
">. c #535757",
",. c #535758",
"<. c #535858",
"1. c #545859",
"2. c #54595A",
"3. c #55595A",
"4. c #555A5A",
"5. c #565B5B",
"6. c #575C5C",
"7. c #575C5D",
"8. c #585C5D",
"9. c #585D5D",
"0. c #595D5E",
"q. c #595E5E",
"w. c #595E5F",
"e. c #5A5F5F",
"r. c #5A5F60",
"t. c #5B5F60",
"y. c #5B6060",
"u. c #5C6161",
"i. c #5C6162",
"p. c #5D6262",
"a. c #5D6263",
"s. c #5D6363",
"d. c #5E6363",
"f. c #5E6364",
"g. c #5F6464",
"h. c #646562",
"j. c #606565",
"k. c #606566",
"l. c #616666",
"z. c #616767",
"x. c #626767",
"c. c #656867",
"v. c #626868",
"b. c #636868",
"n. c #636869",
"m. c #636969",
"M. c #646969",
"N. c #646A6A",
"B. c #656A6A",
"V. c #656A6B",
"C. c #656B6B",
"Z. c #666B6B",
"A. c #676C6B",
"S. c #666B6C",
"D. c #666C6C",
"F. c #676C6C",
"G. c #676D6C",
"H. c #676C6D",
"J. c #676D6D",
"K. c #686D6E",
"L. c #686E6E",
"P. c #696E6E",
"I. c #696F6F",
"U. c #6A6F6E",
"Y. c #6A6F6F",
"T. c #6A7070",
"R. c #6B7070",
"E. c #6B7170",
"W. c #6B7071",
"Q. c #6B7171",
"!. c #6C7171",
"~. c #6C7271",
"^. c #6C7172",
"/. c #6C7272",
"(. c #6D7272",
"). c #6D7372",
"_. c #6D7273",
"`. c #6D7373",
"'. c #6E7474",
"]. c #6F7474",
"[. c #6F7475",
"{. c #6F7575",
"}. c #707573",
"|. c #707574",
" X c None",
/* pixels */
"'.'.'.'.'.'.'.'.'.'.'.'.'.'.'.'.'.'.*.( q.'.I.F.Q.Q.=.I p 6 5 3 > : . o & 4 t.l.,.1.N.C.L ../.'.'.'.'.'.'.'.'.'.'.'.'.'.'.'.'.'.",
"'.'.'.'.'.'.'.'.'.'.'.'.'.'.'.'.'.{.&.j q.n.K ' #./.l.U 8 2 a h g 0 = $ O 9 :.$.7 0 3.m.F R Q.'.'.'.'.'.'.'.'.'.'.'.'.'.'.'.'.'.",
"'.'.'.'.'.'.'.'.'.'.'.'.'.'.'.'.'.'.4.A 9.j.g l J {.'.<.1 * u ~ ` e $ + % i y.-.w t q.B.' #.Q.'.'.'.'.'.'.'.'.'.'.'.'.'.'.'.'.'.",
"'.'.'.'.'.'.'.'.'.'.'.'.'.'.'.'.'.'.j.%.i.I.v p :.{.D.G < # - B [ .   X w / B.j.S L M.N.E +.Q.'.'.'.'.'.'.'.'.'.'.'.'.'.'.'.'.'.",
"'.'.'.'.'.'.'.'.'.'.'.'.'.'.'.'.'.'.x.4.m.{.D.j./.'.I.] y A = k ! @ X ; L S.T./././.`.b.n _ Q.'.'.'.'.'.'.'.'.'.'.'.'.'.'.'.'.'.",
"'.'.'.].].'.'.'.'.'.'.'.'.'.'.'.'.'.o.Z 6.{.'.{.'.'.M.#.,.t , Q X.r q ;.p.T.`.'.'.'.'.P.5.s.`.'.'.'.'.'.'.'.'.'.'.'.'.'.'.'.'.'.",
"'.'.'.'.'.'.'.'.'.'.'.'.'.'.'.'.'.{.e.N <.{.'.'.'.'.'.K.^ F 2.W h.| w.H.S././.'.'.'.{.j.I p.'.'.'.'.'.'.'.'.'.'.'.'.'.'.'.'.'.'.",
"'.'.'.'.'.'.'.'.'.'.'.'.'.'.'.'.'.{.x.P o.W.'.'.'.'.`./.S.^.K.c.A.P.^.J.J././.'.'.'.'.:.b y.{.'.'.'.'.'.'.'.'.'.'.'.'.'.'.|.'.'.",
"'.'.'.'.'.'.'.'.'.'.'.'.'.'.'.'.'.'./.:.E k.{.'.'.'.'.'._.`.'.!.G./.!.J.Y./.`.'.'.'.D.) T N.{.'.'.'.'.'.'.'.'.'.'.'.'.'.'.'.'.'.",
"'.'.'.'.'.'.'.'.'.'.'.'.'.'.'.'.'.'.{.f.c @.T.'.'.'.'.'.'.'.'.E.Z.^._.I./.`.'.'.'.'.4.] 3./.'.'.'.'.'.'.'.'.'.'.'.'.'.'.'.'.'.'.",
"'.'.'.'.'.'.'.'.'.'.'.'.'.'.'.'.'.'.'.I. .G q.`.'.'.'.'.'.'.'.~.U.`.T.Q.'.'.'.'.{.k.S { Z.{.'.'.'.'.'.'.'.'.'.'.'.'.'.'.'.'.'.'.",
"'.'.'.'.'.'.'.'.'.'.'.'.'.'.'.'.'.'.'.{.z.-.N 3./.'.'.'.'.'.`.!.!.`.T./.'.'.'.'.p.S D <.'.'.'.'.'.'.'.'.'.'.'.'.'.'.'.'.'.'.'.'.",
"'.'.'.'.'.'.'.'.'.'.'.'.'.'.'.'.'.'.'.'.{.p.I C 9.{.{.'.'.`.'.).R.!._.'.'.{.T.m.o.s -.`.'.'.'.'.'.'.'.'.'.'.'.'.'.'.'.'.'.'.'.'.",
"'.'.'.'.'.'.'.'.'.'.'.'.'.'.'.'.'.'.'.'.'.'.t.H v.Y.r.I.`.{.'.(.R._.{.{.I.e.} ' P.d./.'.'.'.'.'.'.'.'.'.'.'.'.'.'.'.'.'.'.'.'.'.",
"'.'.'.'.'.'.'.'.'.'.'.'.'.'.'.'.'.'.'.'.'.'.'.b.B.O.x N  .5.H.g.a.q.5.7.8.d M 5.Y.{.'.'.'.'.'.'.'.'.'.'.'.'.'.'.'.'.'.'.'.'.'.'.",
"'.'.'.'.'.'.'.'.'.'.'.'.'.'.'.'.'.'.'.'.'.'.].'.`.u.O.m V Y 0.z A c f c V. .5./.'.'.'.'.'.'.'.'.'.'.'.'.'.'.'.'.'.'.'.'.'.'.'.'.",
"'.'.'.'.'.'.'.'.'.'.'.'.'.'.'.'.'.'.'.'.'.'.'.'.'.{.`.L.i.r.b.| #.-.>.8._.'.{.'.'.'.'.'.'.'.'.'.'.'.'.'.'.'.'.'.'.'.'.'.'.'.'.'.",
"'.'.'.'.'.'.'.'.'.'.'.'.'.'.'.'.'.'.'.'.'.'.'.'.'.'.'.'.{.{.'.'.`.'.{.{.'.'.'.'.'.'.'.'.'.'.].'.'.'.'.'.'.'.'.'.'.'.'.'.'.'.'.'.",
"'.'.'.'.'.'.'.'.'.'.'.'.'.'.'.'.'.'.'.'.'.'.'.'.'.'.'.'.'.'.'.'.'.'.'.'.'.'.'.'.'.'.'.'.'.'.'.'.'.'.'.'.'.'.'.].'.'.'.'.'.'.'.'.",
"'.'.'.'.'.'.'.'.'.'.'.'.'.'.'.'.'.'.'.'.'.'.'.'.'.'.'.'.'.'.'.'.'.'.'.'.'.'.'.'.'.'.'.'.'.'.'.'.'.'.'.'.'.'.'.'.'.'.'.'.'.'.'.'.",
"'.'.].'.'.'.'.'.'.'.'.'.'.'.'.'.'.'.'.'.'.'.'.'.'.'.'.'.'.'.'.'.'.'.'.'.'.'.'.'.'.'.'.'.'.'.'.'.'.'.'.'.'.'.'.'.'.'.'.'.'.'.'.'.",
"'.'.'.'.'.'.'.'.'.'.'.'.'.'.'.'.'.'.'.'.'.'.'.'.'.'.'.'.'.'.'.'.'.'.'.'.'.'.'.'.'.'.'.'.'.'.'.'.'.'.'.'.'.'.'.'.'.'.'.'.'.'.'.'.",
"'.'.'.'.'.'.'.'.'.'.'.'.'.'.'.'.].'.'.'.'.'.'.'.'.'.'.'.'.'.'.'.'.'.'.'.'.'.'.'.'.'.'.'.'.'.'.'.'.'.'.'.'.'.'.'.'.'.'.'.'.'.'.'.",
"'.'.'.'.'.'.'.'.'.'.'.'.'.'.'.'.'.'.'.'.'.'.'.'.'.'.'.'.'.'.'.'.'.'.'.'.'.'.'.'.'.'.'.'.'.'.'.'.'.'.'.'.'.'.'.'.'.'.'.'.'.'.'.'.",
"'.'.'.'.'.'.'.'.'.'.'.'.'.'.'.'.'.'.'.'.'.'.'.'.'.'.'.'.'.'.'.'.'.'.'.'.'.'.'.'.'.'.'.'.'.'.'.'.'.'.'.'.'.'.'.'.'.'.'.'.'.'.'.'.",
"'.'.'.'.'.'.'.'.'.'.'.'.'.'.'.'.'.'.'.'.'.'.'.'.'.'.'.'.'.'.'.'.'.'.'.'.'.'.'.'.'.'.'.'.'.'.'.'.'.'.'.'.'.'.'.'.'.'.].'.'.'.'.'.",
"'.'.'.'.'.'.'.'.'.}.'.'.'.'.'.].'.'.'.'.'.'.'.'.'.'.'.'.'.].'.'.'.].'.].].'.'.].'.'.].'.'.'.}.'.'.'.|.].[.[.'.].|.'.].].'.'.].].",
" X X X X X X X X X X X X X X X X X X X X X X X X X X X X X X X X X X X X X X X X X X X X X X X X X X X X X X X X X X X X X X X X",
" X X X X X X X X X X X X X X X X X X X X X X X X X X X X X X X X X X X X X X X X X X X X X X X X X X X X X X X X X X X X X X X X",
" X X X X X X X X X X X X X X X X X X X X X X X X X X X X X X X X X X X X X X X X X X X X X X X X X X X X X X X X X X X X X X X X",
" X X X X X X X X X X X X X X X X X X X X X X X X X X X X X X X X X X X X X X X X X X X X X X X X X X X X X X X X X X X X X X X X",
" X X X X X X X X X X X X X X X X X X X X X X X X X X X X X X X X X X X X X X X X X X X X X X X X X X X X X X X X X X X X X X X X",
" X X X X X X X X X X X X X X X X X X X X X X X X X X X X X X X X X X X X X X X X X X X X X X X X X X X X X X X X X X X X X X X X",
" X X X X X X X X X X X X X X X X X X X X X X X X X X X X X X X X X X X X X X X X X X X X X X X X X X X X X X X X X X X X X X X X",
" X X X X X X X X X X X X X X X X X X X X X X X X X X X X X X X X X X X X X X X X X X X X X X X X X X X X X X X X X X X X X X X X",
" X X X X X X X X X X X X X X X X X X X X X X X X X X X X X X X X X X X X X X X X X X X X X X X X X X X X X X X X X X X X X X X X",
" X X X X X X X X X X X X X X X X X X X X X X X X X X X X X X X X X X X X X X X X X X X X X X X X X X X X X X X X X X X X X X X X",
" X X X X X X X X X X X X X X X X X X X X X X X X X X X X X X X X X X X X X X X X X X X X X X X X X X X X X X X X X X X X X X X X",
" X X X X X X X X X X X X X X X X X X X X X X X X X X X X X X X X X X X X X X X X X X X X X X X X X X X X X X X X X X X X X X X X",
" X X X X X X X X X X X X X X X X X X X X X X X X X X X X X X X X X X X X X X X X X X X X X X X X X X X X X X X X X X X X X X X X",
" X X X X X X X X X X X X X X X X X X X X X X X X X X X X X X X X X X X X X X X X X X X X X X X X X X X X X X X X X X X X X X X X",
" X X X X X X X X X X X X X X X X X X X X X X X X X X X X X X X X X X X X X X X X X X X X X X X X X X X X X X X X X X X X X X X X",
" X X X X X X X X X X X X X X X X X X X X X X X X X X X X X X X X X X X X X X X X X X X X X X X X X X X X X X X X X X X X X X X X",
" X X X X X X X X X X X X X X X X X X X X X X X X X X X X X X X X X X X X X X X X X X X X X X X X X X X X X X X X X X X X X X X X",
" X X X X X X X X X X X X X X X X X X X X X X X X X X X X X X X X X X X X X X X X X X X X X X X X X X X X X X X X X X X X X X X X",
" X X X X X X X X X X X X X X X X X X X X X X X X X X X X X X X X X X X X X X X X X X X X X X X X X X X X X X X X X X X X X X X X",
" X X X X X X X X X X X X X X X X X X X X X X X X X X X X X X X X X X X X X X X X X X X X X X X X X X X X X X X X X X X X X X X X",
" X X X X X X X X X X X X X X X X X X X X X X X X X X X X X X X X X X X X X X X X X X X X X X X X X X X X X X X X X X X X X X X X",
" X X X X X X X X X X X X X X X X X X X X X X X X X X X X X X X X X X X X X X X X X X X X X X X X X X X X X X X X X X X X X X X X",
" X X X X X X X X X X X X X X X X X X X X X X X X X X X X X X X X X X X X X X X X X X X X X X X X X X X X X X X X X X X X X X X X",
" X X X X X X X X X X X X X X X X X X X X X X X X X X X X X X X X X X X X X X X X X X X X X X X X X X X X X X X X X X X X X X X X",
" X X X X X X X X X X X X X X X X X X X X X X X X X X X X X X X X X X X X X X X X X X X X X X X X X X X X X X X X X X X X X X X X",
" X X X X X X X X X X X X X X X X X X X X X X X X X X X X X X X X X X X X X X X X X X X X X X X X X X X X X X X X X X X X X X X X",
" X X X X X X X X X X X X X X X X X X X X X X X X X X X X X X X X X X X X X X X X X X X X X X X X X X X X X X X X X X X X X X X X",
" X X X X X X X X X X X X X X X X X X X X X X X X X X X X X X X X X X X X X X X X X X X X X X X X X X X X X X X X X X X X X X X X",
" X X X X X X X X X X X X X X X X X X X X X X X X X X X X X X X X X X X X X X X X X X X X X X X X X X X X X X X X X X X X X X X X",
" X X X X X X X X X X X X X X X X X X X X X X X X X X X X X X X X X X X X X X X X X X X X X X X X X X X X X X X X X X X X X X X X",
" X X X X X X X X X X X X X X X X X X X X X X X X X X X X X X X X X X X X X X X X X X X X X X X X X X X X X X X X X X X X X X X X",
" X X X X X X X X X X X X X X X X X X X X X X X X X X X X X X X X X X X X X X X X X X X X X X X X X X X X X X X X X X X X X X X X",
" X X X X X X X X X X X X X X X X X X X X X X X X X X X X X X X X X X X X X X X X X X X X X X X X X X X X X X X X X X X X X X X X",
" X X X X X X X X X X X X X X X X X X X X X X X X X X X X X X X X X X X X X X X X X X X X X X X X X X X X X X X X X X X X X X X X",
" X X X X X X X X X X X X X X X X X X X X X X X X X X X X X X X X X X X X X X X X X X X X X X X X X X X X X X X X X X X X X X X X",
" X X X X X X X X X X X X X X X X X X X X X X X X X X X X X X X X X X X X X X X X X X X X X X X X X X X X X X X X X X X X X X X X",
" X X X X X X X X X X X X X X X X X X X X X X X X X X X X X X X X X X X X X X X X X X X X X X X X X X X X X X X X X X X X X X X X"
};
