/* XPM */
static char *result[] = {
/* columns rows colors chars-per-pixel */
"64 64 92 1 ",
"  c #040406",
". c #060608",
"X c #07080A",
"o c #0B0B0D",
"O c #110F0E",
"+ c #0E0F10",
"@ c #0F1012",
"# c #131315",
"$ c #191614",
"% c #1D1A17",
"& c #161718",
"* c #17181A",
"= c #1B1B1C",
"- c #201E1C",
"; c #26231F",
": c #2D251D",
"> c #1D1F20",
", c #1F2122",
"< c #242424",
"1 c #2A2723",
"2 c #2C2926",
"3 c #252728",
"4 c #262829",
"5 c #2B2C2B",
"6 c #362F27",
"7 c #332E29",
"8 c #2F302F",
"9 c #3B3025",
"0 c #33312D",
"q c #3F352A",
"w c #2E3132",
"e c #323435",
"r c #393531",
"t c #3C3A35",
"y c #343738",
"u c #36393A",
"i c #393C3D",
"p c #403325",
"a c #433C34",
"s c #423F3A",
"d c #42413D",
"f c #4A433B",
"g c #51493F",
"h c #3C3F41",
"j c #3E4142",
"k c #424545",
"l c #4B4742",
"z c #474846",
"x c #4A4944",
"c c #444748",
"v c #464A4A",
"b c #4A4D4D",
"n c #544C42",
"m c #584E43",
"M c #5B5145",
"N c #54524C",
"B c #5B554B",
"V c #4B4F50",
"C c #4D5252",
"Z c #515555",
"A c #595651",
"S c #565856",
"D c #5E5C56",
"F c #535758",
"G c #555A5A",
"H c #5A5E5D",
"J c #615647",
"K c #655A4B",
"L c #6B5E4D",
"P c #635E56",
"I c #6C6153",
"U c #63625D",
"Y c #6B655A",
"T c #70675A",
"R c #5B5F60",
"E c #5D6262",
"W c #616665",
"Q c #6A6760",
"! c #676863",
"~ c #6C6A64",
"^ c #626768",
"/ c #656B6B",
"( c #696E6E",
") c #6E716E",
"_ c #797266",
"` c #73726C",
"' c #7B756B",
"] c #6A6F70",
"[ c #6E7474",
"{ c #727674",
"} c #797770",
"| c None",
/* pixels */
"[[[[[[[[[[[[[}(UNC1z%QGEHjjcCkjhucvjjGj[EE[S#=ZeEZ/{[[[[[[[[[[[[",
"[[[[[[[[[[[[{'UZxN1r=Ye/RyeekCijiyjjiGi[(z[D$5I1PfW[[[[[[[[[[[[[",
"[[[[[[[[[[[[[THGfB99-nt)EuyeivvFvVb/ubu])tUIOdJeD5W{[[[[[[[{[[[[",
"[[[[[[[[[[[[[UeC2J9p-as[EyyeevbFbVb]wjh]`0Bfog2B7y([[[[[[[[[[[[[",
"[[[[[[[[[[[{]/55#f::%p0)EuyehCbFvbjVuFi]G;m$-=5aoz(W[[[[[[[[[[[[",
"[[{[[[[[[[[[HPdoo=%oo:=DEuyuvGCGCEcjjGj)0%%X%53X7UiD{[[[[[[[[[[[",
"[[[[[[[[[[[[U6m#XX#  OX1UW^/]]][][///)!go Xo##+<t,eW[[[[[[[[[[[[",
"[[[[[[[[[[[[)2%# X. .  .t{[{/SSDH)[{[[x@X .oXo@o#yeB{[[[[[[[[[[[",
"[[[[[[[[[[{[[S*.XXX Xoo@%B}[/k4,*g`[[B=@@+XX.#%<<#r{[[[[[[[[[[[[",
"[[[[[[[[[[[[[E5+XoX Xo##@-g_)G8X#0T{Y3%##+ Xo@oo+5D[[[[[[[{[[[[[",
"[[[[[[[[[[[[[[B*o+o X##*=,2dT`z*+3KL6<###+   .X=3k][[[[[[[[[[[[[",
"[[[[[{[[[[[[[[/u*&@+XX@#=>>376OXo=23<*#@+XXXo#,5b({[[[[[[[[[[[[[",
"[[[[[[[[[[[[[[[)Gz<XXX o+&##5=X@+o**+*@@oXoX+>u^{[[[[[[[{[[[[[[[",
"[[[[{[[[[[[[[[[[~k3&+XX X#=#*4=oXX#*###@..X+4v/[{[[[[[[{[[[[[[[[",
"[[[[[[[[[[[[[[[[[[G2==oXo+&**=o  o###o@#++#iE[[[[[[[[[[[[[[[[[[[",
"[[[[[[[[[[[[[[[[[{))/v3oXXo*@oX XXo#oXooo*j/[[[[[[[[[[[[[[[[[[[[",
"[[[[[[[[[[[[[[[[[[[[[]Ej4>ooXo@oX.XooXXX*v[[[[[[[{[[[[[[[[[[[[[[",
"[[[[[[[[{[[[[[[[[[GjE[[[/Cb5*&>,*X>w5,wjC][]CC[[[[[[[[[[[[[[[[[[",
"[[[[[[[[[[[[[[[[[{RhE[[[[][(EGGe###fUEE[[[[EjV][[[[[[[[[[[[[[[[[",
"[[[[[[[[[[[[[[[[[[FjE[[[[[(GVg8,o*@@3uVE[[[/hj[[[[[[[[[[{[[[[[[[",
"[[[[[[[[[[[[[[[[[[CjR[[[[[Rv,&&=#* X+,E]EE[]jF[[[[[[[[[[[[[[[[[[",
"[[[[[[[[[[[[[[[[[[GjE/FjG[Ru>=488>+oo,FC,4R/VC][[[[[[[[[[[[[[[[[",
"[[[[[[[{[[[[[[[[[[RjEEyhj[[R>#8zz3+oo4EC,,GEVF[[[[[[[[[[[[[[[[[[",
"[[[[[[[[[[[[[[[[[[EVR]w,V{(i*X#jxX X,jEEujE]jv[[[[[[[[[[[[[[[[[[",
"[{[[[[[[[[[[[[[[[[]E][^R[[[j,j@yzo.oh^][]]]Ehj[[[[[[[[[[[[[[[[[[",
"[{[[[[[[[[[[[[[[[[FjE[[[[[]jFw@jC,*vH)[[[[[]FE[[[[[{[[[[[[[[[[[[",
"[[[[[[[[[[{[[[[[[[EjE[[[[[[[juVjUkC//[][[[[/CE[[[[[[[[[[[{[[[[[[",
"[[[[[[[[[[[[[[[[[[^jj[[[[[[[E]/E//[//][[[[[FhE[[[[[[[[[[[[[[[[[[",
"[[[[[[[[[[[[[[[[[[[Fj/[[[[[[[[[]/[]/]][[[[]vj][[[[[[[[[{[[[[[[[[",
"[[[[[[[[[[[[[[[[[[[EjC[[[[[[[[[]/([][[[[[[FjF[[[[[[[[[[[{[[[[[[[",
"[[{[[[[[[[[[[[[[[[[]jjE[[[[[[[[[][]][[[[[/jV/[[[[[[[[[[[[[[[[[[[",
"[[[[[[[[[[[[[[[[[[[[ECjR[[[[[[[])[]][[[[]jhF[[[[[[[[[[[[[[[[[[[[",
"[[[[[[[[[[[[[[{[[[[[[GhjE[[[[[[[]][[[{[]V4V][[[[[[[[[[[[[[[[[[[[",
"[[{[[[[[[[[[[[[[[[[[[[Fj^]^][[[[([[{[EZV]F][[[[[[[[[[[[[[[[[[[[[",
"[[[[[[[[[[[[[[[[[[[[[[[^/FhjFR]//^EEEwiZ[[[[[[[[[[[[[[[[[[[[[[[[",
"[[[[[[[[[[[[[[[[[[[[[[[[]GhhhjRhjheiEjZ][[[[[[[[[[[[[[[[[[[[[[[[",
"[[[[[[[[[[[[[[[[[[[[[[[[[[]^^R^jvjVZ[[[[[[[[[[[[[[[[[[[[[[[[[[[[",
"[[[[[[[[[[[[[[[[[[[[[[[[[[[[{{[]]][[[[[[[[[[[[[{[[[[[[[[[[[[[[[[",
"[[[[[[[[[[{[[[[[[[[[[[[[[[[[[[[[[[[[[[[[[[[[[[[[[[[[[[[[[[[[[[[[",
"[[[[[[[[[[[[[[[[[[[[[[[[[[[[[[[[[[[[[[[[[[[[[[[[[[[[[[[[[[[[[[[[",
"[[[[[{{[[[[[[[[[[[[[[[[[[[[[[[[[[[[[[[[[[[[[[[[[[[[[[[[[[[[{[[[[",
"[[[[[[[[[[[[[[[[[[[[[[[[[[[[[[[[[[[[[[[[[[[{[[[[[[[[[[[[[[[[[[{[",
"[[[[[[[[[[[[[[[[[[[[[[[[[[[[[[[[[[[[[[{[[[[[[[[[[[[[[[[[[[[[[[[[",
"[[[[[[[{[[[[{[[[[[[[[[[[[[[[[[[[[[[[[[[[[[{[[[[{[[[[{[[[[[[[[[[[",
"[[[[[[[[[[[[[[[[[[[[[[[[[[[[[[[[[[[[[[[[[[[[[[[[[[[[[{[[[[[[[[[[",
"[[[[[[[[[[[[[[[[[[[[[[[[[[[[[[[[[[[[[[[[[[[[[[[[[[[[[[[[[[[[[[[[",
"{[[[{{[[[[[[[{[[[[[[[[[[[[[[[{[[[[{[[[[[[{{{[{[[[[[[[[[[[[[[{[[[",
"||||||||||||||||||||||||||||||||||||||||||||||||||||||||||||||||",
"||||||||||||||||||||||||||||||||||||||||||||||||||||||||||||||||",
"||||||||||||||||||||||||||||||||||||||||||||||||||||||||||||||||",
"||||||||||||||||||||||||||||||||||||||||||||||||||||||||||||||||",
"||||||||||||||||||||||||||||||||||||||||||||||||||||||||||||||||",
"||||||||||||||||||||||||||||||||||||||||||||||||||||||||||||||||",
"||||||||||||||||||||||||||||||||||||||||||||||||||||||||||||||||",
"||||||||||||||||||||||||||||||||||||||||||||||||||||||||||||||||",
"||||||||||||||||||||||||||||||||||||||||||||||||||||||||||||||||",
"||||||||||||||||||||||||||||||||||||||||||||||||||||||||||||||||",
"||||||||||||||||||||||||||||||||||||||||||||||||||||||||||||||||",
"||||||||||||||||||||||||||||||||||||||||||||||||||||||||||||||||",
"||||||||||||||||||||||||||||||||||||||||||||||||||||||||||||||||",
"||||||||||||||||||||||||||||||||||||||||||||||||||||||||||||||||",
"||||||||||||||||||||||||||||||||||||||||||||||||||||||||||||||||",
"||||||||||||||||||||||||||||||||||||||||||||||||||||||||||||||||",
"||||||||||||||||||||||||||||||||||||||||||||||||||||||||||||||||"
};
