/* XPM */
static char *result[] = {
/* columns rows colors chars-per-pixel */
"64 64 95 2 ",
"   c #040406",
".  c #060709",
"X  c #07080A",
"o  c #0B0B0D",
"O  c #120F0E",
"+  c #0E0F11",
"@  c #0F1011",
"#  c #131314",
"$  c #181513",
"%  c #1D1916",
"&  c #161718",
"*  c #171819",
"=  c #1A1B1C",
"-  c #221F1C",
";  c #24201E",
":  c #2F261D",
">  c #30281F",
",  c #1E1F20",
"<  c #1F2021",
"1  c #232425",
"2  c #2A2623",
"3  c #272827",
"4  c #2C2A27",
"5  c #252728",
"6  c #262829",
"7  c #2B2C2C",
"8  c #392F25",
"9  c #322F2A",
"0  c #3C3126",
"q  c #35322C",
"w  c #3D362D",
"e  c #2C2E30",
"r  c #2E3132",
"t  c #333535",
"y  c #393633",
"u  c #393836",
"i  c #343738",
"p  c #36393A",
"a  c #3A3D3D",
"s  c #413427",
"d  c #40362B",
"f  c #433B32",
"g  c #403E3A",
"h  c #43413C",
"j  c #4C453C",
"k  c #534A3F",
"l  c #3C3F40",
"z  c #3E4142",
"x  c #424545",
"c  c #4A4640",
"v  c #454847",
"b  c #4B4944",
"n  c #434748",
"m  c #45494A",
"M  c #494D4D",
"N  c #544D43",
"B  c #504E49",
"V  c #4F504E",
"C  c #5C5246",
"Z  c #54514C",
"A  c #5C564D",
"S  c #4B4F50",
"D  c #4D5152",
"F  c #525555",
"G  c #565856",
"H  c #5C5A55",
"J  c #535758",
"K  c #555A5A",
"L  c #5A5E5D",
"P  c #655A4C",
"I  c #635C52",
"U  c #605F5B",
"Y  c #5E615E",
"T  c #6C6356",
"R  c #63625C",
"E  c #6B665D",
"W  c #6E695F",
"Q  c #736656",
"!  c #5A5F60",
"~  c #5E6263",
"^  c #626665",
"/  c #686763",
"(  c #676864",
")  c #6B6B66",
"_  c #626768",
"`  c #656B6B",
"'  c #696E6E",
"]  c #726D64",
"[  c #6E716E",
"{  c #73736E",
"}  c #7A756B",
"|  c #6A6F70",
" . c #6E7474",
".. c #727573",
"X. c #757874",
/* pixels */
" . . . . . . . . . . . . . . . . . . . . . . . . . . . . . . . . . . . . . . . . ... . . . . . ... . . . . . . . . . . . . . . .",
" . . . . ... . . . . . . . . . . . . . . . . . . . . . . . . . . . . . . . . . . . . . . . . . . . . . . ... . . . . . . . . . .",
" . . . . . . . . . . . . . . . . . . . . . ... . . . . . . . ... . . . . . . . . . . . . . . . . . . . . . . . . . . . . . . . .",
" . . . . . . . . . . . . . . . . . . . . . . . . . . . . . . . . ... . . . . . . . . . . . . . . . . . . . . . . . . . . . . . .",
" . . . . . . . . . . . . . . . . . . . . . . . ... . . . . . . . . . . . . . . . . . . . . . . . . . . . . . . . . . . . . . . .",
" . . . . . . . . . . . . . ... . . . . . . . . . . . . . . . . . . . . . . . . . . . . . . . . . . . . . . . . . . . . . . . . .",
" . . . . . . . . . . . . . . . . . . . . . . . . . . . . . . . . . . . . . . . . . . . . . . . . . . ... . . . . . . . . . . . .",
" . . . . . . . . . . . . . . . . . . . . . . . . . . . . . . . . . . . . . . . . . . . . . . . . . . . . . . . . . . . . . . . .",
" . . . . . . . . . . . . . . . . . . . . . . . . . . . . . .|  . .|  . . . . . . . . . . . . . . . . . . . . . . . . . . . . . .",
" . . . . . .X. . . . . . . . . . . . . . . . . . . . . . .| K D J ~  . . . . . . . . . . . . . . . . . . . . . . . . . . . . . .",
" . . . . . . . . . . . . . . . . . . . . . . . . . . . . .| ` ~ ~ ~  . .~  . . . . . . . . . . . . . . . . . . . . . . . . . . .",
" . . . . . . . . . . . . . . . . . . . . . . ...D D J S D S D M ~ z z z z J z |  . ... . . . . . . . . . . . . . . . . . . . . .",
" . . . . . . . . . . . ... . . . . . .[  ...] { l r z t r z z a ~ r a t p z z ~  . .X.^ [  . . . . .X. . . . . . . . . . . . .X.",
" . . . . . . . . . . . . . . . . . .[ (  ._ P X.l < i i e ~ ~ a S z ~ z K S J |  . ...v M '  . . . . . . . . . . . . . . . . . .",
" . . . . . . . . . . . . . . . . . .) G [ h E  .z < i i r D z < z z K z | ~ i ~  . .X.V 5 ~  . . . . . . . . . . . . . . . . . .",
" . . . . . . . . . . . . . . . . .[ G Z Z w  . .z < i i r K e r K z K z K z t ~  . .X.Y # m ~ `  . . . . . . . . . . . . . . . .",
" . . . . . . . . . . . ... ...' R ^ u H y c ..| z a t a a S r t K z L n L l a _  . . .A # t ^ M  .|  . . . . . . . . . . . . . .",
" . . . . . . . . . . . . .X.[ / C F 3 Z = E ~ ~ K z z z S z z z z z M n n D x  ._ ~  .G $ 1 J y ` K |  . . . . . . . . . ... . .",
" . . . . . . . . . . . ...} R F b M 2 u % E i _ Y t t p z F a z a t z z t K p  ._ M [ H $ 1 U 2 Y h ~  . . . . . . . . . . . . .",
" . . . . . . . . . . . . .] L K c C 8 8 - Z u  .~ p t t z M z J n M M _ p M p  .' g R T $ u P r Y r `  . . . . . . . . . . . . .",
" . . . . . . . . . . . . .R u J 9 C 0 s % f g ..~ p t t t n M J M M S  .t x p [ { q H k o N 8 Z y t `  . . . . . ... . . . . . .",
" . . . . . . . . . . . .' ` 3 e # k : : % d y [ ~ p t r z D M J M M z J i K a  .L ; C % % - 3 j + v ' `  . . . . . . . . . . . .",
" . . . . . . . . . . . .L E a O o 1 % # O 2 - L ~ t r p z K M K S K z z p J a { w - ; X # 3 7 o 3 R v Y  . . . . . . . . . . . .",
" . . . . .X. . . . . ...U w C O X X #     O o 8 ^ L ~ ~ ` | ' ' '  .~ ~ ^ ` ^ C o     O = = o 1 f 3 e (  . . . . . . . . . . . .",
" . . . . . . . . . . . .( 2 - &   o . .       . g ' ...._ H L R ^  . . .....V # X   . o o + # + @ r i A .. . . . . ... . . . . .",
" . . . . . . . . . . . . .F # . X X .     + o o % I .. ._ x 4 3 = N {  . .Y ; @ @ + X X X o # 1 1 * 9 {  . . . . . . . . . . . .",
" . . . . . . . . . . . . .~ 6 + X o .   . o # & # 1 P X.' F 7 o # q W ..W 4 * # @ +   . o # # O @ 1 Y  . . . . . . . . . . . . .",
" . . . . . . . . . . . . . .D & o O o   . # # & = - 4 j W X.M * # 3 P Q w 1 # # # o . X .   X = 7 h `  . . . . . . . . . . . . .",
" . . . . . . . . . . . . .X._ i = & # o X X # # = = 1 3 q f # . o = 9 3 1 = # # @ X X X o @ , 5 x ]  . . . . . . . . . . ... . .",
" . . . . . .X. . . . . . . . . .F x 1 X X X X o O * # & 4 = . @ @ X = = # * + @ o X X o @ * u ^ [  . . . . . . . . . . . . . . .",
" . . . . . . . . . . . . . . . ./ a 1 # o   X   o # & @ & 4 = o X   # * @ # @ @ . . . @ < l ~  . . . . . . . . . . . . . . . . .",
" . . . . . . . . . . . . . . . ... .F 1 # = X X o + & = & = +   X o # * # @ @ # @ o o r Y  . . . . . . . . . . . . . . . . . . .",
" . . . . . . . . . . . . . . . . . . .~ ~ z < + o X o & @ @     X X o # + X o o X # t ~  . . . . . . . . . . . . . . . . . . . .",
" . . . . . . . . . . . . . . . . . . . . .` K p < & X o X X @ X X   X o X . . X & M |  . . . . . . . . . . . . . . . . . . . . .",
" . . . . . . . . . . . . . . . . . .~ S ~  . . .~ M z < # @ * , &   = 4 < = 1 e z |  . .~ ~  . . . . . . . . . . . . . . . . . .",
" . . . . . . . . . . . . . . . . . .J i ~  . . . . . .` K V F r # # = j R L _  . . . .~ z z |  . . . . . . . . . . . . . . . . .",
" . . . . . . . . . . . . . . . . . .K z ~  . . . .| | Y G Z u 3 + & + # 9 l S `  . . .| t M  . . . . . . . . . . . . . . . . . .",
" . . . . . . . . . . . . . . . . . .J z K  . . . . .~ M < * # = + & . X + < K | ` `  .~ z S |  . . . . . . . . . . . . . . . . .",
" . . . . . . . . . . . . . . . . . .J z ~ ` D F Y  .K i < = < 3 3 = o + o , K J 7 e ~ ` z M  . . . . . . . . . . . . . . . . . .",
" . . . . . . . . . . . . . . . . . .J a ~ ~ t p z  . .~ < * u v z 6 @ + o 5 K S < < J ` z S |  . . . . . . . . . . . . . . . . .",
" . . . . . . . . . . . . . . . . . .~ M K ` r < z  . .z , + # z M o   X = p _ ~ e t _ _ n D |  . . . . . . . . . . . . . . . . .",
" . . . . . . . . . . . . . . . . . . .~ `  .~ J |  . .z < r * a M X   X p ~ | ' _ _  ._ z m  . . . . . . . . . . . . . . . . . .",
" . . . . . . . . . . . . . . . . . .F z ~  . . . . ._ z z z + z M = # x K  .|  . . . .' D J  . . . . . . . . . . . . . . . . . .",
" . . . . . . . . . . . . . . . . . .~ z ~  . . . . . ._ z p z z U a M _ _ |  . . . . ._ K `  . . . . . . . . . . . . . . . . . .",
" . . . . . . . . . . . . . . . . . .~ z S  . . . . . .| ! ` _ ! ) _ ' ' `  . . . . . .K r Y  . . . . . . . . . . . . . . . . . .",
" . . . . .X. . . . . . . . . . . . .| J z '  . . . . . . . . . .`  . .' '  . . . . . .n n _  . . . . . . . . . . . . . . . . . .",
" . . . . . . . . . . . . . . . . . . ._ z K  . . . . . . . . .| ` |  .'  .|  . . . .~ n S  . . . . . . . . . . . . . . . . . . .",
" . . . . . . . . . . . . . . . . . . .| z z ~  . . . . . . . .| '  .| |  . . . ...' x M ~  . . . . . . . . . . . . . .X. . . . .",
" . . . . . . . . . .X. . . . . . . . . ._ D z ~  . . . . . . . .|  .| |  . . . . .z z J  . . . . . . . . . . . . . . . . . . . .",
" . . . . . . . . . . . . . . . . . . . . .K z z ~  . . . . . . .|  .|  . . . .| D r z  . . . . . . . . . . . . . . . . . . . . .",
" . . . . . . . . . . . . . . . . . . . . .| K z _  .|  . . . .| |  . . . .| K S ` z  . . . . . . . . . . . . . . . . . . . . . .",
" . . . . . . . . . . . . . . . . . . . . . .| ! _ ! z z ! _ | | ` ` _ _ K l z S  . . . . . . . . . . . . . . . . . . . . . . . .",
" . . . . . . . . . . . . . .X. . . . . . . . . .| D z i z z ! z z z z z _ z z  . . . . . . . . . . . . . . . . . . . . . . . . .",
" . . . . . . . . . . . . . . . . . . . . . . . . . .| ~ D D ~ z z z z z  . . . . . . . . . . . . . . . . . . . . . . . . .X. . .",
" . . . . . . . . . . . . . . . . . . . . . . . . . . . . . . .|  . . . . . . . . . . . . . . . . . . . . . . . . . . . . . . . .",
" . . . . . . . . . . . . . . . . . . . . . . . . . . . . . . . . . . . . . . . . . . . . . . . . . . . . .X. . . . . . . . . . .",
" . . . . . . . . . . . . . . . . . . . . . . . . . . . . . . . . . . . . . . . . . . . . . . . . . . . . . . . . . . . . . . . .",
" . . . . . . . . . . . . . . . . . . . . . . . . . . . . . . . . . . . . . . . . . . . . . . . . . . .X. . . . . . . . . . . . .",
" . . . . . . . . . . . . . . . . . . . . . . . . . . . . . . . . . . . . . . . . . . . . . . . . . . . . . . . . . . . . . . . .",
" . . . . . . . . . . . . . . . . . . . . . . . . . . . . . . . . . . . . . . . . . . . . . . . . . . . . . . . . . . . . . . . .",
" . . . . . . . . . . . . . . . . . . . . . . . . . . . . . . . . . . . . . . . . . . . . . . . . . . . . . . . . . . . . . . . .",
" . . . . . . . . .X. . . . . . . . . . . . . . . . . . . . . . . . . . . . . . . . . . . . . . . . . . . . . . . . . . . . . . .",
" . . . . . . . . . . . . . . . . . . . . . . . . . . . . . . . . . . . . . . . . . . . . . . . . . . . . . . . . . . . . .X. . .",
" . . . . . . . . . . . . . . . . . . . . . . . . . . . . . . . . . . . . . . . . . . . . . . . . . . . . . . . . . . . . . . . ."
};
