/* XPM */
static char *result[] = {
/* columns rows colors chars-per-pixel */
"64 64 74 1 ",
"  c #040406",
". c #060709",
"X c #07080A",
"o c #0A0B0D",
"O c #0E0F11",
"+ c #0F1011",
"@ c #121314",
"# c #181616",
"$ c #1D1A17",
"% c #161718",
"& c #17181A",
"* c #1A1B1C",
"= c #211E1C",
"- c #21201F",
"; c #1E1F20",
": c #1F2022",
"> c #232425",
", c #292724",
"< c #272827",
"1 c #2E2A25",
"2 c #252728",
"3 c #262829",
"4 c #2B2C2C",
"5 c #312D29",
"6 c #33302C",
"7 c #39342E",
"8 c #2C2E30",
"9 c #2E3132",
"0 c #333534",
"q c #393632",
"w c #343738",
"e c #36393A",
"r c #3A3C3D",
"t c #42382E",
"y c #443D35",
"u c #403F3C",
"i c #464039",
"p c #4F483F",
"a c #54493D",
"s c #3C3F40",
"d c #3E4142",
"f c #424545",
"g c #4C4B46",
"h c #444748",
"j c #45494A",
"k c #4A4D4D",
"l c #565048",
"z c #595349",
"x c #4D5152",
"c c #525555",
"v c #5B5A56",
"b c #535758",
"n c #565A5B",
"m c #595D5D",
"M c #6A5E4E",
"N c #635B50",
"B c #625F59",
"V c #666055",
"C c #61615C",
"Z c #746B5D",
"A c #5A5F60",
"S c #5D6262",
"D c #626665",
"F c #676A67",
"G c #6D6B64",
"H c #656A6B",
"J c #696E6E",
"K c #6C706E",
"L c #777064",
"P c #6A6F70",
"I c #6E7474",
"U c #717574",
"Y c #797870",
"T c None",
/* pixels */
"IIIIIIIIIIIIJ,=# X..    iKUUHnmCFKKUUUgOX .X.o@.oerlUIIIIIIIIIUI",
"IIIIIIIIIIIIIc@.XXX Xooo$VUIDh64-zUIIC-O+ooooo#*2*5GUIIIIIIIIIII",
"IIIIIIIIIUIIUD<ooo.  o+%@-NYHx<o&6ZUG5*&@o .X@$@o>vUIIIIIIIIIIII",
"IIIIIIIIIIIIIKg#ooX X@@&$;5aLYx*@<MZt>@@@o . .o*2uDIIIIIIIIIIIII",
"IIIIIIIIIIIIIID1++OooX+%;->,7i&XX*71>*@@OX..XO&*rGUIIIIIIIIIIIII",
"IIIIIIIIIIIIIIIFxd>oXX O+&@*4$ ++O&*@&OOoXoo@*wmJUIIIIIIIIIIIIII",
"IIIIIIIIIIIIIIIICr:++XX o+*+&<&OX @#+@@o..oo*snIUIIIIIIIIIIIIIII",
"IUIIIIIIIIIIIIIIIKn:O%XXX+%*&-+ Xo&@&O@@OoO4nJIIUIIIIIIIIIIIIIII",
"IIIIIUIIIIIIIIIIIIISmd:oo O%@o  .XO@oooOo%wSIIIIIIIUIIIIIIIUIIII",
"IIIIIIIIIIIIIIIIIIIIIJcw*%.OooOoX..oX...@dHIIIIIIIIIIIIIIIIIIIII",
"IIIIIIIIIIIIIIIIIISxSIIPSde;OO&*& *<;%:3dHIInSIIIIIIIIIIIIIIIIII",
"IIIIIIIIIIUIIIIIIIk4mUIIIIIDxkx9@@&pCADHIIISrhPIIIIIIIIIIUIIIIII",
"IIIIIIIIIIIIIIIIIIcrAIIIIPPSvcu<o&O#7jxHIIIHwhIIIIIIUIIIIIIIIIII",
"IIIIIIIIIIIIIIIIIIxdnIIIIISk>&@=O&XX+>nIIIIHdxIIIIIUIIIIIIIIIIII",
"IIIIIIIIIIUIIIIIIIndSPnnSIn9;*>>,*ooo;nx34nHkxIIIIIIIIIIIIIIIIII",
"IIIIIIIIIIIIIIIIIInsSS0sdIUS-&whd4@oo2nx:>nHkxPIIIIIIIIIIIIIIIII",
"IIIIIIIIIIIIIIIIIISdSH82dUId@X@iko.o%sHA89SHdxIIIIIIIIIIIIIIIIII",
"IIIUIIIIIIIIIIIIIIPHJInxHIIx:8&wjX XsAHPSSPHddPIIIIUIIIIIIIIIIII",
"IIIIIIIIIIIIIIIIIISxSIIIIISdddosk*+dxPIIIIIHdbIIIIIIIIIIIIIIIIII",
"IIIIIIIIIIIIIIIIIIAdAIIIIIIHx:djAedHHPPIIIPPAPIIIIIIIIIIIIIIIIII",
"IIIIIIIIIIIIIIIIIISsxIIIIIIPSHSnFDJHPIIIIIIAdAIIIIIIIIIIIIIIIIII",
"IIIIIIIIIIIIIIIIIIJbdPIIIIIIPIIPJIIHPIIIIIIddHIIIIIIIIIIIIIIIIII",
"IIIIIUIIIIIIIIIIIIIAdbIIIIIIIIIPDIIHIIIIIIAdxPIIIIIIIIIIIIIIIIIU",
"UIIIIIIIIIIIIIIIIIIHddHIIIIIIIIIHIPIIIIIIIdxHIIIIIIIIIIIIIIIIIII",
"IIIIIIIIIIIIIIIIIIIIAdxSIIIIIIIPIIPIIIIIIbsxIIIIIIIIIIIIIIIIIUII",
"IIIIIIIIIIIIIIIIIIIIPbsdSIIIIIIIJIIIIIIJd8dIIIIIIIIIIIIIIIIIIIII",
"IIIIIIIUIIIIIIIIIIIIIPbsSIPIIIIIJIIIIHnxHdIIIIIIIIIIIIIIIIIIIIII",
"IIIIIIIIIIIIIIIIIIIIIIPAHAdbAHIIJHHHSrsxIIIIIIIIIIIUIIIIIIIIIIII",
"UIIIUIIIIIIIIIIIIIIIIIIIPxd9sdAdkdwdDekHIIIIIIIIIIIIIIIIIIIIIIII",
"IIIIIIIIIIIIIIIIIIIIIIIIIIHAxxAsdddhIHIIIIIIIIIIIIIIIIIIIIIIIIII",
"IIIIIIIIIIIIIIIIIIIIIIIIIIIIIIPHDHIIIIIIIIIIIIIIIIUIUIIIIIIIUIII",
"IIIIIIIIIIIIIIIIIIIIIIIIIIIIIIIIIIIIIIIIIIIIIIIIIIIIUIIIIIIIIIII",
"IIIIIIIIIIIIIIIIIIIIIIUIIIIIIIIIIIIIIIIIIIIIIIUIIIIIIIIIIIIIIIII",
"IIIIIIIIIIIIIIIIIIIIIIIIIIIIIIIIIIIIIIIIIIIUIIIIIIIIIIIIIIIIIIII",
"IIIIIIIIIIIIIIIIIIIIIIIIIIIIIUIIIIIIIIIIIIIIIIIIIIIIIIIIIIIIIIII",
"IIUUUIIIIIIIIIIIIIIIIIIIIIIIIIIIIIIIIIIIIIIIIIIIIIIIIIIIIIIIIIII",
"IIIIIIIIIIIIIIIIIIIIIIIIIIIIIIIIUIIIIIIIIIIIIIIIIIIIIIIIIIIIIIII",
"IIIIIIIIIIIIIIIIIIIIIIIIIIIIIIIIUIIIIIIIIIUIIIIIIIIIIIIIUIIIIIII",
"IIIIIIIIIIIIIIIUIIIIIIIIIIIIIIIIUIIIIIIIIIIIUIIIIIIIIIIIIIIIIIII",
"IIIIIIIUUIIIIIIUIIIIIIUUIIUUIIIIIIIIIIIIIIIIIIIIIIIIIIIIIIIIIIIU",
"TTTTTTTTTTTTTTTTTTTTTTTTTTTTTTTTTTTTTTTTTTTTTTTTTTTTTTTTTTTTTTTT",
"TTTTTTTTTTTTTTTTTTTTTTTTTTTTTTTTTTTTTTTTTTTTTTTTTTTTTTTTTTTTTTTT",
"TTTTTTTTTTTTTTTTTTTTTTTTTTTTTTTTTTTTTTTTTTTTTTTTTTTTTTTTTTTTTTTT",
"TTTTTTTTTTTTTTTTTTTTTTTTTTTTTTTTTTTTTTTTTTTTTTTTTTTTTTTTTTTTTTTT",
"TTTTTTTTTTTTTTTTTTTTTTTTTTTTTTTTTTTTTTTTTTTTTTTTTTTTTTTTTTTTTTTT",
"TTTTTTTTTTTTTTTTTTTTTTTTTTTTTTTTTTTTTTTTTTTTTTTTTTTTTTTTTTTTTTTT",
"TTTTTTTTTTTTTTTTTTTTTTTTTTTTTTTTTTTTTTTTTTTTTTTTTTTTTTTTTTTTTTTT",
"TTTTTTTTTTTTTTTTTTTTTTTTTTTTTTTTTTTTTTTTTTTTTTTTTTTTTTTTTTTTTTTT",
"TTTTTTTTTTTTTTTTTTTTTTTTTTTTTTTTTTTTTTTTTTTTTTTTTTTTTTTTTTTTTTTT",
"TTTTTTTTTTTTTTTTTTTTTTTTTTTTTTTTTTTTTTTTTTTTTTTTTTTTTTTTTTTTTTTT",
"TTTTTTTTTTTTTTTTTTTTTTTTTTTTTTTTTTTTTTTTTTTTTTTTTTTTTTTTTTTTTTTT",
"TTTTTTTTTTTTTTTTTTTTTTTTTTTTTTTTTTTTTTTTTTTTTTTTTTTTTTTTTTTTTTTT",
"TTTTTTTTTTTTTTTTTTTTTTTTTTTTTTTTTTTTTTTTTTTTTTTTTTTTTTTTTTTTTTTT",
"TTTTTTTTTTTTTTTTTTTTTTTTTTTTTTTTTTTTTTTTTTTTTTTTTTTTTTTTTTTTTTTT",
"TTTTTTTTTTTTTTTTTTTTTTTTTTTTTTTTTTTTTTTTTTTTTTTTTTTTTTTTTTTTTTTT",
"TTTTTTTTTTTTTTTTTTTTTTTTTTTTTTTTTTTTTTTTTTTTTTTTTTTTTTTTTTTTTTTT",
"TTTTTTTTTTTTTTTTTTTTTTTTTTTTTTTTTTTTTTTTTTTTTTTTTTTTTTTTTTTTTTTT",
"TTTTTTTTTTTTTTTTTTTTTTTTTTTTTTTTTTTTTTTTTTTTTTTTTTTTTTTTTTTTTTTT",
"TTTTTTTTTTTTTTTTTTTTTTTTTTTTTTTTTTTTTTTTTTTTTTTTTTTTTTTTTTTTTTTT",
"TTTTTTTTTTTTTTTTTTTTTTTTTTTTTTTTTTTTTTTTTTTTTTTTTTTTTTTTTTTTTTTT",
"TTTTTTTTTTTTTTTTTTTTTTTTTTTTTTTTTTTTTTTTTTTTTTTTTTTTTTTTTTTTTTTT",
"TTTTTTTTTTTTTTTTTTTTTTTTTTTTTTTTTTTTTTTTTTTTTTTTTTTTTTTTTTTTTTTT",
"TTTTTTTTTTTTTTTTTTTTTTTTTTTTTTTTTTTTTTTTTTTTTTTTTTTTTTTTTTTTTTTT",
"TTTTTTTTTTTTTTTTTTTTTTTTTTTTTTTTTTTTTTTTTTTTTTTTTTTTTTTTTTTTTTTT"
};
