/* XPM */
static char *result[] = {
/* columns rows colors chars-per-pixel */
"64 64 226 2 ",
"   c #030305",
".  c #050507",
"X  c #060608",
"o  c #060709",
"O  c #070709",
"+  c #08080A",
"@  c #08090B",
"#  c #09090B",
"$  c #090A0B",
"%  c #090A0C",
"&  c #0A0A0C",
"*  c #0A0B0C",
"=  c #0A0B0D",
"-  c #0B0B0D",
";  c #0B0C0D",
":  c #0B0C0E",
">  c #0C0D0F",
",  c #0D0E0F",
"<  c #0D0E10",
"1  c #0E0E10",
"2  c #0E0F11",
"3  c #0F1012",
"4  c #101112",
"5  c #121213",
"6  c #111214",
"7  c #121314",
"8  c #121315",
"9  c #131415",
"0  c #131416",
"q  c gray8",
"w  c #141516",
"e  c #151617",
"r  c #161617",
"t  c #151618",
"y  c #161718",
"u  c #171718",
"i  c #17181A",
"p  c #1A1A1B",
"a  c #1A1B1C",
"s  c #1A1C1D",
"d  c #1B1C1D",
"f  c #1B1C1E",
"g  c #1B1D1E",
"h  c gray11",
"j  c #1C1D1E",
"k  c #1C1D1F",
"l  c #1D1E20",
"z  c #1D1F20",
"x  c #1E2021",
"c  c #212223",
"v  c #202224",
"b  c #212324",
"n  c #212325",
"m  c #232526",
"M  c #242626",
"N  c gray15",
"B  c #262727",
"V  c #252728",
"C  c #262829",
"Z  c #292A2A",
"A  c #282A2B",
"S  c #2B2C2B",
"D  c #292C2D",
"F  c #2A2C2D",
"G  c #2B2E2F",
"H  c #312F2C",
"J  c #2C2E30",
"K  c #2E3132",
"L  c #303233",
"P  c #313335",
"I  c #313435",
"U  c #323536",
"Y  c #333637",
"T  c #363736",
"R  c #393631",
"E  c #383633",
"W  c #343738",
"Q  c #353839",
"!  c #36393A",
"~  c #383B3C",
"^  c #393C3D",
"/  c #393D3D",
"(  c #3A3D3E",
")  c #3B3E3F",
"_  c #3C3E3F",
"`  c #41413F",
"'  c #43413E",
"]  c #4D463D",
"[  c #3B3F40",
"{  c #3C3F40",
"}  c #3D4041",
"|  c #3E4141",
" . c #3E4142",
".. c #3F4243",
"X. c #3F4343",
"o. c #3F4344",
"O. c #414445",
"+. c #424545",
"@. c #414546",
"#. c #424546",
"$. c #424646",
"%. c #424647",
"&. c #434647",
"*. c #444544",
"=. c #464746",
"-. c #484846",
";. c #434748",
":. c #444848",
">. c #444849",
",. c #454849",
"<. c #45494A",
"1. c #46494A",
"2. c #464A4B",
"3. c #474B4C",
"4. c #4C4C49",
"5. c #4E4D48",
"6. c #4D4D4A",
"7. c #484B4C",
"8. c #484C4D",
"9. c #494C4D",
"0. c #494D4D",
"q. c #494D4E",
"w. c #4A4D4E",
"e. c #4A4E4E",
"r. c #4A4E4F",
"t. c #4B4E4F",
"y. c #4B4F4F",
"u. c #4B4F50",
"i. c #4C4F50",
"p. c #4C5050",
"a. c #4C5051",
"s. c #4E5151",
"d. c #4D5152",
"f. c #4E5253",
"g. c #4E5353",
"h. c #4F5454",
"j. c #525350",
"k. c #505455",
"l. c #505555",
"z. c #515555",
"x. c #515556",
"c. c #515656",
"v. c #525656",
"b. c #525657",
"n. c #535757",
"m. c #535858",
"M. c #545959",
"N. c #55595A",
"B. c #555A5A",
"V. c #555A5B",
"C. c #565A5B",
"Z. c #565B5B",
"A. c #575B5C",
"S. c #575C5C",
"D. c #585C5D",
"F. c #585D5D",
"G. c #5B5E5D",
"H. c #595E5E",
"J. c #595E5F",
"K. c #5A5E5F",
"L. c #5A5F5F",
"P. c #5B5F5F",
"I. c #5F605D",
"U. c #65615A",
"Y. c #5B6060",
"T. c #5D6262",
"R. c #5D6263",
"E. c #5E6363",
"W. c #5E6364",
"Q. c #5F6464",
"!. c #5F6465",
"~. c #5F6565",
"^. c #606566",
"/. c #606666",
"(. c #616666",
"). c #626767",
"_. c #626868",
"`. c #636868",
"'. c #636969",
"]. c #646969",
"[. c #666A69",
"{. c #64696A",
"}. c #646A6A",
"|. c #656A6A",
" X c #656A6B",
".X c #656B6B",
"XX c #666B6A",
"oX c #666B6B",
"OX c #676C6B",
"+X c #666C6C",
"@X c #676C6C",
"#X c #676C6D",
"$X c #676D6D",
"%X c #696D6C",
"&X c #686D6D",
"*X c #686E6E",
"=X c #696E6E",
"-X c #696E6F",
";X c #696F6F",
":X c #6A6F6F",
">X c #6B706F",
",X c #6A6F70",
"<X c #6A7070",
"1X c #6B7070",
"2X c #6B7071",
"3X c #6B7171",
"4X c #6C7170",
"5X c #6C7171",
"6X c #6C7172",
"7X c #6C7272",
"8X c #6D7272",
"9X c #6D7273",
"0X c #6D7373",
"qX c #6F7372",
"wX c #6E7373",
"eX c #6E7374",
"rX c #6E7474",
"tX c #6F7474",
"yX c #6E7574",
"uX c #6F7574",
"iX c #6E7575",
"pX c #6F7575",
"aX c #717573",
"sX c #707474",
"dX c #707574",
"fX c None",
/* pixels */
"rXrXrXrXrXrXrXrXrXrXrXrXrXrXrXrXrXrXaXqX;X,.b = = O & t , : .   # O - 9 - # @ > % t ) .X0X9XrXrXrXrXrXrXrXrXrXrXrXrXrXrXrXrXrXrX",
"rXrXrXrXrXrXrXrXrXrXrXrXrXrXrXrXrXrXrXpXpX@XB.! z i $ : % = < * + . O - # X o + 0 %.&XrXpXpXrXrXrXrXrXrXrXrXrXrXrXrXrXrXrXrXrXrX",
"rXrXrXrXrXrXrXrXrXrXrXrXrXrXrXrXrXrXW.y.~.pXrX5X).2. .b 6 3 i j w . p S n f m J &.].pX*XB.A.8XrXrXrXrXrXrXrXrXrXrXrXrXrXrXrXrXrX",
"rXrXrXrXrXrXrXrXrXrXrXrXrXrXrXrXrXpXn.Y J.pXrX0X0X2X0X.XN.s.z.P 5 9 u ] U.P.`.<XrXrXpX].o.w.3XrXrXrXrXrXrXrXrXrXrXrXrXrXrXrXrXrX",
"rXrXrXrXrXrXrXrXrXrXrXrXrXrXrXrXrXrXV.#.W.pXrXrXrX9X1XA.j.5.T N 1 y < q H _ a.$XpXyXpX].Q 8.0XrXrXrXrXrXrXrXrXrXrXrXrXrXrXrXrXrX",
"rXrXrXrXrXrXrXrXrXrXrXrXrXrXrXrXrXrXd.&.H.pXrX0XrX0X!.r.c r 8 h 4 y X O 2 b S.;X@X@X6X Xo.f.7XrXrXrXrXrXrXrXrXrXrXrXrXrXrXrXrXrX",
"rXrXrXrXrXrXrXrXrXrXrXrXrXrXrXrXrXrXv. .R.*Xl.c.K.0XA.U l d M B Z a - > : k C.b.V A D.oX3.r.7XrXrXrXrXrXrXrXrXrXrXrXrXrXrXrXrXrX",
"rXrXrXrXrXrXrXrXtXtXrXrXrXrXrXrXrXiXm.! K.Q.I ~ O.rXpXR.x e E =.+.F 7 > ; C C.a.v m C.|.#.9.3XrXrXrXrXrXrXrXrXrXrXrXrXrXrXrXrXrX",
"rXrXrXrXrXrXrXrXrXrXrXrXrXrXrXrXrXrXE.r.H.oXK V 8.pX$X( t + 9 ' 6.&   + s Q {.L.K U ^.}.<.f.3XrXrXrXrXrXrXrXrXrXrXrXrXrXrXrXrXrX",
"rXrXrXrXrXrXrXrXrXrXrXrXrXrXrXrXrXrX=X/.#XrXY.h.&XpX<Xg.x L t R -.+   + ~ (.*X;X`.].1X].} e.6XrXrXrXrXrXrXrXrXrXrXrXrXrXrXrXrXrX",
"rXrXrXrXrXrXrXrXrXrXrXrXrXrXrXrXrXrXk.,.Y.pXpXpXrXrX_...t.W : ` 4.g 0 | N.:X7XrXpXpXpX+Xr.S.0XrXrXrXrXrXrXrXrXrXrXrXrXrXrXrXrXrX",
"rXrXtXrXrXrXrXrXrXrXrXrXrXrXrXrXrXpXS.O.S.pXrXrXrXrX7XoX,.G >.*.I.) 0.}.}.3X7XrXrXrXrX}.c.$XrXrXrXrXrXrXrXrXrXrXrXrXrXrXrXrXrXrX",
"rXrXtXrXrXtXtXrXrXrXrXrXrXrXrXrXrXpX!.~ f.7XrXrXrXrX7X<XY.oX].G.[.`.<X@X*X7X7XrXrXrXpXN.Y W.pXrXrXrXrXrXrXrXrXrXrXrXrXrXrXrXrXrX",
"rXrXrXrXrXrXrXrXrXrXrXrXrXrXrXrXrXrX:Xd.:.'.pXrXrXrXrXrX7X9XrX4X%X7X3X$X=X7X0XrXrXrX2X7.$.`.pXrXrXrXrXrXrXrXrXrXrXrXrXrXrXrXrXrX",
"rXrXrXrXrXrXrXrXrXrXrXrXrXrXrXrXrXrXrXR.[ b.rXrXrXrXrXrXrXrXrX5XOX2X7X*X7X0XeXrXrXpXF.&.a.-XrXrXrXrXrXrXrXrXrXrXrXrXrXrXrXrXrXrX",
"rXrXrXrXrXrXrXrXrXrXrXrXrXrXrXrXrXrXiX X%. .!.pXrXrXrXrXrXrXrX5X&X0X2X2XeXeXrXrXpX+X,.9.`.pXrXrXrXrXrXrXrXrXrXrXrXrXrXrXrXrXrXrX",
"rXrXrXtXrXrXrXrXrXrXrXrXrXrXrXrXrXrXrXpXS.i.1.^.pXrXrXrXrXrXrX5X1XrX,X3XrXrXrXrX&Xu.~ r.7XrXrXrXrXrXrXrXrXrXrXrXrXrXrXrXrXrXrXrX",
"rXrXrXtXrXrXrXrXrXrXrXrXrXrXrXrXrXrXrXrX8XY./ O.T.pXpXrXwX0XrX0X5X3X7XrXrXiXrX<Xr.D q.;XtXdXrXrXrXrXrXrXrXrXrXrXrXrXrXtXdXrXrXrX",
"rXrXrXrXrXrXrXrXrXrXrXrXrXrXrXrXrXrXrXrXrX7XM./ R.0XoXrXpXrXrX7X>X7XpXpX0X@Xm.d.).u..XiXrXrXrXrXrXrXrXrXrXrXrXrXrXrXrXrXrXrXrXrX",
"rXrXrXrXrXrXrXrXrXrXrXrXrXrXrXrXrXrXrXrXrXrX2XY.|.Z.{ p.L._.3X@XXX|.}.`.Y.! ) d.<XpXrXrXrXrXrXrXrXrXrXrXrXrXrXrXrXrXrXrXrXrXrXrX",
"rXrXrXrXrXrXrXrXrXrXrXrXrXrXrXrXrXrXrXrXrXrXrX0X1Xl.X.K ^ @.L...;.( U ) ^.( 0.*X0XrXrXrXrXrXrXrXrXrXrXrXrXrXrXrXrXrXrXrXrXrXrXrX",
"rXrXrXrXrXrXrXrXrXrXrXrXsXrXrXrXrXrXrXrXrXrXrXrXrXrX&XY.x.x.E.^ O.O.$.q.3X*X0XrXrXrXrXrXrXrXrXrXrXrXrXrXrXrXrXrXrXrXrXrXrXrXrXrX",
"rXrXrXrXrXrXrXrXrXrXrXrXrXrXrXrXrXrXrXrXrXrXrXrXrXrXrXpX0X7X7X+XoX+X7X0XrXrXrXrXrXrXrXrXrXrXrXrXrXrXrXrXrXtXrXrXrXrXrXrXrXrXrXrX",
"rXrXrXrXrXrXrXrXrXrXrXrXrXrXrXrXrXrXrXrXrXrXrXrXrXrXrXrXrXrXrXiXpXrXrXrXrXrXrXrXtXrXrXrXrXrXrXrXrXrXrXrXrXtXtXrXrXrXrXrXrXrXrXrX",
"rXrXrXrXrXrXrXrXrXtXtXrXrXrXrXrXrXrXrXrXtXrXrXrXrXrXrXrXrXrXrXrXrXrXrXrXrXrXrXrXrXrXrXrXrXrXrXrXrXrXrXrXrXrXrXrXrXrXrXrXrXrXrXrX",
"rXrXrXrXrXrXrXrXrXrXrXrXrXrXrXrXrXrXrXrXrXrXrXrXrXrXrXrXrXrXrXrXrXrXrXrXrXrXrXrXrXrXrXrXrXrXrXrXrXrXrXrXrXrXrXrXrXrXrXrXrXrXrXrX",
"rXrXrXrXrXrXrXrXrXrXrXrXrXrXrXrXrXrXrXrXrXrXrXrXrXrXrXrXrXrXrXrXrXrXrXrXrXrXrXrXrXrXrXrXrXrXrXrXrXrXrXrXrXrXrXrXrXrXrXrXrXrXdXrX",
"rXrXrXrXrXrXrXrXrXrXrXrXrXrXrXrXrXrXrXrXrXrXrXrXrXrXrXrXrXrXtXtXrXrXrXrXrXrXrXrXrXrXrXrXrXrXrXrXrXrXrXrXrXrXrXrXrXrXrXrXrXrXrXrX",
"dXrXrXrXrXrXrXrXrXrXrXrXrXrXrXrXrXrXrXrXrXrXrXrXrXrXrXrXrXrXrXrXrXrXrXrXrXrXrXrXrXrXrXrXrXrXrXtXrXrXrXrXrXrXrXrXrXrXrXrXrXrXrXrX",
"rXrXrXrXrXrXrXrXrXrXrXrXrXrXtXtXrXrXrXrXrXrXrXrXrXrXrXrXrXrXrXrXrXrXrXrXrXrXrXrXrXrXrXrXrXrXtXuXrXrXrXrXrXrXrXrXrXrXrXrXrXrXrXrX",
"rXrXrXrXrXrXrXrXrXrXrXrXrXrXrXrXrXrXrXrXrXrXrXrXrXrXrXrXrXrXrXrXrXrXrXrXrXrXrXrXrXrXrXrXrXrXrXrXrXrXrXrXrXrXrXrXrXrXrXrXrXrXrXrX",
"rXrXrXrXrXrXrXrXrXrXrXrXrXrXrXrXrXrXrXrXrXrXrXrXrXrXrXrXrXrXrXrXrXrXrXrXrXrXrXtXrXrXrXrXrXrXrXrXrXrXrXrXrXrXrXrXrXrXrXrXrXrXrXrX",
"fXfXfXfXfXfXfXfXfXfXfXfXfXfXfXfXfXfXfXfXfXfXfXfXfXfXfXfXfXfXfXfXfXfXfXfXfXfXfXfXfXfXfXfXfXfXfXfXfXfXfXfXfXfXfXfXfXfXfXfXfXfXfXfX",
"fXfXfXfXfXfXfXfXfXfXfXfXfXfXfXfXfXfXfXfXfXfXfXfXfXfXfXfXfXfXfXfXfXfXfXfXfXfXfXfXfXfXfXfXfXfXfXfXfXfXfXfXfXfXfXfXfXfXfXfXfXfXfXfX",
"fXfXfXfXfXfXfXfXfXfXfXfXfXfXfXfXfXfXfXfXfXfXfXfXfXfXfXfXfXfXfXfXfXfXfXfXfXfXfXfXfXfXfXfXfXfXfXfXfXfXfXfXfXfXfXfXfXfXfXfXfXfXfXfX",
"fXfXfXfXfXfXfXfXfXfXfXfXfXfXfXfXfXfXfXfXfXfXfXfXfXfXfXfXfXfXfXfXfXfXfXfXfXfXfXfXfXfXfXfXfXfXfXfXfXfXfXfXfXfXfXfXfXfXfXfXfXfXfXfX",
"fXfXfXfXfXfXfXfXfXfXfXfXfXfXfXfXfXfXfXfXfXfXfXfXfXfXfXfXfXfXfXfXfXfXfXfXfXfXfXfXfXfXfXfXfXfXfXfXfXfXfXfXfXfXfXfXfXfXfXfXfXfXfXfX",
"fXfXfXfXfXfXfXfXfXfXfXfXfXfXfXfXfXfXfXfXfXfXfXfXfXfXfXfXfXfXfXfXfXfXfXfXfXfXfXfXfXfXfXfXfXfXfXfXfXfXfXfXfXfXfXfXfXfXfXfXfXfXfXfX",
"fXfXfXfXfXfXfXfXfXfXfXfXfXfXfXfXfXfXfXfXfXfXfXfXfXfXfXfXfXfXfXfXfXfXfXfXfXfXfXfXfXfXfXfXfXfXfXfXfXfXfXfXfXfXfXfXfXfXfXfXfXfXfXfX",
"fXfXfXfXfXfXfXfXfXfXfXfXfXfXfXfXfXfXfXfXfXfXfXfXfXfXfXfXfXfXfXfXfXfXfXfXfXfXfXfXfXfXfXfXfXfXfXfXfXfXfXfXfXfXfXfXfXfXfXfXfXfXfXfX",
"fXfXfXfXfXfXfXfXfXfXfXfXfXfXfXfXfXfXfXfXfXfXfXfXfXfXfXfXfXfXfXfXfXfXfXfXfXfXfXfXfXfXfXfXfXfXfXfXfXfXfXfXfXfXfXfXfXfXfXfXfXfXfXfX",
"fXfXfXfXfXfXfXfXfXfXfXfXfXfXfXfXfXfXfXfXfXfXfXfXfXfXfXfXfXfXfXfXfXfXfXfXfXfXfXfXfXfXfXfXfXfXfXfXfXfXfXfXfXfXfXfXfXfXfXfXfXfXfXfX",
"fXfXfXfXfXfXfXfXfXfXfXfXfXfXfXfXfXfXfXfXfXfXfXfXfXfXfXfXfXfXfXfXfXfXfXfXfXfXfXfXfXfXfXfXfXfXfXfXfXfXfXfXfXfXfXfXfXfXfXfXfXfXfXfX",
"fXfXfXfXfXfXfXfXfXfXfXfXfXfXfXfXfXfXfXfXfXfXfXfXfXfXfXfXfXfXfXfXfXfXfXfXfXfXfXfXfXfXfXfXfXfXfXfXfXfXfXfXfXfXfXfXfXfXfXfXfXfXfXfX",
"fXfXfXfXfXfXfXfXfXfXfXfXfXfXfXfXfXfXfXfXfXfXfXfXfXfXfXfXfXfXfXfXfXfXfXfXfXfXfXfXfXfXfXfXfXfXfXfXfXfXfXfXfXfXfXfXfXfXfXfXfXfXfXfX",
"fXfXfXfXfXfXfXfXfXfXfXfXfXfXfXfXfXfXfXfXfXfXfXfXfXfXfXfXfXfXfXfXfXfXfXfXfXfXfXfXfXfXfXfXfXfXfXfXfXfXfXfXfXfXfXfXfXfXfXfXfXfXfXfX",
"fXfXfXfXfXfXfXfXfXfXfXfXfXfXfXfXfXfXfXfXfXfXfXfXfXfXfXfXfXfXfXfXfXfXfXfXfXfXfXfXfXfXfXfXfXfXfXfXfXfXfXfXfXfXfXfXfXfXfXfXfXfXfXfX",
"fXfXfXfXfXfXfXfXfXfXfXfXfXfXfXfXfXfXfXfXfXfXfXfXfXfXfXfXfXfXfXfXfXfXfXfXfXfXfXfXfXfXfXfXfXfXfXfXfXfXfXfXfXfXfXfXfXfXfXfXfXfXfXfX",
"fXfXfXfXfXfXfXfXfXfXfXfXfXfXfXfXfXfXfXfXfXfXfXfXfXfXfXfXfXfXfXfXfXfXfXfXfXfXfXfXfXfXfXfXfXfXfXfXfXfXfXfXfXfXfXfXfXfXfXfXfXfXfXfX",
"fXfXfXfXfXfXfXfXfXfXfXfXfXfXfXfXfXfXfXfXfXfXfXfXfXfXfXfXfXfXfXfXfXfXfXfXfXfXfXfXfXfXfXfXfXfXfXfXfXfXfXfXfXfXfXfXfXfXfXfXfXfXfXfX",
"fXfXfXfXfXfXfXfXfXfXfXfXfXfXfXfXfXfXfXfXfXfXfXfXfXfXfXfXfXfXfXfXfXfXfXfXfXfXfXfXfXfXfXfXfXfXfXfXfXfXfXfXfXfXfXfXfXfXfXfXfXfXfXfX",
"fXfXfXfXfXfXfXfXfXfXfXfXfXfXfXfXfXfXfXfXfXfXfXfXfXfXfXfXfXfXfXfXfXfXfXfXfXfXfXfXfXfXfXfXfXfXfXfXfXfXfXfXfXfXfXfXfXfXfXfXfXfXfXfX",
"fXfXfXfXfXfXfXfXfXfXfXfXfXfXfXfXfXfXfXfXfXfXfXfXfXfXfXfXfXfXfXfXfXfXfXfXfXfXfXfXfXfXfXfXfXfXfXfXfXfXfXfXfXfXfXfXfXfXfXfXfXfXfXfX",
"fXfXfXfXfXfXfXfXfXfXfXfXfXfXfXfXfXfXfXfXfXfXfXfXfXfXfXfXfXfXfXfXfXfXfXfXfXfXfXfXfXfXfXfXfXfXfXfXfXfXfXfXfXfXfXfXfXfXfXfXfXfXfXfX",
"fXfXfXfXfXfXfXfXfXfXfXfXfXfXfXfXfXfXfXfXfXfXfXfXfXfXfXfXfXfXfXfXfXfXfXfXfXfXfXfXfXfXfXfXfXfXfXfXfXfXfXfXfXfXfXfXfXfXfXfXfXfXfXfX",
"fXfXfXfXfXfXfXfXfXfXfXfXfXfXfXfXfXfXfXfXfXfXfXfXfXfXfXfXfXfXfXfXfXfXfXfXfXfXfXfXfXfXfXfXfXfXfXfXfXfXfXfXfXfXfXfXfXfXfXfXfXfXfXfX",
"fXfXfXfXfXfXfXfXfXfXfXfXfXfXfXfXfXfXfXfXfXfXfXfXfXfXfXfXfXfXfXfXfXfXfXfXfXfXfXfXfXfXfXfXfXfXfXfXfXfXfXfXfXfXfXfXfXfXfXfXfXfXfXfX",
"fXfXfXfXfXfXfXfXfXfXfXfXfXfXfXfXfXfXfXfXfXfXfXfXfXfXfXfXfXfXfXfXfXfXfXfXfXfXfXfXfXfXfXfXfXfXfXfXfXfXfXfXfXfXfXfXfXfXfXfXfXfXfXfX",
"fXfXfXfXfXfXfXfXfXfXfXfXfXfXfXfXfXfXfXfXfXfXfXfXfXfXfXfXfXfXfXfXfXfXfXfXfXfXfXfXfXfXfXfXfXfXfXfXfXfXfXfXfXfXfXfXfXfXfXfXfXfXfXfX",
"fXfXfXfXfXfXfXfXfXfXfXfXfXfXfXfXfXfXfXfXfXfXfXfXfXfXfXfXfXfXfXfXfXfXfXfXfXfXfXfXfXfXfXfXfXfXfXfXfXfXfXfXfXfXfXfXfXfXfXfXfXfXfXfX",
"fXfXfXfXfXfXfXfXfXfXfXfXfXfXfXfXfXfXfXfXfXfXfXfXfXfXfXfXfXfXfXfXfXfXfXfXfXfXfXfXfXfXfXfXfXfXfXfXfXfXfXfXfXfXfXfXfXfXfXfXfXfXfXfX",
"fXfXfXfXfXfXfXfXfXfXfXfXfXfXfXfXfXfXfXfXfXfXfXfXfXfXfXfXfXfXfXfXfXfXfXfXfXfXfXfXfXfXfXfXfXfXfXfXfXfXfXfXfXfXfXfXfXfXfXfXfXfXfXfX",
"fXfXfXfXfXfXfXfXfXfXfXfXfXfXfXfXfXfXfXfXfXfXfXfXfXfXfXfXfXfXfXfXfXfXfXfXfXfXfXfXfXfXfXfXfXfXfXfXfXfXfXfXfXfXfXfXfXfXfXfXfXfXfXfX",
"fXfXfXfXfXfXfXfXfXfXfXfXfXfXfXfXfXfXfXfXfXfXfXfXfXfXfXfXfXfXfXfXfXfXfXfXfXfXfXfXfXfXfXfXfXfXfXfXfXfXfXfXfXfXfXfXfXfXfXfXfXfXfXfX"
};
