/* XPM */
static char *result[] = {
/* columns rows colors chars-per-pixel */
"64 64 96 2 ",
"   c #040406",
".  c #080707",
"X  c #060708",
"o  c #070809",
"O  c #0A0B0C",
"+  c #13100F",
"@  c #0E0E10",
"#  c #0F1012",
"$  c #131314",
"%  c #1A1715",
"&  c #1C1916",
"*  c #161718",
"=  c #171819",
"-  c #1B1B1C",
";  c #221E1B",
":  c #23211F",
">  c #29241F",
",  c #31281E",
"<  c #1D1F20",
"1  c #1E2021",
"2  c #232425",
"3  c #2A2624",
"4  c #2D2A26",
"5  c #252729",
"6  c #26282A",
"7  c #2A2B2B",
"8  c #352D25",
"9  c #332F2A",
"0  c #3F3226",
"q  c #35322D",
"w  c #3F372E",
"e  c #2D2F30",
"r  c #2E3031",
"t  c #333535",
"y  c #393531",
"u  c #373837",
"i  c #3C3934",
"p  c #343738",
"a  c #36393A",
"s  c #3A3D3D",
"d  c #423527",
"f  c #42382C",
"g  c #413B33",
"h  c #413F3B",
"j  c #3F403E",
"k  c #474037",
"l  c #4B4136",
"z  c #45423C",
"x  c #3C3F40",
"c  c #3E4142",
"v  c #424545",
"b  c #4A4741",
"n  c #474847",
"m  c #4C4A45",
"M  c #444748",
"N  c #45494A",
"B  c #494D4D",
"V  c #514A41",
"C  c #584F44",
"Z  c #5B5145",
"A  c #51514E",
"S  c #5B544B",
"D  c #4B4F50",
"F  c #4E5252",
"G  c #525555",
"H  c #5A5751",
"J  c #575856",
"K  c #5B5A54",
"L  c #535758",
"P  c #555A5A",
"I  c #5A5E5D",
"U  c #605547",
"Y  c #60594F",
"T  c #635E54",
"R  c #695F51",
"E  c #5D605F",
"W  c #696255",
"Q  c #62635F",
"!  c #6A645A",
"~  c #5A5F60",
"^  c #5D6263",
"/  c #626665",
"(  c #686660",
")  c #666966",
"_  c #6A6A65",
"`  c #656A6A",
"'  c #696E6E",
"]  c #736E63",
"[  c #6C706E",
"{  c #7A7062",
"}  c #73726C",
"|  c #7B7569",
" . c #6E7474",
".. c #717573",
"X. c #767873",
"o. c None",
/* pixels */
" . . . . . . ... . . . . . . . . . . . . . . . . . . . . . . . . . . . . . . . . . . . . . . . . . . . . . . . . . . . . . . . .",
" . . . . . . . . . . . . . . . . . . . . . . . . . . . . .' P P P ^  . . . . . . . . . . . . . . . . . . . . . . . . . . . . . .",
" . . . . . . . . . . . . . . . . . . . . . . . . . ... . . .` ~ ~ ^  . .^  . . . . . . . . . . . . . . . . . . . . . . . . . . .",
" . . . . . . . . . . . . . . . . . . . . . ... .I I ^ P ~ L P L ^ F F F D L L  . . ... . . . . . . . . . . . . . ... . . . . . .",
" . . . . . . . . . . . . . . . . . . . . ...} } a t c t p c x a P 7 p r p c a `  . .X.'  . . . ... . . . . . . . . . . . . . . .",
" . . . . . . . . . . . . . . . . . ..._  ._ T ..x 6 p p r P ~ a F a F c F N L '  . ...D F  . . . . . . . . . . . . . . . . . . .",
" . . . . . . . . . . . . . . . . . .' K [ m R ..x 2 p p r P N 6 c c P M ` ~ x ^  . .X.b r /  . . . . . . . . . . . . . . . . . .",
" . . . . . . . . . . . . . . . . ...K A J w }  .a 5 a p r P 7 r P c L c ^ M p ^  . .X.K $ F / [  . . . . . . . . . . . ... . . .",
" . . . . . . . . . . . . . . . .! / z H s k  . .c r p p p F r p P c P M P c p ^  . . .J $ u ^ G  .'  . . . . . . . . . . . . . .",
" . . . . . . . . . . . . .X...` Y G 5 G 2 T ` ^ F N a c D c c a N N F N F B M  .` `  .J $ 4 K s ` I  . . . . . . . . . . . . . .",
" . . . . . . . . . . ... .| ( G m A 3 h & ( c ( ^ p p p c F a c a r c c a P a ' / D  .J + 1 T 6 ^ b '  . . . . . . . . . . . . .",
" . . . . . . . . . . . . .] E L m Z 8 8 ; S u  .^ p p p c D c F M M N ~ a F a  .[ j _ W $ u W 4 E q ` .. . . . . . . . . . . . .",
" . . . . . . . . . . . . .Q v P q Z d d & k s [ ^ a p r p c B L B D F  .p c a  .} y K Z O V f m z 7 '  . . . . . . . . . . . . .",
" . . . . . . . . . . . . .` 2 s = Z 3 , & f i  .^ p p p j F B L B B c ^ p L a  .( 2 S > = 8 2 Z + c '  . . . . . . . . . . . . .",
" . . . . . . . . . . ...Q _ u $ + 4 & % + 8 2 ( ^ p r r c G B L B L c x p P x [ j ; 8 O % < u $ - Q G L  . . . . . ... . . . . .",
".. . . . . . . . . . ...I l Z O o + $     % $ i ( F F I ^ ` / ` ^ ' P P P ^ P W = . . O - 2 O - z i 6 )  . . . . . . . . . . . .",
" . . . . . . ... . . . .' > 8 %   O o .       o m .. . .' ( ) _ [ .. ... . .J &     o O o @ = - + 6 c H  . . . . . . . . . . . .",
" . . . . . . . . . . . . .n @ O o   o   o O o o : ! .. .^ v t t 4 Y .. . .( 4 @ $ O O o o O O - 2 1 4 _ .. . . . . . . . . . . .",
" . . . . . . . . . . . . .E 6 O o O o   X O $ $ $ 4 ! X.' B 2 O $ q ]  .} q * * $ O   o @ $ - $ O - H  . . . . . . . . . . . . .",
" . . . . . . . . . . . . .' z $ O @ o   o $ $ = = - q U } X.D $ $ 6 R { l 2 * $ $ O   .     O = 6 j (  . . . . . . ... . . . . .",
" . . . . . . . . . . . . . ./ r * * # O O o $ * 1 - 4 2 g l 1 O o - i 8 2 1 $ $ $ O X X O O $ = t (  . . . . . . . . . . . . . .",
" . . . . . . . . . . . . . . .^ c a 1 O X X X # # - * - e -   @ $ $ - < * $ # @ O o O o # = p L [  . . . . . . . . . . . . . . .",
" . . . . . . . . . . . . . . .../ z - # @ o X   O $ = + - 5 * # o   $ $ @ * # # O X O O $ e F  . . . . . . . . . . . . . . . . .",
" . . . . . . . . . . . . . . . ...` B < O # X X o # = - = 2 $   o O * * * @ * $ O O O 5 L '  . . . . . . . . . . . . . . . . . .",
" . . . . . . . . . . . . . . . . . .` G F s * O O X @ = $ @     o o @ * O O O @ o @ 6 ^  . . . . . . . . . . . . . . . . . . . .",
" . . . . . . . . . . . . . . . . . ..... ./ D 5 $ # X @ O O O o X o X O O X X X # x ^  . . . . . . ... . . . . . . . . . . . . .",
" . . . ... . . . . . . . . . . . . .` I `  . .' ~ a e * O O $ - $   $ ; = # = < p ^  . .^ ^  . . . . . . . . . . . . . . . . . .",
" . . . . . . . . . . . . . . . . . .G e P  . . . .' ' ^ M c v e $ $ - m J G ~ `  . . .^ c D  . . . . . . . . . . . . . . . . . .",
" . . . . . . . . . . . . . . . . . .I M ^  . . . . . .^ ^ J n 4 @ * # - z B L '  . . .` x D  . . . . . . . . . . . . . . . . . .",
" . . . . . . . . . . . . . . ... . .F v ~  . . . . .` F 2 - $ - @ * o o @ 2 F  . . . .` x D  . . . . . . . . . . . . . . . . . .",
" . . . . . . . . . . . . . . . . . .L M ^  .~ ~ ^  .F r 1 - 1 2 2 - X O @ - ~ P p p ^ ` c L  . . . . . . . ... . . . . . . . . .",
" . . . . . . . . . . . . . . . . . .G p ^ ^ t x M  . .~ 2 = u v s 7 $ @ O 5 L D 1 1 P ` c N  . . ... . . . . . . . . . . . . . .",
" . . . . . . . . . . . . . . . . . .~ B ~ ` r 6 c  . .x < o < c B $   O * e ` P 6 e ^ ` B F '  . . . . . . . . . . . . . . . . .",
" . . . . . . . . . . . . . . . . . .' ^ `  .L c `  .' D < 1 $ p m     X r ~ ' ` ~ ~ ` ` c D  . . . . . . . . . . . . . . . . . .",
" . . . . . . . . . . . . . . . . . .~ c ~  . . . . .` x x x O x n * @ r F '  . . . . .` c F  . . . . . . . . . . . . . . . . . .",
" . . . . . . . . . . . . . . . . . .~ N ~  . . . . . .^ D < x c P u s / ` '  . . . . .` ^ `  . . . . . . . . . . . . . . . . . .",
".. . . . . . . . . . . . . . . . . .^ x F  . . . . . . .F ~ ` F ` ^ ' ` `  .'  . . . .~ p ~  . . . . . . . . . . . . . . . . . .",
" . . . . . . . . . . . . . . . . . .' N N `  . . . . . . . . . .` '  .' '  . . . . . .D c `  . . . . . . . . . . . . . . . . . .",
" . . . . . . . . . . . . . . . . . . .~ c ~  . . . . . . . . .` `  .' ' '  . . . . .^ c c '  . . . . . . . . . . . . . . . . . .",
" . . . . . . . . . . . . . . . . . . .^ x c `  . . . . . . . . .`  . .'  . . . . . .F N `  . . . . . . . . . . . . . . . . . . .",
" . . . . . . . . . . . . . . . . . . . .~ c F `  . . . . . . .' '  .'  . . . . . .L x N  . . . . . . . . . . . . . . . . . . . .",
" . . . . . . . . . . . . . . . . . . . .` L x N `  . . . . . . . .' '  . . . . .F r c `  . . . . . . . . . . . . . . . . . . . .",
" . . . . . ... . . . . . . . . . . . . . .' D x ~  . . . . . . .'  . . . . .^ P ^ c ^  . . . . . . . . . . . . . . . . . . . . .",
" . . . . . . . . . . . . . . . . . . . . . .` F ` ^ c P `  . .' ' '  .' ^ c x D  . . . . . . . . . . . . . . . . . . . . . . . .",
" . . . . . . . . . . . . . . . . . . . . . . . .' D x e x N ~ D D c x c ^ r c `  . . . . . . . . . . . . . . . . . . . . . . . .",
" . . . . . . . . . . . . . . . . . . . . . . . . . .` P D D ~ x c x x c  .^ '  . . . . . . . . . . . . . . . . . . . . . . . . .",
" . . . . . . . . . . . . . . . . . . . . . . . . . . . . .`  . .^ ^  . . . . . . . . . . . . . . . . . . . . . . . . . . . . . .",
" . . . . ... . . . . . . . . . . . . . . . . . . . . . . . ..... . . . . . . . . . . . . . . . . . . . . . . . . . . . . . . . .",
" . . . . . . . . . . . . . . . . . . . . . . . . . . . . . . . . . ... . . . . . . . . . . ... . . . . . . . . . . . . . . . . .",
" . . . . . . . . . . . . . . . . . . . . . . . . . . . . . . . . . . . . . . . . . . . . . . . ... . . . . . . . . . . . . . . .",
" . . . . . . . . ... . . ... . . . . . . . . . . . . . . . . . . . . . . . . . . . . . . . . . . . . . . . . . . . . . . ... . .",
" . . . . . . . . . . . . . . . . . . . . . . . . . . . . . . . . . ..... . . . . . . . . . . . . . . . . . . . . . . . . . . . .",
" . . . . . . . . . . . . . . . ... . . . . . . . . . . . . . . . . . . . . . . . . . . . . . . . . . . . . . . . . . . . . . . .",
" . . . . . . . . . . . . . . . . . . . . . . ... . . . . . . . . . . . . . . . . . . . . . . . . . . . . . . . . . . . . . . . .",
" . . . . . . . . . . . . . . . . . . . . . . . . . . . . . . . . . . . . . . . . . . . . . . . . . . . . ....... . . . . . . . .",
".. . . . ... . . . . . . . . . . . . . . . . ... . . . . . . . . . . . . . . . . . . . . . . . . . . . . . . . . . . . . . . . .",
"o.o.o.o.o.o.o.o.o.o.o.o.o.o.o.o.o.o.o.o.o.o.o.o.o.o.o.o.o.o.o.o.o.o.o.o.o.o.o.o.o.o.o.o.o.o.o.o.o.o.o.o.o.o.o.o.o.o.o.o.o.o.o.o.",
"o.o.o.o.o.o.o.o.o.o.o.o.o.o.o.o.o.o.o.o.o.o.o.o.o.o.o.o.o.o.o.o.o.o.o.o.o.o.o.o.o.o.o.o.o.o.o.o.o.o.o.o.o.o.o.o.o.o.o.o.o.o.o.o.",
"o.o.o.o.o.o.o.o.o.o.o.o.o.o.o.o.o.o.o.o.o.o.o.o.o.o.o.o.o.o.o.o.o.o.o.o.o.o.o.o.o.o.o.o.o.o.o.o.o.o.o.o.o.o.o.o.o.o.o.o.o.o.o.o.",
"o.o.o.o.o.o.o.o.o.o.o.o.o.o.o.o.o.o.o.o.o.o.o.o.o.o.o.o.o.o.o.o.o.o.o.o.o.o.o.o.o.o.o.o.o.o.o.o.o.o.o.o.o.o.o.o.o.o.o.o.o.o.o.o.",
"o.o.o.o.o.o.o.o.o.o.o.o.o.o.o.o.o.o.o.o.o.o.o.o.o.o.o.o.o.o.o.o.o.o.o.o.o.o.o.o.o.o.o.o.o.o.o.o.o.o.o.o.o.o.o.o.o.o.o.o.o.o.o.o.",
"o.o.o.o.o.o.o.o.o.o.o.o.o.o.o.o.o.o.o.o.o.o.o.o.o.o.o.o.o.o.o.o.o.o.o.o.o.o.o.o.o.o.o.o.o.o.o.o.o.o.o.o.o.o.o.o.o.o.o.o.o.o.o.o.",
"o.o.o.o.o.o.o.o.o.o.o.o.o.o.o.o.o.o.o.o.o.o.o.o.o.o.o.o.o.o.o.o.o.o.o.o.o.o.o.o.o.o.o.o.o.o.o.o.o.o.o.o.o.o.o.o.o.o.o.o.o.o.o.o.",
"o.o.o.o.o.o.o.o.o.o.o.o.o.o.o.o.o.o.o.o.o.o.o.o.o.o.o.o.o.o.o.o.o.o.o.o.o.o.o.o.o.o.o.o.o.o.o.o.o.o.o.o.o.o.o.o.o.o.o.o.o.o.o.o."
};
