/* XPM */
static char *result[] = {
/* columns rows colors chars-per-pixel */
"64 64 236 2 ",
"   c #08131E",
".  c #1A161D",
"X  c #291A1E",
"o  c #090F21",
"O  c #071521",
"+  c #0B1625",
"@  c #0A1826",
"#  c #0D1629",
"$  c #0C1A2C",
"%  c #121525",
"&  c #1B1824",
"*  c #12162A",
"=  c #1A1729",
"-  c #11192E",
";  c #1C192C",
":  c #0E1D32",
">  c #131D34",
",  c #1B1C34",
"<  c #151E39",
"1  c #1A1D3B",
"2  c #2C1C23",
"3  c #251828",
"4  c #241A2C",
"5  c #2A1B2A",
"6  c #381D29",
"7  c #221C32",
"8  c #2A1D35",
"9  c #231D3B",
"0  c #2C1F3A",
"q  c #331E34",
"w  c #391E31",
"e  c #0F2035",
"r  c #0F223B",
"t  c #112136",
"y  c #14233B",
"u  c #1B233D",
"i  c #14283E",
"p  c #182A3E",
"a  c #2B212D",
"s  c #38222B",
"d  c #2B2237",
"f  c #22223B",
"g  c #3A2335",
"h  c #34223C",
"j  c #3B233B",
"k  c #411F2C",
"l  c #4C2425",
"z  c #462328",
"x  c #54292B",
"c  c #56292A",
"v  c #472739",
"b  c #582D38",
"n  c #5A323C",
"m  c #632E2E",
"M  c #75352C",
"N  c #652F30",
"B  c #673439",
"V  c #6B363C",
"C  c #753A34",
"Z  c #7C3B33",
"A  c #743B3C",
"S  c #7C3C3C",
"D  c #7E423A",
"F  c #1E1E40",
"G  c #152640",
"H  c #1B2542",
"J  c #152A42",
"K  c #1A2B45",
"L  c #182C48",
"P  c #1C2D4A",
"I  c #1C3348",
"U  c #1C324C",
"Y  c #1E3552",
"T  c #1E3B54",
"R  c #1F3D59",
"E  c #242A46",
"W  c #3C2642",
"Q  c #382946",
"!  c #23334D",
"~  c #23394F",
"^  c #3C324C",
"/  c #3E2E54",
"(  c #223553",
")  c #223B55",
"_  c #223D5A",
"`  c #2A3A58",
"'  c #3A3756",
"]  c #3E3C61",
"[  c #422641",
"{  c #442B44",
"}  c #4B2C43",
"|  c #432B4A",
" . c #4C2D4A",
".. c #532C44",
"X. c #572E48",
"o. c #48324C",
"O. c #5A3546",
"+. c #53324C",
"@. c #5B334C",
"#. c #453756",
"$. c #563954",
"%. c #683645",
"&. c #64344B",
"*. c #64394C",
"=. c #6B3B4C",
"-. c #783D45",
";. c #743C4D",
":. c #673B53",
">. c #733E50",
",. c #793E50",
"<. c #493E63",
"1. c #1F4057",
"2. c #244459",
"3. c #24435C",
"4. c #3E445D",
"5. c #254562",
"6. c #294461",
"7. c #264A64",
"8. c #294C65",
"9. c #274D69",
"0. c #2A4D6A",
"q. c #384766",
"w. c #275067",
"e. c #2A5265",
"r. c #2B536C",
"t. c #2D596D",
"y. c #35546C",
"u. c #394A74",
"i. c #2C5571",
"p. c #2D5A73",
"a. c #2F5D79",
"s. c #395675",
"d. c #315C75",
"f. c #325D79",
"g. c #356176",
"h. c #33637C",
"j. c #376979",
"k. c #35697E",
"l. c #46435B",
"z. c #544258",
"x. c #6E4049",
"c. c #7B4345",
"v. c #7B424D",
"b. c #7C4A49",
"n. c #674656",
"m. c #7C4151",
"M. c #764857",
"N. c #444666",
"B. c #4A5371",
"V. c #634F61",
"C. c #47647C",
"Z. c #55627C",
"A. c #823E2F",
"S. c #863E34",
"D. c #874539",
"F. c #8B453B",
"G. c #934738",
"H. c #9B4B3B",
"J. c #9D543F",
"K. c #A04F3D",
"L. c #A5563F",
"P. c #823E46",
"I. c #8A4A43",
"U. c #84444B",
"Y. c #884649",
"T. c #974D46",
"R. c #934D4B",
"E. c #9B5343",
"W. c #995546",
"Q. c #9D534C",
"!. c #844551",
"~. c #9F5550",
"^. c #A45C45",
"/. c #AA5C43",
"(. c #A55749",
"). c #A45850",
"_. c #AB6148",
"`. c #356581",
"'. c #366B83",
"]. c #396886",
"[. c #396D85",
"{. c #3A6E8A",
"}. c #377084",
"|. c #3B7286",
" X c #3B738B",
".X c #3E798D",
"XX c #3C7791",
"oX c #3E7B93",
"OX c #415C81",
"+X c #45778C",
"@X c #4E738D",
"#X c #437A93",
"$X c #3F8298",
"%X c #438295",
"&X c #43849B",
"*X c #458A9D",
"=X c #4B8A9C",
"-X c #58859E",
";X c #4F939F",
":X c #4689A3",
">X c #478CA2",
",X c #4A8EA3",
"<X c #538CA3",
"1X c #4791A5",
"2X c #4A92A4",
"3X c #4C95A9",
"4X c #4D9BAB",
"5X c #5797A8",
"6X c #4E9CB2",
"7X c #589EB2",
"8X c #619BAD",
"9X c #59A2AF",
"0X c #53A4B4",
"qX c #58A6B6",
"wX c #56ABBA",
"eX c #5CACBC",
"rX c #5AB2BE",
"tX c #65ABB8",
"yX c #68B1BE",
"uX c #5CB4C2",
"iX c #5CB7C6",
"pX c #5DB9C5",
"aX c #66B7C4",
"sX c #62BDCA",
"dX c #79B8C8",
"fX c #64C3CD",
"gX c #6BC4CF",
"hX c #70C1CC",
"jX c #66CAD2",
"kX c #68C8D4",
"lX c #6ACBD4",
"zX c #71CBD5",
"xX c #6BD3D6",
"cX c #6CD4D9",
"vX c #6DD8DA",
"bX c #80B5C6",
/* pixels */
"% + + + # + + * - > , > 1 E E ` q.C.@X<X<X8X7XyXaXaXdXdXdXdXbXdXbXbXbXbXbXbXdXdXsXaXtX5X&X[.y.6.( P F 1 - - - - - - # * # # o * ",
"O O + + + # : > > 1 < 1 1 F ( ` y.s.@X@X#X<X5X7XtXtXeXeXyXyXyXyXyXyXyXaXaXaXaXsXfXaXqX2X%X+Xd.8._ E H 1 < : > > < > * * - # o o ",
"+ # + # # : > < F > 1 F E ! ` u.d.].#X*X5X6XqXuXpXpXaXsXfXfXfXsXsXhXgXfXkXsXiXfXkXpXwX0X2X#X|.d.0._ ( E F F < F 1 < < < < - - o ",
"@ # # $ # > 1 1 F 1 F E ( 6.0.f.].#X:X6XuXuXsXsXjXlXlXlXlXcXlXcXcXcXcXlXkXkXsXkXfXpXrX0X4X:XoX`.i.0._ ( ( L F F F F 1 < < - * * ",
"# # # # : : < H H H P ( _ 0.i.]. X&X3XqXrXpXfXfXlXlXkXlXlXlXlXlXlXlXjXjXkXsXiXaXrXwXqX0X4X*X%Xk.`.0.5._ ( P H L G F F F < - # # ",
"$ $ : : < < P Y ( _ 6.0.i.`.'.#X*X1X6XuXuXsXfXfXjXjXjXfXcXcXxXxXcXxXjXjXkXkXfXiXfXrXqX0X0X3X*X$X].`.i.0.9._ _ R L L L L F < - : ",
": : < < u P Y _ _ 7.0.i.f.`. X&X*X4XwXrXpXfXjXjXjXjXvXcXcXvXvXxXvXvXxXvXxXcXxXjXfXfXrXrXwX0X2X*XXX[.h.a.i.9.9.5.R R ( P H < < r ",
": < < < G P Y _ _ 9.0.i.h.`. XoX*X1X4X0XwXrXrXpXfXfXfXiXjXjXjXjXfXjXfXfXfXfXfXsXfXpXwX0X0X4X1X%XXX{.`.f.i.9.5._ _ 5.( P L < < r ",
"< < < H K P ( T 0.i.i.p.f.].+XXX#X&X>X4X4X0XwXwXwXqX0X9XqXqXqXqXqX9X0XwX9XeXeXwXwXwX0X0X0X4X2X*X$X.X}.k.h.p.9.r.9._ _ Y P G r r ",
": < H K P Y ) ) 6.6.0.i.f.f.k.[.|. XoX&X*X*X*X*X;X9X9XtXtXtXyX8X5XtX8X9X5X5X;X=X2X,X1X3X3X2X*X$X X X'.k.a.p.9.r.5.5.R Y Y F F G ",
"r y H K K I _ _ 5.7.8.0.r.r.i.i.d.d.y.d.|.%X5XyXaXhXzXzXzXzXzXaXaXzXzXzXkXsXaXaXqX;X|.j.j.}. X.X X}.'.h.a.p.9.r.5.R R Y Y H F G ",
"r u K K K Y _ _ 3.3.7.8.e.0.r.r.t.e.g.+X9XeXtXyXeXtXuXyXeXrXyX7XqXsXfXfXiXaXaXuXeXuXuX7X|.e.d.h.k.j.a.g.p.r.7.7.5.5.R ( Y L r G ",
"r u J K K U ) _ 3.3.7.3.6.8.8.3.t.+X3X&X3X5X@XC.4.4.<X2X-X5X5X5X5XtXtXaX8XuX@Xy.q.C.2XqX2X3X+Xe.w.t.t.i.r.r.7.1.5._ _ Y Y L F F ",
"t G P P U ! ) ) _ _ 2.) 2.2.) q.+XoX X@XN.' ' #.#.^ C.#X5X7X7X8X<X5X8X8X<X@Xl.N.N.#.4.s.@X3X3X=Xt.1.7.7.9.9.7.3._ _ R R P L F L ",
"t u K P P I U ! ( ( ! I I ( y.s.OXB.' ^ Q #.N.N.z.n z.C.@X-X-X-X<X@X-X@X@Xz.n.V.V.N.#.o.' B.#X*X+Xh.1.T T T 2.T T ( Y P L F G L ",
"y H H K K P P P E K y u ! ] u.B.l.h ^ #.$.n.M.b.D.M +.Z.Z.Z.Z.Z.Z.Z.@X@Xz.v A.D.b.b.V.z.l.#.' y.OX].j.Y i G I U Y Y Y P L G F G ",
"y H P P P P E K u y , E ' N.#.#.Q { z.n.b.D D M x s 2 d Q Q Q Q h h Q h & . z m M D.D.I.M.z.#.^ <.B.OXp.U y p L U ( ( U P H H K ",
"y u E K K E G u < > f / #.#.o.#.o.x.b.D.C c X .       - , , , , p f t ; @       . s M D.D.c.n.z.#.^ u.u.u.L t i J P P P E K F G ",
"u u E K H H u > - 9 ^ / #.o.o.$.M.D.D m X       @   @ @ * > > , - > - @ O O O O     . l M D.F.M.z.{ ^ N.q.] H > y y K P P H H G ",
"t u u u u < > - 7 Q ^ o.#.| $.U.D.D s . O   @ O   @     @ @ @ @ @ @ @ O @ @ @ O         . m D.D.x.+.{ #.<.' ' > > > < K E H H H ",
"> u u u - - * - Q | | { { o.b.D.D X O @ @ @ O @ @ @ @ @ @ @ @ @ @ @ @ @ @ @ @ O     O @   . x D A *.$.o.^ #./ E - > : u F H u H ",
", 1 u u - * % 8 | | } | $.%.D D X   @ @ @ @ @ @ @ @ @ $ @ @ @ @ @ @ @ @ $ @ $ @ @ @ @ @ @ @ @ l Z c.:.$.^ ^ / Q , # - > 1 u u H ",
", u u - # # - W | | [ o.*.D C 2 O O @ $ $ @ @ @ @ $ $ @ $ $ $ : $ $ $ $ @ @ $ $ $ $ @ $ @ @ @   c D.-.+.} j o./ d $ - - < 1 u H ",
", 1 u * @ # 8 Q { { { @.D D.l @ @ @ $ @ $ @ @ @ @ $ : : r r r i i y i t e : $ $ $ $ : $ : $ @ @ . m D =.+.o.v ^ Q ; @ # * , 1 H ",
"; , - # # % h | | v o.=.D.Z . @ @ @ $ $ $ $ $ $ t i i p p I I I I I J p I i r : $ $ : : : $ $ $ @ s S.c.*.$.{ W Q 8 # # # > , f ",
"> < - @ @ * h Q [ { ..A D.l   @ @ $ $ : $ $ t i i p 1.7.T 1.1.1.1.1.T e.$X}.t.T y e : : e : : $ $ * c Z x.$.} W | 0 # # # > 1 H ",
", < - # # * W q q } n B D X $ $ $ $ $ : : y y J 1.k.*X9X|.t.t.t.t.t.e.9XuX0X4X$Xt.p e e : : : $ $ $ s S.c.@.}  .| 0 * # # > 1 f ",
", y - @ # = h W [ } O.Z D.& @ $ $ : $ e i p i 2.$X0XpXfXwXk.}.|.}.k.t.1XuXfXiXwX*XI t e : : : t : e 2 S.C O.+.+.| Q % # # > 1 f ",
", , - # # % W { | { O.S S.3 : : : : e p p I J 2.*XrXwX$Xp.k.k.k.k.k.p.7.w.$XwXuXd.p I p y e : e e e a G.M V X.+.+.W # # # > 1 9 ",
", u # + # % W | [ } %.C D.3 e : e $ i 2.t.3.3.K t.$X7.1.e.t.*X9X4X$Xj.}.h.7.w.t.U T U I p y $ : e e 2 T.M c.&.@.+.W % + # - 1 9 ",
", < # # + & j [ } ..O.C D ; i e $ t 2..X3X3X%X2.p 1.7.h.k.e.4XrXrX$Xa..X X}.t.1.7.2.2.7.7.p : $ : < s T.M U.=.@.+.j % + # > , 1 ",
"4 < $ # + % g v v ..;.F.G.a e : e p g.%X4X0X0Xj.e.t.k.t.t.$XrXpXrX0XXX`.}.}.}.j.p.}.oX1X:X2.u $ $ < s E.M S n v { d % # # > , f ",
"7 < # % + % #.n.O...v.D.E.a t $ u K 8.%X4X0X.Xw.k.'.e.t.3X0X1X,X2X4X;X$Xj.h.k.k.p.3X6X4X1X XJ > - t s K.G.R.B &.:. .% + # - , 8 ",
"4 t $ @ + = $.M.b B c.I.E.2 : - u P u I g.%Xe.p.k.t.2.;X2X$X2X0X0X2X$X$X$Xt.k.k.t.'.6X1X X2.u 1 * $ s K.S.T.B b M.o.% + # - , 7 ",
"7 < @ @ + ; $.M.x B R.Q.^.2 : t 2.8.3.) I p 2.h.h.1.j.rXwX;X.X%X$X*X;X4XwXh.p.j.a.2.h.3.p y K G - $ z H.S.~.B b M.$.= # % > 1 d ",
"7 > % + + 3 :.!.x V Y.E.^.2 t p  X%X*X2X'.2.t.d.t.U *XrX4Xe.|.wXrX*Xk.4XwX Xw.a.p.3.I U U Y Y K - # z H.A.R.B c ,.@.- # # > 1 q ",
"4 > # # o 3 *.-.l V R.E.E.2 > K  X:X:X3X'.9.t.p.9.Y %X&X[.! .X0XwX#Xy.*X*X'.7.t.i.r.5._ R Y ! K t * l L.G.Q.V m m.O.& @ # , 1 w ",
"4 > @ # + 3 %.-.m V R._._.2 $ J  X$X:X1X`.7.r.p.7.I oX:X XE 3.[.{.0.8.*X$Xg.3.r.i.9.R R R Y P K t * l /.G.Q.A B v.O.& # * < 9 z ",
"5 > * # # = b B m A R././.2 $ y d.d.w.w.2.k.k.r.8.L k.2X XI f f E E r.*X3Xe.) r.w.7.5.R P P P K > * l L.G.~.A c %.v % # * < 1 g ",
"4 > - # * o 5 5 z V R./.^.2 - > t t J e. X3X,Xi.8.P ) `.p.3.! E E _ w.h.'.! 1.w.7.i.$X{.5.P u y < * l /.H.~.V 6 6 5 % # # , 9 q ",
", , : # # = q 6 w %.Y.H.J.2 # > u t t.oX:X>X2X#X8.) u ( k.p.7.7.r.7.p.h.) K 3.7.7.XX$X$XXX8.y u > = l /.H.Q.A v v 6 % # * > 1 0 ",
"; < - # O 4 ..&.>.P.I.(._.X $ > u y ~  X X&X&XXX2.3.U u ! r.h.[.{.h.p.Y u Y 3.3.k.oXoXoX].2.t > > = l /.K.T.-.>.&.} % # * > 1 8 ",
", > # # + 4 &.;.,.!.~._._.X $ $ - u y 3.`.h.6.p J ) 3.L 1 f ! ( ( ! u u I R R L 6.`.{.`.2.y , > - % l /.H.E.P.v.=.v * * % > 1 8 ",
"; > # # + 3 &.;.P.R.~._._.X $ - t t y y L y > > 2.8.) Y P ! E K u > > p Y 5.9.L y K _ R u > > t * % x /.H.E.P.,.=.} = # # , , 8 ",
"; > # # + 3 *.>.!.!.~.(.J.5 # : > r u t < y u L p.k.i._ Y P Y ) I u L 7.p.`.a.R K y > > > > < * # % x L.H.E.P.,.:.} = # * > 1 8 ",
"; > # # + 3 &.,.P.Y.~./._.8 < $ : < < t t y t T 9.i.p.a.7.G K L p 2.`.`.`.a.a.9.K < > < > < > # * > c L.G.T.-.v v w % # * < 1 8 ",
"; < # # + 3 &.,.U.P.E._._.a G : $ : < t t t > J R 7.9.9._ K E P J ! p.p.i.i.9.R y u u < t < # $ > p b /.G.T.-.b &.W % # * , 1 8 ",
"= < # % + 5 &.,.P.Y.)._._.a L t : : : t < : > t r L Y U i u G G K u 3.9.5.T G : < t r y < : $ t u p c /.H.~.S B M. .% # # > < 8 ",
", : # # o 4 &.>.P.R.)./.^.a L J y $ $ $ e : t < e > t e : y y u u t G K i e : : < < < > $ $ : p P u c L.H.).S.b ,.&.* # - > 1 4 ",
"= > # # * 5 &.,.P.!.T.K.W.a L J i e : $ $ : > t : : > t t t y y i t > > > > e : : > : : : t L I K u c /.H.).P.N P.X.; # * > , 8 ",
"g ; # # o 5 X.%.P.P.).(.J.a J J J r r e $ $ $ t t t e - > t e r > : > > : < e e $ $ $ $ i L L L J u c /.K.(.P.N !.&.; # * , 8 v ",
"j g % # o 3 ..X.&.!.~.E.E.f J p i i i i r : $ $ # - $ e t e e r > : : : : : : @ # : e i L I I L J u x L.S.~.S c ;...= # * , k q ",
"f g * # + 4 X.@.&.!.W.W.E.a r i i i i i i i e $ $ $ $ $ $ $ $ $ : $ $ $ $ $ $ : r i J L J I J L p u x K.S.E.V l ,.X.= * # ; 0 9 ",
"9 j & # # 4 X.&.%.b.W.W.J.a r r r i i i G i i i e e $ $ $ $ $ @ $ $ $ : : : e i L J I L I L J i y ; l (.S.I.B k ,.X.= * * 4 0 9 ",
"f j ; + + 4  .@.&.,.W.I.G.; r r e r r r r r i y e : e : : : $ : e $ : : e r r J J J J J J J p y t > l K.S.Q.-.k v q % o * 4 h 9 ",
"9 j ; # + 3 ..@.&.-.I.D.D.- e e e e e e e e t r e e $ e e : : : $ : : e r r i J J i J i i y y t t > z H.S.(.P.&...w * o * 4 0 F ",
"9 j = # o 4 ..X.X.%.c.F.I.3 : e r : e r e e e e e : : e e : : : e $ e r r r r r r r r r i e t t > - l K.S.R.P.:.@.[ * # # 5 0 F ",
"9 j = o # 4 } ..&.-.R.F.F.& : $ : $ $ e : : : e : : : $ : $ $ $ e $ : e e e e e : e e e : e e $ - * k S.S.P.;.&.@.[ * * o 5 0 F ",
"9 w = # # ; } ..>.v.R.F.F.& $ $ $ $ $ # $ $ $ $ $ $ $ $ $ : $ $ $ $ $ $ : : : : : : : $ $ $ $ # * # 6 S.S P.&.&.X.W * * * 3 0 F ",
"9 j * # * 7 @.&.>.Y.Y.S D & : t < < r < r r r e r e r i r r r i J r J J i i r i i i i i i i y t > - k P.M ;.:.@.+.W * * * 3 9 1 ",
"9 q = # # 3 @.:.=.v.Y.S Y.; p L P P R R R R 5.9.9.7.9.r.i.i.i.i.i.i.a.i.p.a.p.p.9.i.r.r.9.9.3.( F < w -.m &.X. . .h * o o 4 9 F ",
"1 q = # # =  .&.=.;.v.A U.d P U R _ 5.7.i.i.i.p.a.h.`.`.`.]. X{. XXX X{.'.'.'.'.k.`.h.a.a.i.r.7.Y H w %.N &...| | 0 * # * = , 1 ",
"> * o # O 4  .@.@.=.v.V -.Q ) 6.0.i.i.a.`.`.`.{. XXXXXXXXXoXXX#X XoXXX XXXXX.XXX X{.{.].`.h.f.i.8.` h b ..X. .[ Q h * # * o o - ",
"# # # # * = h j j n ..z g ` ` 0.0.u.i.i.`.`.`.'. X X XXXXXXXoXXX].XX X{. X X X}.{. X'.{.[.[.`.f.i.` ` E q q 0 8 9 , * # # o * * "
};
