/* XPM */
static char *_b9a5335e2ab4c249e78b069106485a0vL3aooc0OlCSvheB[] = {
/* columns rows colors chars-per-pixel */
"64 64 204 2 ",
"   c #000000",
".  c #0B0001",
"X  c #010A01",
"o  c #030409",
"O  c #090108",
"+  c #00080A",
"@  c #0A0C09",
"#  c #130100",
"$  c #1B0100",
"%  c #130B04",
"&  c #1A0C00",
"*  c #1E0F0A",
"=  c #181200",
"-  c #1F150B",
";  c #250101",
":  c #2C0100",
">  c #240B03",
",  c #2B0C03",
"<  c #240C0D",
"1  c #290E0B",
"2  c #330100",
"3  c #3D0301",
"4  c #330A02",
"5  c #3C0B03",
"6  c #350B0A",
"7  c #3A0D0A",
"8  c #261200",
"9  c #2B1304",
"0  c #25150C",
"q  c #2B150A",
"w  c #271F0C",
"e  c #321400",
"r  c #3C1100",
"t  c #351907",
"y  c #32130C",
"u  c #3C140D",
"i  c #331D0C",
"p  c #3B190E",
"a  c #3D0C12",
"s  c #2E1515",
"d  c #2E1A13",
"f  c #2F1A19",
"g  c #371313",
"h  c #3F1217",
"j  c #351C13",
"k  c #3C1C13",
"l  c #301B18",
"z  c #3C1E1C",
"x  c #312112",
"c  c #3D2316",
"v  c #3B2817",
"b  c #3E211D",
"n  c #440301",
"m  c #4D0300",
"M  c #450D00",
"N  c #4A0E03",
"B  c #440409",
"V  c #430B0C",
"C  c #490D0D",
"Z  c #550400",
"A  c #590100",
"S  c #500C03",
"D  c #5A0C00",
"F  c #411700",
"G  c #4A1302",
"H  c #411806",
"J  c #4D1906",
"K  c #42160D",
"L  c #421E0E",
"P  c #4B1D0E",
"I  c #551301",
"U  c #5B1401",
"Y  c #56120D",
"T  c #5C150A",
"R  c #5F1A0B",
"E  c #530610",
"W  c #500E15",
"Q  c #431612",
"!  c #4D1413",
"~  c #451C14",
"^  c #491814",
"/  c #4A121D",
"(  c #411E1B",
")  c #491D1C",
"_  c #5F1213",
"`  c #571B10",
"'  c #5D1D11",
"]  c #56141B",
"[  c #551D1C",
"{  c #5A1E1C",
"}  c #5B141A",
"|  c #670700",
" . c #641703",
".. c #64130C",
"X. c #6D160F",
"o. c #6C190C",
"O. c #761D0F",
"+. c #7B1E0F",
"@. c #650E14",
"#. c #6C171C",
"$. c #711516",
"%. c #7A161E",
"&. c #402007",
"*. c #452114",
"=. c #4E2B15",
"-. c #41261B",
";. c #4A231E",
":. c #572316",
">. c #5C2613",
",. c #572A15",
"<. c #53221D",
"1. c #5B231C",
"2. c #5C2C1D",
"3. c #65240E",
"4. c #6A260D",
"5. c #672A0E",
"6. c #72210C",
"7. c #7C220F",
"8. c #632217",
"9. c #6C2815",
"0. c #64241B",
"q. c #6C251C",
"w. c #662D1C",
"e. c #6D291C",
"r. c #6C2513",
"t. c #712315",
"y. c #782114",
"u. c #712815",
"i. c #7C2812",
"p. c #73241D",
"a. c #7A241C",
"s. c #732B1E",
"d. c #782C1E",
"f. c #792A19",
"g. c #74321A",
"h. c #7B331B",
"j. c #4D1522",
"k. c #551F26",
"l. c #5D1E29",
"z. c #4A2624",
"x. c #4B2422",
"c. c #452A23",
"v. c #4D2929",
"b. c #562421",
"n. c #542221",
"m. c #5E2222",
"M. c #5D2B25",
"N. c #522329",
"B. c #5E3A2C",
"V. c #692B20",
"C. c #652B29",
"Z. c #6A282C",
"A. c #7D2525",
"S. c #7F2821",
"D. c #7C2823",
"F. c #772B2B",
"G. c #772E28",
"H. c #792928",
"J. c #752423",
"K. c #623326",
"L. c #693123",
"P. c #66372D",
"I. c #69322B",
"U. c #6E3C2E",
"Y. c #743423",
"T. c #7B3326",
"R. c #713A26",
"E. c #783A23",
"W. c #73342A",
"Q. c #7C322C",
"!. c #622632",
"~. c #6B2F31",
"^. c #723335",
"/. c #793331",
"(. c #773C34",
"). c #753A33",
"_. c #783E30",
"`. c #7A3933",
"'. c #74333B",
"]. c #76453E",
"[. c #852716",
"{. c #822A17",
"}. c #87261A",
"|. c #842B1B",
" X c #97281F",
".X c #82301A",
"XX c #802826",
"oX c #802922",
"OX c #8A2C2D",
"+X c #823125",
"@X c #8A3320",
"#X c #83352C",
"$X c #87392C",
"%X c #8C352C",
"&X c #933423",
"*X c #92352E",
"=X c #8F2C31",
"-X c #813B34",
";X c #963637",
":X c #9E3033",
">X c #913F33",
",X c #994135",
"<X c #AF423D",
"1X c #B54543",
/* pixels */
"                                                                                                                                ",
"                                                                                                                                ",
"                                                                                                                                ",
"                                                                                                                                ",
"                                                                                                                                ",
"                                                                                                                                ",
"                                                                                                                                ",
"                                                                                                                                ",
"                                                                                                                                ",
"                                                                                                                                ",
"                                                                                                                                ",
"                                                                                                                                ",
"                                                                                                                                ",
"                                                                                                                                ",
"                                                                                                                                ",
"                                                                                                                                ",
"                                        + +     . .     X X                 .         o   .                                     ",
"                                    O   + +   . $ $ #       . # # . . . . # # #         . . .                                   ",
"                                        o o   < ; : ; $ $ 1 h / j.a ; ; : 2 : $ %       .                                       ",
"                                            . s N.[ ) ;.c.z.k.l.!.k.) ;.b.b.n.z.-                                               ",
"                                            . f x.Q u c x > : a 6 g j j p u K ( 0 .     .                                       ",
"                                            . l ;.Q k v w & , ;.j q q i *.*.Q k 0 .     .                                       ",
"                                            . d ~ K t 9 = % > y 9 # . & t *.~ k 0 .   O .                                       ",
"                                            . y 2 2 ; ; 8 i K 5 p p t , ; ; 2 5 1 .   O .                                       ",
"                                            # 6 Y T 0.w.:.3 n #._ m 2 8.q.p._ n 6 # . .                                         ",
"                                          . $ ^ F.D.p.T ' 0.A.=XOXXX..p.X.S.A./.7 # . .                                         ",
"                                          . $ <.Q.p.T.Y._.V.J.$.a.X.d.T.>Xa.p.`.u # . .                                         ",
"                                    O       $ <.-Xp.s.w.,.5 Y Z ..D I I u.d.e.(.k . . . .                                       ",
"                                    O       # ;.).Y.>.r , e 2.N R 9.G G n E.Y.U.j .   . . O                                     ",
"                                    O O     # ;.W.e.M F &.=.U.e.+Xf.g.5.4.I Y.K.j .   . . O                                     ",
"                                    O O O . $ <.-XD.n I J ` H.;X1X X&X7.7.3 $XW.p .   . . O                                     ",
"                                +       O . $ [ p.*XZ U n S @.%.:X<X}.[.A | ,X8.p . . . . O                                     ",
"                                      o   . # { oX}.@Xm M N } E _ q.T D A &X|.s.Q # O O O O                                     ",
"                                      o     # [ %X}.i.h.>.:.V ] ] C >.3..X[.|.#XQ # O O O                                       ",
"                                            # [ +X+.{.4.R.I.^.'.~.I.L.Y.6.|.y.Q.Q # O O O                                       ",
"                                      o     # <.#XO.i.n J 5 ] W C ! M I m {.y.-XQ # O O O                                       ",
"                                      o     # <.#Xy. .I 2 : : B B : 2 3 U o.a.-XQ # . O O                                       ",
"                                            # <.G.t.r.G r K { ^.^.1.G G I t.t.W.k . .                                           ",
"                                            # ;.W.q.Y.3 H 4 m.Z.C.1.5 J n Y.q.).k . .                                           ",
"                                            . z.(.0.1.2.L : : W C ; : P L.0.0.].j . .                                           ",
"                                            % > <.C.K.B.9 $ V 2 3 : $ ~ P.K.M.;.# . .   .                                       ",
"                                            . # $ : 4 -.i q M.! [ ) y k ~ 4 : # . .     .                                       ",
"                                              . $ $ # 0 0 q x.V Q ( d 0 > $ $ #                                                 ",
"                                              . # # . . % - z.) x.z 0 # . # # .         .                                       ",
"                                                . .       % b z.v.s %     . .           . .                                     ",
"                                                O O o       $ , 1 .     o O   o                                                 ",
"                                                O O         . $ # .       o             .                                       ",
"                                                O       X X . . .   @     o                                                     ",
"                                                                                                                                ",
"                                                                                                                                ",
"                                                                                                                                ",
"                                                                                                                                ",
"                                                                                                                                ",
"                                                                                                                                ",
"                                                                                                                                ",
"                                                                                                                                ",
"                                                                                                                                ",
"                                                                                                                                ",
"                                                                                                                                ",
"                                                                                                                                ",
"                                                                                                                                ",
"                                                                                                                                ",
"                                                                                                                                ",
"                                                                                                                                "
};
