/* XPM */
static char *d8fe1521c7a048b9a6eaf5c0e32a40e3hJfeHaXQmahtjFKa[] = {
/* columns rows colors chars-per-pixel */
"64 64 226 2 ",
"   c #13120E",
".  c #1A1713",
"X  c #271307",
"o  c #311202",
"O  c #251A15",
"+  c #381E18",
"@  c #260C00",
"#  c #1F211C",
"$  c #23221E",
"%  c #29241A",
"&  c #362518",
"*  c #242621",
"=  c #262924",
"-  c #292B26",
";  c #2C2E29",
":  c #292928",
">  c #342B26",
",  c #332D2B",
"<  c #3C2B29",
"1  c #2D312B",
"2  c #2B3127",
"3  c #32332D",
"4  c #3C342C",
"5  c #3C3A2D",
"6  c #38352A",
"7  c #2A3434",
"8  c #2B3834",
"9  c #343631",
"0  c #3A3533",
"q  c #363934",
"w  c #3A3B35",
"e  c #3C3E39",
"r  c #373A3C",
"t  c #272F32",
"y  c #1F2D2D",
"u  c #422B1D",
"i  c #462518",
"p  c #582E17",
"a  c #5A3518",
"s  c #4A3418",
"d  c #602C1E",
"f  c #4B3426",
"g  c #42352C",
"h  c #4A362B",
"j  c #43392E",
"k  c #473423",
"l  c #573627",
"z  c #413D3A",
"x  c #453932",
"c  c #512E29",
"v  c #653828",
"b  c #663C32",
"n  c #6A3629",
"m  c #3D4136",
"M  c #3E413C",
"N  c #4D4614",
"B  c #5F472C",
"V  c #41423D",
"C  c #4B433C",
"Z  c #46483B",
"A  c #594B39",
"S  c #58513E",
"D  c #724A29",
"F  c #6B4534",
"G  c #644C3D",
"H  c #6A483E",
"J  c #754939",
"K  c #695838",
"L  c #7D553B",
"P  c #685126",
"I  c #716537",
"U  c #6C4C1B",
"Y  c #3E3945",
"T  c #3C4642",
"R  c #454642",
"E  c #4D4543",
"W  c #464843",
"Q  c #4A4B45",
"!  c #4C4E49",
"~  c #474A4B",
"^  c #534544",
"/  c #524D4B",
"(  c #574B48",
")  c #4E514C",
"_  c #4D5247",
"`  c #51534E",
"'  c #5C544A",
"]  c #57574A",
"[  c #564D53",
"{  c #4C5453",
"}  c #4B5757",
"|  c #545551",
" . c #5A5652",
".. c #565954",
"X. c #5A5B56",
"o. c #5C5E59",
"O. c #545B5B",
"+. c #4F4D50",
"@. c #6B4C43",
"#. c #654E47",
"$. c #744D45",
"%. c #635145",
"&. c #6A5244",
"*. c #655249",
"=. c #6C584A",
"-. c #7A5847",
";. c #625C55",
":. c #615E5B",
">. c #6B5B54",
",. c #7C5E52",
"<. c #765E52",
"1. c #5E615B",
"2. c #5E6356",
"3. c #61625D",
"4. c #666258",
"5. c #7C6154",
"6. c #76665B",
"7. c #6D6E42",
"8. c #585D62",
"9. c #635D61",
"0. c #5B6462",
"q. c #5F6867",
"w. c #646561",
"e. c #666964",
"r. c #6A6B66",
"t. c #6C6D69",
"y. c #696765",
"u. c #736C6B",
"i. c #7A6865",
"p. c #6E716B",
"a. c #6D7067",
"s. c #71736D",
"d. c #7B7C74",
"f. c #7C7E79",
"g. c #757772",
"h. c #84543C",
"j. c #8B563C",
"k. c #87593E",
"l. c #915A3F",
"z. c #814D38",
"x. c #99692D",
"c. c #916C1E",
"v. c #855743",
"b. c #8B5542",
"n. c #845A45",
"m. c #8B5A44",
"M. c #845B4B",
"N. c #895C4A",
"B. c #855649",
"V. c #925A43",
"C. c #915747",
"Z. c #845E53",
"A. c #885C51",
"S. c #89624C",
"D. c #926148",
"F. c #876156",
"G. c #827241",
"H. c #827D7C",
"J. c #867D74",
"K. c #7E827C",
"L. c #7E8677",
"P. c #BD9734",
"I. c #CE9E38",
"U. c #BE9447",
"Y. c #B79157",
"T. c #BBA05B",
"R. c #82847E",
"E. c #8C847B",
"W. c #878579",
"Q. c #DEAA61",
"!. c #C4935E",
"~. c #FFD855",
"^. c #F0D550",
"/. c #F8E24D",
"(. c #F8D967",
"). c #F7C86A",
"_. c #EDE36C",
"`. c #847F83",
"'. c #7E8481",
"]. c #7F8883",
"[. c #828681",
"{. c #8A8583",
"}. c #848983",
"|. c #898B86",
" X c #8A8E89",
".X c #858C89",
"XX c #8D928C",
"oX c #8F9082",
"OX c #92958F",
"+X c #9A998E",
"@X c #939691",
"#X c #959A94",
"$X c #999C96",
"%X c #969D99",
"&X c #9B9E99",
"*X c #9F9795",
"=X c #9E8D85",
"-X c #A39A8E",
";X c #A39D94",
":X c #A29D9A",
">X c #A99B92",
",X c #9CA196",
"<X c #9CA19B",
"1X c #9BA59B",
"2X c #A1A39D",
"3X c #A7A59A",
"4X c #999DA0",
"5X c #9DA3A1",
"6X c #A4A6A2",
"7X c #A8A9A4",
"8X c #AEB0AC",
"9X c #B3B4AC",
"0X c #B9BBB6",
"qX c #D0B7B0",
"wX c #BFC1BC",
"eX c #C2C2BD",
"rX c #CACCC6",
"tX c #CACAC7",
"yX c #CED0CB",
"uX c #D1D3CE",
"iX c #D4D6D2",
"pX c #DEDAD7",
"aX c #E4DBDC",
"sX c #D8E1CE",
"dX c #E1E0DC",
"fX c #FFECE3",
/* pixels */
"` o.3.o.o.1.1.o.r.o.o.3.o.o.1.t.o.1.3.X.o.1.X.w 1.o.1.o.X.o.o.o.1.o.1.o.o.o.r.o.1.o.o.1.1.1.9 1.o.o.1.1.o.3.| 1.o.1.1.3.o.e o.o.",
"o.o.1.1.o.o.o.1.r.X.1.o.3.1.o.3.) ` X.o.1.1.X.e o.1.X.3.3.1.o...X.w.X.w.3.o.t.` | X.1.3.1.1.q o.X.o.1.1.X.| ` o.3.o.o.o...Q | ` ",
"Q ..1.o.o.3.X.! r.o.1.o.X.1.X.p.` ) ) ` ! | ` w o.o.3.o.o.X.` X.3.o.1.X.| 3.X.) ) ` ) ! ! ` q o.1.3...1.1.` o.X.1.X.o.w.o.e ! | ",
"! ) ..1.1.X.| ) p.` ) Q | ) 1.t.1.` ` Q o.o.o.q ) 1.X.1.o.) ` ..! ` ! ` | 1.r.o.! ` ..o.3.X.e ` X.o.3.X.| ) Q | ! ` ` ` o.e o.Q ",
"| ) ! ` ` ! ! ` w.1.X.o.3.1.X.t.! ! ) | | ` ! w ` ) ` ! ` ` Q X.o.3.o.1.1.X.3.| ` ! ! ) ` Q e ! ` ) ! ` Q ) 3.o.3.o.1.w.3.9 ` | ",
"q q q q q q 9 3 e M q e 9 q w q e w 3 w 9 9 3 q q e 9 q q 3 w e w w 9 w w w q 9 q 9 w w 9 3 9 e 3 9 q q q 9 e q e 3 q q w e w 9 ",
"3.o.3.t.t.3.1.3.1.| e.` R.$Xg.2X[.p.o.R e.X.e.3.o.3.t.r.w.3.X.o.o.3.e 1.1.X.w.o.1.o.e.3.o.r.R.K.2Xt.2Xf...3.o.1.3.` o.3.o.3...3.",
"o.3.1.....o.1.o.X.e.p.0X[.&X&X$X#X2X[.r.1.o.X.1.1.1.o.o.o.o.3.o.1.o.9 1.X.3.o.o.1.o.e.1.1.d.<X@X#X X<X[.6XK.X.1.o.| o.o.o.1.1.o.",
"` ! ) ` ) o.o.o.1.X.2X&X- ` uX= * 2X$X! X.! ! ` ) ` | ) 1.1.X.1.o.w.3 w.o.o.3.X.o.3.s.) | &XXX- - 6X- 9 &X<XX.o.1.e o.o.o.1.o.o.",
"o.o.3.X.` X.o.1.o.|.&Xs.= ` yX= $ 7X6XR.| o.o.o.o...o.` 1.X.w.o.o.! 3 ` ` ) ) 3.3.3.e.o.R.<X0X= = 6X= * $X$X}.o.` ! ` ) ` ` 3.o.",
") ` ..! ! | ` Q ` K.$X1.; ) uX= - 8X#XR.) ` ! ` | o.` ) ` ` ) ) ` ) q 3.X.1.X.! Q ` r...}.$X0X= - 7X; =  X&XR.! ! o.o.3.X.1.` ) ",
"3 - ; 1 3 = ; 3 - R.7X3.$ ..yX= * 7XK.@X; - q = ; = 1 ; 1 ; ; ; - - w ; ; 9 1 3 3 1 9 - $X2X9X- = 6X- - XX#X$X; ; 9 3 9 3 ; = 3 ",
"w.t.r.1.t.s.1.e 1.[.&X1.; ) yX- * 8X3 [.r.r.w.g.e.s.3.e.3.r.w 1.o.1.o.1.3...w r.w.e.w.w.6XK.9X- - 2X; $ OX7X&X3.o.1.X...1.Q t.t.",
"` X.o.o.o.X.3.e.3.&X&Xe.= | iX* $ 8X- K.3.o.1.Q 1.X.1.1.1.3.e 3.1.1.3...o.w.p.1.3.X.w.o.$Xd.wX# = 7X- - OX6X&X1.1.1.1.3.1.3.w.X.",
"` 3.1.1.o.o.o.X.tX<X&X$X) &X6X&X0X&X2X&X$X) ` ` o.3.o.o.o.o.3 o...o.1.1.3.X.w ) ) ` ! &X6X$X&X8X2X#X2Xt.#X&X6XiX1.X.o.3...s.) ! ",
"` 3.X.o.1.1.` V iXOX<X<X` &X<X&X0Xf.R.$X<X3...` 1.o.1.o.o.{ q ` | ! ) 1.X.1.t.o.o.1.o.&XXX2X$X0X&X&X$XX.R.K.<XiX{ | 1.o.3.e.o.1.",
") ! ) ) X.` ) 3.X.e V V e V w V e e M M R 3./ | ` ! O.} } { e ..X.| } { Q | w.) ) ) ) ` e m M V M e m w m V 9 0.O.{ | ! Q t.` ) ",
"3 3 ; = - 1 1 q ; 1 = 1 - - 3 9 ; ; = - - 1 * * : ; : 7 7 8 }.R.7Xt.8 t 3 ; 9 = 1 = - ; 1 2 ; : ; ; 1 2 6 9 1 t y 8 : 1 0 , * 2 ",
"| ) R e w ! | o.| ` V X.s.s.p.t.u.u.e 1 Z ..o.X.! ~ e {.R.R.R.:X:X}.'.4Xr.t.s.s.p.q q T ..] :.[ ~ 8 e ) ` '  .! q e.p.r.u.r.g.t.",
"3.1.X.) o.1.o.o.o.o.o.o.3.....4.=.=.5 2.1...X.X.3.o.qX*X2XR.H.{.H.:X<X[.K.rXo. . .e 8.O.2.4.=.=.:.w.o.X.:.4.;.:.a.2.X.4.4. . .1.",
") ) Q e 1.3.o.X.1.o.| ) ! | | S U Y.k Q +.O.| ) ) R.f.9XR.;X3X*X:X$X,XR.9Xd.R. .[ Y } { ` A D !.A y.o.o.o.:.:.;. ._ ] ` Q  .` ` ",
"1.w.1.q X.X.1.3.1.1.` 1.` | X.K c.).D >.9.8.0.o.K.&X2Xf.3X0 4 w 5 w Z ,X,X3X2XH.9.Y 8.8.1.K c.Q.L i.;.3.3.o.:. .s.2._ ` o.3.o.1.",
") X.o.q ) ) ..X.` ` ! ) | ) ` K P.(.x.F ' ! ` L.2X&X$Xe.0 4 0 0 j 4 6 6 s.2X$X2X{.4 ) | ` B I.).x.S.%.C 1.o.| ` 3.) ) | | ! ) { ",
"` ) ) q ! ) | ` ` ` | - Q ! R N ^.~.U.D ( | _ L.,X$XK.w x *.z ' %.%.%.j 4 y.&X&XR.6 ] Q ` P ^.~.U.a G ] ) } { ) 1.q ! ~ R ~ O.O.",
"e 9 w q w 9 3 w r.r.p.s.r.t.w N /./.U.p 4 q 1XsXoX3Xw 4 #.$.l @.@.@.$.=.g x tXK.eXR.q 3 q N /./.U.p k 5 9 T q.p.s.e.t.t.9 e 8 8 ",
"X.1.X.1.3.o.1.X.X.o.3.X.w.X.| K _.^.T.K ;.o.L.,X3XC 4 >.$.fXd J qXJ $.@.b C 0 &XR.&X3.1.1.7._.(.Y.-.>.o.{ q.w.X.X.1.1.o.9 1.O.0.",
"o.o.3.o.X.3.! | / | ! ` ` Q X.S B G.A ' / ! }.[.&Xz *.H F J b N.L a F J H *.4 ,Xd.2Xg.| ~ Q I I &.>.;.1.) ~ / / Q _ Q ` M ) ` ! ",
"| X.q 9 9 9 ` X.:.` w 9 w / z  .>.6.;.o.:.&X&X&XyX^ G F L m.J M.S.a n.J $.@.' % 3X&Xf.9.w.Q >.6.;.:...9 9 0 0 ;.3.2.2.3 % 6 w 3.",
"/ | 3 ; 3 ; ` ` /  .E 3 , . ` ( A 6.] Q ;.7X$X7X0 %.F J h.n.M.F.5.l 5.Z.$.@.' 5 $XOX X:.:.C *.i.:.w.| 3 0 < , E / Q _ 4.4 6 $ ! ",
"/ | 0 3 0 3 ` e :.o.3 0 0   0 4 < 4.- 5 ` |.:X*Xx G L N.L o + & O X X + F.$.%.4 $XK.{.! / , < i.: e ` 9 > 4 , y.3.1.:.6 > 4 $ ! ",
"e 0 , 3 3 3 z 0 w 0 0  ., . w 3 / ^ 4 > w '.[.:Xg $.v.k.S.@ < < % X O c $.-.$.h +X1X'.r e , ^ ( , 0 0 > 4 4 , q r r 0 0 >.4 O e ",
":.o.; Q e - 3.o.:.:.pXz 0 . :.0 / / , V :.[.[.:Xh @.v.m.,.@ + , % O X u b M.H f ;X#X@Xo.o.0 ( ^ 0 / ;.4 4 C o.8.y.O.w.aX: , $ t.",
"X.| 3.Q o.X.o.o.o.:.9 :.` 3.:.0 0 / 3 0 / {.|.2Xj G M.n.M.o + < % X X i b M.@.h ;X$X2X) / , E ( 3 ! :.o. .V X.3.t.! o.:.y.! Q 3.",
"| ..r.W ` 3.1.3.o.` 9 o.3.X.:., 0 O iXw / H.$X*Xg &.-.m.-.o i u & X @ i b Z.@.h ;X2X2X` ` 0 > - dXV 3.3.3.R 1.` s.3.X.o.o.w.X.s.",
"3.X.3.Q ` 1.X.o.| ) w ` ! ` ! Q E R | ) ` {.$X;X4 u M.N.N.n.-.Z.-.,.M.M.b ,.&.g ;X$X2X) ! ! | ! R ` Q o.X.V ` ` r.| ` ! e ! | r.",
"Q X.o.` ! ! ` ` Q | 9 3.3.w.X.o.X.r...) ` 9XtXeXj u n.m.h.S.N.B.M.N.B.B.H ,.*.5 9XeX0X) | ) ) ) ! Q ` X.R ` ` ` s.1.X.X.3.o.X.r.",
"w w w V W e 1 9 M w w . e 3 w w w q q q e R.6X&X4 @.M.m.m.b.m.N.C.C.C.N.F l 4 6 ,X#X[.r 9 e M q e e w 3 V V e 3 3 w e V $ e w w ",
"o.X.3.3.X.X.w 1.o.3.X.r.X.3.t.1.o.1.X.1.1.K.@X&Xx &.S.b.j.V.h.C.C.C.b.m.F f 4 w #X<X[.w.t.w.{ 1...3...3.t.X...w.3.X.1.3.3.o.X.1.",
"o.3.1.Q ! 3.w ` X.w.3.  | ) r.` ` ` X.1... X5X&Xj G n.b.j.l.V.b.V.V.m.M.B f 5 6 2X&Xf.w.y. .1.3.o.3.3.X.| V 3.o.X.3.` ! * ) | | ",
"o.:.X.1.1.o.3 o.3.X.o.r.1.o.e.! ) ` ) ) ) K.5X&X4 &.M.b.V.j.j.V.b.j.h.S.l k j w &X&X`.[ t.` 3.X.o.1.X.` X.` o.o.3.X.3.3.X.! ` ) ",
"` 3.3.` ` ` w ) ` ! ! V ..X.t.` / ` ..1.o.R.6X$Xj &.M.j.l.j.V.j.m.h.m.n.l k g 4 &X&X{.o.u./ ! 3.o.3.` ! | M ! | ` ! X.o.- ` ! ) ",
"` Q ) Q ! ` w 1.o.3.3.3.1.o.r.` ` Q ..) | 8X.XeXj u n.m.j.j.V.b.m.D m.v.l ,.*.x :X}.7X| y.` ! ! ` ! ` ` w.e 1.X.o.1.1.X.X.) ` ` ",
"w V e V W e 3 q 9 9 w r.q w w w w 0 3 q e &X&X2Xj u M.h.k.j.V.k.h.h.m.m.v -.@.g :X$X@X9 q w 9 w 9 e q w e V q w 9 e e w ) 9 w 9 ",
"X.o.3.) ` o.o.3.1.t.X.1 3.X.3.1.3.e 3.X.o.6X&X&Xj G M.b.D.h.h.v.m.h.m.b.d A.H x *X Xf.w.o.1.1.o.t.o.X.X.o.w X.Q X.3.X.3.3 3.o.w ",
"1.o.t.3.3.o.o.o.o...| w.1.o.X.3.X.3 e.1.3.$X2X$Xj &.-.m.h.m.m.m.v.h.D.C.d M.&.< ;XR.'.1.X.1.o.1.| X.3.3.w.1.o.r.1.3.o.o.o.X.X.Q ",
"` ` o.X.3.X.3.o.1.` o.1.w.o.w.o.w.e ) ) ! 2X&X3Xj @.N.m.m.h.p m.m.h.z.b.n M.&.j 3XL.K.! | ) ` ) | 1.1.X.X.X.w.Q X.3.o.w.X.3.3.9 ",
"1...g...o.w.X.o.) 3.` ` e | Q o.X.e X.) tX2X$X;X>XG B.m.m.m.v N.h.L C.m.l -.&.-X*X$X<XyXX.3.| 3.) ` o.3.p.o.Q W ` ` ! ` ..` o.V ",
") ) r.) ` ! ` ` ) ` 1.o.3.3.1.| ) q ) ) rXR.R.R.J.&.F.b M.M.l M.M.J -.N.l ,.%.-X3X$X<X8X! ` | ! ` ` ! ) ` ! | 3.1.X.3.1.X...! V ",
"1 ; 9 1 ; - 1 - 1 1 q 9 9 ; w 1 1 q 1 1 rXOX<X*X3X' 6.h <.<.l ,.,.5.f <.h 6.' W.*X3XR.rX; 1 - 1 3 1 - 1 1 - - 9 q 9 3 q 9 1 1 w ",
"&X#X#X<X&X#X&X<X[.K.<X&X$X<X#X#X<X#X#X$XrXK.d.W.J.;X-X;X-X-X>XE.=X>X>X>X3XJ.3XE.W.R.R.0X#X$X$X}.#X<X$X#X#X&X&X<X<X#X<X#X[.K.}. X",
"$X<X<X#X#X<X@X[.}.R.R.#X#X#X&X&X#X#X&X&X$X|.[.2X2X+X+X+X;X;XE.E.E.J.E.W.W.;XR.W.$X$X$X$X<X|.K.K.K.$X<X<X#X$X@X#X#X#X XR.@X<X&X&X",
"&X#X#X<X#X}.[.&X#X<X&X#X|.<X&X#X<X%X#X#X[.$X#X X|.OX7X$XW.R.;X+X*X;X*XOX2X$X$X$X}.K.&X2X#X<X<X&X$X#X}.K.}.XX}.[.&X#X#X&X&X#X#X$X",
"XX#X}.L.|.#X#X#X&X#X#X<X#X@X[.K.'.|.[.[.&X<X#X$X[.}.[.R.}.2X#X,X,X$X2X<X#XOX<X&X}.[.&X#X$X&X@X&X&X#X#X2X#XR.K.&X<X&X&X&X$X&X&X#X",
"[.}.}.[.#X&X<X<X&X#X<X#X#X<X}.}.#XXX|.}.&X@X<X&X#X}.}.#XK.K.K.#X#X#X#X#X&X<X$XXXK. X<XXX[.&X<X&X#X<X#X|.[.}.}.K.#X<X$X#X#X#X#X<X",
"}.K.R.}.<X#X$X#X#X<X$X<X#XK.@X&X$X<X@X}.&X<X%X@X}.%X&X%X<X%X.X}.}.%X%X<X%X#X[.'.<X&X#X6X&X@X[.#X#X[.}.XX&X#X$X&X&XK.}.<X<X#X<X#X",
"#X<X<XK.}.[.#X&X$X#X<X[.}.[.K.}.R.}.[.R.'.<X#X[.'.<X#X%X%X%X%X%X'.}.].'.}.K.<X#X%X#X<X#X$X&X&X[.K.}.&X#X&X#X<X#X#X$X<X@XR.}.#X&X",
"&X#X<X$X&X}.[.K.[.[.#X&X#X}.[.#X#X2X#X$X<X}.K.[.[. X<X#X#X<X#X<X#X}.}.K.$X$X$X[.$X<X#X&X&X#X&X[.K.XXOX#X<X#X#X$X$X#X#X#X$X[.K.[.",
"$X&X#X&X$XR.}.}.#X#X<X#XK.|.#X<X#X#X#X$X#X<X$X}.<X#XK.XX&X@X<X#X[.OX$X&X$X#X#X#XR.}.XXK.R. XK.}.}.R.#X}.[.K.#X#X<X<X&X$X$XOX}.[.",
"#X$X&X<XK.&X#X}.<X<X#X|.K.#X&X#X<X#X1X,XOX,X$XR.$X<X#XR.f.|.}.[.$X$X$X2X@X<X<X#XR.}.}.$X#X#XL.|.&X<X<X#X#X$X[.}.K.[.K.[. X<X$X#X",
"&X$XR.}.#X<X<X[.#X&X&X[.&X#X<X<X<X#X#X,X,X#X}.[.#X#X$X&X&X$X@X&X[.OX&X#X&X#X$X<XR.K.#X,X,XK.@X#X#XOX$X#X&X<X#X}.}.[.[.#X<X#X#X<X",
"[.[.K.K.K.<X@XR.$X2XK.K.[.<X#X#X#X#X&X$X#X|.K.#X&X<X&X@X#X&X$X$X&XR.[.[.$X&X$Xd.#X#X<X#XR.[.}.XX$X<X&X<X&X#X#X}.[.#X#X#X#X@X2XOX",
"#X<X$X#X<XK.R.}.[.L.XX<X&XK.[.}.<X$X#X XK.K.|.<X#X#X<X$X$X$X#X<XK.}.}.K.}.[.[.}.<X#X[.}.#X#XXX[.R.#Xf.K.L.}.XX#X$X&X#X&X#X[.$X&X",
"$X#X#X$X#X&XXXK.R.XX<X$X#X&X<X[.R.|.@X&X&X&X@XK.[.<X#X%X&X#X&X'.<X#X%X&X%X%X@X[.%X&X[.#X<X&X$X$XR.#X<X&XOX|.&X#X&X&X&X#X|.[.}.[.",
"#X&X&X$X#X&X&X[.[.#X#X&X#X&X#X X[.$X&X&X#X%X<X#X#X[.[.[.'.'.'.%X%X%X<X#X&X%X<X%X[.[.<X%X$X&X&X&X}.<X#X$X&X#XK.[.K.K.}.[.R.$X$X$X"
};
