/* XPM */
static char *_71d666dd945468bd0910e1a663d5fa1oMd2ltpIdGoCP8Aq[] = {
/* columns rows colors chars-per-pixel */
"64 64 241 2 ",
"   c #0D0101",
".  c #150101",
"X  c #1C0201",
"o  c #160904",
"O  c #1D0A05",
"+  c #160A09",
"@  c #1D0A0A",
"#  c #1D0608",
"$  c #1F0F10",
"%  c #230201",
"&  c #2A0201",
"*  c #240A05",
"=  c #2C0B04",
"-  c #230609",
";  c #240C0B",
":  c #2B0D0C",
">  c #2B0609",
",  c #310201",
"<  c #330B03",
"1  c #3B0C02",
"2  c #330D0B",
"3  c #3B0606",
"4  c #2C1205",
"5  c #25110C",
"6  c #2C110D",
"7  c #351205",
"8  c #3C1302",
"9  c #3B1805",
"0  c #33130D",
"q  c #3B140B",
"w  c #3D1A0D",
"e  c #341A0D",
"r  c #240E11",
"t  c #2D0E11",
"y  c #320E12",
"u  c #3B0E10",
"i  c #251312",
"p  c #2C1313",
"a  c #2D1914",
"s  c #2E1619",
"d  c #2B1C19",
"f  c #331413",
"g  c #3B1413",
"h  c #341914",
"j  c #3B1A14",
"k  c #341B19",
"l  c #3C1D1A",
"z  c #361519",
"x  c #3E211D",
"c  c #3C2015",
"v  c #3F2724",
"b  c #440C00",
"n  c #421404",
"m  c #441A05",
"M  c #4C1C03",
"N  c #43150A",
"B  c #441B0C",
"V  c #4B1D0C",
"C  c #481706",
"Z  c #531D04",
"A  c #531E0B",
"S  c #591A00",
"D  c #421514",
"F  c #441C13",
"G  c #4A1D13",
"H  c #441D1B",
"J  c #4B1C1C",
"K  c #481618",
"L  c #521D1B",
"P  c #501815",
"I  c #671F03",
"U  c #45210C",
"Y  c #4B220D",
"T  c #4E2608",
"R  c #532203",
"E  c #5C2305",
"W  c #53240D",
"Q  c #5C230C",
"!  c #5D2B0D",
"~  c #592A0A",
"^  c #462413",
"/  c #4D2213",
"(  c #44221D",
")  c #4C221D",
"_  c #532413",
"`  c #592612",
"'  c #552A14",
"]  c #5B2A14",
"[  c #52221C",
"{  c #522A1C",
"}  c #5B281C",
"|  c #642302",
" . c #63260B",
".. c #68240A",
"X. c #632A0C",
"o. c #6C2D0C",
"O. c #682905",
"+. c #752D05",
"@. c #7B2D0D",
"#. c #742D0C",
"$. c #6C320D",
"%. c #74320B",
"&. c #7C340D",
"*. c #793407",
"=. c #632612",
"-. c #632B13",
";. c #6B2C12",
":. c #632C19",
">. c #722E17",
",. c #6C3214",
"<. c #673319",
"1. c #743312",
"2. c #7A3413",
"3. c #7D3A15",
"4. c #78351A",
"5. c #4C1F22",
"6. c #551E23",
"7. c #442422",
"8. c #4C2423",
"9. c #452925",
"0. c #4C2925",
"q. c #4D2629",
"w. c #472B2A",
"e. c #4D2B2A",
"r. c #502523",
"t. c #512625",
"y. c #532524",
"u. c #5A2624",
"i. c #512826",
"p. c #512926",
"a. c #542925",
"s. c #5B2A25",
"d. c #532629",
"f. c #592629",
"g. c #522A28",
"h. c #562A29",
"j. c #542B2B",
"k. c #5B2C2B",
"l. c #53312D",
"z. c #5C322D",
"x. c #5E392D",
"c. c #542C31",
"v. c #5B2E30",
"b. c #4E3433",
"n. c #543332",
"m. c #5C3434",
"M. c #5D3934",
"N. c #5E3539",
"B. c #573B39",
"V. c #5D3A39",
"C. c #543B36",
"Z. c #4D302F",
"A. c #622C2B",
"S. c #602827",
"D. c #63322E",
"F. c #67352A",
"G. c #7A3C22",
"H. c #633433",
"J. c #693533",
"K. c #633A35",
"L. c #6A3A35",
"P. c #633639",
"I. c #633A3B",
"U. c #6B3D3B",
"Y. c #6C3738",
"T. c #723C38",
"R. c #6A2E36",
"E. c #7F411C",
"W. c #5E413E",
"Q. c #794424",
"!. c #63413E",
"~. c #6C423C",
"^. c #76423A",
"/. c #784237",
"(. c #6F452F",
"). c #723F43",
"_. c #5E4541",
"`. c #644443",
"'. c #6B4444",
"]. c #664946",
"[. c #6A4946",
"{. c #6C4C49",
"}. c #674A4C",
"|. c #734442",
" X c #784847",
".X c #7A514A",
"XX c #7F4D50",
"oX c #84340D",
"OX c #853B0C",
"+X c #8C3B0B",
"@X c #873507",
"#X c #933C0D",
"$X c #973905",
"%X c #843713",
"&X c #8B3D1A",
"*X c #873B14",
"=X c #963C11",
"-X c #822F03",
";X c #A53F01",
":X c #803F21",
">X c #8B410B",
",X c #9B430D",
"<X c #98460A",
"1X c #8B4014",
"2X c #8B4619",
"3X c #974619",
"4X c #9F5113",
"5X c #A3430C",
"6X c #A74709",
"7X c #B44D0C",
"8X c #BD530B",
"9X c #A54A13",
"0X c #A54912",
"qX c #AF5719",
"wX c #BE5812",
"eX c #B75617",
"rX c #864626",
"tX c #97552A",
"yX c #935637",
"uX c #A45825",
"iX c #996335",
"pX c #A6612B",
"aX c #B76B2F",
"sX c #C95E16",
"dX c #C8580C",
"fX c #C4621B",
"gX c #CA6927",
"hX c #D3732F",
"jX c #D06C31",
"kX c #824C4A",
"lX c #82524C",
"zX c #8A584F",
"xX c #805252",
"cX c #E6863C",
"vX c #DC8C4D",
"bX c #F2934D",
"nX c #FCB076",
"mX c #E5AD8C",
"MX c #FFDAAD",
"NX c #FFF1B8",
"BX c #FFF5CB",
/* pixels */
". * . X X . % * : X . . . X . X X . : . % X X X . % * % . X . % % % . X % % > % . % X % % 0 . C.9.l 9.9.. f h 7.* X X . % * : . ",
"C.n.0.j.e.l ( 8.0.0.7.% 8.8.9.w.w.. 9.n.7.e.m.> V.l.8.!.!.[.0.7.8.8.x w.e.l.n.n.X W.e.( e.j.X 9.0.0.0.e.% 8.8.e.e.0.H [.e.e.7.n.",
"8.8.8.t.e.7.g.j.t.g.e.% h.h.j.e.0.. w.0.8.8.v.8.8.8.g.8.8.8.8.g.t.i.0.0.0.0.8.i.2 0.i.g.t.8.. 0.8.i.8.i.2 i.d.8.d.t.8.8.t.i.h.8.",
"8.i.h.t.8.( 8.8.t.8.8.& r.r.h.8.0.X e.7.t.8.t.J y.i.8.i.8.k.t.t.t.t.8.0.8.i.8.u.g 8.t.t.t.i.X 0.t.y.t.t.H 8.t.8.8.h.h.y.t.8.u.t.",
"8.8.t.h.0.l 8.g.i.8.0.& h.y.g.0.g.X i.i.h.u.u.g h.t.) h.) r.r.u.u.r.) 0.y.h.u.h.u h.8.u.f.y.& 8.g.t.8.8.H 8.g.g.g.i.H j.t.g.8.i.",
"0.g.i.8.7.f 7.0.8.g.0.. j.8.8.7.7.% 8.) i.8.8.D t.8.i.i.h.) h.8.h.8.( 0.0.i.y.t.2 ) 8.i.t.8.% e.7.g.0.7.0 8.8.8.8.8.8.0.8.8.0.0.",
"6 9.( j j = 7.( 0.e.9.. 0.7.( ( 7.. 7.9.0.0.0.= ( 7.l l : j 0.0.( H 0 c x ( 7.7.* w.l.( g.e.. 9.x 7.0.7.> ( l l 9.l 0 0.0.e.c f ",
"% j 0 0 f . f g g f f X 2 0 f f f . h h f f f X f 0 f h f > g 0 g e % 6 0 0 g f X 6 f f f f . f h : j e % 0 0 g g 0 : e 0 0 f = ",
"% & & & X % % & % % % X & & % % % X % % % & & % & % % X X & % % & % & % % % % % X X & % & & & % % % % % % % % & & % % % % % % & ",
"I.m.m.N.I.I.N.m.H.N.I.N.P.P.N.m.I.N.V.m.I.m.I.m.m.N.I.N.N.N.P.I.m.m.M.n.N.N.P.I.N.m.N.P.H.P.N.m.N.I.I.I.P.N.m.I.N.m.I.N.P.m.P.I.",
"l x 7.( l k 7.l H l x x l l x l l 9.l 8.H H l 7.( H j l 9.7.H H H H 7.x 7.l l l ( ( l ( H H H 7.l x l l 7.7.x x l l j 7.l 7.7.h ",
"* X % : . * % % * * * % > & * * % * % % & & & % : % % % % % % : > & % % * > % = % % % % & = % X * * % * * * * % * * > % % X % * ",
"8.l.H m.M.( N.j.g.j.0.7.N.h.8.8.e.m.I.m.8.8.8.7.m.m.!.m.8.g.g.h.t.i.g.e.e.!.m.M.7.0.l.8.z.H.K.g.7.8.g.K.8.8.g.g.j.N.8.N.I.g m.8.",
"& , f.y.8.k.r.J H.H.t.) D.u.t.y.z.k.y.) & & & y.i.m.I.8.J H.P.H.H.K.m.0.H K.m.a.g.& & & [ a.H.z.y.r.t.H.u.y.H.K.J ) k.J k.h.& & ",
"K.U. X& h.) J k.H.J.y.s.u.y.s.h.[ s.k.J.U.D.H.lX& y.f.r.u.u.k.u.y.s.k.h.y.u.u.1  Xz.L.^.T.u.s.[ k.s.r.u.k.u.D.D.k.u.u.s.& lXJ.J.",
"[ a.J.U.< [ s.u.u.k.8.K.L u.u.[ N  XL.s.[ a.[ D.J. Xu.L A.y.u.u.A.u.K J u.[  XJ.L.s.s.} F./.^.[ J u.u.L J.[ s.s.s.u.s.& J.K.u.u.",
"B q a.F L.% T.^.u.k.i.K..X) I.k. XJ._ 8 < U V N u.H.lX). XS.s.z.k.u.} ^.kXT.J.s./ 8 8 8 n ] F.|.H.H.J kXD.u.s.u.T.Y., D.J.^ 1 N ",
"/ V q q { ^.P P J.H.U.8.z.K.D XXY.} V Y U Y V V q t.H.3 L J.D.) K J.J.N , L.y.< n m V m R W ' D.XXH T.J.L U.L.D.P P D.[ q ) N _ ",
"=.A C G < { lXA.6.R.f.y.D.h.& P.J G Y W Y ' _ ' ^ < F K.u.} K.[ y.J.H M.L.) w w m W Q Z -.' _ { K.& u.D.[ [ z.J k.XXK.0 F ^ { _ ",
"..=.V / B { U.3 6.R.L u.J.J U.8.2 F Y R Z -.-.] U 7 < H.D.[ H.y.y.H.( 0.D.< 8 m W E I ..-.W ' B ) ~.[ k.h.) K.) D P.8.w w 9 _ ` ",
"1.1.] ' 8 7 y.xXy.6.Y.H.z.& L.g K G M E ..o.o.-.:._ G _ F.L f.k.u.f.t.z.y._ ] W ,.2.%X&X4.;.:.A n F., A.J.J.J y.|.f.< < B '  ...",
"OX&.,.-.n q 8.N.y.5.8.a.x..XG G ) _ R o.@.@.#.1. .-.V 3 /., d.c.j.h.& K., V A ,.&.1X=X=X&X>.;.` V _ zXJ.s.u.y.5.P.y.w 8 Y Z o.@.",
">XOX3.1.n N < V.% N.g.( l.x.F F V ]  .%.oX+X%X3.1.X.Q n V lXN.c.e.K. X[ 1 _ <.%.*X,X6X5X3X%X4.-.Y G s.z.8.h.v.& P.2 w 8 R $.oX@X",
"<X<X#X%.Z B 7 ( I.% % % . K.< F Y ! | -X$X=X=X1X%.O.M 1 V H.& % % % K.G & _ X.1.+X$XwX7X5X-X3.Q V 1 F.% % & % |.H w U 8 ! *.@XjX",
"hX5X$XoXX._ F H P.H.Y.H.m.( g F W ,.&.0X;XwX0X<X3.X.! Y N z.I.H.k.H.j.< / W ,.&.,X6XdXdX6X,X*XX.W V G z.Y.P.H.P.8.7 Y ~ %.*.,X6X",
"8X7X$X#X1.W { & r.J L K H ( j / ] O.#X5XgX8XwX9X*X$.-./ F D K J L K F q / W ,.*X9XwXsX8XwX5XoX;.' B ) ) K J J J < B Y X.%.3X5XhX",
"gXeX5X#X#.Q 8 K.D.J.H.P.m.V..X/  .2.=XeXvXcXgX6X3X2.-.V J.U.J.D.A.H.J.F.V ] ;.&X5XsXbXgXfX5X2X;.' U.L.D.J.H.H.P.U.1 W  .%X#X5XgX",
"vXqX,X+X&. .m x.m.i.j.q.e.0.0.C E @.#X9XnXvXhXqX+XO.Q A D.z.a.h.z.8.s.[ G A =.&.0XeXnXaXeX5XoX;.V s.z.k.f.r.k.8.) < Z ;.oX+X9XgX",
"NXpX4X-XI X.B K.7.e.9.Z.b.Z.q W | +.+XuXmXBXaX4X>X+.R 1 8 0.j.0.w.e.z.< < m -.2.<XuXBXMXuX#X&. .V w l.0.h.j.e.g.l.w n Z 3.3XpXNX",
", iX3XOXO.Q Y & % X X X # * B M  .&.1XtX% % 3 4XOXO.R M & % X X . . % & = U M o.+XpX. X tX3X+.E Y 7 & % & % . = * 4 B Z 4.2XtX, ",
"b yX*X*XS X.V F U.2 c.q.7.% B M -.1.oXrX7 = 2X<X&.O.Z m B x.j.8.e.w.e.& = 9 R $.OXtX: * yX&X+.R m 7 = K.t.8.l.9.5 6 n A 4.2XiX< ",
"& rX&X@.| Q V q H.J q.q.n.X q C A ;.+.rX!.% tX+X%. .C 1 9 x.k.8.e.9.8.= = 9 M E +.G.. - rX#.| R 8 7 % K.8.8.7.w.* 4 G b >.Q.Q., ",
"b rX2.4.;.A B q z.g 0.8.7.2 q G _ -.%X*X(.< 2XOXo.-._ V w a.7.e.e.H j 0 F B ] -.4.G.8 m G.4.X.! V q q M.8.g.g 7.* = q Y Q 1.E.Z ",
"S rX1.>.:._ F q 8.g 2 l.!.: g D [ Q %.3.(.& %X&.,.] _ B 7 0 H e.) ~.D j q B / :.>.G.M R G.>.] W N j 2 j 8.% I.V.* * 9 B Z o.rX%.",
"o.3. .-.' ^ w 0 t.h.5.m.M.* f ( G ` o.$.F.& 2.+. .] / q F j q.e.N.H.K.< q q _ ' =.<.~ T <.-.W Y F j 0 0.8.J N.m.% * e B W  .1.1.",
"o.;.Q ` B w 4 > 8.j.d.N.M.6 6 6 q / E X.{ & o.| Z V 8 q q i.q.q.m.K.8.0 0 7 q B ` ] T T W M Y B = = % 0.8.8.P.N.% % 4 < C Z E X.",
"-.] ` _ 7 0 * * j 2 2 8.9.. * X = 9 M ] { %  . .} B ^ % 0 = g g g.0.0 6 . e q F / m U m B n B B l : . f j g 8.7.f 6 e < V ` ] <.",
"] ] ' / = 4 * * '.g.I.{.V.* * X * 4 Y Y p.& ] Q Y w j 4 e m.m.).{.j.m.h . h c F ^ 7 9 9 w 7 F j 6 l X ].[.!.'.m.: 0 h = G _ _ ] ",
"V / G F O O O X V.u f.8.7.X . O O * B B ( q W A F c h * : n.c.d.5.d.8.0 * 5 f h c 4 4 4 0 = j 0 a 5 5 n.0.8.J e.6 a h % F B G / ",
"9 q q j O O O X m.g 8.8.w.. . X O X % F j j 1 B e 4 * . 5 e.c.d.f.D 8.* . ; 6 h 0 * * * * X f * O # . B.g.8.H 8.* 5 5 . j q w q ",
"4 4 = g g 6 : : l & 6 f : p : f i h e l * l G q h . O o X ; > y g > : - @ ; ; p h h h . h f f f X . . k f = > g : * 6 f f 0 6 6 ",
"5 4 > f f 2 f h e.e.n.].B.: y f p p 0 f l j 0 q h X . o . w.e.j.'.N.}.@ @ # . p p f p X f z y y X @ O 9.n.'.'.!.h * : 6 h 0 6 5 ",
"5 * % f f p 6 0 8.j.8.m.V.% f t p f f f : f g f p # o + . v e.8.m.I.V.- ; t - p p p p X a i p p . # . 9.q.k.H.N.6 ; i p z > * : ",
"O . . : * : * % H g.j.m.n.* : - - : * : . : : : - . .   O h 9.e.P.H.V.- X X . ; p ; 5 . 5 X : ; . . X 0.8.J m.I.X X 5 ; : % X X ",
"i p p p X 6 6 f > % % % % X f t t f - p p z * z f r i . i X % & % & . X . k p p p p z * 5 O t t z 5 . % & % < % f : p # p p p 5 ",
"i a p p . 5 6 0 8.k.K.I.7.X z f f f ; p p 6 ; p p z p X z l ( M.N.l b.X . i t z i i y h 5 5 t f : 5 * 7.V.I.P.8.f p p . t p h i ",
"i i i p . a 5 : h.D.D.m.9.. p p f p p i ; 5 p p : p f - f ( H M.M.( 9.X . i f : i 5 2 h i 5 f f k 6 X 7.N.H.j.j.: p s X p t p 5 ",
"# @ ; i   5 ; : 8.k.J.k.g.. ; @ * > . p 5 6 . p t X - . : ( H m.m.H ( . . O f f ; X & * ; . : * X % . 0.m.P.J 8.: ; i . p : ; - ",
"5 5 . . o o . f z.|.& m.H * ; @ p p : p * i i p a - p f : g '.J |.H g : 6 6 f p t p p . p p 5 5 5 6 2 I.m.H J 8.2 X O @ - - p p ",
"5 a . # o + # : M.m.j.K.N.% # @ p p p p - p i i 5 a ; : 2 8.P.I.H.m.j.: 6 z p f p p p . p p p p 5 6 g N.P.v.m.N.2 X O O - - p p ",
"a O . #   + # p m.M.z.m.N.- r @ ; z p p - p p p a 5 z 0 : j.I.v.H.P.I.f f : p p s p p X p t t p p : & N.I.8.I.N.: - ; O @ ; i p ",
"O p   . o o . > 7.H g j.8.- . # - : - - . - @ ; @ . * : 2 g H J 8.h.g : - ; . i i r i X ; # ; : . * : 7.l : q.8.* . + . @ . . ; ",
"p : p p . i p n.j.t.N.j.m.n.z r p p - ; # - O i i p : X % e.m.j.v.j.c.k . . + o + + @ # @ X t p p 5 e.j.n.j.c.c.e.k i   @ r ; o ",
": z t t . p p % & % & % % % - s i p X * O * X i i p p % % . & & & % % . . + @   o + r @ @ @ s p p X * % % % X % * * d . # @ ; O ",
"6 h t p # ; - I.m.I.k.N.P.I.n.p p i X * - ; X i i i ; . V.V.m.m.N.V.n.W.X O . + o + @ @ O # p ; h l.N.m.m.m.I.m.n.* @ . ; - - ; ",
"X % > : . ; * * & & < % 2 2 f - X 5 . X X % . ; ; X X . % 0 2 > & > : : X . X # . . . . . . ; . X % & % > > % & 2 . 5 . X X X . ",
"f `.I.]._.. `.l.m.I.l.% m.m.`.].`.. l.e.n.!.{.. [.[.V.{.[.g.h.) l.( & {.`.[.].`.X `.`.`.B.V.X W.0.t.f.k.% j.h.t.j.I.. ].'.V.V.0 ",
"e.7.e.7.w.9.0.0.8.i.0.% t.8.0.0.e.. 0.7.g.8.j.( 7.i.7.g.i.J t.h.8.8.m.g.8.g.h.8.& j.d.8.8.e.. e.8.y.y.u., h.8.u.u.8.N.8.k.t.g.8.",
"8.h.t.y.0.( g.t.u.y.t.& u.u.8.8.8.% i.t.y.[ y.u.u.h.y.y.y.r.u.u.h.8.y.y.t.r.u.y.3 6.f.y.t.g.% 8.t.u.u.y.D h.8.f.r.k.8.i.J t.h.8.",
"8.f.f.u.h.D t.r.u.r.t.% y.u.y.i.i.% h.y.r.h.u.D u.y.u.y.u.h.u.r.t.h.J u.h.r.f.u.3 6.f.f.t.8.X 8.y.y.u.r.D 8.) t.t.t.8.g.r.u.i.8.",
"t.u.5.f.8.H 8.d.y.t.g.% f.u.r.i.g.X 8.8.g.t.r.D t.8.i.8.8.t.y.h.8.8.t.8.i.t.t.f.u y.y.t.d.g.X e.0.8.h.i.j 0.0.g.g.H g.0.h.h.8.i.",
"H g.y.g.8.: 8.e.8.e.0.% 8.8.8.e.0.. 9.e.0.8.8.0 g.0.0.0.8.8.8.8.0.( f 0.e.e.7.8.: 8.8.8.8.7.X 0.0.7.7.8.6 9.0.0.0.8.l 7.H 8.8.( ",
"p p l 6 h X p p z p i . : 0 h h a . h k f f h X f f p p f f f z f j * h 5 a a p . 6 z f f 6 . p f f f f O 6 z f z f k f f f f f ",
". . . . . . X X # . . . . . X . o . . . X X . X . X X X . . # ; ; . X   X O . o . O O X * * . O % * % X . . . . X . . * > * % . "
};
