/* XPM */
static char *_6bdda537f684f60e5ad2ddffa1612adcMYjGjqNqoAaEOgg[] = {
/* columns rows colors chars-per-pixel */
"64 64 29 1 ",
"  c white",
". c gray75",
"X c gray72",
"o c #C6C6C6",
"O c #D7D7D7",
"+ c #676767",
"@ c #808080",
"# c #CBCBCB",
"$ c #797979",
"% c #AFAFAF",
"& c gray38",
"* c #9D9D9D",
"= c #E2E2E2",
"- c #747474",
"; c #7C7C7C",
": c gray52",
"> c gray95",
", c #6D6D6D",
"< c #D0D0D0",
"1 c #989898",
"2 c gray91",
"3 c gray65",
"4 c gainsboro",
"5 c gray55",
"6 c #EEEEEE",
"7 c #939393",
"8 c gray98",
"9 c #F6F6F6",
"0 c gray30",
/* pixels */
"                                                                ",
"                             86OO28                             ",
"                    >========.*@;1X4=======>                    ",
"                    O****1**11111111**1**1*O                    ",
"                    <11*11*11133%3711111*1*O                    ",
"                    O<...XOoXo.o2X.%.3.XXXX2                    ",
"                    #%*%O1#XX3*#>X..<*%333*6                    ",
"                    OO...#.XoX.o6oo<o#.X.Xo4                    ",
"                    <**3XO##oo<44O<o#<<X3*3O                    ",
"                    4%%%.O4OOO44O=OOO<#.%%%4                    ",
"                    4.Oo#OOO= >33> =OOOooO.4                    ",
"                    #3%:%o<=8 =**= 8=<#%:%3#                    ",
"                    oXXo9>>9O4o..o448>9>oXX#                    ",
"                    <68   9o%3.44X3%o9   82O                    ",
"                    >92.oX5*3o6##2.3*5Xo.29>                    ",
"                    2X%;;$$%=8=%%O8=%$;;@%X2                    ",
"                    41::@;@%6O;00,<2%@;@::14                    ",
"                    o&$:7:*17$-$$-$7**:7:;&#                    ",
"                    #&@5$,-$@;----@@;-,$5@+#                    ",
"                    #&;:+-;;&,+,,+,&@@-+5;+#                    ",
"                    #&$$-:&,@*.##.*;++5$;$+#                    ",
"                    #&,$;&-*<6=66=><*-&:$,+#                    ",
"                    #&+$,-%>=62>>6>=63,,@+&#                    ",
"                    o+;$+%64>>>=4#O6=63&;@+#                    ",
"                    o,$&:<2>6<*:$0,3<=<@&@,#                    ",
"                    .-;,%92O3-&&,&+-,-o3+:-o                    ",
"                    .$+-o2o:,&&&00*%*7Oo+,;o                    ",
"                    X@,$4.$,++&&&0-%42>4--@.                    ",
"                    X;+$O4:++&++-7#1X>2<-+@.                    ",
"                    .;,-O2#$+&&,*6 9622<,-@.                    ",
"                    .--,X66o;++72  86>6%+$$o                    ",
"                    <$;&74O2#51488966445&:;O                    ",
"                    O5;--X246#<222224=X,-@54                    ",
"                    #;-$&@.2=24=2====o7+@-@<                    ",
"                    #&+;;&@.4>4224>Oo5&:@+&#                    ",
"                    #&$,;$+,*.4==O.1,+;@,$&#                    ",
"                    #&;5+@--&,$::$,&-$:+5;+#                    ",
"                    #&$$+:@:$-+++&$$:@:+;$+#                    ",
"                    #&;5,<#:@;@@@@@@:<o,5;+#                    ",
"                    #&$@,<OXOo%33%oO%O#,@$+#                    ",
"                    #&;:,%o.>      6Xo3+:;+#                    ",
"                    #&$5;o2.6 84=8 6.2.;5$+#                    ",
"                    #&-:.-5.6#1%%*#6.:$.:$+<                    ",
"                    #&$53X7.27$#o$72X5.*5;+#                    ",
"                    #&$;+%O.#%X1*.%#.O3+;$+#                    ",
"                    #&;7-#oXo.<71<.oX#o,7;+#                    ",
"                    #&$:,X<X=7@oo@7=X<X,:$+#                    ",
"                    #&;5---%6X:XX:X63---5;+<                    ",
"                    #&@575*X6 6<<6 6X*:75;+#                    ",
"                    <$$55:5X6      6%5555$$O                    ",
"                    =%1;;$;%> O44O 63;$;;*%=                    ",
"                    9=#1177%>4*%%*46%771*<=8                    ",
"                       9<3XoO.3oo3.O.X3<98                      ",
"                        >X7=#13oo3*<=7.9                        ",
"                          oo=5;<<$5=oo                          ",
"                          >%4O:##:44X9                          ",
"                           =%<<3%<#%=                           ",
"                           8%X%::%X%8                           ",
"                            2%3@:%%2                            ",
"                             O%..%4                             ",
"                              o..o                              ",
"                              >XX9                              ",
"                               66                               ",
"                                                                "
};
