/* XPM */
static char *_458d45bb9d84d3dd04a12683fe3faebh7t3UXmHiMbyxCH7[] = {
/* columns rows colors chars-per-pixel */
"64 60 167 2 ",
"   c #0D2B45",
".  c #112D46",
"X  c #122E48",
"o  c #15314A",
"O  c #1A364E",
"+  c #203750",
"@  c #253D53",
"#  c #293D54",
"$  c #2C3F58",
"%  c #264055",
"&  c #2A4356",
"*  c #2C4459",
"=  c #30465A",
"-  c #344A5D",
";  c #3B4C5E",
":  c #3C4E61",
">  c #3D5163",
",  c #3F5768",
"<  c #454E63",
"1  c #425464",
"2  c #455867",
"3  c #495967",
"4  c #425669",
"5  c #475A68",
"6  c #4B5C6B",
"7  c #515E6C",
"8  c #5A5F6F",
"9  c #4F616D",
"0  c #54616E",
"q  c #5A616F",
"w  c #4F6170",
"e  c #556471",
"r  c #5A6572",
"t  c #576873",
"y  c #5C6975",
"u  c #686F77",
"i  c #666E7A",
"p  c #696F7A",
"a  c #67717C",
"s  c #6B737D",
"d  c #6F787F",
"f  c #70757D",
"g  c #6D7680",
"h  c #6F7980",
"j  c #717981",
"k  c #969C9A",
"l  c #9B9D9C",
"z  c #9EA19E",
"x  c #A1A29F",
"c  c #9FA0A0",
"v  c #A2A4A1",
"b  c #AAA7A4",
"n  c #A6AAA5",
"m  c #ACADA7",
"M  c #AFAFA9",
"N  c #B0AFA8",
"B  c #AFB0A9",
"V  c #B4B2AB",
"C  c #B9B5AE",
"Z  c #C1BDB3",
"A  c #C8BFB5",
"S  c #C5C1B6",
"D  c #C9C3B7",
"F  c #C7C3B8",
"G  c #CFC6B9",
"H  c #CDC7BB",
"J  c #CFC7BA",
"K  c #CFC6BB",
"L  c #CDC6B9",
"P  c #CDC6BC",
"I  c #CBC4B9",
"U  c #CDC8BA",
"Y  c #CEC8BB",
"T  c #CFC8BA",
"R  c #CEC8BC",
"E  c #CEC8BB",
"W  c #D1C7BB",
"Q  c #D0C9BB",
"!  c #D0CABB",
"~  c #D0C9BC",
"^  c #D1CABD",
"/  c #D1C9BC",
"(  c #DACEC0",
")  c #DDD3C2",
"_  c #DFD3C3",
"`  c #DDD5C3",
"'  c #DBD2C5",
"]  c #DBD3C4",
"[  c #DCD3C4",
"{  c #DED4C4",
"}  c #DED5C4",
"|  c #DED4C5",
" . c #DFD5C5",
".. c #DDD5C6",
"X. c #DFD5C6",
"o. c #DFD6C7",
"O. c #DCD2C5",
"+. c #E0D4C4",
"@. c #E0D5C4",
"#. c #E0D6C4",
"$. c #E1D7C5",
"%. c #E0D6C6",
"&. c #E1D6C6",
"*. c #E1D7C6",
"=. c #E0D7C7",
"-. c #E2D6C6",
";. c #E2D7C6",
":. c #E2D7C7",
">. c #E3D7C7",
",. c #E1D6C6",
"<. c #E2D8C7",
"1. c #E3D8C7",
"2. c #E4D8C7",
"3. c #E4D8C7",
"4. c #E2D7C8",
"5. c #E2D9C9",
"6. c #E4D8C8",
"7. c #E5D8C8",
"8. c #E5D9C8",
"9. c #E4D9C9",
"0. c #E5D9C9",
"q. c #E7D9C8",
"w. c #E4DAC9",
"e. c #E6DAC8",
"r. c #E6DAC9",
"t. c #E5D9C8",
"y. c #E9DCCA",
"u. c #E8DCC9",
"i. c #F4E6D2",
"p. c #F7E9D3",
"a. c #F8E8D3",
"s. c #FAE9D3",
"d. c #F9E9D4",
"f. c #FAE9D5",
"g. c #FAEAD4",
"h. c #FBEAD4",
"j. c #FAEAD5",
"k. c #FBEAD5",
"l. c #FAEBD5",
"z. c #FBEBD5",
"x. c #FBEAD6",
"c. c #FBEBD6",
"v. c #FCEBD5",
"b. c #FDEBD5",
"n. c #FCEBD6",
"m. c #FDEBD6",
"M. c #FBECD6",
"N. c #FBECD7",
"B. c #FCECD5",
"V. c #FDECD5",
"C. c #FEECD5",
"Z. c #FDECD6",
"A. c #FCEDD6",
"S. c #FDEDD6",
"D. c #FDECD7",
"F. c #FDEDD7",
"G. c #FEECD6",
"H. c #FFECD6",
"J. c #FEEDD6",
"K. c #FFEDD6",
"L. c #FEECD7",
"P. c #FEEDD7",
"I. c #FFEDD7",
"U. c #FFEED7",
"Y. c #FEECD6",
"T. c #FFEED8",
"R. c #FFF0D9",
/* pixels */
"G.G.G.G.G.G.z.%.[ [ [ [ [ [ [ [ [ [ [ [ [ [ [ [ [ [ [ [ [ [ [ [ [ [ [ [ [ [ [ [ [ [ [ [ [ [ [ [ [ [ [ [ [ [ [ ] %.z.G.G.G.G.G.G.",
"G.s.2.%.%.%.I 1 * * * * * * * * * * * * * * * * * * * * * * * * * * * * * * * * * * * * * * * * * * * * * * * * 1 I %.%.%.9.z.G.",
"G.2.2 & & & %                                                                                                     & & & & 2 9.G.",
"G.%.&                                                                                                                     & %.G.",
"G.%.&                                                                                                                     & %.G.",
"G.%.&                                                                                                                     & %.G.",
"G.%.&                                                                                                                     & %.G.",
"G.%.&                                         @ % % % % % % % % % % % % % @                                               & %.G.",
"G.%.&                                   . @ > F %.%.%.%.%.%.%.%.%.%.%.%.%.I 1 @                                           & %.G.",
"G.%.&                                 @ 1 D 9.z.G.G.G.G.G.G.G.G.G.G.G.G.G.z.9.I 1 @                                       & %.G.",
"G.%.&                             @ 1 D 2.z.G.G.G.G.G.G.G.G.G.G.G.G.G.G.G.G.G.z.9.D 1 @                                   & %.G.",
"G.%.&                         @ : F 9.v.G.G.G.G.G.G.G.G.G.G.G.G.G.G.G.G.G.G.G.G.G.N.9.I : +                               & %.G.",
"G.%.&                       1 I 9.z.G.G.G.G.G.G.G.G.G.G.G.G.G.G.G.G.G.G.G.G.G.G.G.G.G.v.9.D ;                             & %.G.",
"G.%.&                     ; J G.G.G.G.G.G.G.G.G.G.G.G.G.G.G.G.G.G.G.G.G.G.G.G.G.G.G.G.G.G.G.J :                           & %.G.",
"G.%.&                   1 J G.G.G.G.G.G.G.G.G.G.G.G.G.G.G.G.G.G.G.G.G.G.G.G.G.G.G.G.G.G.G.G.G.P >                         & %.G.",
"G.%.&                 @ I G.G.G.G.G.G.G.G.G.G.G.G.G.G.G.G.G.G.G.G.G.G.G.G.G.G.G.G.G.G.G.G.G.G.G.U >                       & %.G.",
"z.I %                 : 9.G.G.G.G.G.G.G.G.G.G.G.G.G.G.G.G.G.G.G.G.G.G.G.G.G.G.G.G.G.G.G.G.G.G.G.G.R :                     % I z.",
"%.1                 @ F z.G.G.G.G.G.G.G.G.G.G.G.G.G.G.G.G.G.G.G.G.G.G.G.G.G.G.G.G.G.G.G.G.G.G.G.G.v.U :                     1 | ",
"[ *                 @ %.G.G.G.G.G.G.G.G.G.G.G.G.G.G.G.G.G.G.G.G.G.G.G.G.G.G.G.G.G.G.G.G.G.G.G.G.G.G.G.J ; .                 * ] ",
"[ *                 1 1.G.G.G.G.G.G.G.G.G.G.G.G.z.%.| | | | | | 1.z.G.G.G.G.G.G.G.G.G.G.G.G.G.G.G.G.G.G.I @                 * ] ",
"[ *               @ D v.G.G.G.G.G.G.G.G.G.G.G.z.J y 1 = 1 = 1 * r Q G.G.G.G.G.G.G.G.G.G.G.G.G.G.G.G.G.G.| &                 * ] ",
"[ *               & %.G.G.G.G.G.G.G.G.G.G.G.G.9.j J D 0 l 7 l 0 z d ^ G.G.G.G.G.G.G.G.G.G.G.G.G.G.G.G.G.| &                 * ] ",
"[ *               & _ G.G.G.G.G.G.G.G.G.G.G.G.z.9.z.G.^ a x s v g v a J G.G.G.G.G.G.G.G.G.G.G.G.G.G.G.G.| &                 * ] ",
"[ *               & _ G.G.G.G.G.G.G.G.G.G.G.G.G.G.G.G.z.J u z a z p l p Q z.G.G.G.G.G.G.G.G.G.G.G.G.G.G.| %                 * ] ",
"[ *               & _ G.G.G.G.G.G.G.G.G.G.G.G.G.G.G.G.G.G.Q d z d x a l e %.G.G.G.G.G.G.G.G.G.G.G.G.G.G.5.1                 * ] ",
"[ *               & _ G.G.G.G.G.G.G.G.G.G.G.G.G.G.G.G.G.G.N.J d x s x 6 * | G.G.G.G.G.z.1.| | %.v.G.G.G.G.D %               * ] ",
"[ *               & _ G.G.G.G.G.G.G.G.G.G.G.G.G.G.G.G.G.G.G.s.C d v a k > _ G.G.G.G.v.U 1 % % 1 U v.G.z.u._ &               * ] ",
"[ *               & _ G.G.G.G.G.G.G.G.G.G.G.G.G.G.G.G.G.G.G.9.j v d v 6 * | G.G.G.v.J :         1 9.v.I q Z *               * ] ",
"[ *               & _ G.G.G.G.G.G.G.G.G.G.G.G.G.G.G.G.G.G.G.i.C i v p l e %.G.G.G.9.1           * 4.2.1 # Z *               * ] ",
"[ *               & _ G.G.G.G.G.G.G.G.G.G.G.G.G.G.G.G.G.G.G.9.f z a l 6 J z.G.G.G.%.&           & 4.%.& # Z *               * ] ",
"[ *               & _ G.G.G.G.G.G.G.G.G.G.G.G.G.G.G.G.G.G.G.p.C s x : 1 2.G.G.G.G.%.&         . > 9.%.& # Z *               * ] ",
"[ *               & %.G.G.G.G.G.G.G.G.G.G.G.G.G.G.G.G.G.G.z.^ h v 0 @ D z.G.G.G.z.I @         & I G.2.1 $ Z *               * ] ",
"[ *               @ F z.G.G.G.G.G.G.G.G.G.G.z.9.z.G.G.G.v.J f v s z 0 %.G.G.G.G.%.>           * 5.G.z.I < Z &               * ] ",
"[ *                 > 9.G.G.G.G.G.G.G.G.G.G.9.d I 2.v.G.W a z 0 l e I z.G.G.G.G...@           & %.G.G.%.q m %               * ] ",
"[ *                 @ D z.G.G.G.G.G.G.G.G.G.z.J 0 8 L D 7 k : # @ & | G.G.G.G.G...@           1 9.G.G.v.J :                 * ] ",
"[ *                   ; %.G.G.G.G.G.G.G.G.G.G.G.>.J r 1 - > 1 k @ 1 %.G.G.G.G.G.1.>         + I z.G.G.G.I @                 * ] ",
"[ *                   @ D v.G.G.G.G.G.G.G.G.z.%.%._ F Z F Z V 9 = D v.G.G.G.G.G.v.U > @     : 9.G.G.v.I ;                   * ] ",
"[ *                   . 1 9.G.G.G.G.G.z.9.s.W 0 = 1 - 1 - 5 y k 1 %.T.G.G.G.G.G.G.z.%.D 1 > J G.G.z.^ e .                   * ] ",
"[ *                     @ I G.G.G.G.v.U h C s k 9 k w k - n V 7 * D G.G.G.G.G.G.G.G.T.G.2.2.z.G.G.2.r m @                   * ] ",
"[ *                     X : P z.9.p.P s z a x s v d v 0 o * t z > > I 2.v.G.G.v.%._ _ [ +.%.z.G.z.F 1 Z #                   * ] ",
"[ *                         1 V f V s c p z i l a z a l ; @ k a z ; # q I ....I 8 < < < < r 9.T.9.> * Z #                   * ] ",
"[ *                           - x i v s v s v p x a x s l # 6 v s z 7 l r 4 , t J _ _ _ _ %.z.v.I @ & Z #                   * ] ",
"[ *                             : l 0 x g b s v s x d v : & V d v s v s Q %.%.1.v.G.G.G.G.G.G.9.e X : N @                   * ] ",
"[ *                               @ X : z 0 z s v s x >   @ F J d v a V _ %.%.v.G.G.G.G.G.G.G.v.J y V 1                     * ] ",
"[ *                                     @ X ; l e z :       > 4.Q j V 1 1 4 t J %.%.2.z.G.G.G.G.p.Q F &                     * ] ",
"[ *                                           @ o & @       @ D s.u.( : F 5.I 2 1 3 r I _ %.v.T.9.5 % .                     * ] ",
"%.1                                               ; V 1 @     1 9.R.+.r I %.Z > Z 1.I 1 ; 1 F %.S @                         1 %.",
"z.I @                                           @ V i.I m +   & 5.G.z.J 1 1 2 2 D %.F 1 m = : * > o                       & D N.",
"G.%.&                                             1 I 1 @     % P N.G.| 1 F 9.J 1 1 : = m 5 m 1 m &                       & %.T.",
"G.%.&                                             1 J 1 & & .   1 2.T.1.y F 1.F : A I = ; * n 2 m &                       & %.G.",
"G.%.&                                           @ V i.%.I B @   & %.T.z.^ r 1 > # D I 1 m = - O ; X                       & %.G.",
"G.%.&                                             1 2.9.5 @     & %.R.G.z.%._ F 1 1 > * m 1 n 2 m &                       & %.G.",
"G.%.&                                             # %.9.1 # # # 1 I 5.z.G.T.G.z.1.| F 1 ; 1 m 1 m &                       & %.G.",
"G.%.&                                           X 1 9.G.%.Z Z Z V e 1 D %.5.v.G.T.T.v.2._ J e - 1 o                       & %.G.",
"G.%.&                                           @ M | %.I > & & 1 l @ @ & 1 I %.1.z.G.T.G.v.%.%.F %                       & %.G.",
"G.%.&                                           . & & & @         @ .     . @ & > I %.2.v.G.T.R.5.*                       & %.G.",
"G.%.&                                                                             @ # 1 I %.%.1.D %                       & %.G.",
"G.%.&                                                                                   & * * * & .                       & %.G.",
"G.%.&                                                                                                                     & %.G.",
"G.%.&                                                                                                                     & %.G.",
"G.%.&                                                                                                                     & %.G.",
"G.9.2 & & & % .                                                                                                   % & & & 2 2.G.",
"G.z.9.%.%.%.I 1 & * * * * * * * * * * * * * * * * * * * * * * * * * * * * * * * * * * * * * * * * * * * * * * & 1 I %.%.%.2.z.G.",
"G.G.G.G.G.G.v.%.] ] ] ] ] ] ] ] ] ] ] ] ] ] ] ] ] ] ] ] ] ] ] ] ] ] ] ] ] ] ] ] ] ] ] ] ] ] ] ] ] ] ] ] ] ] ] ] 4.z.G.G.G.G.G.G."
};
