/* XPM */
static char *b41b9d0a486747128f859baed7f11322R5Enc5S5M4ifKWkN[] = {
/* columns rows colors chars-per-pixel */
"64 64 241 2 ",
"   c #010202",
".  c #060804",
"X  c #020409",
"o  c #0B0E0E",
"O  c #03090C",
"+  c #120F0D",
"@  c #0E120D",
"#  c #0F1002",
"$  c #11120D",
"%  c #16150A",
"&  c #050C14",
"*  c #0B0E14",
"=  c #040C1C",
"-  c #0B0D1B",
";  c #020718",
":  c #130F17",
">  c #061115",
",  c #0D1215",
"<  c #0D141A",
"1  c #0E191D",
"2  c #091819",
"3  c #121415",
"4  c #151915",
"5  c #1A1B15",
"6  c #11151B",
"7  c #1C141D",
"8  c #141B1C",
"9  c #1A1D1C",
"0  c #1A1712",
"q  c #260E00",
"w  c #241B07",
"e  c #211B19",
"r  c #361A03",
"t  c #1C211D",
"y  c #15211D",
"u  c #24241D",
"i  c #2B291D",
"p  c #25261A",
"a  c #33281A",
"s  c #2E2814",
"d  c #0A0E22",
"f  c #060E22",
"g  c #051223",
"h  c #0D1323",
"j  c #0D1A23",
"k  c #0D162A",
"l  c #0C1A2B",
"z  c #05152E",
"x  c #131523",
"c  c #141C22",
"v  c #1A1D23",
"b  c #12162A",
"n  c #131A2B",
"m  c #191D2A",
"M  c #1A1626",
"N  c #0C1B33",
"B  c #0B1732",
"V  c #141D32",
"C  c #161E35",
"Z  c #100D20",
"A  c #201F25",
"S  c #0D2129",
"D  c #152123",
"F  c #1B2324",
"G  c #1E2925",
"H  c #16232A",
"J  c #1C242A",
"K  c #1F292B",
"L  c #0D213B",
"P  c #03293A",
"I  c #152333",
"U  c #1A2434",
"Y  c #14233C",
"T  c #1D2A3D",
"R  c #1C2738",
"E  c #1A303E",
"W  c #222523",
"Q  c #252A25",
"!  c #2B2C24",
"~  c #22252B",
"^  c #242B2B",
"/  c #2B2D2B",
"(  c #2A2625",
")  c #312D2A",
"_  c #322B24",
"`  c #2E3124",
"'  c #27302D",
"]  c #2C312C",
"[  c #323126",
"{  c #33342C",
"}  c #39362C",
"|  c #35392D",
" . c #3B3A2D",
".. c #393625",
"X. c #232D32",
"o. c #2A2E31",
"O. c #232C3B",
"+. c #282A39",
"@. c #243134",
"#. c #2C3333",
"$. c #2B343B",
"%. c #2D3B3D",
"&. c #293639",
"*. c #343532",
"=. c #393733",
"-. c #353A34",
";. c #3B3B34",
":. c #34363C",
">. c #353C3A",
",. c #3C3D3A",
"<. c #3B373B",
"1. c #4C3013",
"2. c #443A2C",
"3. c #423E33",
"4. c #413E3B",
"5. c #453B3A",
"6. c #553E2E",
"7. c #3D4135",
"8. c #3D423B",
"9. c #3B453C",
"0. c #3D402F",
"q. c #58422E",
"w. c #434235",
"e. c #494536",
"r. c #44443C",
"t. c #4B453A",
"y. c #45493D",
"u. c #4B493D",
"i. c #454835",
"p. c #544B3C",
"a. c #66523C",
"s. c #634B31",
"d. c #0A2442",
"f. c #082648",
"g. c #142442",
"h. c #1C2C45",
"j. c #152A47",
"k. c #1A3449",
"l. c #193D58",
"z. c #0D3652",
"x. c #222D44",
"c. c #253B43",
"v. c #2D3B42",
"b. c #283748",
"n. c #333D43",
"m. c #323C49",
"M. c #383E4A",
"N. c #293B55",
"B. c #253957",
"V. c #343D56",
"C. c #463D40",
"Z. c #1C4159",
"A. c #2A424B",
"S. c #324144",
"D. c #3C4244",
"F. c #3C454B",
"G. c #3B4A4C",
"H. c #384549",
"J. c #2A495B",
"K. c #264558",
"L. c #3E4B53",
"P. c #3B4856",
"I. c #3C5159",
"U. c #1A4F6D",
"Y. c #264864",
"T. c #2A526A",
"R. c #36576C",
"E. c #345A74",
"W. c #355977",
"Q. c #2A5274",
"!. c #3D637C",
"~. c #454543",
"^. c #4B4642",
"/. c #444944",
"(. c #4B4B44",
"). c #454A4C",
"_. c #4B4C49",
"`. c #484649",
"'. c #514C43",
"]. c #544A45",
"[. c #4F5145",
"{. c #475149",
"}. c #53544B",
"|. c #5B5A4E",
" X c #59534A",
".X c #434C54",
"XX c #414F58",
"oX c #4B545A",
"OX c #545653",
"+X c #5B5C54",
"@X c #5D5D5B",
"#X c #565954",
"$X c #645A49",
"%X c #635E54",
"&X c #655F59",
"*X c #785E43",
"=X c #5E6055",
"-X c #5F615C",
";X c #636155",
":X c #63635B",
">X c #6A655B",
",X c #6A675B",
"<X c #7D6C51",
"1X c #62614F",
"2X c #5D5F63",
"3X c #625E61",
"4X c #5D6162",
"5X c #5A6569",
"6X c #596570",
"7X c #636462",
"8X c #696A61",
"9X c #666969",
"0X c #727166",
"qX c #7C756B",
"wX c #77776C",
"eX c #797975",
"rX c #6C6F6F",
"tX c #85613D",
"yX c #846B4D",
"uX c #837B72",
"iX c #7E8274",
"pX c #3E6281",
"aX c #2C6B8E",
"sX c #466B86",
"dX c #4E738C",
"fX c #467189",
"gX c #52758C",
"hX c #55788A",
"jX c #4E7392",
"kX c #4C7998",
"lX c #527593",
"zX c #547993",
"xX c #587D9A",
"cX c #5F849F",
"vX c #6A8EA8",
"bX c #6E91AB",
"nX c #7296B0",
"mX c #4D8DB1",
"MX c #659DC1",
"NX c #66AAD1",
"BX c #96D8FB",
/* pixels */
"    X     X                                                         X                   X     X             X                   ",
"  3 3 , , 6 , 6 , , * 8 < , < , 6 , , 3 3 , 3 , 3 , 8 , 6 6 * < < < , , , 3 3 3 , 3 6 , < , , 2 , , 6 6 , , * , 6 3 , O 6 3 3   ",
"X * 6 < 6 & 6 , * c & * , 1 & 1 * 6 - 6 < < * 8 < & < & < < < 1 < > > 8 , , , 6 , 3 , * < < 8 1 6 < * < < < 6 6 , 6 6 6 < , <   ",
"  c c 8 c 8 6 c , J c D H H , c H 1 J j K c H c H K c K J c v c F G D 8 8 8 9 9 9 8 J v v c 6 , 6 , c c J F 1 < c 9 < c c J c   ",
"  v J o.< ^ ^ J ~ , F ^ F F c F ^ , 9 F c X.~ 6 ^ o., 8 8 9 ~ ^ t 9 9 8 ~ , 8 F #.G X.D c F H X.J 6 o.8 v ^ v ^ ~ ~ J 8 F o.~   ",
"  t 9 W ^ F 9 F ^ 3 9 9 8 F F 9 F 8 9 3 F 9 v , 8 F , 4 9 W 4 9 u $ 5 9 Q , 9 ~ ~ 8 F 8 9 F 9 F 8 4 t 4 t W ^ t t t Q 9 F 5 W   ",
". { `  .y.! | | u ;.-.! ! | ! $ Q -.W t Q 4 Q 4 / -.! Q ;.| ! ! *.{ ,./ Q / -.t 8.{ { u p i { [  .{ p ` ` { y.`  .[ !  .r.` [   ",
"  8X(.+X=X}.+X8X(.8X:X+X(.}.(.u -XOX_.8._.Q -XW _.@X_.(.0X;X:X%X;X'.%X&X(._.:X_.#X-X#X(.,.r.,X,X8X|.|.=X[.;X X[.=X:Xu.,X8X|.(.  ",
"  3 6 * 3 3 3 * 6 , , * 6 , 3 , , , , , 3 3 * 6 6 * 4 o 4 3 @ t.$Xa.$X$Xs # $ 3 3 , 6 < < < < , , 3 , 6 3 * 6 , 3 , 3 3 3 3 6   ",
"X , < 6 < < < 6 < 6 x < < < < < , , < , < 6 * 6 < 6 , 6 4 o 3 5 s r p...% % $ 3 , 1 , 1 , = j , < < < < < 6 6 , * 6 < < 6 < 6   ",
"  , < D 1 < < c , c 1 c > c 2 1 c D 1 c c 1 H c c 2 < < < 8 8 , p i i u 5 3 , , 6 1 H 1 c 1 c c 8 8 8 < 8 c c 8 , c < 8 8 8 1   ",
"X 8 F G D D J G J G K F J D J c J H J H F D ^ F J G D J J G G , W ;././ F F F F D c J F K D J J G K D D G G G G J J G J F J D X ",
"  F ~ F F G X.G ^ ^ F @.c ~ D G F D ' G G ~ F F ^ 8 G F 9 G 9 , 5 (.`.9 8 ^ F c ^ ^ c ^ K G G ^ K ^ F G J 9 F F X.F ^ ^ F ^ F   ",
"  / *.^ ^ ' #.F #.^ ^ #.~ ^ ^ ' ~ ^ ^ ' ' F #.' ' ' ^ *.^ ^ #., /.,.#X_., ~ &.^ >.~ #.G ^ ' F #.^ ^ ~ #.' W ' ' #.F #./ F #./   ",
"  ;.,.,.| -.*.] ,.-.-.,.*.-.,.,.] ,./ *.-.t 8.-.! *.,.,.,.*.9 9 9 ! 5 @X4 -.-.-.,.! ,.Q { ;.u -.;.] ,.,.-.,.,.;.*.[ ,.| [ { ,.  ",
"  =.[  .! [ / -.;.! ;.u | W *.u / / ;.{ ;.! ! ;.Q ,.;.Q ,./ 3 `.4 /.-XQ -.] -.,.! ,.i ;./ *.! ) ,.Q ,.-./ ;./ ! ) ;.;.[ [ ! ;.  ",
"  ,.;.| ` p / ;.,.,.| w.u.r.*.,.>.>.(.;.} 3.[ ;.,.Q ;. .,.*.8 o.* t ;.@ ^ F *.,.}  .3.w.>.>.,.) ,.,.] ,./ ,.,.9 ! ;.;.;.! ;.<.  ",
"  *.y.[.{ ` *.~.`.^.;.{  .r._.-.9.Q | 3.t.t.! ! ,.-.,.r.r.-.W / ~ *.~.~.^ F _.r.u.t. .w.>.).r.! Q -.,.,.r./.,./ ,.(.w.u.[ ;.<.X ",
"  W | 7.-./.-.,.;.! u. .t.{ { (.7.{ u. .t.4.;.{ ,.-.Q ;.,.~ v ^ 9 >.;.,.v 8 <.;.t.e. .r.8.D.r. .! ,.,.{ ,.w.;.^.=.;.,.{ 4.;.`.  ",
"  ,.(.y.| ;.Q ;.^.(.}  .} w.}  . . .3.w.4.-.;.r.>.-.,._./.F 8 #.8 o 5 / 9 8 ,.(.3.2. .| 8.9.y. .| 4.[ } 3.}  .;.,.(.~.*.;.,.;.  ",
"  ;.,.r.8.,.] =.=.(.t.3.2. X,Xu.%X%X} { ,./.(.~.>.' ;.,.D.F o ~ ] ^ *./ ~ W :.;.} t.r.] ] -.y...u.e '.u.e.qX;Xi i ;.(.r.^.,.!   ",
". *.,.(.,.] ;.,.) (.;.0X3.+Xr.+X .u.qX{ 8./.,.(.,.*.w.;._.>.8 W Q Q ] ~.<.F >./.u.u.;.*.,./.7.` _ >X} u.w.,Xe.;X0X| (._.;.*.r.  ",
"  ! { 7.;.! ,.,.) e. X;X@Xu _.9X/.:X X,X,.8.{ e./ ,. .{ *.^ F ] ! r.-.*.,.4 W { 7. .] >.,.*.[ [ |.;X;.#X:X,.r.}.wX}.) r.4.r.}   ",
"  ,.r.8.(.;.| !  .u @X7XeXD.XX.XoXD.}.'.OX| (.e./ (.} t.r./ ~ ^ { ! / / #.4 -.;.y.y./.>.D.,.^.t.:XeX,.D.D.$.OX+X+X(.) 4.=.=.3.  ",
"  ,.,.(.w. .w. .;.r.).4XrXO.I b.E L.@X&X,. .t.w.;.] }  .t.{ 3 ^ / *.&.9 ' t ;. .y.y.*.,.,.=._ ^._.9X+.U m.R H OXr.:X}.r.^.=.4.  ",
"  ,.r.*.,.{ w.w.7.OX5XoXI.P.L g.k.R..X+X .;X..i } | t.3.;.( , >.8 ).n.8 ' t } t.;.-.,.8.~.^. X&X@Xc R x.h.x.U F _.;. X{ =.;.r.  ",
"  <.,.;.(. .i...;X#XF.b.h.k.j.f.f.K.M.`.r.e. .3.r.(.-.] ;.! 9 #.#., F G 9 / 3.5.,.).*.r.y.p 3.&X2Xn b.b.g.B.b.b oX_.:X0X{ ;.r.  ",
"  ,./ (.r.[ 0.` wX/.6XV g.B.W.f.f.d.V <.0X1XuXr.;.>.S.%.).-.9 ^ 9 J F ~ < / 5.<.$.L./.| 7.iX>Xr.< h b.g.g.B.N k c `.%X;Xe.r.;.. ",
"  (./ r.| ! r.;X+X4Xm T N.B.Y.f.d.j.x.~ (.;X} ,.;.G.K.K.F.$.*.u / 5 0 ;., ~ `.:.J.k.@.9.u 0X:XeXm R T h.B.h.Y V b / (.r.;.} (.  ",
"  (.;.;.r.r.| ;X/.4Xx.C g.j.d.B.d.g.C b _.| 7X-.] c.U.T.b.$.Q # t.;X%Xp., X.F.b.kXz.A.>.] /.;Xu m h T T h.Y z V m 6 (.0X:X;.,.. ",
". r.;./ =.;.e (.`.2Xm C g.g.L k.h.C Y f F y././ >.c.U.mXY.l ! i w $Xa.q.3 X.I.T.BXU.A.D./ 7X:X* ; = n T T N Y T n x wX(.}.w.,.  ",
"  ;.~._.;.;.) @X3Xo.m U V h.j.N h.h.Y O.9 y.-XeXn.J.aXNXY.H u w <X<XyXa.3 S c.T.NXaXJ.%.OX3X`.7 b h = O.n g g h U m @X3.eX| !   ",
"  ;.~.~.4.;./ eX<.6 m n V C B Y Y g.Y O.5 qX;X@Xn.K.aXMXT.m._ 2.1.s.q.a W I J.E.nXQ.K.v.rXeX<.~ b h = O.b l n U I m 4.uXwX/ ;.  ",
"  ! / =.,.[ / _.2X6 x b m b V C N B L b.( uX%XeXO.K.T.fXK.H + q r q r 6.5 > k.T.z.K.b.@.;.'.<.x n h d O.k h b n I U ) %XeX) ,.  ",
"  ~.;.(.;.;.| :X-X, v x n b R V k I h.x.M 3X(.+X/ &.hXP c..X+ 2.1.1.tX1.s { %.c.I.c.G.] e.;X+ v n h d O.b j n n = 6 u %Xr.4.;.  ",
". ~.w.;.;.;.{ ;X_.o v - h h R h m k b.Y O.:._.;.-.' 2 S G.v A e yXyXyX*Xw 5 G D 2 H #.w.p.%X. & = = = O.< , x h x v 0 3.(.;.,.  ",
"  / [ [ i ! u ;.#X, 6 - x h b h b V N.h.V n.~.u.[ ,.8 1 F v 3 ,.{ ..2...! 4 G D G.1 ^ ! e.u.8 b h h n v.j < n x - : ! w.:X| {   ",
"  r.w.u.{  .,.+X@X4 6 6 m n h b b V k.N h 9Xr.qXw.(.t ~ >.:.4 / {.] ) ;.*.y G.D 5XK >.{ +Xr.1 R h h V m., * m x 7 C.! u.wX .(.  ",
"  w.(.;.r. .r.8XOX3 6 - x x h k k V.N.Y X.*.'.qX} [ ' $.^ 9 / -./.8.} 4.;.Q ).F F o.o.{ OXeXb V b h R m., , m M 7 ^.[ :Xr.;.w.  ",
"  Q w.| [ { ! }.7X3 6 - x x b b B N.N.N J ~.3.t.{ -.-.' *.9 $ ,.(.,.5.^.Q 4 / / / -./ / (.@Xh k h h I m., * m - 7 _ ! y.[.! ;.. ",
"  ;.-.;.;.;.! (.#X* 6 6 x b h k N B.B.Y m @Xt.qX! 7.,.,.>./ 9 ,.:Xi 2. Xr.5 ;.;.{ ) ,.{ t.^.- J b - R m., 6 n x e ( ! (.}.;.;.  ",
"  -.r._.;.| =.}.7X* : x x b b k z B.h.N j 7X X3.;.7.9.*.-.-.9 / }. X X'.,.W { r.;.;.,.! 3. X3 x v - R m.1 , x d : 5.5 wX[.,.!   ",
"  ,.;.~.;.| [ -.@X3 6 x h b n k N L z l X.@X'.p.[ ] *.(.8.t 3 ^ (.! ,.~.#.D >.*.,.r.,.i |.t.eX7 m x k m.& , h x M 7 { ;.(.,.{   ",
"  -.,.~.;.| W ,.`.6 x x n U V V B z N R n./.>X%X,./.,.~.8.W F ' /.| ,.>.' y *./././.-.-.w.%X@Xv & = = m.j b k x - 3 / (.8.r.;.  ",
"  W / r.;.! W r.4X8 6 b n b n n B B n J ^ +X%XqX! ,.,./ Q 9 , t r.w. .;.*.y 4 p { 8.W Q y.:X* m n h d n j h C b m.$.8 @X8X,.Q   ",
"  ,./.,.(.,.Q :XeX8 b n.m.O.b.T x.V.b X.] =Xt.;X,./.`.~.r.t < >.u. .e.,.>.t ;.w.(.~.).F :X@X< J h = d k b l U l z = / (.*.-.~.  ",
"  ,.*.r./.| +X/.7X3 & < j = g g h d m < / (.t.2././.,.;.,.t F &.9 4 9 9 $.9 ,.{ t.4.>.^ r._.J h n b d h f l k k N g o.r.`./ r.  ",
"  u ;.! | ] u ,./ 6 < ; < = = = h h - O 9 ! _  .! Q ;./ Q 4 , #./.,./ ).$., u ,.;.4.Q W ,./ 6 = x h m V O.O.x.x.h.O.9 ! ,./ Q   ",
"  ,. . .(.;.:X~.^.6 6 6 - x ; h h x - o.Q #X'.%X! (.4.^.(.Q W W ,.{ ;.`.*.6 ,.^.,.(.-./ ~.2X6 m b h d h n k h b n < :.,._.;.r.  ",
"   .! (.*./ ~.`._.v 6 * - & x & x b 6 v / ~.wX;X . .w.~.,.,.W / ;.,.(.~./ 9 ~.,.{ [.! u 7X_.: v b x = n n n x x x v :.~.8Xr.(.  ",
". u W ;.8./ / ).:.6 ~ < c b ; m j ; 6 8 ~ -.(.=X! p Q ;.W 5 / / ,.;.,.,./ e 9 Q 7.;. .i 4.^.`.v 6 < < < x x x 6 6 3 -._.+X} !   ",
"X G.H.@.G.S.v.L.6XI l I g l N l l S S j j G.%.G.%.H.%.S.v.@.R L.G.>.n.F.n.j .XX.>.>.>.S.G.5XP.l l g k = g I g g g O.$.F.).>./.  ",
"= hXR.gXzXgXgXzXQ.jXlXpXxXW.W.jXW.lXjXdXsXE.gXT.gXfXR.dXlXgXT.dXgXR.dXzXsXlXT.E.hXR.gXhXgXW.lXQ.lXzXlXjXW.jXlXlXlXE.dXgXR.R.hX; ",
"; vXW.dXR.Z.bXsXl.W.xXsXvXsXvXpXl.T.dXcXvXW.gXgXl.vXlXxXdXY.T.l.dXZ.!.sX!.vXzXvXE.Z.K.dXT.fXW.Y.T.P bXnXW.jXdXl.bXdXbXhXJ.K.j.= ",
"X @.F.$.$.X..X$.L.n.L.D H.v.H.v.n.$.L.M.XXG.X.n.$.L..XO..X@.> v.%.G.v.v.U G.v.H.S.v.v.L.H XXO.n O.S v.n.H.$.L.O..Xv.$.n.$.).&.O ",
"  3 3 + $ Q ( $ 3 @ o Q W $ 3 3 $ 3 3 + o 4 4 3 Q / 3 6 , , 3 , @ 3 @ , ^ ~ , , o 4 @ @ 3 , 6 , 3 @ @ @ 3 @ @ ^ Q @ $ 5 $ $ $   ",
"  Q *.,./ / / ,.#.*./ / >.*.8.^ ] Q *.W / 9 ,.o / / / F F F 8 ^ ,.] *./ / ,.,.,./ / ] *.4 ,./ ,./ ,.W Q >.>.*.] / >.;.{ *.*./   ",
"X ~ 9 ^ o.F ~ 9 F ^ ^ 9 9 9 ' F F t >.9 ^ F ~ 3 ^ F 9 9 D , < ~ 9 F / / 9 F 9 ^ W W 9 >.9 9 F F t *.W Q W ^ F F ~ 8 t F t Q /   ",
"  ^ $.o.^ , J ^ o.X.#.F F F ^ F 4 9 ^ 8 9 ^ 8 ^ J ^ F F K J ^ ^ ^ #.^ ^ 9 F F #.F , ~ ^ v ~ 8 o.F #.W ~ ~ ^ J 8 F J , F ^ 8 ~   ",
"  6 v , J 6 , , c 8 F 8 < , < 8 * v < < , F < ^ < < , c J c c F < c 8 F F 9 , , 8 , c 8 1 8 c F D F 9 1 J G J , 2 1 > K F , ~   ",
"  8 J 8 8 8 , 6 J , , 6 v v < , 6 c c 6 c 6 6 c b < 6 c v c c v 1 c 1 1 1 < 8 1 1 c j c c & c , 1 1 c 2 c 2 D j 2 > c c 1 8 c X ",
"  6 * , , , , * , , 8 , , < , < 6 - 6 < 6 6 , , < < 6 * * 6 < < * 1 , , < , 1 , 1 & c , 1 < , < 2 2 < 1 2 > , 1 2 1 c & < 8 &   ",
"X , , 3 , , 6 , , , , , , 6 6 , 6 , , 6 * 8 , 3 , , , 6 6 , , 6 6 6 , 6 , 3 6 , 6 , , , < , , , , , , , , , o , , , , 3 , o 9   ",
"                      X                 X                   X         X                   X X                                   "
};
