/* XPM */
static char *b1541e418bac43d7dd5bb944986c284eI5Xt8Sclrf3yo7z5[] = {
/* columns rows colors chars-per-pixel */
"64 64 233 2 ",
"   c #623608",
".  c #693D15",
"X  c #6E451B",
"o  c #694914",
"O  c #7A5619",
"+  c #71540E",
"@  c #774D24",
"#  c #7A5126",
"$  c #7B532A",
"%  c #7E5B2B",
"&  c #785825",
"*  c #7E632C",
"=  c #7E6B43",
"-  c #805F18",
";  c #967118",
":  c #8F6D13",
">  c #A47219",
",  c #825C25",
"<  c #8B5C2D",
"1  c #81552B",
"2  c #815932",
"3  c #836322",
"4  c #84642C",
"5  c #8A632B",
"6  c #8C6B2D",
"7  c #8A6C23",
"8  c #926D2E",
"9  c #92642E",
"0  c #96722C",
"q  c #876232",
"w  c #8D6432",
"e  c #8D6C3A",
"r  c #8B6937",
"t  c #926534",
"y  c #946B33",
"u  c #996E33",
"i  c #946B3A",
"p  c #9A6D3B",
"a  c #91673C",
"s  c #8E7234",
"d  c #8D713F",
"f  c #937435",
"g  c #9B7436",
"h  c #947835",
"j  c #9C7A35",
"k  c #94743B",
"l  c #9C753B",
"z  c #977938",
"x  c #9B7B3A",
"c  c #8E732E",
"v  c #A2743D",
"b  c #A37D3E",
"n  c #A17335",
"m  c #AE7929",
"M  c #876C47",
"N  c #8D7943",
"B  c #947543",
"V  c #9B7541",
"C  c #9C7B44",
"Z  c #9B7C4B",
"A  c #98784A",
"S  c #8C7655",
"D  c #9C7D53",
"F  c #927A56",
"G  c #A27543",
"H  c #A37A44",
"J  c #A57B4D",
"K  c #AA7D4C",
"L  c #A97C43",
"P  c #AA7D53",
"I  c #A27F53",
"U  c #9E8239",
"Y  c #A7832B",
"T  c #A98639",
"R  c #B38436",
"E  c #BA8A3A",
"W  c #BC943A",
"Q  c #B48527",
"!  c #C28D3D",
"~  c #9C8146",
"^  c #9D834C",
"/  c #97864A",
"(  c #948354",
")  c #9C8354",
"_  c #9D8859",
"`  c #A48343",
"'  c #AC8243",
"]  c #A3854C",
"[  c #AC834C",
"{  c #AC8B4C",
"}  c #A68947",
"|  c #B38645",
" . c #B2854D",
".. c #B28C4C",
"X. c #B68C47",
"o. c #AD9349",
"O. c #B8944A",
"+. c #A58452",
"@. c #AC8353",
"#. c #A58A54",
"$. c #AC8C52",
"%. c #A3845A",
"&. c #A38B5A",
"*. c #AC8B5C",
"=. c #AE875C",
"-. c #B38554",
";. c #B48C54",
":. c #B2855C",
">. c #B58C5C",
",. c #BA8D5B",
"<. c #AB955B",
"1. c #A99359",
"2. c #B39253",
"3. c #BC9552",
"4. c #BD9B53",
"5. c #BC945B",
"6. c #B39A5B",
"7. c #BB9A5B",
"8. c #B79855",
"9. c #BFA352",
"0. c #998F6B",
"q. c #B78C62",
"w. c #A79367",
"e. c #AA9565",
"r. c #AB9868",
"t. c #BD9D64",
"y. c #B39D6C",
"u. c #B69965",
"i. c #AE9B76",
"p. c #B49E73",
"a. c #B29E7A",
"s. c #B99E73",
"d. c #B5A26B",
"f. c #B9A56A",
"g. c #BAA472",
"h. c #B6A47A",
"j. c #BAA67B",
"k. c #BBAB7A",
"l. c #C79549",
"z. c #C29C55",
"x. c #C49D5B",
"c. c #C79956",
"v. c #C38D43",
"b. c #C4A354",
"n. c #C5A35B",
"m. c #CAA45C",
"M. c #C6A95A",
"N. c #CDAA5A",
"B. c #CBA655",
"V. c #D1AC5D",
"C. c #CDB15E",
"Z. c #D4B25F",
"A. c #C4A14D",
"S. c #C49B62",
"D. c #C79D6A",
"F. c #C29470",
"G. c #C5A364",
"H. c #CBA364",
"J. c #CDAA62",
"K. c #C6A46A",
"L. c #CBA36C",
"P. c #CDAA6A",
"I. c #C2A967",
"U. c #D2AC63",
"Y. c #D3AC6C",
"T. c #CEB163",
"R. c #D5B364",
"E. c #D5B169",
"W. c #DAB36D",
"Q. c #DBBB69",
"!. c #C7A877",
"~. c #D5AB72",
"^. c #D7AE7B",
"/. c #C7B27A",
"(. c #DAB174",
"). c #DCB57C",
"_. c #D2B372",
"`. c #E2B878",
"'. c #BAAF89",
"]. c #CBB68A",
"[. c #DAB784",
"{. c #E3BA85",
"}. c #E5BC8B",
"|. c #BEC1A6",
" X c #D7C498",
".X c #EBC28C",
"XX c #EBC387",
"oX c #F2CA8D",
"OX c #DAC8A3",
"+X c #DDD6B7",
"@X c #D5CBB0",
"#X c #E0CCA5",
"$X c #EBD9B6",
"%X c #F1DEBC",
"&X c #E2D0A8",
"*X c #EFE1BC",
"=X c #F5E5BC",
"-X c #F8E9BB",
";X c #E9DBC7",
":X c #F3DCC5",
">X c #EBE3C3",
",X c #E6E0C6",
"<X c #F5E6C3",
"1X c #FBE6C5",
"2X c #F7E9C6",
"3X c #FAECC5",
"4X c #FAEDCA",
"5X c #F6E6CA",
"6X c #FFF3CC",
"7X c #FFF9C8",
"8X c #FDEED3",
"9X c #FFF3D4",
"0X c #FFF8D7",
"qX c #FFF5DB",
"wX c #FFFADD",
"eX c #FEFDE4",
"rX c #FEF4EC",
"tX c #F6FDEB",
"yX c #FFFEEC",
"uX c #F7F5E9",
"iX c #FDF5F3",
"pX c #F3FAF3",
"aX c #FEFDF4",
"sX c #FDF6FB",
"dX c #F6FEFC",
"fX c #FEFBFF",
"gX c #FAFFFF",
"hX c #FFFFFD",
"jX c #FEFFFD",
"kX c #FEFEFF",
"lX c #FFFFFD",
"zX c #F7F5FA",
"xX c #EEF9F3",
/* pixels */
"hXhXhXhXhXhXhXhXhXhXhXhXhXhXhXlXlXlXfXzXhXiXyXeXwXwXyXyXaXaXyXyXeXeXyXrXrXeXeXeXyXyXzXgXgXxXaXaXlXhXhXhXhXhXhXhXhXhXhXhXhXhXhXhX",
"hXhXhXhXhXhXhXhXhXhXhXhXhXhXhXlXiXlXhXfXhXlXeX+X$X%X:X:X;X;X,X>X*X<X5X:X:X:X$X$X@XeXlXhXgXdXaXtXlXhXhXhXhXhXhXhXhXhXhXhXhXhXhXhX",
"hXhXhXhXhXhXhXhXhXhXhXhXhXhXhXlXlXlXhXsXhXaX>X_ ( ^ D D F F ( ( ( ( F F S M M = S ;XaXfXhXgXlXaXlXhXhXhXhXhXhXhXhXhXhXhXhXhXhXhX",
"hXhXhXhXhXhXhXhXhXhXhXhXhXhXhXlXaXpXhXsXlXyX4X_ $.$.>.>.=.$.} } ~ ~ Z A B B B N S 8XlXfXhXhXlXaXlXhXhXhXhXhXhXhXhXhXhXhXhXhXhXhX",
"hXhXhXhXhXhXhXhXhXhXhXhXhXhXhXlXlXpXgXhXaXyX7Xu.o.O.c.c.l.X.R Y U U b H H H V C _ 8XaXsXhXfXlXlXlXhXhXhXhXhXhXhXhXhXhXhXhXhXhXhX",
"hXhXhXhXhXhXhXhXhXhXhXhXhXhXhXlXaXpXgXhXtXqX-X6.T R E E R m > ; : ; 0 g v g y s A %XrXiXfXhXlXlXlXhXhXhXhXhXhXhXhXhXhXhXhXhXhXhX",
"hXhXhXhXhXhXhXhXhXhXhXhXhXhXhXlXaXpXgXhXaXeX7XI.O.l.l.l.! E Q Q Y Y T | | ' b C &.1XyXfXfXfXlXaXlXhXhXhXhXhXhXhXhXhXhXhXhXhXhXhX",
"hXhXhXhXhXhXhXhXhXhXhXhXhXhXhXlXlXaXgXzXaXyX3X6.n.c.l.l.v.! W W W O.X.X.| | ' { ) %XrXfXfXiXlXlXlXhXhXhXhXhXhXhXhXhXhXhXhXhXhXhX",
"hXhXhXhXhXhXhXhXhXhXhXhXhXhXhXlXlXlXhXhXlXyX6Xu.8.3.c.c.X.| R E X.X. . .[ H ` } ) <XyXaXhXlXlXaXlXhXhXhXhXhXhXhXhXhXhXhXhXhXhXhX",
"hXhXhXhXhXhXhXhXhXhXhXhXhXhXhXlXlXlXhXhXlXyX9Xe.$.[  .;.5.;.....{ { ;.>.-.H k s ) 5XyXaXhXlXaXaXlXhXhXhXhXhXhXhXhXhXhXhXhXhXhXhX",
"hXhXhXhXhXhXhXhXhXhXhXhXhXhXhXlXlXlXhXhXhXaX9Xe.& 4 w w % % q k k 4 # # 1 1 O o ( <XyXaXhXaXaXaXlXhXhXhXhXhXhXhXhXhXhXhXhXhXhXhX",
"hXhXhXhXhXhXhXhXhXhXhXhXhXhXhXlXlXlXhXhXhXiX8Xw.r r a q % % d ^ ] k 2 # # % 4 * ( <XyXaXhXgXaXaXlXhXhXhXhXhXhXhXhXhXhXhXhXhXhXhX",
"hXhXhXhXhXhXhXhXhXhXhXhXhXhXhXlXlXlXhXhXhXiX8Xw.B i a a A I ^ C B Z I Z a q 4 4 ( <XyXaXhXhXaXaXlXhXhXhXhXhXhXhXhXhXhXhXhXhXhXhX",
"hXhXhXhXhXhXhXhXhXhXhXhXhXhXhXlXlXlXhXhXhXaX9Xe.B H @.:.q.=.C e B C +.=.>.@.k * ) 5XaXfXhXhXlXlXlXhXhXhXhXhXhXhXhXhXhXhXhXhXhXhX",
"hXhXhXhXhXhXhXhXhXhXhXhXhXhXhXlXlXlXhXhXlXyX9Xr.4 H ;.-.G t 5 5 6 4 q a J [ i & ) 5XaXfXhXfXhXlXhXhXhXhXhXhXhXhXhXhXhXhXhXhXhXhX",
"hXhXhXhXhXhXhXhXhXhXhXhXhXhXhXhXlXhXhXhXlXyX9Xr.r l L v t < 5 y , 4 w t t y 6 4 ) 5XaXfXhXfXhXlXhXhXhXhXhXhXhXhXhXhXhXhXhXhXhXhX",
"hXhXhXhXhXhXhXhXhXhXhXhXhXhXhXhXhXhXhXlXaXyX9Xe.r l l y 9 t y w 8 6 w w t t 5 4 _ 5XyXaXhXhXlXlXlXhXhXhXhXhXhXhXhXhXhXhXhXhXhXhX",
"hXhXhXhXhXhXhXhXhXhXhXhXhXhXhXhXhXhXhXlXaXyX9Xw.e l l u v [ -.@. .[ H i t i y 4 _ <XyXaXhXhXlXlXlXhXhXhXhXhXhXhXhXhXhXhXhXhXhXhX",
"hXhXhXhXhXhXhXhXhXhXhXhXhXhXhXhXhXhXhXlXaXyX9Xr.B l u g  .,.@.H L [ @.J p l l s &.<XyXaXhXhXlXlXlXhXhXhXhXhXhXhXhXhXhXhXhXhXhXhX",
"hXhXhXhXhXhXhXhXhXhXhXhXhXhXhXhXhXhXhXlXaXyX9Xi.) V y H ,.K < @ O 5 J :.G p g f &.<XyXaXhXhXhXhXhXhXhXhXhXhXhXhXhXhXhXhXhXhXhXhX",
"hXhXhXhXhXhXhXhXhXhXhXhXhXhXhXhXhXhXhXlXaXyXqXp.D V p -.,.t . X X o a :.K p f f 1.=XyXaXhXhXhXhXhXhXhXhXhXhXhXhXhXhXhXhXhXhXhXhX",
"hXhXhXhXhXhXhXhXhXhXhXhXhXhXhXhXhXgXhXlXaXyXqXa.Z Z H ,.,.1   # $   # P @.G b U 1.=XyXaXhXhXhXhXhXhXhXhXhXhXhXhXhXhXhXhXhXhXhXhX",
"hXhXhXhXhXhXhXhXhXhXhXhXhXhXhXhXhXgXhXlXaXyXqXh.D J G -.,.t . $ 1 . 2 :.@.H ` ` <.=XyXaXhXhXhXhXhXhXhXhXhXhXhXhXhXhXhXhXhXhXhXhX",
"hXhXhXhXhXhXhXhXhXhXhXhXhXhXhXhXhXgXhXlXaXyXqXh.%.J p K L.:.1 # @ X A F.P i j z <.-XyXaXhXhXhXhXhXhXhXhXhXhXhXhXhXhXhXhXhXhXhXhX",
"hXhXhXhXhXhXhXhXhXhXhXhXhXhXhXhXhXhXhXlXaXyXqXi.%.+.G p ,.D.P J a J s.:.J L 8 f <.=XyXlXhXhXhXhXhXhXhXhXhXhXhXhXhXhXhXhXhXhXhXhX",
"hXhXhXhXhXhXhXhXhXhXhXhXhXhXhXhXhXhXhXlXaXyXqXi.A +.V G -.,.,.:.,.>.q.P p G ` f <.=XyXlXhXhXhXhXhXhXhXhXhXhXhXhXhXhXhXhXhXhXhXhX",
"hXhXhXhXhXhXhXhXhXhXhXhXhXhXhXhXhXhXhXlXaXyXqXa.Z +.G v H K 5.>.5.-.@.J p G ` 6 e.=XyXfXhXhXhXhXhXhXhXhXhXhXhXhXhXhXhXhXhXhXhXhX",
"hXhXhXhXhXhXhXhXhXhXhXhXhXhXhXhXhXhXhXlXaXyXqXa.%.@. .L g l H H x l H G [ ;.b f r.<XyXfXhXhXhXlXhXhXhXhXhXhXhXhXhXhXhXhXhXhXhXhX",
"hXhXhXhXhXhXhXhXhXhXhXhXhXhXhXhXhXhXhXlXaXyXqXa.&.>.Y.x.' b u x j j ' H D.~.b ~ y.5XyXaXhXhXlXlXlXhXhXhXhXhXhXhXhXhXhXhXhXhXhXhX",
"hXhXhXhXhXhXhXhXhXhXhXhXhXhXhXhXhXhXhXlXaXyXqXa.D t.`.`.x...' ..T X...3.{.{.` B y.5XaXfXhXhXlXaXlXhXhXhXhXhXhXhXhXhXhXhXhXhXhXhX",
"hXhXhXhXhXhXhXhXhXhXhXhXhXhXhXhXhXhXhXlXaXyXqXa.D K.x.Y.W.z.m.z.O.b.z.Y.~.S.;.k p.5XaXfXhXhXaXaXlXhXhXhXhXhXhXhXhXhXhXhXhXhXhXhX",
"hXhXhXhXhXhXhXhXhXhXhXhXhXhXhXhXhXhXlXlXaXyXqXa.*.L.8 O.`.m.`.z.B.R.m.(.[ y L.] p.5XaXfXhXhXaXaXlXhXhXhXhXhXhXhXhXhXhXhXhXhXhXhX",
"hXhXhXhXhXhXhXhXhXhXhXhXhXhXhXhXhXhXlXaXlXaXwXh.#.K.V 5.W.J.H.P.J.n.z.).t.l 2.] y.2XaXfXhXlXlXlXlXhXhXhXhXhXhXhXhXhXhXhXhXhXhXhX",
"hXhXhXhXhXhXhXhXhXhXhXhXhXhXhXhXhXhXaXaXlXaXwXh.A K.D.~.J.Y.(.K.G.W.J.P.!.D.7.s d.2XlXfXlXlXlXlXhXhXhXhXhXhXhXhXhXhXhXhXhXhXhXhX",
"hXhXhXhXhXhXhXhXhXhXhXhXhXhXhXhXhXhXaXaXlXaX0Xh.#.K.{..XU.J.;.6 3 2.n.H.}.}.7.~ d.2XfXfXlXaXlXlXhXhXhXhXhXhXhXhXhXhXhXhXhXhXhXhX",
"hXhXhXhXhXhXhXhXhXhXhXhXhXhXhXhXhXhXaXaXlXaXwXj.+.$.^..XE.n.l y 7 j 4.Y.}.^.` x d.4XaXfXlXaXlXaXhXhXhXhXhXhXhXhXhXhXhXhXhXhXhXhX",
"hXhXhXhXhXhXhXhXhXhXhXhXhXhXhXhXhXhXaXaXlXaXwXj.<.t.{.XXm.T O l f O j H..X{.2.{ d.2XaXfXlXaXlXaXhXhXhXhXhXhXhXhXhXhXhXhXhXhXhXhX",
"hXhXhXhXhXhXhXhXhXhXhXhXhXhXhXhXhXhXaXaXlXaX0Xh.A t.[.`.U.4.8 x j 7 o.Y.{.).{ h d.2XaXfXlXaXlXlXhXhXhXhXhXhXhXhXhXhXhXhXhXhXhXhX",
"hXhXhXhXhXhXhXhXhXhXhXhXhXhXhXhXhXhXaXaXlXaX0Xh.] t.{.XXU.N.b 3 O U 4.Y.}.[.2.U d.2XaXfXlXlXlXlXhXhXhXhXhXhXhXhXhXhXhXhXhXhXhXhX",
"hXhXhXhXhXhXhXhXhXhXhXhXhXhXhXhXhXhXaXaXlXaX0Xh.~ 2.).oXm.V.P...` J.n.z..X[.} h d.2XaXfXlXlXlXlXhXhXhXhXhXhXhXhXhXhXhXhXhXhXhXhX",
"hXhXhXhXhXhXhXhXhXhXhXhXhXhXhXhXhXhXaXaXaXrX9Xh.C t.S.Y.V.V.J.G.n.M.J.m.^.D...s u.4XaXhXaXlXlXlXhXhXhXhXhXhXhXhXhXhXhXhXhXhXhXhX",
"hXhXhXhXhXhXhXhXhXhXhXhXhXhXhXhXhXhXaXaXlXaXwXj.~ } l x.U.N.z.n.n.M.N.m.L.H g x f.6XaXfXaXlXlXlXhXhXhXhXhXhXhXhXhXhXhXhXhXhXhXhX",
"hXhXhXhXhXhXhXhXhXhXhXhXhXhXhXhXhXhXlXaXlXaX9Xw.^ 2.;.H.V.N.n.Y.M.M.4.x.D.V j h <.2XaXfXaXlXlXlXhXhXhXhXhXhXhXhXhXhXhXhXhXhXhXhX",
"hXhXhXhXhXhXhXhXhXhXhXhXhXhXhXhXhXhXlXaXlXaX5X_ ] _.).Y.V.Z.E.E.T.Q.Z.E.~.~.J.x N *XaXhXaXlXlXlXhXhXhXhXhXhXhXhXhXhXhXhXhXhXhXhX",
"hXhXhXhXhXhXhXhXhXhXhXhXhXhXhXhXhXhXlXaXlXaX9Xw.^ K.).H.B.Q.W.n.9.C.R.E.5.L.P.c N %XaXhXaXlXlXlXhXhXhXhXhXhXhXhXhXhXhXhXhXhXhXhX",
"hXhXhXhXhXhXhXhXhXhXhXhXhXhXhXhXhXhXlXaXlXaXwXk.~ } ~.U.B.N.E.n.T.C.R.E.x.L.8.h e.<XiXfXaXlXlXlXhXhXhXhXhXhXhXhXhXhXhXhXhXhXhXhX",
"hXhXhXhXhXhXhXhXhXhXhXhXhXhXhXhXhXhXlXaXlXrXeX].<.z L.W.B.A.J.4.o.9.b.4.S.G.8 x /.6XiXfXhXlXlXlXhXhXhXhXhXhXhXhXhXhXhXhXhXhXhXhX",
"hXhXhXhXhXhXhXhXhXhXhXhXhXhXhXhXhXaXlXlXhXiXyXOX/.k 7.J.B.N.n.g - b.R.3.L.K.3 6./.9XaXhXhXlXaXlXhXhXhXhXhXhXhXhXhXhXhXhXhXhXhXhX",
"hXhXhXhXhXhXhXhXhXhXhXhXhXhXhXlXaXaXgXhXhXhXaXeX].6.+ b.W.n.L.p i ;.n.n.8.f <.y.<XqXaXfXfXhXhXlXhXhXhXhXhXhXhXhXhXhXhXhXhXhXhXhX",
"hXhXhXhXhXhXhXhXhXhXhXhXhXhXhXlXaXaXhXhXhXfXfXyX$Xf.o.T n.(.J < i , S.P.7.O #. XqXyXfXhXfXhXhXlXhXhXhXhXhXhXhXhXhXhXhXhXhXhXhXhX",
"hXhXhXhXhXhXhXhXhXhXhXhXhXhXhXlXaXaXhXhXhXhXlXyX0X X/.3 ` {.G < y 5 5.H.k #./.=XeXaXlXhXhXhXlXlXhXhXhXhXhXhXhXhXhXhXhXhXhXhXhXhX",
"hXhXhXhXhXhXhXhXhXhXhXhXhXhXhXlXaXlXhXhXhXhXlXyXeX3X/.B f Y.S.9   L H.{ o e.#X0XyXaXlXhXhXhXlXlXlXhXhXhXhXhXhXhXhXhXhXhXhXhXhXhX",
"hXhXhXhXhXhXhXhXhXhXhXhXhXhXhXhXlXlXhXhXhXhXlXaXeXeX&X!.Z H (.n O c.~.k #.j.9XeXyXaXfXhXhXhXlXaXlXhXhXhXhXhXhXhXhXhXhXhXhXhXhXhX",
"hXhXhXhXhXhXhXhXhXhXhXhXhXhXhXhXhXhXhXlXlXlXlXaXaXeXwX X*.5 Y.x.| H.l % g.#XwXeXaXlXhXhXhXhXaXaXlXhXhXhXhXhXhXhXhXhXhXhXhXhXhXhX",
"hXhXhXhXhXhXhXhXhXhXhXhXhXhXhXhXhXhXlXlXlXaXaXaXlXrXyX%X!.C ..E.H.Y.V +.j.0XyXaXlXgXhXhXhXlXaXlXlXhXhXhXhXhXhXhXhXhXhXhXhXhXhXhX",
"hXhXhXhXhXhXhXhXhXhXhXhXhXhXhXhXfXfXlXlXaXaXaXaXhXhXrXyX#X!.3 O.(.H e s.$XeXyXaXgXdXgXhXhXaXaXaXlXhXhXhXhXhXhXhXhXhXhXhXhXhXhXhX",
"hXhXhXhXhXhXhXhXhXhXhXhXhXhXhXhXfXhXlXaXaXaXaXgXgXhXsXrX9X].~ { P.] Z ].qXyXaXlXgXgXgXgXhXlXlXlXlXhXhXhXhXhXhXhXhXhXhXhXhXhXhXhX",
"hXhXhXhXhXhXhXhXhXhXhXhXhXhXhXhXhXhXlXaXaXaXaXgXgXhXhXaXeX$Xg.1.#.A j.1XyXaXhXhXgXgXgXgXhXlXlXlXlXhXhXhXhXhXhXhXhXhXhXhXhXhXhXhX",
"hXhXhXhXhXhXhXhXhXhXhXhXhXhXhXhXhXhXlXaXaXaXaXgXsXhXhXfXyXqX Xe.&.&.OXeXyXaXhXgXgXgXgXhXlXlXlXlXhXhXhXhXhXhXhXhXhXhXhXhXhXhXhXhX",
"hXhXhXhXhXhXhXhXhXhXhXhXhXhXhXhXhXhXlXlXaXlXaXgXhXhXhXfXaXyX>X'.r.'.>XyXiXfXhXgXgXgXhXlXlXlXhXhXhXhXhXhXhXhXhXhXhXhXhXhXhXhXhXhX",
"hXhXhXhXhXhXhXhXhXhXhXhXhXhXhXhXlXlXlXlXlXhXhXhXhXhXhXhXaXaXeX+X0.+XyXaXlXfXsXhXhXhXlXlXlXlXhXhXhXhXhXhXhXhXhXhXhXhXhXhXhXhXhXhX",
"hXhXhXhXhXhXhXhXhXhXhXhXhXhXhXlXlXaXlXlXlXhXhXhXhXfXhXhXaXlXaXuX|.eXaXpXhXhXzXhXhXlXlXlXlXlXhXhXhXhXhXhXhXhXhXhXhXhXhXhXhXhXhXhX",
"hXhXhXhXhXhXhXhXhXhXhXhXhXhXhXlXaXaXaXlXhXhXhXhXhXaXlXhXaXaXhXlXtXyXaXxXhXhXfXfXhXlXaXaXlXlXhXhXhXhXhXhXhXhXhXhXhXhXhXhXhXhXhXhX",
"hXhXhXhXhXhXhXhXhXhXhXhXhXhXhXlXaXaXaXhXhXhXhXhXhXlXlXlXhXgXgXdXaXtXaXhXhXfXhXhXhXlXaXaXaXlXhXhXhXhXhXhXhXhXhXhXhXhXhXhXhXhXhXhX"
};
