/* XPM */
static char *_c964263458d4ac6f6181d42264d64721aPcs80sfPIh2qB5[] = {
/* columns rows colors chars-per-pixel */
"64 64 246 2 ",
"   c #010202",
".  c #00020B",
"X  c #090209",
"o  c #010213",
"O  c #01021B",
"+  c #0D0B1B",
"@  c #0A0716",
"#  c #110E1E",
"$  c #13131F",
"%  c #37171B",
"&  c #350A15",
"*  c #000124",
"=  c #00012A",
"-  c #080B28",
";  c #110F20",
":  c #141323",
">  c #191625",
",  c #1C1B25",
"<  c #15152A",
"1  c #19162B",
"2  c #151A2C",
"3  c #1C1B2C",
"4  c #161A23",
"5  c #010636",
"6  c #0B133A",
"7  c #1D1D32",
"8  c #12153D",
"9  c #16193B",
"0  c #1C1D3B",
"q  c #161734",
"w  c #221E2E",
"e  c #2C1D2C",
"r  c #271927",
"t  c #351C27",
"y  c #211E33",
"u  c #2C1C32",
"i  c #211D3A",
"p  c #2B1C3A",
"a  c #321E35",
"s  c #210F27",
"d  c #1E212D",
"f  c #1E2134",
"g  c #1E233A",
"h  c #1E293A",
"j  c #23222E",
"k  c #2B282E",
"l  c #39352D",
"z  c #232234",
"x  c #2A2434",
"c  c #252935",
"v  c #2B2B34",
"b  c #25243A",
"n  c #29263A",
"m  c #26293B",
"M  c #2C2B3C",
"N  c #322D3B",
"B  c #322B34",
"V  c #2C313B",
"C  c #2C3135",
"Z  c #333335",
"A  c #33323B",
"S  c #3C3A3C",
"D  c #39373B",
"F  c #332A2A",
"G  c #461419",
"H  c #440F1A",
"J  c #67271E",
"K  c #451A25",
"L  c #5A2B35",
"P  c #433D3C",
"I  c #473A38",
"U  c #5B3339",
"Y  c #4D302F",
"T  c #7E352D",
"R  c #612D37",
"E  c #66343B",
"W  c #7B3736",
"Q  c #652D29",
"!  c #444134",
"~  c #4B4439",
"^  c #584B39",
"/  c #5C5235",
"(  c #50482B",
")  c #68562D",
"_  c #7C5D2A",
"`  c #644D37",
"'  c #67563A",
"]  c #765333",
"[  c #78632B",
"{  c #796435",
"}  c #070A42",
"|  c #0C1343",
" . c #06134D",
".. c #0C194B",
"X. c #081647",
"o. c #1B1C44",
"O. c #151A4A",
"+. c #061454",
"@. c #0B1C54",
"#. c #0C1D5C",
"$. c #081658",
"%. c #151C58",
"&. c #030E55",
"*. c #251F45",
"=. c #1D2243",
"-. c #19254D",
";. c #1D255A",
":. c #192755",
">. c #0E2258",
",. c #242443",
"<. c #292544",
"1. c #252A43",
"2. c #2D2C43",
"3. c #24254B",
"4. c #2A264B",
"5. c #252A4C",
"6. c #2C2B4B",
"7. c #312E43",
"8. c #322D4D",
"9. c #302545",
"0. c #2F3044",
"q. c #2D314B",
"w. c #333245",
"e. c #393644",
"r. c #3C3B45",
"t. c #353449",
"y. c #39364A",
"u. c #363A4C",
"i. c #3C3B4C",
"p. c #222553",
"a. c #2B2653",
"s. c #252A54",
"d. c #2B2B53",
"f. c #242A5B",
"g. c #2A2C5C",
"h. c #26265C",
"j. c #322D54",
"k. c #2C3152",
"l. c #2A315B",
"z. c #343353",
"x. c #3D3D52",
"c. c #3D3C5B",
"v. c #373558",
"b. c #041C64",
"n. c #031D6B",
"m. c #081B65",
"M. c #001E74",
"N. c #062469",
"B. c #01247B",
"V. c #062677",
"C. c #162671",
"Z. c #17357A",
"A. c #13286C",
"S. c #2A3568",
"D. c #373B64",
"F. c #2B336E",
"G. c #433C42",
"H. c #423E4D",
"J. c #493A48",
"K. c #413E53",
"L. c #483D57",
"P. c #533643",
"I. c #673745",
"U. c #413A63",
"Y. c #3E414D",
"T. c #3D4153",
"R. c #3E4059",
"E. c #394675",
"W. c #42414E",
"Q. c #4A474A",
"!. c #56554E",
"~. c #434254",
"^. c #4D4C54",
"/. c #444359",
"(. c #494857",
"). c #544C56",
"_. c #535554",
"`. c #5B5754",
"'. c #4F4F51",
"]. c #685A4C",
"[. c #635C57",
"{. c #765D54",
"}. c #686256",
"|. c #77684C",
" X c #535065",
".X c #685C62",
"XX c #6A6871",
"oX c #9B2E1B",
"OX c #98331B",
"+X c #94360C",
"@X c #A42A1D",
"#X c #A82A1A",
"$X c #A43110",
"%X c #9A2E27",
"&X c #873A29",
"*X c #9C322C",
"=X c #973227",
"-X c #833B35",
";X c #8B3A3B",
":X c #873737",
">X c #923533",
",X c #852F2E",
"<X c #A52D24",
"1X c #A82C25",
"2X c #A33325",
"3X c #A13431",
"4X c #B84F10",
"5X c #93412B",
"6X c #87692A",
"7X c #977B3A",
"8X c #8E742E",
"9X c #B55228",
"0X c #C85912",
"qX c #E87C22",
"wX c #873D42",
"eX c #8B754E",
"rX c #8B4142",
"tX c #AB892F",
"yX c #9C8235",
"uX c #C89E3A",
"iX c #C89D28",
"pX c #C8A236",
"aX c #D5AA31",
"sX c #E9BB3B",
"dX c #F5882D",
"fX c #EEC23F",
"gX c #B89652",
"hX c #AA9167",
"jX c #B8A265",
"kX c #999572",
"lX c #C89D46",
"zX c #F28C4B",
"xX c #CFAC4C",
"cX c #F29273",
"vX c #C6AA60",
"bX c #072C82",
"nX c #093485",
"mX c #4C5C98",
"MX c #565C8F",
"NX c #52608F",
"BX c #8C878C",
"VX c #B1AFBC",
"CX c #C5BEAB",
"ZX c #E09688",
"AX c #D4C394",
"SX c #D4C7A5",
/* pixels */
"h 7 b K.z z k e j , ~.z b z f f f ~.z y b z b z ~.b z z 7 b z ~.z z b b z b K.z j j j j z y z z b 7 b z b 2.0 =.,.0 b f x.f f f ",
"f b n L.b 3 j j j d ~.y z z f f z x.b b y z z z ~.7 b z b z z 2.z z 0 b y w y 3 j x j , y 3 y z z b z z z f b b g b 7 b u.c , c ",
"j z y K.0 g m z f g /.b b n x z z /.b 7 z z z z /.z z z z z z b z z y b b z : z b j , W.n 3 y n z z z j w j z z 7 b b 3 /.z w e ",
"% t a L.7 g 7 7 f g t.z p p w z z i.w z b z z z i.n z z y z b M w z b y b b 3 b j x v BX1 1 7 3 z y x j j Z j x z b w x J.r t t ",
"J J R L J.~.x./.T.T.(.x.K.K.i.W.W.i.W.H.i.H.~.i.~.K.i.i./.~.i./.i.T.K.~.i.i.x.x.i.W.W. X/.i.~.~.x.T.T.i.i.(.i.i.K.K.H.J.Y R Q J ",
"OX&X-XG t w ~.1 f f f 7 y 3 1 d j x j z : w.y b y z z z i.b w z z b y x.z b z b z z H.v y z y f g u.z z y y z z ~.3 x t % ] &X5X",
"cXcXZXG % x # n b b z z z y 3 z j w v i.x 3 z 3 z z z z i.z z z j f 7 ~.z z y z b y ~.3 n z z b z /.b z p w z z u.n z t G ZXcXcX",
"$XOX&XG t j 1 z 7 b z z x z y x x x w VXv : z z z z y n w.j z z z z b x.b z z z z n K.n y z z z y ~.z y n x y z /.z w t G &XOXoX",
"oX=X-XK e 3 7 7 b z y n y z z j x j x ~.3 3 z z x 3 z z i.z b f z f b i.z z z z y n ~.z z z z b b K.b y y x z b u.f z e K T %X@X",
"%X=XrXL e.q.x.x.w.t.t.y.y.x.x.u.w.e.A e.H.i.i.i.w.y.y.y.K.w.t.m u.u.w./.0.u.w.i.e.y.t.y.t.y.i.t.w./.w.y.y.i.w.u.T.u.t.J.L ;X%X@X",
"<X*X;XL k m b b b t.z.1.0 f b f b W.x j x x w j ~.n 7 b b b b 6.b f m f z 3 W.4 j b n b b b t.z f M f b 0 2.b b b g b e R :X2X#X",
"@X%X:XE r c y b <.<.0 1.1.g f f 3 H.j x 3 v j x e.y b 7 ,.z.<.5.6.,.f f m z $ j z M z 3 z x < n b f 0 <.,.6.<.6.g g b r I.:X2X#X",
"#X%X:XQ t , b <.4.d.o.d.3.b y z b T.z z v v z w w.z m b 4.4.d.d.3.k.g 2 b z > r j BXz b j 3 3 z z y <.3.a.a.3.<.,.1.0 e U T OX#X",
"#X%X:XE F z 2.8.a.a.O.p.6.<.n y y ~.b n x x j v w.b 7 ,.z.9 s.3.d.=.6.2.7 b > r k XXz 2.z 3 z z z b 6.d.g.a.*.6.z.q.b x U T OX$X",
"<X3X;XL e b 6.p.g.;.%.g.s.q z z b /.2.w.x M A v W.i.b b 6.5.l.s.p.k.1.- z 7 W.Q.j A M n M w.~.3 z 7 9 s.p.| - 6.b 7 z e U wX*X@X",
"1X*X:XH w f v.f... . .X.s.6.x.w b b b M i.^.XXv x z 7 4.3.p.6 O.6 s.,.6.b 3 j k v v ~.2.x j z z z T.k.s.8 8 O @ 6.1.y e H :X%X1X",
"1X%X;XH k g 6.-. .#.$. .| 5.b b x M 7.w.A Y.XXv v n b k.s.6 s.-.X.-.6.2.b b m V C v  X7.v Z v y y T.5.8 8 O . . 0 d.b e G ;X%X<X",
"#XoX,XG r m 5.f.+.$.+. .S.3.q n M e.A e.r.S D D N 2.0 3.-...X.-.X.-.4.2.c m c v D C  XH.r.k x n b v.s.s.8 O     k.s.i u G T 2X$X",
"zX+X5XG x 3.f.%.+.+.m.+.:.=.b n x v G.P P ~ P B N m ,.o.g.S.5 :.6 -.6.2.: c M A Z G.).Q..XA Z b z 0 o.p.= -     6.6 6.u K T +X0X",
"4XzX+X& s o.S.$.C.$.&.@.O.5.,.y v v l ! I ].I F j 3 0 3.s.X...@.f.-.d.<.V d j v l l .XJ.[.k j , < k.f.} MX9     q l.6.s & -XzX4X",
"qXzX&XL L.g.h.$.&.$.$.+.f.s.D.(.(._.}.|.|.|.].`.'.(.K.j.f.X.S.F.X.-.3.6.0.(._.!.}.].{.{.[.!.^.~./.,.s.O.O.* . . =.3.v.L.I.&XzXdX",
"0X9X&XE p g.h.+.%.mXF.+.X.s.6.2.w.`./ ) hX] ` ! _.C 2.<.p...X.X.6 -.5.6.m v D ~ ^ eXhX` ^ l C v b q.f.O.6  X Xo 8 d.6.u I.&X9X0X",
"4X9X&XR p o.o.MXNX@.#.mXMXo.t.M e.}.) gXgX6X' ~ _.C x <.-.E.NX-.E.E.d.<.3 A G.^ ) gXgX_ ` I D C c 1.d.s.q O O 6.=.3.4.x L T 9X0X",
"$XOX:XE u 6.s.| ..mX>.@.X.5.t.N G.].[ yXlXlX{ ^ !.A N 4.f.@.:...:...9 b 0.Z P ^ _ gXlXgX) I S v c f 8 8 O 2 * 8 O.8 0 u U -XOX$X",
"oX*X:XR a d.h.%.$.$.b.$...g.6.A P |.[ tXaXpX6X/ !.C N 6.f.@.:.X.@.@.3.2.V D P ` 6XtXiXuX_ I D M c 1.d.* . . O 8 O.g.<.u E -X%X<X",
"<X%XwXE L.d.h.$.m.b.b.m.+.f.z.).!.|.7XxXsXaX7X|.`._.(.j.;.$.@.@.@.X.q.V C ^..XeX7XpXsXiX7X].`.)./.6.3.9 .   o 6 | p.d.J.U -X%X<X",
"<X*X:XG a 3.g.$.b.b.b.$. .f.4.N I ) 6XpXfXaX8X/ ! A z o.%.$.$.#.$.X.5.M v S J.' 8XpXaXiX6X` J.7.4.4.d.9 .   . O O.h.3.B % -X%X<X",
"<X%X:XG e =.%.#.b.b.N.b.#.:.4.A I ) 6XtXsXpX6X' ! A 7.z.;.#.m.$.m.5 q 3 V A J.' 7XtXfXpX6X^ P 7.<.v.o.q .     . | O.9 r K ;X%X<X",
"<X*X:XH u 3.;.#.b.n.V.n.m.;.d.w.P ( [ vXxXuX{ ^ ~ v n j.;.@.b.N.#.= 5.2.V S Q.` 8XxXxXpX{ ^ G.7.<.6.<.O o     . o.g.d.u G ;X%X@X",
"<X*X;XH u 5.S.#.b.N.M.n.m.F.v.N P ^ { 6XxX8X{ ^ S Z 2.5.l.@.b.b.#.= z.2.m Z I ' { yXxX8X{ ~ S N n 2.1.O .     . o.s.<.a & -X*X@X",
"<X%X;XE H.5.;.#.N.V.B.V.m.;.u.Q._.}.|.eXjX7XeX[.!.^./.9 q 5 N.n.@.= 3.8.(.).`.|.eXeXvX7X|.}.`.^./.M v .     . O o.3.6.J.E -X%X<X",
"<X*X:XE u 9 O.@.N.N.B.M.m...m k V `.^ ) AX) ^ I !.j m 1.1.= b.N.@.5 8 0 b v `.( / { jX) / `.k x j b z .   . o O * =.,.s U W *X<X",
"1X*XW P.e 2.5.@.N.B.B.V.N.f.w.V C `.~ / AX) ( P '.N n 2.1.= n.V.#.= p.6.M Z '.~ ^ ' hX/ ~ B Z N b b 2..     o =.* s.5.y P.Q *X#X",
"@X=XL I x 7.6.= N.B.B.V.%.g.6.c V ^.P ~ SX( ! S ^.M y 1.2.= N.n.>.= s.5.j v ).G.~ ( kX^ Q.N v x m 2.1.o     o =.-.-.,.b J.G *X#X",
"@X=XK J.x n 2.* V.B.B.C.} 4.1.1.V ^.G.I CXI S A (.M b 0 2 = >.A.:.* 5.6.b Z ^.A I ~ CX! D x A M z 2.2.o X X o * -.p.6.b H.K >X<X",
"<X>X& L.1 7 7 = N.B.bXC.= 7 q q 2  Xx B BXF v b /.1 < 8.m O :.>.-.O =.g : 3 ~.Q.B F CXl B (.(.1 1 b m .   . o O s.p.=.7 K.& ;X*X",
">X:XP.t.z.<.2.* A.B.V.A.* n 6.u.T.u.(.H.).)./.x.x.x.x.<.b o * -.h O ,.q.u.i.~.i.H.^.!.! H./.e.i.t.w.z .     . . ,.=.6.w.w.I wX;X",
"W E a i i 8.2.* A.bXB.A.= 2.m g c m N v B N 2.6.b z 0 2.M . o o . . 1.<.z b n M w.M ^.Z N n v z z m n X       . O m m 3 z e I.W ",
"K t u y b 1.z * N.nXbXV.= m 1.g f b v N v x b g b d n z y @ . . . . 6.3.b b b M m M W.A z v z z b 2.b .       . . n 2.b z y t I.",
"e e p y g g 7 * } V.nXZ.= 0 b f f c x v x b m b c d y n n . . . . . <.4.b z f m m m /.c M z x y i 2.2.o       . . M M y z n t P.",
"> > 1 < 2 1.2.O 5 Z.nXZ.* ,.6.< 2 : $ , , i.3 2 4 4 3 n 2.o . . . o i *.q < , : 3 3 /.2 3 > : 1 1 x.1 .     . . . , # > 2 : > J.",
"~.i.~./.x.6.n O S.Z.Z.Z.* 6.<.R.x./.~.r.i.~.T.T.Y.i.x.8.*.O o . o O 6.6.c.T.Y.Y.T.T.T.~./.i.x.x.x.2.1.o . . . o o n w.~.u.Y.W.G.",
"z z 3 x.,.v.c.v.D.S.F.F.D.z.D.,.b x.z x z f b b i.b 8.v.U.j.v.x.x.z.v.v.2.z ~.d c 3 m f 7 i.7 b <.z.c.c.v.v.v.v.D.v.8.0 q.f z x ",
"z x j ~.<.d.s.3.d.4.d.s.s.5.4.4.i ~., z z z z z K.z <.<.a.j.8.<.6.6.6.,.2.b Y.x z x 1 c b 3 z z b 2.6.3.a.j.d.d.a.a.j.1.0 b 3 d ",
"y z r H.n 4.5.d.2.7.9.6.5.k.<.<.b ~.v w b y z b /.b 2.6.4.4.<.4.<.4.1.b 2.z i.z x 3 b z z 3 7 b b m 2.<.4.4.4.<.4.4.1.b z b f z ",
"b x w H.p <.o.=.7 z L.y g 0 y n b y.x j z z y b L.i i b 0 0 ,.c.,.,.7 c z 3 ~.b z z b 3 y n b y z b y n q q ,.b b b 7 3 K.y z z ",
"x.y.i.~.L.i.(.x.T.T.i.~.~.y.K.K.K./.i.i.~.K.x.K.L.L./.x.x./.x.x.c.R.Y.r.W.~.x.K.K.H.~.K.~.x.K.x./.i.~.y.K.x.K.i.i.Y.Y.~.H.K./.x.",
"7 b b 7 y n y.n f f d z 3 H.z z b 3 b j w.1 n y y b 7 > 1 f d b b g d c j z b y z n i.z b z b z 3 ~.7 n z w b z Y.j z d z n 7 L.",
"z z z n y z y y z z z w b > b z z 3 b z > y b 7 z b z z z z z z z z z 1 z z z z z y x.z b z b z b i.7 b b 7 z b Y.x d b z z f ~.",
"z y z y z z b y z z z z z > z z b z z z 1 z z b z z b z z z z z z z 3 3 z b z z z b i.b y y z z 7 /.b 3 z b 7 z x.b b 7 b f z x.",
"z z 7 z y b z z b b z b z 3 z z z b y z 1 b 3 z z z z z 7 z b b z n n > z z b 3 7 b i.z b y n z z x.b f z b 7 z x.b b 7 b z b x.",
"z z n w.w.i.i.~.y.~.y.i.y.~.~.i.i.K.~.~.i.~.K.~.K.K.i.x.~.~.i.i.x.i.2.K.~.K.2.w.w.b 3 t.M n b i.T.~.x.T.i.T.~.x./.x.y.x.t.2.7 b ",
"z 7 w.2.w.7 b z b t.w.m z 7.M 7 b y 7.7.m n M n 2.7.n n t.w.z z f w.y.z 7 7 2.t.7 b 7 t.2.w.b z z y b z b 2.w.n z z b 7.7.7.7 y ",
"b z w.t.t.y z z 3 w.t.2.b w.7.n y 3 t.t.7.z b 1 t.t.b z 2.2.z z 7 0.2.2.z b 3 f z 7 7 3 m 3 z 7 b b z y w.w.t.w.b 7 y 7 b z y z ",
"z z f 2.z b 7 z b 2.0.m 7 f 7 7 b y 7.w.w.n y 1 w.2.z 7 z b z b f w.t.b 7 b b f z b b 7 f b z f w.7.z b w.w.w.w.b z b y b 7 y z ",
"t.2.b b 7 b b b f 7 7 f z z b 2.b 7 7 7 z z y b b y b b y z b 7 7 b 7 b z b m t.0.f f z 2.z z 0.w.t.z z 7 w.t.z y z z b y z b 7.",
"w.w.z b b 7 t.z z z b f b 2.t.2.b b b b 7 b z y z z z z b M 7.b z z z z z z w.w.2.m 7 w.w.t.z 2.w.7.b b z y y z b 7.t.z z b w.w.",
"t.w.b b b w.w.0.7 b 2.w.b w.t.t.t.7 z 7 i.2.w.z b w.w.z 7 w.w.y 7 z u.2.b b 3 2.b z 3 2.w.w.7 z 3 z y y 3 y.z y 3 7.t.2.z b 2.y.",
"2.y.7 y z m t.w.z 7 t.w.z 3 w.w.7 n z b 7.7.w.y 7 w.w.7 3 y.t.y b b 2.w.z 3 z z b y b y 7.z z y z z 7 b w.2.w.b z z M y b y 2.w.",
"7 3 b z z y 3 3 y b 3 3 n b 3 7 b 7 b z 2.w.y z z 7 7 z z m b b y 7 7 3 z n 1 n z n z b z z z b b z z z z 2.b 3 b z z z z z z 3 ",
"b 3 M n z w z b b z y b y z z b 3 b 7 z 7 7 y b z b z z z n z z b z z b w z z y w y z b M z z w z 7 z z 7 b z z 7 z z b 3 b b b ",
"3 3 z w.z z M z 3 M w.b w.e.w.3 n w.z b b 7.w.z y w.w.z b 2.w.z z w.w w M > b 3 w.w.3 n > z x e.n y n w.i.z w.w.b b w.M M n w.M ",
": + 1 : o 1 3 3 z > : z ; : 1 x b > t.z m z 3 z y b 7 z M z M n 1 > 3 + 4 3 w 4 > 4 : 3 $ @ : 3 : + 1 3 : 3 > 1 M z : > o > 1 3 ",
"@ 3 w : # # y > : w 3 : w 3 : + 3 y 3 3 7 1 y + < 3 ; + 7 < z : ; 3 3 @ , # : + > : @ 3 : + > 3 3 + : 1 3 + 3 1 1 + : 3 1 > > # "
};
