/* XPM */
static char *_d1abe99572b4df38425805480c5136bQE9y2yRry5lKYC6P[] = {
/* columns rows colors chars-per-pixel */
"64 64 248 2 ",
"   c #550400",
".  c #5C0103",
"X  c #5B0A00",
"o  c #5D010C",
"O  c #560B00",
"+  c #5F0015",
"@  c #5E011B",
"#  c #630403",
"$  c #650C01",
"%  c #690D02",
"&  c #64030C",
"*  c #6A070D",
"=  c #66090B",
"-  c #6A0B0B",
";  c #710F0C",
":  c #641400",
">  c #6B1401",
",  c #6C1A01",
"<  c #6B120C",
"1  c #6E1A09",
"2  c #671607",
"3  c #721501",
"4  c #721C03",
"5  c #72150C",
"6  c #721B0A",
"7  c #791E09",
"8  c #650214",
"9  c #6A0514",
"0  c #660A14",
"q  c #6B0A12",
"w  c #65011C",
"e  c #6C031D",
"r  c #6C0A1B",
"t  c #70021D",
"y  c #720C1B",
"u  c #720816",
"i  c #6E1415",
"p  c #6D131C",
"a  c #761C15",
"s  c #73121D",
"d  c #761B1C",
"f  c #791D1D",
"g  c #751516",
"h  c #752401",
"j  c #7B2603",
"k  c #7C2C02",
"l  c #76210B",
"z  c #7A230C",
"x  c #7C2A0A",
"c  c #752902",
"v  c #7A3200",
"b  c #7B2412",
"n  c #7E231E",
"m  c #7B2717",
"M  c #6C2000",
"N  c #660123",
"B  c #6E0222",
"V  c #6E0925",
"C  c #6D012A",
"Z  c #640A24",
"A  c #710324",
"S  c #720B23",
"D  c #71022A",
"F  c #730B2A",
"G  c #790B2C",
"H  c #7A1827",
"J  c #710332",
"K  c #790735",
"L  c #750C31",
"P  c #7C2324",
"I  c #811F1B",
"U  c #832B0C",
"Y  c #842D07",
"T  c #843402",
"R  c #84340B",
"E  c #8B330D",
"W  c #8B3A0A",
"Q  c #873901",
"!  c #852C14",
"~  c #832A1C",
"^  c #84271A",
"/  c #853313",
"(  c #8A3314",
")  c #8D3B13",
"_  c #8C341B",
"`  c #8C3A1B",
"'  c #923B1C",
"]  c #933C18",
"[  c #923E0F",
"{  c #811828",
"}  c #822523",
"|  c #852B23",
" . c #892A28",
".. c #8C3323",
"X. c #8C322B",
"o. c #893D23",
"O. c #953C26",
"+. c #953929",
"@. c #8D3231",
"#. c #943A32",
"$. c #963937",
"%. c #8A2930",
"&. c #96490A",
"*. c #944313",
"=. c #994614",
"-. c #9B4C15",
";. c #95441A",
":. c #9A451C",
">. c #9E4B1C",
",. c #974C13",
"<. c #9C511C",
"1. c #9B5507",
"2. c #A14C1D",
"3. c #A45B1F",
"4. c #A85819",
"5. c #A25F00",
"6. c #A96806",
"7. c #B16B0A",
"8. c #AE7204",
"9. c #B67C00",
"0. c #B57608",
"q. c #AB631C",
"w. c #AB6515",
"e. c #B46D1B",
"r. c #B16714",
"t. c #B47313",
"y. c #B97515",
"u. c #BB7C15",
"i. c #BB741C",
"p. c #B8771B",
"a. c #AF7011",
"s. c #9A4524",
"d. c #9D4923",
"f. c #96422C",
"g. c #9B452C",
"h. c #9A4728",
"j. c #9B4634",
"k. c #8E4525",
"l. c #A24C23",
"z. c #A24B2C",
"x. c #A2462D",
"c. c #A45323",
"v. c #AA5B24",
"b. c #A5532A",
"n. c #A9552A",
"m. c #A95B2A",
"M. c #A54C37",
"N. c #AA5433",
"B. c #AD5B33",
"V. c #AB523D",
"C. c #AF5C3C",
"Z. c #A55433",
"A. c #B35B3C",
"S. c #B0563C",
"D. c #B15F25",
"F. c #AD632A",
"G. c #AD6423",
"H. c #B56D23",
"J. c #BA6E25",
"K. c #B6682A",
"L. c #BD7523",
"P. c #BD742A",
"I. c #BB7825",
"U. c #B46B32",
"Y. c #BC6C33",
"T. c #BC6E3B",
"R. c #B76537",
"E. c #BB7336",
"W. c #AE6135",
"Q. c #C37E13",
"!. c #C27C1E",
"~. c #C07F07",
"^. c #C27C25",
"/. c #C47C2B",
"(. c #C4772D",
"). c #C26D39",
"_. c #CA7E34",
"`. c #C4723C",
"'. c #C47C3C",
"]. c #CA7D3B",
"[. c #C37635",
"{. c #983A41",
"}. c #A33F47",
"|. c #9D4343",
" X c #A84C45",
".X c #AB5343",
"XX c #AC534A",
"oX c #B25B43",
"OX c #B55C4B",
"+X c #B45945",
"@X c #B85C54",
"#X c #BA6545",
"$X c #BE6950",
"%X c #C46D44",
"&X c #C46B4C",
"*X c #C47443",
"=X c #CB7D43",
"-X c #CC7A4B",
";X c #C5764A",
":X c #CB7358",
">X c #D47B57",
",X c #CB7454",
"<X c #BE8119",
"1X c #C5871A",
"2X c #D29715",
"3X c #E6AF1F",
"4X c #C58322",
"5X c #CA8425",
"6X c #CA872A",
"7X c #D28B2A",
"8X c #D79629",
"9X c #CE8434",
"0X c #CD8B32",
"qX c #CB823C",
"wX c #C98638",
"eX c #D38C33",
"rX c #D38C3C",
"tX c #D48739",
"yX c #D59334",
"uX c #D4923B",
"iX c #DB933C",
"pX c #DB9A39",
"aX c #CF9120",
"sX c #E39D3A",
"dX c #DCA32C",
"fX c #E8AA2E",
"gX c #CD8343",
"hX c #CC8249",
"jX c #D38C42",
"kX c #D2844B",
"lX c #D58A4C",
"zX c #DB8D4A",
"xX c #D48546",
"cX c #DA9543",
"vX c #DE9A44",
"bX c #D99449",
"nX c #CF8254",
"mX c #D28454",
"MX c #D88A57",
"NX c #DE9755",
"BX c #E59C48",
"VX c #E69A57",
"CX c #EAA548",
"ZX c #EFA659",
"AX c #DC8866",
"SX c #EA9C65",
"DX c #F0A764",
"FX c #ED8E8A",
/* pixels */
"B B B B B B B B B B B B B B B e 9 u y e B D D N B B A e w w e S w 9 B V C C C N B B e t S e w A B B B B B B B B B B B B B B B B ",
"B B B B B B B B B B B B B B B e u u e e B A D D B A A A A e w w r r e B N N C C B A e w t t e A B B B B B B B B B B B B B B B B ",
"B B B B B B B B B B B B B B B B t e e B B B B B B e w w e A A A w w w w B N C C B B e w w A A B B B B B B B B B B B B B B B B B ",
"B B B B B B B B B B B B B B B B B B B C D C B B A e e w B V A A e r S V S V V N B e S S A B A B B B B B B B B B B B B B B B B B ",
"B B B B B B B B B B B B B B B B C J C N C F D w w B S V B w N w 8 9 r w w w e N e 8 r S B N C C B B B B B B B B B B B B B B B B ",
"B B B B B B B B B B B B B B B B C C N w w 9 9 & & * * * 9 y H %.$.X.} d q = = - - . # q & 8 B w B B B B B B B B B B B B B B B B ",
"B B B B B B B B B B B B B B B e r 8 i | ..! U U E E U U ( O.M.oX>X-X#XN.:.( U Y E Y E ( ! .. .- e B B B B B B B B B B B B B B B ",
"B B B B B B B B B B B B B B B e 9 # ^ OX>X%XR.`.).).%X%X%X%X#XR.v.v.K.Y.T.T.).`.).Y.`.).R.:XOXa e B B B B B B B B B B B B B B B ",
"B B B B B B B B B B B B B B B e r 0 a j.z.] =.*.=.l.d.] z.! z.( [ W *.>.*.=.>.*.-.2.>.l.z.Z.+.- r B B B B B B B B B B B B B B B ",
"B B B B B B B B B B B B B B B B r 0 P M.N.:.c.v.>.l.d.s.h.4 ( > l.*.c.n.b.B.v.>.=.W >.b.` g.V.- r B B B B B B B B B B B B B B B ",
"B B B B B B B B B B B B B B B e r & a M.l.[ =.=.2.R ) Z.g.$ ( d.b.>.m.m.b.n.:.*.*.T W *.Y z.oXa 9 B B B B B B B B B B B B B B B ",
"B B B B B B B B B B B B B B B e S & a V.B.l.c.=.N.N.V.f.~ 4 ..x j k j j x / h.Z.z.b.d.l.n.S.g.$ w B B B B B B B B B B B B B B B ",
"B B B B B B B B B B B B B B B B N o H  X.XN.#XS.V.XXXX{.$.@.@.5 ~ +.b } X.X.XXXXOXOX.XV..XOX.X^ w B B B B B B B B B B B B B B B ",
"B B B B B B B B B B B B B B B B V 8 H $.! 7 _ ! ^ d H %.H . = } XXXXa < i i  .f } 5 ~ ..6 ! +.- r B B B B B B B B B B B B B B B ",
"B B B B B B B B B B B B B B B e 8 =  ..Xz.N.&XA.~ $.$.d - # % _ $X.X~ . . i f  .#....X:XS.N.S.^ 9 B B B B B B B B B B B B B B B ",
"B B B B B B B B B B B B B B B B S 9 ^ j.] ( ( . % % # % | ..~ M.m .. XX.| | . : > $ % U ' O.+. .9 B B B B B B B B B B B B B B B ",
"B B B B B B B B B B B B B B B B A G { I # $ : # $ 3 E ' A.oXM.a  .} |  X.XA.d.W ,   > 3 . - H { e B B B B B B B B B B B B B B B ",
"B B B B B B B B B B B B B B B B D D u I 4 ` C.#XN.%X>Xl.2.) X l / / , $ ` h.b.=X[.3.K.b.O.; %.9 e B B B B B B B B B B B B B B B ",
"B B B B B B B B B B B B B B B B B e 5 l.4.J.gXkX-XmX,XR > > : c.9XeXH.c : X ` nXhX]._.].`.:.N.# e B B B B B B B B B B B B B B B ",
"B B B B B B B B B B B B B B B B B 8 7 *XrX4XL.q.E.U.v.v.&.<.mXVXsX8XsXrXv.;.b.c.Y.L.r./.(.xX%X3 9 B B B B B B B B B B B B B B B ",
"B B B B B B B B B B B B B B B B J + 5 mXbXt.a.t.0X^.i.eX6XH.wX6.Q.9.8.5Xr././.I.9X9XL.e.q.SX-X7 9 B B B B B B B B B B B B B B B ",
"B B B B B B B B B B B B B B B B C 8 6 mXrX6.u.7XpX5X4Xt.0XuXjXNXrXCXeXCXeXpX7.y.5X5XyXr.e.VX=X4 9 B B B B B B B B B B B B B B B ",
"B B B B B B B B B B B B B B B B r = 4 kXuX0.1XaX6.y.pX9XbXU.b.k.j.j.R 3.H.vXyXCXt.u.1Xu.!.cX_., * B B B B B B B B B B B B B B B ",
"B B B B B B B B B B B B B B B B r - > qXpX1X1X0.vXrXgXv.)   o.O < X , k : Q e./.yXyX8.5Xu.BX'., q B B B B B B B B B B B B B B B ",
"B B B B B B B B B B B B B B B B F & h _.fX9.u.iX'.#Xf.$ 5 m   1 ;.m.lX'.F.v : W E.jXuXt.6XDXU.l 9 B B B B B B B B B B B B B B B ",
"B B B B B B B B B B B B B B B B C 8 4 _.8X~.1XrX-X4 # f d < XX;XlXZX6XrXDXm.x , h U.ZXL.w.jXhX: 9 B B B B B B B B B B B B B B B ",
"B B B B B B B B B B B B B B B C J D 7 lX5X7XrXgX4 | } H  .> M.*.I.u.5XCXL.E.` 1 6 k qXvX6Xt.wXc * B B B B B B B B B B B B B B B ",
"B B B B B B B B B B B B B B B B C w z -XL.eXjXm.3 f & }.FX+.! v.e.8.dX1XsXI.d.l 1 6 c.jX9Xp.uX, - B B B B B B B B B B B B B B B ",
"B B B B B B B B B B B B B B B e 9 # Y ].L.0XgXR < } s u - $ b W 6XdX2X3XfX8XK.j b 1 U MXzXq.[.Y 9 B B B B B B B B B B B B B B B ",
"B B B B B B B B B B B B B B B e y $ R tX^.uXgXx a * q q % ' W.G.7X1X3X3X2XQ.K.h < n / mXzX(.=Xj 9 B B B B B B B B B B B B B B B ",
"B B B B B B B B B B B B B B B B w & j tXy.yXwXR < H {.$.n.[.yX7X8XdX2XaX5XjXx a n $ j zXBXr.P.j * B B B B B B B B B B B B B B B ",
"B B B B B B B B B B B B B B B B N r h bXt.pXwX<.b i P ~ B._.CX7.0X0XyXeXcXU.oXf i b v.tX7Xi.VX4 9 B B B B B B B B B B B B B B B ",
"B B B B B B B B B B B B B B B B D   z gXp.4XvXE.h b ~ +X;X-XK.K.MX*X=X&.-.nXj.m m : [.sXy.i.kX4 9 B B B B B B B B B B B B B B B ",
"B B B B B B B B B B B B B B B B C y > 3.I.<X0XbXF.: , _ ( , # ,X_ #Xg.: N.: B.c O ;XcX5X!.rX;.< r B B B B B B B B B B B B B B B ",
"B B B B B B B B B B B B B B B B N H , F.uX1Xu.uXhXW.x $ 6 % P @.% n |.< ~ , M v U.qXvXp.L.qX%X6 9 B B B B B B B B B B B B B B B ",
"B B B B B B B B B B B B B B B B N 8 l lXpX1X1Xp.jXSXR.] _ X ~ < 4 1 % n X ) ,.q.bXwXp.6X/.ZX*Xb 9 B B B B B B B B B B B B B B B ",
"B B B B B B B B B B B B B B B B F . h lX0Xu.4XI.I.(.VXqXxX3.*.k Q Q h v.<.`.VXVX'.P.4X7X7.BX-X> 9 B B B B B B B B B B B B B B B ",
"B B B B B B B B B B B B B B B B S * 4 '.yXt.u.yXuX(.9XJ.tXiXZX9XiX9XBXzXjXVXG.=XK.bXpX6.Q.eXT.l 9 B B B B B B B B B B B B B B B ",
"B B B B B B B B B B B B B B B B N r 4 _.sX9.8.pXH.-.K.zXtX7.8XQ.Q.7Xi.9XP.xXY.*X,.P.eX1X8.BX'.> 9 B B B B B B B B B B B B B B B ",
"B B B B B B B B B B B B B B B B C 8 4 qX8X8.8.yXq.O W c.4.J.(.i.5X^.J.`.v.c.W.v O q.yX5.Q.iX'.h 9 B B B B B B B B B B B B B B B ",
"B B B B B B B B B B B B B B B B C 8 4 '.pXu.a.uXP.k d._ 7 # $ 6 c : a s . X b.&.v J.iX^.6XjX=X4 9 B B B B B B B B B B B B B B B ",
"B B B B B B B B B B B B B B B B B r l hXwX6.6XcXG.T j +.a 0 Z 0 # 1 0 N @ P s.c Q r.9XI.w.jXhX: q B B B B B B B B B B B B B B B ",
"B B B B B B B B B B B B B B B B S * $ mXbXp.e.v 3.SXA.O.< r w r #XZ.0 Z @ p f.T.DX&.T /./.bXhXx q B B B B B B B B B B B B B B B ",
"B B B B B B B B B B B B B B B B B q , kXcXp.L.1.3.mXh.O.> % f .X=XhXj.P o i f.b.`.&.1.^.i.jX'.: q B B B B B B B B B B B B B B B ",
"B B B B B B B B B B B B B B B B N r j _.aX9.<XCXT., l j.4 l.=X_.7XeX=X#Xf.~ f.j h Y.BX!.y.vXlX, q B B B B B B B B B B B B B B B ",
"B B B B B B B B B B B B B B B B C 8 4 /.8X9.6.yXU., f.g.4 n.gX/.sX8XgX;XM.7 s.:., G.9X6.y.rX'., q B B B B B B B B B B B B B B B ",
"B B B B B B B B B B B B B B B B B 8 4 gXyX8.u.yXq.T c.s.3 $ 5 C.i.6XZ.P = < ;.-.Q /.iXL./.bX'., q B B B B B B B B B B B B B B B ",
"B B B B B B B B B B B B B B B B S & > MXcX7.1Xt.iX].=Xd.$ i 8 i *XR.> . 0 b >.].tXeXe.H.H.bXE.h q B B B B B B B B B B B B B B B ",
"B B B B B B B B B B B B B B B B F 9 5 AXlXL.7.6.e.4.=.' a & w w & 5 q # = b ] -.4.e.w.(.J.NXkX> 9 B B B B B B B B B B B B B B B ",
"B B B B B B B B B B B B B B B B w 8 - OXR.[.9X_._.[.-Xz.5 q r H 8 y y ; $ 4 s.*X=X[.J.[.kXm.b.7 9 B B B B B B B B B B B B B B B ",
"B B B B B B B B B B B B B B B B B S - X.( b.`.`.Y.-X&Xs.3 $ X. X$.$.@X} $ # A.*X*XT.-X*Xb.! O.- e B B B B B B B B B B B B B B B ",
"B B B B B B B B B B B B B B B B w S & - . 4 ( U $Xj N.' 4 _ x.&X( +.@XM.+.l O.s.` #X` 4 > 5 # & e B B B B B B B B B B B B B B B ",
"B B B B B B B B B B B B B B B B w e 8 9 # = - # #.:X.X, ) l.n.T ] ' ( .Xg.b 4 $X+X..$ q & y G B B B B B B B B B B B B B B B B B ",
"B B B B B B B B B B B B B B B B A A B S S S r r 8 = @X_ $ n.VXG.k j #XAXM.1 ..j.f i . . G w + J B B B B B B B B B B B B B B B B ",
"B B B B B B B B B B B B B B B B B B B w V B w N H o f  X' X D.K.T c T.C.z b XXP . o H G D C K C C B B B B B B B B B B B B B B B ",
"B B B B B B B B B B B B B B B B B D D B C C N F + H & - OX) T j G.F.h / b @Xf . y e w B N K C J C B B B B B B B B B B B B B B B ",
"B B B B B B B B B B B B B B B B C D C C B B B B w S 8 * $.M.O.R.T.MXm.` OX$.  r r B B A D D D D B B B B B B B B B B B B B B B B ",
"B B B B B B B B B B B B B B B B D C C C B B B B S + S r . @.XXf.$XW.Z.j. .q 8 S e B B A A A D A B B B B B B B B B B B B B B B B ",
"B B B B B B B B B B B B B B B B C C C B B e e e S w S e 8 s %. X_ / f.#.- 8 S 8 e e t t t t A A B B B B B B B B B B B B B B B B ",
"B B B B B B B B B B B B B B B B C C B B e e e e w G B 8 H e o {.$.j.X.q & r S e e e t t t t t e B B B B B B B B B B B B B B B B ",
"B B B B B B B B B B B B B B B B C C B B e e t t w B D w w B w r $.@.s 8 S B w G B t e e e e e e B B B B B B B B B B B B B B B B ",
"B B B B B B B B B B B B B B B B N N B e e t A A G w D A w B e 8 & o 8 B V D D B A A e e e e B B B B B B B B B B B B B B B B B B ",
"B B B B B B B B B B B B B B B B B N B B B B A D K C C B G e & s r r F B @ C K N A A B e B N B B B B B B B B B B B B B B B B B B ",
"B B B B B B B B B B B B B B B B B N B e B B D D N K K w e S 9 9 r 8 8 D K C N D D B B B B N N B B B B B B B B B B B B B B B B B "
};
